<svg xmlns="http://www.w3.org/2000/svg" width="80" height="80"><rect fill="#16f" width="80" height="80"/><rect x="8" y="4" fill="#144DFE" width="4" height="4"/><rect x="48" y="4" fill="#144DFE" width="4" height="4"/><rect x="28" y="20" fill="#144DFE" width="4" height="4"/><rect x="68" y="20" fill="#144DFE" width="4" height="4"/><rect y="36" fill="#144DFE" width="4" height="4"/><rect x="40" y="36" fill="#144DFE" width="4" height="4"/><rect x="8" y="44" fill="#144DFE" width="4" height="4"/><rect x="48" y="44" fill="#144DFE" width="4" height="4"/><rect x="28" y="60" fill="#144DFE" width="4" height="4"/><rect x="68" y="60" fill="#144DFE" width="4" height="4"/><rect y="76" fill="#144DFE" width="4" height="4"/><rect x="40" y="76" fill="#144DFE" width="4" height="4"/><rect x="32" fill="#0690FF" width="4" height="4"/><rect x="4" y="12" fill="#0690FF" width="4" height="4"/><rect x="44" y="12" fill="#0690FF" width="4" height="4"/><rect x="12" y="28" fill="#0690FF" width="4" height="4"/><rect x="52" y="28" fill="#0690FF" width="4" height="4"/><rect x="32" y="40" fill="#0690FF" width="4" height="4"/><rect x="72" y="40" fill="#0690FF" width="4" height="4"/><rect x="4" y="52" fill="#0690FF" width="4" height="4"/><rect x="44" y="52" fill="#0690FF" width="4" height="4"/><rect x="12" y="68" fill="#0690FF" width="4" height="4"/><rect x="52" y="68" fill="#0690FF" width="4" height="4"/><polygon fill="#01ADEE" points="28,4 24,4 24,8 28,8 32,8 32,4"/><polygon fill="#01ADEE" points="20,8 16,8 16,12 20,12 24,12 24,8"/><polygon fill="#01ADEE" points="36,8 32,8 32,12 36,12 40,12 40,8"/><polygon fill="#1638FF" points="28,8 24,8 24,12 28,12 32,12 32,8"/><polygon fill="#1638FF" points="20,12 16,12 16,16 20,16 24,16 24,12"/><polygon fill="#1638FF" points="36,12 32,12 32,16 36,16 40,16 40,12"/><polygon fill="#01ADEE" points="12,16 8,16 8,20 12,20 16,20 16,16"/><polygon fill="#01ADEE" points="4,20 0,20 0,24 4,24 8,24 8,20"/><polygon fill="#01ADEE" points="20,20 16,20 16,24 20,24 24,24 24,20"/><polygon fill="#1638FF" points="12,20 8,20 8,24 12,24 16,24 16,20"/><polygon fill="#1638FF" points="4,24 0,24 0,28 4,28 8,28 8,24"/><polygon fill="#1638FF" points="20,24 16,24 16,28 20,28 24,28 24,24"/><polygon fill="#01ADEE" points="28,28 24,28 24,32 28,32 32,32 32,28"/><polygon fill="#01ADEE" points="20,32 16,32 16,36 20,36 24,36 24,32"/><polygon fill="#01ADEE" points="36,32 32,32 32,36 36,36 40,36 40,32"/><polygon fill="#1638FF" points="28,32 24,32 24,36 28,36 32,36 32,32"/><polygon fill="#1638FF" points="20,36 16,36 16,40 20,40 24,40 24,36"/><polygon fill="#1638FF" points="36,36 32,36 32,40 36,40 40,40 40,36"/><polygon fill="#01ADEE" points="68,28 64,28 64,32 68,32 72,32 72,28"/><polygon fill="#01ADEE" points="60,32 56,32 56,36 60,36 64,36 64,32"/><polygon fill="#01ADEE" points="76,32 72,32 72,36 76,36 80,36 80,32"/><polygon fill="#1638FF" points="68,32 64,32 64,36 68,36 72,36 72,32"/><polygon fill="#1638FF" points="60,36 56,36 56,40 60,40 64,40 64,36"/><polygon fill="#1638FF" points="76,36 72,36 72,40 76,40 80,40 80,36"/><polygon fill="#01ADEE" points="68,44 64,44 64,48 68,48 72,48 72,44"/><polygon fill="#01ADEE" points="60,48 56,48 56,52 60,52 64,52 64,48"/><polygon fill="#01ADEE" points="76,48 72,48 72,52 76,52 80,52 80,48"/><polygon fill="#1638FF" points="68,48 64,48 64,52 68,52 72,52 72,48"/><polygon fill="#1638FF" points="60,52 56,52 56,56 60,56 64,56 64,52"/><polygon fill="#1638FF" points="76,52 72,52 72,56 76,56 80,56 80,52"/><polygon fill="#01ADEE" points="28,44 24,44 24,48 28,48 32,48 32,44"/><polygon fill="#01ADEE" points="20,48 16,48 16,52 20,52 24,52 24,48"/><polygon fill="#01ADEE" points="36,48 32,48 32,52 36,52 40,52 40,48"/><polygon fill="#1638FF" points="28,48 24,48 24,52 28,52 32,52 32,48"/><polygon fill="#1638FF" points="20,52 16,52 16,56 20,56 24,56 24,52"/><polygon fill="#1638FF" points="36,52 32,52 32,56 36,56 40,56 40,52"/><polygon fill="#01ADEE" points="12,56 8,56 8,60 12,60 16,60 16,56"/><polygon fill="#01ADEE" points="4,60 0,60 0,64 4,64 8,64 8,60"/><polygon fill="#01ADEE" points="20,60 16,60 16,64 20,64 24,64 24,60"/><polygon fill="#1638FF" points="12,60 8,60 8,64 12,64 16,64 16,60"/><polygon fill="#1638FF" points="4,64 0,64 0,68 4,68 8,68 8,64"/><polygon fill="#1638FF" points="20,64 16,64 16,68 20,68 24,68 24,64"/><polygon fill="#01ADEE" points="52,56 48,56 48,60 52,60 56,60 56,56"/><polygon fill="#01ADEE" points="44,60 40,60 40,64 44,64 48,64 48,60"/><polygon fill="#01ADEE" points="60,60 56,60 56,64 60,64 64,64 64,60"/><polygon fill="#1638FF" points="52,60 48,60 48,64 52,64 56,64 56,60"/><polygon fill="#1638FF" points="44,64 40,64 40,68 44,68 48,68 48,64"/><polygon fill="#1638FF" points="60,64 56,64 56,68 60,68 64,68 64,64"/><polygon fill="#01ADEE" points="68,68 64,68 64,72 68,72 72,72 72,68"/><polygon fill="#01ADEE" points="60,72 56,72 56,76 60,76 64,76 64,72"/><polygon fill="#01ADEE" points="76,72 72,72 72,76 76,76 80,76 80,72"/><polygon fill="#1638FF" points="68,72 64,72 64,76 68,76 72,76 72,72"/><polygon fill="#1638FF" points="60,76 56,76 56,80 60,80 64,80 64,76"/><polygon fill="#1638FF" points="76,76 72,76 72,80 76,80 80,80 80,76"/><polygon fill="#01ADEE" points="28,68 24,68 24,72 28,72 32,72 32,68"/><polygon fill="#01ADEE" points="20,72 16,72 16,76 20,76 24,76 24,72"/><polygon fill="#01ADEE" points="36,72 32,72 32,76 36,76 40,76 40,72"/><polygon fill="#1638FF" points="28,72 24,72 24,76 28,76 32,76 32,72"/><polygon fill="#1638FF" points="20,76 16,76 16,80 20,80 24,80 24,76"/><polygon fill="#1638FF" points="36,76 32,76 32,80 36,80 40,80 40,76"/><polygon fill="#01ADEE" points="52,16 48,16 48,20 52,20 56,20 56,16"/><polygon fill="#01ADEE" points="44,20 40,20 40,24 44,24 48,24 48,20"/><polygon fill="#01ADEE" points="60,20 56,20 56,24 60,24 64,24 64,20"/><polygon fill="#1638FF" points="52,20 48,20 48,24 52,24 56,24 56,20"/><polygon fill="#1638FF" points="44,24 40,24 40,28 44,28 48,28 48,24"/><polygon fill="#1638FF" points="60,24 56,24 56,28 60,28 64,28 64,24"/><polygon fill="#01ADEE" points="60,8 56,8 56,12 60,12 64,12 64,8"/><polygon fill="#01ADEE" points="76,8 72,8 72,12 76,12 80,12 80,8"/><polygon fill="#01ADEE" points="68,4 64,4 64,8 68,8 72,8 72,4"/><polygon fill="#1638FF" points="60,12 56,12 56,16 60,16 64,16 64,12"/><polygon fill="#1638FF" points="76,12 72,12 72,16 76,16 80,16 80,12"/><polygon fill="#1638FF" points="68,8 64,8 64,12 68,12 72,12 72,8"/><rect x="72" fill="#0690FF" width="4" height="4"/></svg>