<svg xmlns="http://www.w3.org/2000/svg" width="158" height="74"><polygon fill="#08A650" points="154,52 154,50 154,48 152,48 152,46 150,46 148,46 148,44 146,44 144,44 142,44 140,44 138,44 136,44 134,44 132,44 130,44 128,44 126,44 124,44 122,44 120,44 118,44 116,44 114,44 112,44 110,44 108,44 108,46 106,46 104,46 104,48 102,48 102,50 102,52 100,52 100,54 100,56 102,56 102,58 104,58 106,58 108,58 110,58 112,58 114,58 114,56 116,56 116,54 118,54 120,54 120,56 122,56 122,58 124,58 126,58 128,58 130,58 132,58 134,58 134,56 136,56 136,54 138,54 140,54 140,56 142,56 142,58 144,58 146,58 148,58 150,58 152,58 154,58 154,56 156,56 156,54 156,52"/><polygon fill="#B89261" points="134,68 134,66 132,66 132,68 132,70 134,70"/><rect x="132" y="70" fill="#836B45" width="2" height="2"/><polygon fill="#CCB076" points="134,70 136,70 138,70 138,68 138,66 136,66 134,66 134,68"/><polygon fill="#B89261" points="136,70 134,70 134,72 136,72 138,72 138,70"/><polygon fill="#B89261" points="138,70 140,70 140,68 142,68 142,66 140,66 138,66 138,68"/><polygon fill="#836B45" points="142,68 140,68 140,70 138,70 138,72 140,72 142,72 144,72 144,70 144,68 144,66 142,66"/><rect x="132" y="60" fill="#836B45" width="2" height="2"/><polygon fill="#CCB076" points="138,60 138,58 136,58 136,60 134,60 134,62 134,64 136,64 138,64 138,62"/><rect x="132" y="62" fill="#B89261" width="2" height="2"/><polygon fill="#836B45" points="142,64 144,64 144,62 144,60 142,60 142,62"/><rect x="140" y="58" fill="#836B45" width="2" height="2"/><polygon fill="#B89261" points="140,58 138,58 138,60 138,62 138,64 140,64 142,64 142,62 142,60 140,60"/><rect x="134" y="58" fill="#836B45" width="2" height="2"/><polygon fill="#836B45" points="136,56 136,58 138,58 140,58 140,56 138,56"/><polygon fill="#010101" points="100,52 98,52 98,54 98,56 100,56 100,54"/><rect x="100" y="56" fill="#010101" width="2" height="2"/><polygon fill="#B89261" points="114,68 114,66 112,66 112,68 112,70 114,70"/><rect x="112" y="70" fill="#836B45" width="2" height="2"/><polygon fill="#CCB076" points="114,70 116,70 118,70 118,68 118,66 116,66 114,66 114,68"/><polygon fill="#B89261" points="116,70 114,70 114,72 116,72 118,72 118,70"/><polygon fill="#B89261" points="118,70 120,70 120,68 122,68 122,66 120,66 118,66 118,68"/><polygon fill="#836B45" points="122,68 120,68 120,70 118,70 118,72 120,72 122,72 124,72 124,70 124,68 124,66 122,66"/><rect x="112" y="60" fill="#836B45" width="2" height="2"/><polygon fill="#CCB076" points="118,60 118,58 116,58 116,60 114,60 114,62 114,64 116,64 118,64 118,62"/><rect x="112" y="62" fill="#B89261" width="2" height="2"/><polygon fill="#836B45" points="122,64 124,64 124,62 124,60 122,60 122,62"/><rect x="120" y="58" fill="#836B45" width="2" height="2"/><polygon fill="#B89261" points="120,58 118,58 118,60 118,62 118,64 120,64 122,64 122,62 122,60 120,60"/><rect x="114" y="58" fill="#836B45" width="2" height="2"/><polygon fill="#836B45" points="116,56 116,58 118,58 120,58 120,56 118,56"/><rect x="114" y="56" fill="#010101" width="2" height="2"/><polygon fill="#010101" points="118,54 116,54 116,56 118,56 120,56 120,54"/><rect x="120" y="56" fill="#010101" width="2" height="2"/><rect x="134" y="56" fill="#010101" width="2" height="2"/><polygon fill="#010101" points="136,54 136,56 138,56 140,56 140,54 138,54"/><rect x="140" y="56" fill="#010101" width="2" height="2"/><path fill="#010101" d="M150 58h-8v2h2v4h-12v-4h2v-2h-12v2h2v4h-12v-4h2v-2h-12v2h8v14h16v-14h4v14h16v-14h8v-2h-4zm-26 10v4h-12v-6h12v2zm20 0v4h-12v-6h12v2z"/><rect x="154" y="56" fill="#010101" width="2" height="2"/><polygon fill="#010101" points="156,52 156,54 156,56 158,56 158,54 158,52"/><polygon fill="#010101" points="154,52 156,52 156,50 156,48 154,48 154,50"/><rect x="152" y="46" fill="#010101" width="2" height="2"/><polygon fill="#010101" points="150,46 152,46 152,44 150,44 148,44 148,46"/><polygon fill="#010101" points="112,44 114,44 116,44 118,44 120,44 122,44 124,44 126,44 128,44 130,44 132,44 134,44 136,44 138,44 140,44 142,44 144,44 146,44 148,44 148,42 146,42 144,42 142,42 140,42 138,42 136,42 134,42 132,42 130,42 128,42 126,42 124,42 122,42 120,42 118,42 116,42 114,42 112,42 110,42 108,42 108,44 110,44"/><polygon fill="#87BB59" points="110,46 112,46 114,46 116,46 118,46 120,46 122,46 124,46 126,46 128,46 130,46 132,46 134,46 136,46 138,46 140,46 142,46 144,46 146,46 146,44 144,44 142,44 140,44 138,44 136,44 134,44 132,44 130,44 128,44 126,44 124,44 122,44 120,44 118,44 116,44 114,44 112,44 110,44 108,44 108,46"/><polygon fill="#87BB59" points="106,48 108,48 108,46 106,46 104,46 104,48"/><polygon fill="#87BB59" points="102,52 104,52 104,50 104,48 102,48 102,50"/><polygon fill="#87BB59" points="104,56 106,56 108,56 110,56 112,56 114,56 114,54 112,54 110,54 108,54 106,54 104,54 102,54 102,52 100,52 100,54 100,56 102,56"/><rect x="114" y="52" fill="#87BB59" width="2" height="2"/><polygon fill="#87BB59" points="120,52 120,50 118,50 116,50 116,52 118,52"/><rect x="120" y="52" fill="#87BB59" width="2" height="2"/><polygon fill="#87BB59" points="132,54 130,54 128,54 126,54 124,54 122,54 122,56 124,56 126,56 128,56 130,56 132,56 134,56 134,54"/><rect x="134" y="52" fill="#87BB59" width="2" height="2"/><polygon fill="#87BB59" points="140,52 140,50 138,50 136,50 136,52 138,52"/><rect x="140" y="52" fill="#87BB59" width="2" height="2"/><polygon fill="#87BB59" points="142,54 142,56 144,56 146,56 146,54 144,54"/><rect x="148" y="54" fill="#87BB59" width="2" height="2"/><rect x="140" y="54" fill="#078241" width="2" height="2"/><polygon fill="#078241" points="138,52 136,52 136,54 138,54 140,54 140,52"/><rect x="134" y="54" fill="#078241" width="2" height="2"/><polygon fill="#078241" points="132,56 130,56 128,56 126,56 124,56 122,56 122,58 124,58 126,58 128,58 130,58 132,58 134,58 134,56"/><rect x="120" y="54" fill="#078241" width="2" height="2"/><polygon fill="#078241" points="120,54 120,52 118,52 116,52 116,54 118,54"/><rect x="114" y="54" fill="#078241" width="2" height="2"/><polygon fill="#078241" points="106,58 108,58 110,58 112,58 114,58 114,56 112,56 110,56 108,56 106,56 104,56 102,56 102,58 104,58"/><polygon fill="#078241" points="148,46 148,48 148,50 150,50 150,48 152,48 152,46 150,46"/><rect x="146" y="50" fill="#078241" width="2" height="2"/><rect x="144" y="52" fill="#078241" width="2" height="2"/><rect x="148" y="52" fill="#078241" width="2" height="2"/><polygon fill="#078241" points="156,52 154,52 154,50 154,48 152,48 152,50 150,50 150,52 152,52 152,54 150,54 150,56 148,56 148,54 146,54 146,56 144,56 142,56 142,58 144,58 146,58 148,58 150,58 152,58 154,58 154,56 156,56 156,54"/><rect x="146" y="44" fill="#078241" width="2" height="2"/><polygon fill="#010101" points="108,46 108,44 106,44 104,44 104,46 106,46"/><rect x="102" y="46" fill="#010101" width="2" height="2"/><polygon fill="#010101" points="102,50 102,48 100,48 100,50 100,52 102,52"/><polygon fill="#F5CC40" points="70,36 70,18 68,18 68,2 42,2 42,18 44,18 44,36 42,36 42,54 44,54 44,72 70,72 70,54 68,54 68,36"/><polygon fill="#DCA22A" points="66,56 64,56 64,58 66,58 68,58 70,58 70,56 68,56"/><polygon fill="#DCA22A" points="66,62 64,62 64,64 66,64 68,64 70,64 70,62 68,62"/><polygon fill="#DCA22A" points="66,68 64,68 64,70 66,70 68,70 70,70 70,68 68,68"/><polygon fill="#BD822B" points="66,70 64,70 64,72 66,72 68,72 70,72 70,70 68,70"/><polygon fill="#BD822B" points="66,64 64,64 64,66 66,66 68,66 70,66 70,64 68,64"/><polygon fill="#BD822B" points="66,58 64,58 64,60 66,60 68,60 70,60 70,58 68,58"/><path fill="#010101" d="M70 54h-28v20h30v-20h-2zm-10 2h2v4h-4v-4h2zm-14 8v-2h6v4h-6v-2zm8 0v-2h6v4h-6v-2zm-2-8h4v4h-6v-4h2zm-8 2v-2h4v4h-4v-2zm2 14h-2v-4h4v4h-2zm8 0h-4v-4h6v4h-2zm6 0h-2v-4h4v4h-2zm10-2v2h-6v-4h6v2zm0-6v2h-6v-4h6v2zm0-6v2h-6v-4h6v2z"/><polygon fill="#FDF27F" points="48,58 48,56 46,56 44,56 44,58 46,58"/><polygon fill="#FDF27F" points="52,58 54,58 56,58 56,56 54,56 52,56 50,56 50,58"/><polygon fill="#FDF27F" points="60,58 62,58 62,56 60,56 58,56 58,58"/><polygon fill="#FDF27F" points="50,64 52,64 52,62 50,62 48,62 46,62 46,64 48,64"/><polygon fill="#FDF27F" points="58,64 60,64 60,62 58,62 56,62 54,62 54,64 56,64"/><polygon fill="#FDF27F" points="48,70 48,68 46,68 44,68 44,70 46,70"/><polygon fill="#FDF27F" points="54,70 56,70 56,68 54,68 52,68 50,68 50,70 52,70"/><polygon fill="#FDF27F" points="62,70 62,68 60,68 58,68 58,70 60,70"/><polygon fill="#DCA22A" points="66,20 64,20 64,22 66,22 68,22 70,22 70,20 68,20"/><polygon fill="#DCA22A" points="66,26 64,26 64,28 66,28 68,28 70,28 70,26 68,26"/><polygon fill="#DCA22A" points="66,32 64,32 64,34 66,34 68,34 70,34 70,32 68,32"/><polygon fill="#BD822B" points="66,34 64,34 64,36 66,36 68,36 70,36 70,34 68,34"/><polygon fill="#BD822B" points="66,28 64,28 64,30 66,30 68,30 70,30 70,28 68,28"/><polygon fill="#BD822B" points="66,22 64,22 64,24 66,24 68,24 70,24 70,22 68,22"/><path fill="#010101" d="M70 18h-28v20h30v-20h-2zm-10 2h2v4h-4v-4h2zm-14 8v-2h6v4h-6v-2zm8 0v-2h6v4h-6v-2zm-2-8h4v4h-6v-4h2zm-8 2v-2h4v4h-4v-2zm2 14h-2v-4h4v4h-2zm8 0h-4v-4h6v4h-2zm6 0h-2v-4h4v4h-2zm10-2v2h-6v-4h6v2zm0-6v2h-6v-4h6v2zm0-6v2h-6v-4h6v2z"/><polygon fill="#FDF27F" points="48,22 48,20 46,20 44,20 44,22 46,22"/><polygon fill="#FDF27F" points="52,22 54,22 56,22 56,20 54,20 52,20 50,20 50,22"/><polygon fill="#FDF27F" points="60,22 62,22 62,20 60,20 58,20 58,22"/><polygon fill="#FDF27F" points="50,28 52,28 52,26 50,26 48,26 46,26 46,28 48,28"/><polygon fill="#FDF27F" points="58,28 60,28 60,26 58,26 56,26 54,26 54,28 56,28"/><polygon fill="#FDF27F" points="48,34 48,32 46,32 44,32 44,34 46,34"/><polygon fill="#FDF27F" points="54,34 56,34 56,32 54,32 52,32 50,32 50,34 52,34"/><polygon fill="#FDF27F" points="62,34 62,32 60,32 58,32 58,34 60,34"/><path fill="#010101" d="M68 36h-28v20h30v-20h-2zm-10 2h4v4h-6v-4h2zm8 8v2h-6v-4h6v2zm-14 0v-2h6v4h-6v-2zm0-8h2v4h-4v-4h2zm-10 2v-2h6v4h-6v-2zm0 6v-2h6v4h-6v-2zm4 8h-4v-4h6v4h-2zm6 0h-2v-4h4v4h-2zm8 0h-4v-4h6v4h-2zm8-2v2h-4v-4h4v2zm0-12v2h-4v-4h4v2z"/><polygon fill="#FDF27F" points="46,40 48,40 48,38 46,38 44,38 42,38 42,40 44,40"/><polygon fill="#FDF27F" points="46,46 48,46 48,44 46,44 44,44 42,44 42,46 44,46"/><polygon fill="#FDF27F" points="46,52 48,52 48,50 46,50 44,50 42,50 42,52 44,52"/><polygon fill="#DCA22A" points="64,38 64,40 66,40 68,40 68,38 66,38"/><polygon fill="#DCA22A" points="58,40 60,40 62,40 62,38 60,38 58,38 56,38 56,40"/><polygon fill="#DCA22A" points="52,40 54,40 54,38 52,38 50,38 50,40"/><polygon fill="#DCA22A" points="62,44 60,44 60,46 62,46 64,46 66,46 66,44 64,44"/><polygon fill="#DCA22A" points="56,46 58,46 58,44 56,44 54,44 52,44 52,46 54,46"/><polygon fill="#DCA22A" points="64,50 64,52 66,52 68,52 68,50 66,50"/><polygon fill="#DCA22A" points="60,52 62,52 62,50 60,50 58,50 56,50 56,52 58,52"/><polygon fill="#DCA22A" points="54,52 54,50 52,50 50,50 50,52 52,52"/><polygon fill="#BD822B" points="64,52 64,54 66,54 68,54 68,52 66,52"/><polygon fill="#BD822B" points="60,52 58,52 56,52 56,54 58,54 60,54 62,54 62,52"/><polygon fill="#BD822B" points="52,52 50,52 50,54 52,54 54,54 54,52"/><polygon fill="#BD822B" points="62,46 60,46 60,48 62,48 64,48 66,48 66,46 64,46"/><polygon fill="#BD822B" points="56,48 58,48 58,46 56,46 54,46 52,46 52,48 54,48"/><polygon fill="#BD822B" points="64,40 64,42 66,42 68,42 68,40 66,40"/><polygon fill="#BD822B" points="58,40 56,40 56,42 58,42 60,42 62,42 62,40 60,40"/><polygon fill="#BD822B" points="50,40 50,42 52,42 54,42 54,40 52,40"/><path fill="#010101" d="M68 0h-28v20h30v-20h-2zm-10 2h4v4h-6v-4h2zm8 8v2h-6v-4h6v2zm-14 0v-2h6v4h-6v-2zm0-8h2v4h-4v-4h2zm-10 2v-2h6v4h-6v-2zm0 6v-2h6v4h-6v-2zm4 8h-4v-4h6v4h-2zm6 0h-2v-4h4v4h-2zm8 0h-4v-4h6v4h-2zm8-2v2h-4v-4h4v2zm0-12v2h-4v-4h4v2z"/><polygon fill="#FDF27F" points="46,4 48,4 48,2 46,2 44,2 42,2 42,4 44,4"/><polygon fill="#FDF27F" points="46,10 48,10 48,8 46,8 44,8 42,8 42,10 44,10"/><polygon fill="#FDF27F" points="46,16 48,16 48,14 46,14 44,14 42,14 42,16 44,16"/><polygon fill="#DCA22A" points="64,2 64,4 66,4 68,4 68,2 66,2"/><polygon fill="#DCA22A" points="58,4 60,4 62,4 62,2 60,2 58,2 56,2 56,4"/><polygon fill="#DCA22A" points="52,4 54,4 54,2 52,2 50,2 50,4"/><polygon fill="#DCA22A" points="62,8 60,8 60,10 62,10 64,10 66,10 66,8 64,8"/><polygon fill="#DCA22A" points="56,10 58,10 58,8 56,8 54,8 52,8 52,10 54,10"/><polygon fill="#DCA22A" points="64,14 64,16 66,16 68,16 68,14 66,14"/><polygon fill="#DCA22A" points="60,16 62,16 62,14 60,14 58,14 56,14 56,16 58,16"/><polygon fill="#DCA22A" points="54,16 54,14 52,14 50,14 50,16 52,16"/><polygon fill="#BD822B" points="64,16 64,18 66,18 68,18 68,16 66,16"/><polygon fill="#BD822B" points="60,16 58,16 56,16 56,18 58,18 60,18 62,18 62,16"/><polygon fill="#BD822B" points="52,16 50,16 50,18 52,18 54,18 54,16"/><polygon fill="#BD822B" points="62,10 60,10 60,12 62,12 64,12 66,12 66,10 64,10"/><polygon fill="#BD822B" points="56,12 58,12 58,10 56,10 54,10 52,10 52,12 54,12"/><polygon fill="#BD822B" points="64,4 64,6 66,6 68,6 68,4 66,4"/><polygon fill="#BD822B" points="58,4 56,4 56,6 58,6 60,6 62,6 62,4 60,4"/><polygon fill="#BD822B" points="50,4 50,6 52,6 54,6 54,4 52,4"/><rect x="10" y="62" fill="#D2D3D4" width="16" height="10"/><rect x="2" y="54" fill="#EE4136" width="32" height="6"/><polygon fill="#595A5C" points="24,62 22,62 20,62 20,64 22,64 24,64 26,64 26,62"/><polygon fill="#939598" points="18,64 20,64 20,62 18,62 16,62 16,64"/><rect x="10" y="62" fill="#939598" width="2" height="2"/><polygon fill="#595A5C" points="22,66 20,66 20,68 22,68 24,68 26,68 26,66 24,66"/><polygon fill="#939598" points="18,68 20,68 20,66 18,66 16,66 16,68"/><rect x="10" y="66" fill="#939598" width="2" height="2"/><polygon fill="#010101" points="22,64 20,64 18,64 16,64 14,64 12,64 10,64 10,66 12,66 14,66 16,66 18,66 20,66 22,66 24,66 26,66 26,64 24,64"/><rect x="8" y="66" fill="#010101" width="2" height="2"/><rect x="26" y="66" fill="#010101" width="2" height="2"/><polygon fill="#010101" points="22,68 20,68 18,68 16,68 14,68 12,68 10,68 10,70 12,70 14,70 16,70 18,70 20,70 22,70 24,70 26,70 26,68 24,68"/><polygon fill="#595A5C" points="22,70 20,70 20,72 22,72 24,72 26,72 26,70 24,70"/><polygon fill="#939598" points="18,72 20,72 20,70 18,70 16,70 16,72"/><rect x="10" y="70" fill="#939598" width="2" height="2"/><rect x="8" y="70" fill="#010101" width="2" height="2"/><rect x="26" y="70" fill="#010101" width="2" height="2"/><polygon fill="#010101" points="22,72 20,72 18,72 16,72 14,72 12,72 10,72 10,74 12,74 14,74 16,74 18,74 20,74 22,74 24,74 26,74 26,72 24,72"/><polygon fill="#010101" points="2,56 2,54 0,54 0,56 0,58 0,60 2,60 2,58"/><polygon fill="#F6892E" points="4,56 6,56 6,58 6,60 8,60 10,60 12,60 12,58 12,56 14,56 16,56 18,56 20,56 22,56 24,56 26,56 28,56 28,54 26,54 24,54 22,54 20,54 18,54 16,54 14,54 12,54 10,54 8,54 6,54 4,54 2,54 2,56"/><rect x="28" y="54" fill="#A51E22" width="2" height="2"/><rect x="30" y="54" fill="#F6892E" width="2" height="2"/><polygon fill="#A51E22" points="34,56 34,54 32,54 32,56 30,56 30,58 28,58 28,60 30,60 32,60 34,60 34,58"/><rect x="26" y="56" fill="#A51E22" width="2" height="2"/><rect x="20" y="58" fill="#A51E22" width="2" height="2"/><rect x="24" y="58" fill="#A51E22" width="2" height="2"/><polygon fill="#010101" points="6,54 8,54 10,54 12,54 14,54 16,54 18,54 20,54 22,54 24,54 26,54 28,54 30,54 32,54 34,54 34,52 32,52 30,52 28,52 26,52 24,52 22,52 20,52 18,52 16,52 14,52 12,52 10,52 8,52 6,52 4,52 2,52 2,54 4,54"/><polygon fill="#010101" points="34,54 34,56 34,58 34,60 36,60 36,58 36,56 36,54"/><polygon fill="#010101" points="30,60 28,60 26,60 24,60 22,60 20,60 18,60 16,60 14,60 12,60 10,60 8,60 6,60 4,60 2,60 2,62 4,62 6,62 8,62 8,64 10,64 10,62 12,62 14,62 16,62 18,62 20,62 22,62 24,62 26,62 26,64 28,64 28,62 30,62 32,62 34,62 34,60 32,60"/></svg>