<svg xmlns="http://www.w3.org/2000/svg" width="164" height="60"><rect x="84" y="42" fill="#939598" width="18" height="18"/><rect x="84" y="22" fill="#939598" width="18" height="18"/><rect x="84" y="2" fill="#939598" width="18" height="18"/><rect x="144" y="2" fill="#F5CC40" width="18" height="18"/><rect x="124" y="2" fill="#F5CC40" width="18" height="18"/><rect x="104" y="2" fill="#F5CC40" width="18" height="18"/><path fill="#08A650" d="M52 54v-4h-2v-2h-4v-2h-6v-2h-8v2h-6v2h-4v2h-2v2h-4v-2h-6v2h-4v2h-2v2h-2v4h52v-6h-2z"/><rect x="20" y="50" fill="#87BB59" width="2" height="2"/><polygon fill="#87BB59" points="24,50 26,50 26,48 24,48 22,48 22,50"/><polygon fill="#87BB59" points="28,48 30,48 32,48 32,46 30,46 28,46 26,46 26,48"/><polygon fill="#87BB59" points="34,46 36,46 38,46 40,46 40,44 38,44 36,44 34,44 32,44 32,46"/><polygon fill="#078241" points="42,46 42,48 44,48 44,50 46,50 46,48 46,46 44,46"/><rect x="48" y="48" fill="#078241" width="2" height="2"/><rect x="46" y="50" fill="#078241" width="2" height="2"/><rect x="44" y="52" fill="#078241" width="2" height="2"/><rect x="46" y="54" fill="#078241" width="2" height="2"/><rect x="42" y="54" fill="#078241" width="2" height="2"/><rect x="38" y="54" fill="#078241" width="2" height="2"/><polygon fill="#08A650" points="20,54 20,56 20,58 22,58 24,58 26,58 26,56 24,56 24,54 22,54 22,52 20,52"/><polygon fill="#010101" points="20,52 20,50 18,50 18,52 18,54 20,54"/><rect x="20" y="48" fill="#010101" width="2" height="2"/><polygon fill="#010101" points="26,48 26,46 24,46 22,46 22,48 24,48"/><polygon fill="#010101" points="30,46 32,46 32,44 30,44 28,44 26,44 26,46 28,46"/><polygon fill="#010101" points="36,44 38,44 40,44 40,42 38,42 36,42 34,42 32,42 32,44 34,44"/><polygon fill="#010101" points="42,46 44,46 46,46 46,44 44,44 42,44 40,44 40,46"/><polygon fill="#010101" points="48,48 50,48 50,46 48,46 46,46 46,48"/><rect x="50" y="48" fill="#010101" width="2" height="2"/><polygon fill="#010101" points="52,54 54,54 54,52 54,50 52,50 52,52"/><polygon fill="#010101" points="54,54 54,56 54,58 54,60 56,60 56,58 56,56 56,54"/><polygon fill="#010101" points="2,56 0,56 0,58 0,60 2,60 2,58"/><rect x="2" y="54" fill="#010101" width="2" height="2"/><rect x="4" y="52" fill="#010101" width="2" height="2"/><polygon fill="#010101" points="10,52 10,50 8,50 6,50 6,52 8,52"/><polygon fill="#010101" points="14,50 16,50 16,48 14,48 12,48 10,48 10,50 12,50"/><polygon fill="#010101" points="18,52 20,52 20,50 18,50 16,50 16,52"/><rect x="20" y="52" fill="#010101" width="2" height="2"/><polygon fill="#078241" points="52,54 52,52 52,50 50,50 50,52 48,52 48,54 50,54 50,56 48,56 48,58 46,58 46,56 44,56 44,58 42,58 42,56 40,56 40,58 38,58 38,56 36,56 36,58 34,58 34,56 32,56 32,58 30,58 30,56 28,56 28,54 26,54 26,52 24,52 22,52 22,54 24,54 24,56 26,56 26,58 24,58 24,56 22,56 22,54 20,54 20,56 18,56 18,58 16,58 16,56 14,56 14,58 12,58 10,58 8,58 6,58 4,58 2,58 2,60 4,60 6,60 8,60 10,60 12,60 14,60 16,60 18,60 20,60 22,60 24,60 26,60 28,60 30,60 32,60 34,60 36,60 38,60 40,60 42,60 44,60 46,60 48,60 50,60 52,60 54,60 54,58 54,56 54,54"/><rect x="22" y="54" fill="#010101" width="2" height="2"/><polygon fill="#010101" points="24,56 24,58 24,60 26,60 26,58 26,56"/><rect x="2" y="56" fill="#87BB59" width="2" height="2"/><rect x="4" y="54" fill="#87BB59" width="2" height="2"/><polygon fill="#87BB59" points="8,54 10,54 10,52 8,52 6,52 6,54"/><polygon fill="#87BB59" points="12,52 14,52 16,52 16,50 14,50 12,50 10,50 10,52"/><rect x="16" y="54" fill="#078241" width="2" height="2"/><rect x="18" y="52" fill="#078241" width="2" height="2"/><polygon fill="#010101" points="102,42 102,44 102,46 102,48 102,50 102,52 102,54 102,56 102,58 102,60 104,60 104,58 104,56 104,54 104,52 104,50 104,48 104,46 104,44 104,42"/><polygon fill="#010101" points="88,42 90,42 92,42 94,42 96,42 98,42 100,42 102,42 102,40 100,40 98,40 96,40 94,40 92,40 90,40 88,40 86,40 84,40 84,42 86,42"/><rect x="96" y="52" fill="#6E6F72" width="2" height="2"/><rect x="94" y="52" fill="#595A5C" width="2" height="2"/><polygon fill="#6E6F72" points="88,52 88,50 86,50 86,52 84,52 84,54 86,54 86,56 84,56 84,58 86,58 88,58 90,58 90,56 90,54 88,54"/><polygon fill="#595A5C" points="88,48 88,46 86,46 84,46 84,48 86,48"/><polygon fill="#595A5C" points="90,48 88,48 88,50 88,52 90,52 90,50"/><rect x="88" y="44" fill="#595A5C" width="2" height="2"/><polygon fill="#6E6F72" points="92,46 94,46 96,46 96,44 94,44 92,44 90,44 90,46"/><rect x="90" y="50" fill="#6E6F72" width="2" height="2"/><polygon fill="#595A5C" points="94,50 94,48 96,48 96,46 94,46 92,46 90,46 90,48 92,48 92,50 92,52 94,52"/><rect x="94" y="50" fill="#6E6F72" width="2" height="2"/><rect x="96" y="50" fill="#595A5C" width="2" height="2"/><rect x="96" y="48" fill="#6E6F72" width="2" height="2"/><rect x="96" y="44" fill="#595A5C" width="2" height="2"/><polygon fill="#6E6F72" points="98,46 98,48 100,48 100,46 100,44 98,44"/><rect x="98" y="50" fill="#6E6F72" width="2" height="2"/><rect x="92" y="56" fill="#6E6F72" width="2" height="2"/><rect x="100" y="42" fill="#6E6F72" width="2" height="2"/><polygon fill="#595A5C" points="102,56 102,54 102,52 102,50 102,48 102,46 102,44 100,44 100,46 100,48 98,48 98,50 100,50 100,52 98,52 98,54 96,54 96,56 98,56 98,58 96,58 96,56 94,56 94,58 92,58 92,56 94,56 94,54 92,54 92,52 90,52 90,54 90,56 90,58 88,58 86,58 84,58 84,60 86,60 88,60 90,60 92,60 94,60 96,60 98,60 100,60 102,60 102,58"/><polygon fill="#010101" points="84,56 84,54 84,52 84,50 84,48 84,46 84,44 84,42 82,42 82,44 82,46 82,48 82,50 82,52 82,54 82,56 82,58 82,60 84,60 84,58"/><polygon fill="#010101" points="98,40 96,40 94,40 92,40 90,40 88,40 86,40 84,40 84,42 86,42 88,42 90,42 92,42 94,42 96,42 98,42 100,42 102,42 102,40 100,40"/><polygon fill="#010101" points="102,22 102,24 102,26 102,28 102,30 102,32 102,34 102,36 102,38 102,40 104,40 104,38 104,36 104,34 104,32 104,30 104,28 104,26 104,24 104,22"/><polygon fill="#010101" points="88,22 90,22 92,22 94,22 96,22 98,22 100,22 102,22 102,20 100,20 98,20 96,20 94,20 92,20 90,20 88,20 86,20 84,20 84,22 86,22"/><rect x="96" y="32" fill="#6E6F72" width="2" height="2"/><rect x="94" y="32" fill="#595A5C" width="2" height="2"/><polygon fill="#6E6F72" points="88,32 88,30 86,30 86,32 84,32 84,34 86,34 86,36 84,36 84,38 86,38 88,38 90,38 90,36 90,34 88,34"/><polygon fill="#595A5C" points="88,28 88,26 86,26 84,26 84,28 86,28"/><polygon fill="#595A5C" points="90,28 88,28 88,30 88,32 90,32 90,30"/><rect x="88" y="24" fill="#595A5C" width="2" height="2"/><polygon fill="#6E6F72" points="92,26 94,26 96,26 96,24 94,24 92,24 90,24 90,26"/><rect x="90" y="30" fill="#6E6F72" width="2" height="2"/><polygon fill="#595A5C" points="94,30 94,28 96,28 96,26 94,26 92,26 90,26 90,28 92,28 92,30 92,32 94,32"/><rect x="94" y="30" fill="#6E6F72" width="2" height="2"/><rect x="96" y="30" fill="#595A5C" width="2" height="2"/><rect x="96" y="28" fill="#6E6F72" width="2" height="2"/><rect x="96" y="24" fill="#595A5C" width="2" height="2"/><polygon fill="#6E6F72" points="98,26 98,28 100,28 100,26 100,24 98,24"/><rect x="98" y="30" fill="#6E6F72" width="2" height="2"/><rect x="92" y="36" fill="#6E6F72" width="2" height="2"/><rect x="100" y="22" fill="#6E6F72" width="2" height="2"/><polygon fill="#595A5C" points="102,36 102,34 102,32 102,30 102,28 102,26 102,24 100,24 100,26 100,28 98,28 98,30 100,30 100,32 98,32 98,34 96,34 96,36 98,36 98,38 96,38 96,36 94,36 94,38 92,38 92,36 94,36 94,34 92,34 92,32 90,32 90,34 90,36 90,38 88,38 86,38 84,38 84,40 86,40 88,40 90,40 92,40 94,40 96,40 98,40 100,40 102,40 102,38"/><polygon fill="#010101" points="84,36 84,34 84,32 84,30 84,28 84,26 84,24 84,22 82,22 82,24 82,26 82,28 82,30 82,32 82,34 82,36 82,38 82,40 84,40 84,38"/><polygon fill="#010101" points="98,20 96,20 94,20 92,20 90,20 88,20 86,20 84,20 84,22 86,22 88,22 90,22 92,22 94,22 96,22 98,22 100,22 102,22 102,20 100,20"/><polygon fill="#010101" points="102,2 102,4 102,6 102,8 102,10 102,12 102,14 102,16 102,18 102,20 104,20 104,18 104,16 104,14 104,12 104,10 104,8 104,6 104,4 104,2"/><polygon fill="#010101" points="88,2 90,2 92,2 94,2 96,2 98,2 100,2 102,2 102,0 100,0 98,0 96,0 94,0 92,0 90,0 88,0 86,0 84,0 84,2 86,2"/><rect x="96" y="12" fill="#6E6F72" width="2" height="2"/><rect x="94" y="12" fill="#595A5C" width="2" height="2"/><polygon fill="#6E6F72" points="88,12 88,10 86,10 86,12 84,12 84,14 86,14 86,16 84,16 84,18 86,18 88,18 90,18 90,16 90,14 88,14"/><polygon fill="#595A5C" points="88,8 88,6 86,6 84,6 84,8 86,8"/><polygon fill="#595A5C" points="90,8 88,8 88,10 88,12 90,12 90,10"/><rect x="88" y="4" fill="#595A5C" width="2" height="2"/><polygon fill="#6E6F72" points="92,6 94,6 96,6 96,4 94,4 92,4 90,4 90,6"/><rect x="90" y="10" fill="#6E6F72" width="2" height="2"/><polygon fill="#595A5C" points="94,10 94,8 96,8 96,6 94,6 92,6 90,6 90,8 92,8 92,10 92,12 94,12"/><rect x="94" y="10" fill="#6E6F72" width="2" height="2"/><rect x="96" y="10" fill="#595A5C" width="2" height="2"/><rect x="96" y="8" fill="#6E6F72" width="2" height="2"/><rect x="96" y="4" fill="#595A5C" width="2" height="2"/><polygon fill="#6E6F72" points="98,6 98,8 100,8 100,6 100,4 98,4"/><rect x="98" y="10" fill="#6E6F72" width="2" height="2"/><rect x="92" y="16" fill="#6E6F72" width="2" height="2"/><rect x="100" y="2" fill="#6E6F72" width="2" height="2"/><polygon fill="#595A5C" points="102,16 102,14 102,12 102,10 102,8 102,6 102,4 100,4 100,6 100,8 98,8 98,10 100,10 100,12 98,12 98,14 96,14 96,16 98,16 98,18 96,18 96,16 94,16 94,18 92,18 92,16 94,16 94,14 92,14 92,12 90,12 90,14 90,16 90,18 88,18 86,18 84,18 84,20 86,20 88,20 90,20 92,20 94,20 96,20 98,20 100,20 102,20 102,18"/><polygon fill="#010101" points="84,16 84,14 84,12 84,10 84,8 84,6 84,4 84,2 82,2 82,4 82,6 82,8 82,10 82,12 82,14 82,16 82,18 82,20 84,20 84,18"/><polygon fill="#010101" points="118,20 116,20 114,20 112,20 110,20 108,20 106,20 104,20 104,22 106,22 108,22 110,22 112,22 114,22 116,22 118,22 120,22 122,22 122,20 120,20"/><polygon fill="#010101" points="122,2 122,4 122,6 122,8 122,10 122,12 122,14 122,16 122,18 122,20 124,20 124,18 124,16 124,14 124,12 124,10 124,8 124,6 124,4 124,2"/><polygon fill="#010101" points="108,2 110,2 112,2 114,2 116,2 118,2 120,2 122,2 122,0 120,0 118,0 116,0 114,0 112,0 110,0 108,0 106,0 104,0 104,2 106,2"/><polygon fill="#FDF27F" points="106,4 106,6 108,6 110,6 112,6 114,6 116,6 118,6 120,6 120,4 122,4 122,2 120,2 118,2 116,2 114,2 112,2 110,2 108,2 106,2 104,2 104,4"/><polygon fill="#010101" points="108,10 110,10 110,8 110,6 108,6 108,8"/><polygon fill="#010101" points="116,10 118,10 118,8 118,6 116,6 116,8"/><polygon fill="#DCA22A" points="120,6 120,8 120,10 120,12 120,14 120,16 120,18 122,18 122,16 122,14 122,12 122,10 122,8 122,6 122,4 120,4"/><polygon fill="#EE4136" points="114,14 112,14 110,14 110,16 112,16 114,16 116,16 116,14"/><polygon fill="#BD822B" points="120,18 120,16 118,16 116,16 114,16 112,16 110,16 108,16 106,16 106,18 104,18 104,20 106,20 108,20 110,20 112,20 114,20 116,20 118,20 120,20 122,20 122,18"/><polygon fill="#010101" points="104,16 104,14 104,12 104,10 104,8 104,6 104,4 104,2 102,2 102,4 102,6 102,8 102,10 102,12 102,14 102,16 102,18 102,20 104,20 104,18"/><polygon fill="#010101" points="138,20 136,20 134,20 132,20 130,20 128,20 126,20 124,20 124,22 126,22 128,22 130,22 132,22 134,22 136,22 138,22 140,22 142,22 142,20 140,20"/><polygon fill="#010101" points="142,2 142,4 142,6 142,8 142,10 142,12 142,14 142,16 142,18 142,20 144,20 144,18 144,16 144,14 144,12 144,10 144,8 144,6 144,4 144,2"/><polygon fill="#010101" points="128,2 130,2 132,2 134,2 136,2 138,2 140,2 142,2 142,0 140,0 138,0 136,0 134,0 132,0 130,0 128,0 126,0 124,0 124,2 126,2"/><polygon fill="#FDF27F" points="126,4 126,6 128,6 130,6 132,6 134,6 136,6 138,6 140,6 140,4 142,4 142,2 140,2 138,2 136,2 134,2 132,2 130,2 128,2 126,2 124,2 124,4"/><polygon fill="#010101" points="128,10 130,10 130,8 130,6 128,6 128,8"/><polygon fill="#010101" points="136,10 138,10 138,8 138,6 136,6 136,8"/><polygon fill="#DCA22A" points="140,6 140,8 140,10 140,12 140,14 140,16 140,18 142,18 142,16 142,14 142,12 142,10 142,8 142,6 142,4 140,4"/><polygon fill="#EE4136" points="134,14 132,14 130,14 130,16 132,16 134,16 136,16 136,14"/><polygon fill="#BD822B" points="140,18 140,16 138,16 136,16 134,16 132,16 130,16 128,16 126,16 126,18 124,18 124,20 126,20 128,20 130,20 132,20 134,20 136,20 138,20 140,20 142,20 142,18"/><polygon fill="#010101" points="124,16 124,14 124,12 124,10 124,8 124,6 124,4 124,2 122,2 122,4 122,6 122,8 122,10 122,12 122,14 122,16 122,18 122,20 124,20 124,18"/><polygon fill="#010101" points="158,20 156,20 154,20 152,20 150,20 148,20 146,20 144,20 144,22 146,22 148,22 150,22 152,22 154,22 156,22 158,22 160,22 162,22 162,20 160,20"/><polygon fill="#010101" points="162,2 162,4 162,6 162,8 162,10 162,12 162,14 162,16 162,18 162,20 164,20 164,18 164,16 164,14 164,12 164,10 164,8 164,6 164,4 164,2"/><polygon fill="#010101" points="148,2 150,2 152,2 154,2 156,2 158,2 160,2 162,2 162,0 160,0 158,0 156,0 154,0 152,0 150,0 148,0 146,0 144,0 144,2 146,2"/><polygon fill="#FDF27F" points="146,4 146,6 148,6 150,6 152,6 154,6 156,6 158,6 160,6 160,4 162,4 162,2 160,2 158,2 156,2 154,2 152,2 150,2 148,2 146,2 144,2 144,4"/><polygon fill="#010101" points="148,10 150,10 150,8 150,6 148,6 148,8"/><polygon fill="#010101" points="156,10 158,10 158,8 158,6 156,6 156,8"/><polygon fill="#DCA22A" points="160,6 160,8 160,10 160,12 160,14 160,16 160,18 162,18 162,16 162,14 162,12 162,10 162,8 162,6 162,4 160,4"/><polygon fill="#EE4136" points="154,14 152,14 150,14 150,16 152,16 154,16 156,16 156,14"/><polygon fill="#BD822B" points="160,18 160,16 158,16 156,16 154,16 152,16 150,16 148,16 146,16 146,18 144,18 144,20 146,20 148,20 150,20 152,20 154,20 156,20 158,20 160,20 162,20 162,18"/><polygon fill="#010101" points="144,16 144,14 144,12 144,10 144,8 144,6 144,4 144,2 142,2 142,4 142,6 142,8 142,10 142,12 142,14 142,16 142,18 142,20 144,20 144,18"/></svg>