<svg xmlns="http://www.w3.org/2000/svg" width="80" height="64"><rect x="-39" y="-39.999" fill="#999" width="160" height="159.999"/><rect x="-39" y="-40" fill="#EBEBEB" width="36" height="12"/><rect x="1" y="-40" fill="#EBEBEB" width="36" height="12"/><rect x="41" y="-40" fill="#EBEBEB" width="36" height="12"/><rect x="81" y="-40" fill="#EBEBEB" width="36" height="12"/><rect x="-19" y="-24" fill="#EBEBEB" width="36" height="12"/><rect x="21" y="-24" fill="#EBEBEB" width="36" height="12"/><rect x="61" y="-24" fill="#EBEBEB" width="36" height="12"/><rect x="101" y="-24" fill="#EBEBEB" width="36" height="12"/><rect x="-59" y="-24" fill="#EBEBEB" width="36" height="12"/><rect x="-39" y="-8" fill="#EBEBEB" width="36" height="12"/><rect x="1" y="-8" fill="#EBEBEB" width="36" height="12"/><rect x="41" y="-8" fill="#EBEBEB" width="36" height="12"/><rect x="81" y="-8" fill="#EBEBEB" width="36" height="12"/><rect x="-19" y="8" fill="#EBEBEB" width="36" height="12"/><rect x="21" y="8" fill="#EBEBEB" width="36" height="12"/><rect x="61" y="8" fill="#EBEBEB" width="36" height="12"/><rect x="101" y="8" fill="#EBEBEB" width="36" height="12"/><rect x="-59" y="8" fill="#EBEBEB" width="36" height="12"/><rect x="-39" y="24" fill="#EBEBEB" width="36" height="12"/><rect x="1" y="24" fill="#EBEBEB" width="36" height="12"/><rect x="41" y="24" fill="#EBEBEB" width="36" height="12"/><rect x="81" y="24" fill="#EBEBEB" width="36" height="12"/><rect x="-19" y="40" fill="#EBEBEB" width="36" height="12"/><rect x="21" y="40" fill="#EBEBEB" width="36" height="12"/><rect x="61" y="40" fill="#EBEBEB" width="36" height="12"/><rect x="101" y="40" fill="#EBEBEB" width="36" height="12"/><rect x="-59" y="40" fill="#EBEBEB" width="36" height="12"/><rect x="-39" y="56" fill="#EBEBEB" width="36" height="12"/><rect x="1" y="56" fill="#EBEBEB" width="36" height="12"/><rect x="41" y="56" fill="#EBEBEB" width="36" height="12"/><rect x="81" y="56" fill="#EBEBEB" width="36" height="12"/><rect x="-19" y="72" fill="#EBEBEB" width="36" height="12"/><rect x="21" y="72" fill="#EBEBEB" width="36" height="12"/><rect x="61" y="72" fill="#EBEBEB" width="36" height="12"/><rect x="101" y="72" fill="#EBEBEB" width="36" height="12"/><rect x="-59" y="72" fill="#EBEBEB" width="36" height="12"/><rect x="-39" y="88" fill="#EBEBEB" width="36" height="12"/><rect x="1" y="88" fill="#EBEBEB" width="36" height="12"/><rect x="41" y="88" fill="#EBEBEB" width="36" height="12"/><rect x="81" y="88" fill="#EBEBEB" width="36" height="12"/><rect x="-19" y="104" fill="#EBEBEB" width="36" height="12"/><rect x="21" y="104" fill="#EBEBEB" width="36" height="12"/><rect x="61" y="104" fill="#EBEBEB" width="36" height="12"/><rect x="101" y="104" fill="#EBEBEB" width="36" height="12"/><rect x="-59" y="104" fill="#EBEBEB" width="36" height="12"/></svg>