<svg xmlns="http://www.w3.org/2000/svg" width="178" height="92" viewBox="0 -22 178 92" enable-background="new 0 -22 178 92"><rect y="48" fill="#818283" width="178" height="18"/><rect y="-18" fill="#A0A0A0" width="178" height="64"/><rect x="98" y="-18" fill="#A5A5A5" width="4" height="4"/><rect x="94" y="-18" fill="#9B9B9B" width="4" height="4"/><rect x="94" y="-10" fill="#9B9B9B" width="4" height="4"/><rect x="102" y="-6" fill="#9B9B9B" width="4" height="4"/><rect x="102" y="2" fill="#A5A5A5" width="4" height="4"/><rect x="94" y="2" fill="#9B9B9B" width="4" height="4"/><rect x="94" y="10" fill="#9B9B9B" width="4" height="4"/><rect x="78" y="-18" fill="#A5A5A5" width="4" height="4"/><rect x="70" y="-18" fill="#9B9B9B" width="4" height="4"/><rect x="70" y="-10" fill="#9B9B9B" width="4" height="4"/><rect x="78" y="-6" fill="#9B9B9B" width="4" height="4"/><rect x="78" y="2" fill="#A5A5A5" width="4" height="4"/><rect x="70" y="2" fill="#9B9B9B" width="4" height="4"/><rect x="106" y="22" fill="#9B9B9B" width="4" height="4"/><rect x="98" y="22" fill="#A5A5A5" width="4" height="4"/><rect x="98" y="14" fill="#9B9B9B" width="4" height="4"/><rect x="90" y="14" fill="#9B9B9B" width="4" height="4"/><rect x="86" y="22" fill="#9B9B9B" width="4" height="4"/><rect x="78" y="22" fill="#A5A5A5" width="4" height="4"/><rect x="78" y="14" fill="#9B9B9B" width="4" height="4"/><rect x="70" y="14" fill="#9B9B9B" width="4" height="4"/><rect x="102" y="34" fill="#9B9B9B" width="4" height="4"/><rect x="102" y="42" fill="#A5A5A5" width="4" height="4"/><rect x="94" y="42" fill="#9B9B9B" width="4" height="4"/><rect x="78" y="34" fill="#9B9B9B" width="4" height="4"/><rect x="78" y="42" fill="#A5A5A5" width="4" height="4"/><rect x="68" y="42" fill="#9B9B9B" width="4" height="4"/><rect x="58" y="-18" fill="#A5A5A5" width="4" height="4"/><rect x="54" y="-18" fill="#9B9B9B" width="4" height="4"/><rect x="54" y="-10" fill="#9B9B9B" width="4" height="4"/><rect x="62" y="-6" fill="#9B9B9B" width="4" height="4"/><rect x="62" y="2" fill="#A5A5A5" width="4" height="4"/><rect x="54" y="2" fill="#9B9B9B" width="4" height="4"/><rect x="54" y="10" fill="#9B9B9B" width="4" height="4"/><rect x="38" y="-18" fill="#A5A5A5" width="4" height="4"/><rect x="30" y="-18" fill="#9B9B9B" width="4" height="4"/><rect x="30" y="-10" fill="#9B9B9B" width="4" height="4"/><rect x="38" y="-6" fill="#9B9B9B" width="4" height="4"/><rect x="38" y="2" fill="#A5A5A5" width="4" height="4"/><rect x="28" y="2" fill="#9B9B9B" width="4" height="4"/><rect x="66" y="22" fill="#9B9B9B" width="4" height="4"/><rect x="58" y="22" fill="#A5A5A5" width="4" height="4"/><rect x="58" y="14" fill="#9B9B9B" width="4" height="4"/><rect x="50" y="14" fill="#9B9B9B" width="4" height="4"/><rect x="48" y="22" fill="#9B9B9B" width="4" height="4"/><rect x="38" y="22" fill="#A5A5A5" width="4" height="4"/><rect x="40" y="14" fill="#9B9B9B" width="4" height="4"/><rect x="30" y="14" fill="#9B9B9B" width="4" height="4"/><rect x="60" y="34" fill="#9B9B9B" width="4" height="4"/><rect x="62" y="42" fill="#A5A5A5" width="4" height="4"/><rect x="52" y="42" fill="#9B9B9B" width="4" height="4"/><rect x="38" y="34" fill="#9B9B9B" width="4" height="4"/><rect x="38" y="42" fill="#A5A5A5" width="4" height="4"/><rect x="30" y="42" fill="#9B9B9B" width="4" height="4"/><rect x="18" y="-18" fill="#A5A5A5" width="4" height="4"/><rect x="14" y="-18" fill="#9B9B9B" width="4" height="4"/><rect x="16" y="-10" fill="#9B9B9B" width="4" height="4"/><rect x="20" y="-6" fill="#9B9B9B" width="4" height="4"/><rect x="22" y="2" fill="#A5A5A5" width="4" height="4"/><rect x="12" y="2" fill="#9B9B9B" width="4" height="4"/><rect x="14" y="10" fill="#9B9B9B" width="4" height="4"/><rect x="26" y="22" fill="#9B9B9B" width="4" height="4"/><rect x="18" y="22" fill="#A5A5A5" width="4" height="4"/><rect x="18" y="14" fill="#9B9B9B" width="4" height="4"/><rect x="10" y="14" fill="#9B9B9B" width="4" height="4"/><rect x="6" y="22" fill="#9B9B9B" width="4" height="4"/><rect x="22" y="34" fill="#9B9B9B" width="4" height="4"/><rect x="22" y="42" fill="#A5A5A5" width="4" height="4"/><rect x="14" y="42" fill="#9B9B9B" width="4" height="4"/><polygon fill="#818283" points="64,42 64,38 60,38 60,34 56,34 56,30 52,30 52,26 48,26 48,22 44,22 44,18 40,18 40,14 36,14 36,10 32,10 32,6 28,6 28,2 24,2 24,-2 20,-2 20,-6 16,-6 16,-10 12,-10 12,-14 8,-14 8,-18 4,-18 0,-18 0,-14 4,-14 4,-10 8,-10 8,-6 12,-6 12,-2 16,-2 16,2 20,2 20,6 24,6 24,10 28,10 28,14 32,14 32,18 36,18 36,22 40,22 40,26 44,26 44,30 48,30 48,34 52,34 52,38 56,38 56,42 60,42 60,46 64,46 68,46 68,42"/><rect x="4" y="-10" fill="#aaa" width="4" height="4"/><rect y="-14" fill="#aaa" width="4" height="4"/><rect x="8" y="-6" fill="#aaa" width="4" height="4"/><rect x="12" y="-2" fill="#aaa" width="4" height="4"/><rect x="16" y="2" fill="#aaa" width="4" height="4"/><rect x="20" y="6" fill="#aaa" width="4" height="4"/><rect x="24" y="10" fill="#aaa" width="4" height="4"/><rect x="28" y="14" fill="#aaa" width="4" height="4"/><rect x="32" y="18" fill="#aaa" width="4" height="4"/><rect x="36" y="22" fill="#aaa" width="4" height="4"/><rect x="40" y="26" fill="#aaa" width="4" height="4"/><rect x="44" y="30" fill="#aaa" width="4" height="4"/><rect x="48" y="34" fill="#aaa" width="4" height="4"/><rect x="52" y="38" fill="#aaa" width="4" height="4"/><rect x="4" y="-14" width="4" height="4"/><rect y="-18" width="4" height="4"/><rect x="8" y="-10" width="4" height="4"/><rect x="12" y="-6" width="4" height="4"/><rect x="16" y="-2" width="4" height="4"/><rect x="20" y="2" width="4" height="4"/><rect x="24" y="6" width="4" height="4"/><rect x="28" y="10" width="4" height="4"/><rect x="32" y="14" width="4" height="4"/><rect x="36" y="18" width="4" height="4"/><rect x="40" y="22" width="4" height="4"/><rect x="44" y="26" width="4" height="4"/><rect x="48" y="30" width="4" height="4"/><rect x="52" y="34" width="4" height="4"/><rect x="56" y="38" width="4" height="4"/><rect x="60" y="42" width="4" height="4"/><rect x="8" y="-18" fill="#aaa" width="4" height="4"/><rect x="4" y="-22" fill="#aaa" width="4" height="4"/><rect x="12" y="-14" fill="#aaa" width="4" height="4"/><rect x="16" y="-10" fill="#aaa" width="4" height="4"/><rect x="20" y="-6" fill="#aaa" width="4" height="4"/><rect x="24" y="-2" fill="#aaa" width="4" height="4"/><rect x="28" y="2" fill="#aaa" width="4" height="4"/><rect x="32" y="6" fill="#aaa" width="4" height="4"/><rect x="36" y="10" fill="#aaa" width="4" height="4"/><rect x="40" y="14" fill="#aaa" width="4" height="4"/><rect x="44" y="18" fill="#aaa" width="4" height="4"/><rect x="48" y="22" fill="#aaa" width="4" height="4"/><rect x="52" y="26" fill="#aaa" width="4" height="4"/><rect x="56" y="30" fill="#aaa" width="4" height="4"/><rect x="60" y="34" fill="#aaa" width="4" height="4"/><rect x="64" y="38" fill="#aaa" width="4" height="4"/><rect x="68" y="42" fill="#aaa" width="4" height="4"/><rect x="174" y="-18" fill="#9B9B9B" width="4" height="4"/><rect x="174" y="-10" fill="#9B9B9B" width="4" height="4"/><rect x="174" y="2" fill="#9B9B9B" width="4" height="4"/><rect x="174" y="10" fill="#9B9B9B" width="4" height="4"/><rect x="158" y="-18" fill="#A5A5A5" width="4" height="4"/><rect x="150" y="-18" fill="#9B9B9B" width="4" height="4"/><rect x="150" y="-10" fill="#9B9B9B" width="4" height="4"/><rect x="158" y="-6" fill="#9B9B9B" width="4" height="4"/><rect x="158" y="2" fill="#A5A5A5" width="4" height="4"/><rect x="150" y="2" fill="#9B9B9B" width="4" height="4"/><rect x="170" y="14" fill="#9B9B9B" width="4" height="4"/><rect x="166" y="22" fill="#9B9B9B" width="4" height="4"/><rect x="158" y="22" fill="#A5A5A5" width="4" height="4"/><rect x="158" y="14" fill="#9B9B9B" width="4" height="4"/><rect x="150" y="14" fill="#9B9B9B" width="4" height="4"/><rect x="174" y="42" fill="#9B9B9B" width="4" height="4"/><rect x="158" y="34" fill="#9B9B9B" width="4" height="4"/><rect x="158" y="42" fill="#A5A5A5" width="4" height="4"/><rect x="150" y="42" fill="#9B9B9B" width="4" height="4"/><rect x="138" y="-18" fill="#A5A5A5" width="4" height="4"/><rect x="134" y="-18" fill="#9B9B9B" width="4" height="4"/><rect x="134" y="-10" fill="#9B9B9B" width="4" height="4"/><rect x="142" y="-6" fill="#9B9B9B" width="4" height="4"/><rect x="142" y="2" fill="#A5A5A5" width="4" height="4"/><rect x="134" y="2" fill="#9B9B9B" width="4" height="4"/><rect x="134" y="10" fill="#9B9B9B" width="4" height="4"/><rect x="118" y="-18" fill="#A5A5A5" width="4" height="4"/><rect x="110" y="-18" fill="#9B9B9B" width="4" height="4"/><rect x="110" y="-10" fill="#9B9B9B" width="4" height="4"/><rect x="118" y="-6" fill="#9B9B9B" width="4" height="4"/><rect x="118" y="2" fill="#A5A5A5" width="4" height="4"/><rect x="122" y="26" fill="#A5A5A5" width="4" height="4"/><rect x="62" y="26" fill="#A5A5A5" width="4" height="4"/><rect x="162" y="26" fill="#A5A5A5" width="4" height="4"/><rect x="2" y="30" fill="#A5A5A5" width="4" height="4"/><rect x="6" y="34" fill="#A5A5A5" width="4" height="4"/><rect fill="#A5A5A5" width="4" height="4"/><rect x="4" y="12" fill="#A5A5A5" width="4" height="4"/><rect x="82" y="26" fill="#A5A5A5" width="4" height="4"/><rect x="110" y="2" fill="#9B9B9B" width="4" height="4"/><rect x="146" y="22" fill="#9B9B9B" width="4" height="4"/><rect x="138" y="22" fill="#A5A5A5" width="4" height="4"/><rect x="138" y="14" fill="#9B9B9B" width="4" height="4"/><rect x="130" y="14" fill="#9B9B9B" width="4" height="4"/><rect x="126" y="22" fill="#9B9B9B" width="4" height="4"/><rect x="118" y="22" fill="#A5A5A5" width="4" height="4"/><rect x="118" y="14" fill="#9B9B9B" width="4" height="4"/><rect x="110" y="14" fill="#9B9B9B" width="4" height="4"/><rect x="142" y="34" fill="#9B9B9B" width="4" height="4"/><rect x="142" y="42" fill="#A5A5A5" width="4" height="4"/><rect x="134" y="42" fill="#9B9B9B" width="4" height="4"/><rect x="118" y="34" fill="#9B9B9B" width="4" height="4"/><rect x="118" y="42" fill="#A5A5A5" width="4" height="4"/><rect x="110" y="42" fill="#9B9B9B" width="4" height="4"/><rect y="46" fill="#aaa" width="178" height="4"/><rect y="66" width="178" height="4"/><rect y="-22" width="178" height="4"/><rect x="60" y="46" width="4" height="20"/><rect x="56" y="42" fill="#aaa" width="4" height="24"/><rect x="64" y="42" fill="#aaa" width="4" height="24"/></svg>