<svg xmlns="http://www.w3.org/2000/svg" width="80" height="80"><rect fill="#909191" width="80" height="80"/><rect x="4" y="4" fill="#8A8B8B" width="4" height="4"/><rect x="12" y="4" fill="#818283" width="4" height="4"/><rect x="12" fill="#999" width="4" height="4"/><rect x="16" fill="#909191" width="4" height="4"/><rect x="12" y="8" fill="#999" width="4" height="4"/><rect x="24" y="8" fill="#818283" width="4" height="4"/><rect x="32" fill="#818283" width="4" height="4"/><rect x="24" y="4" fill="#999" width="4" height="4"/><rect x="36" fill="#999" width="4" height="4"/><rect x="24" y="12" fill="#999" width="4" height="4"/><rect x="52" y="4" fill="#818283" width="4" height="4"/><rect x="52" fill="#999" width="4" height="4"/><rect x="52" y="8" fill="#999" width="4" height="4"/><rect x="8" y="8" fill="#8A8B8B" width="4" height="4"/><rect x="56" fill="#8A8B8B" width="4" height="4"/><rect y="8" fill="#909191" width="4" height="4"/><rect x="44" y="4" fill="#8A8B8B" width="4" height="4"/><rect x="48" y="8" fill="#8A8B8B" width="4" height="4"/><rect x="40" y="8" fill="#909191" width="4" height="4"/><rect x="64" y="8" fill="#818283" width="4" height="4"/><rect x="72" fill="#818283" width="4" height="4"/><rect x="64" y="4" fill="#999" width="4" height="4"/><rect x="76" fill="#999" width="4" height="4"/><rect x="64" y="12" fill="#999" width="4" height="4"/><rect x="76" y="16" fill="#909191" width="4" height="4"/><rect x="68" y="24" fill="#818283" width="4" height="4"/><rect x="60" y="16" fill="#818283" width="4" height="4"/><rect x="68" y="20" fill="#999" width="4" height="4"/><rect x="56" y="16" fill="#999" width="4" height="4"/><rect x="68" y="28" fill="#999" width="4" height="4"/><rect x="40" y="20" fill="#818283" width="4" height="4"/><rect x="40" y="16" fill="#999" width="4" height="4"/><rect x="40" y="24" fill="#999" width="4" height="4"/><rect x="36" y="16" fill="#8A8B8B" width="4" height="4"/><rect x="76" y="16" fill="#8A8B8B" width="4" height="4"/><rect x="72" y="24" fill="#8A8B8B" width="4" height="4"/><rect x="32" y="24" fill="#8A8B8B" width="4" height="4"/><rect x="48" y="20" fill="#8A8B8B" width="4" height="4"/><rect x="44" y="24" fill="#8A8B8B" width="4" height="4"/><rect x="36" y="8" fill="#8A8B8B" width="4" height="4"/><rect x="32" y="12" fill="#8A8B8B" width="4" height="4"/><rect x="76" y="8" fill="#8A8B8B" width="4" height="4"/><rect x="72" y="12" fill="#8A8B8B" width="4" height="4"/><rect x="52" y="24" fill="#909191" width="4" height="4"/><rect x="8" y="20" fill="#8A8B8B" width="4" height="4"/><rect x="4" y="24" fill="#8A8B8B" width="4" height="4"/><rect x="12" y="24" fill="#909191" width="4" height="4"/><rect x="28" y="24" fill="#818283" width="4" height="4"/><rect x="20" y="16" fill="#818283" width="4" height="4"/><rect x="28" y="20" fill="#999" width="4" height="4"/><rect x="16" y="16" fill="#999" width="4" height="4"/><rect x="28" y="28" fill="#999" width="4" height="4"/><rect y="20" fill="#818283" width="4" height="4"/><rect y="16" fill="#999" width="4" height="4"/><rect y="24" fill="#999" width="4" height="4"/><rect x="4" y="36" fill="#8A8B8B" width="4" height="4"/><rect x="12" y="36" fill="#818283" width="4" height="4"/><rect x="12" y="32" fill="#999" width="4" height="4"/><rect x="16" y="32" fill="#909191" width="4" height="4"/><rect x="12" y="40" fill="#999" width="4" height="4"/><rect x="24" y="40" fill="#818283" width="4" height="4"/><rect x="32" y="32" fill="#818283" width="4" height="4"/><rect x="24" y="36" fill="#999" width="4" height="4"/><rect x="36" y="32" fill="#999" width="4" height="4"/><rect x="24" y="44" fill="#999" width="4" height="4"/><rect x="52" y="36" fill="#818283" width="4" height="4"/><rect x="52" y="32" fill="#999" width="4" height="4"/><rect x="52" y="40" fill="#999" width="4" height="4"/><rect x="8" y="40" fill="#8A8B8B" width="4" height="4"/><rect x="56" y="32" fill="#8A8B8B" width="4" height="4"/><rect y="40" fill="#909191" width="4" height="4"/><rect x="44" y="36" fill="#8A8B8B" width="4" height="4"/><rect x="48" y="40" fill="#8A8B8B" width="4" height="4"/><rect x="40" y="40" fill="#909191" width="4" height="4"/><rect x="64" y="40" fill="#818283" width="4" height="4"/><rect x="72" y="32" fill="#818283" width="4" height="4"/><rect x="64" y="36" fill="#999" width="4" height="4"/><rect x="76" y="32" fill="#999" width="4" height="4"/><rect x="64" y="44" fill="#999" width="4" height="4"/><rect x="76" y="48" fill="#909191" width="4" height="4"/><rect x="68" y="56" fill="#818283" width="4" height="4"/><rect x="60" y="48" fill="#818283" width="4" height="4"/><rect x="68" y="52" fill="#999" width="4" height="4"/><rect x="56" y="48" fill="#999" width="4" height="4"/><rect x="68" y="60" fill="#999" width="4" height="4"/><rect x="40" y="52" fill="#818283" width="4" height="4"/><rect x="40" y="48" fill="#999" width="4" height="4"/><rect x="40" y="56" fill="#999" width="4" height="4"/><rect x="36" y="48" fill="#8A8B8B" width="4" height="4"/><rect x="76" y="48" fill="#8A8B8B" width="4" height="4"/><rect x="72" y="56" fill="#8A8B8B" width="4" height="4"/><rect x="32" y="56" fill="#8A8B8B" width="4" height="4"/><rect x="48" y="52" fill="#8A8B8B" width="4" height="4"/><rect x="44" y="56" fill="#8A8B8B" width="4" height="4"/><rect x="36" y="40" fill="#8A8B8B" width="4" height="4"/><rect x="32" y="44" fill="#8A8B8B" width="4" height="4"/><rect x="76" y="40" fill="#8A8B8B" width="4" height="4"/><rect x="72" y="44" fill="#8A8B8B" width="4" height="4"/><rect x="52" y="56" fill="#909191" width="4" height="4"/><rect x="8" y="52" fill="#8A8B8B" width="4" height="4"/><rect x="4" y="56" fill="#8A8B8B" width="4" height="4"/><rect x="12" y="56" fill="#909191" width="4" height="4"/><rect x="28" y="56" fill="#818283" width="4" height="4"/><rect x="20" y="48" fill="#818283" width="4" height="4"/><rect x="28" y="52" fill="#999" width="4" height="4"/><rect x="16" y="48" fill="#999" width="4" height="4"/><rect x="28" y="60" fill="#999" width="4" height="4"/><rect y="52" fill="#818283" width="4" height="4"/><rect y="48" fill="#999" width="4" height="4"/><rect y="56" fill="#999" width="4" height="4"/><rect x="4" y="68" fill="#8A8B8B" width="4" height="4"/><rect x="12" y="68" fill="#818283" width="4" height="4"/><rect x="12" y="64" fill="#999" width="4" height="4"/><rect x="16" y="64" fill="#909191" width="4" height="4"/><rect x="12" y="72" fill="#999" width="4" height="4"/><rect x="24" y="72" fill="#818283" width="4" height="4"/><rect x="32" y="64" fill="#818283" width="4" height="4"/><rect x="24" y="68" fill="#999" width="4" height="4"/><rect x="36" y="64" fill="#999" width="4" height="4"/><rect x="24" y="76" fill="#999" width="4" height="4"/><rect x="52" y="68" fill="#818283" width="4" height="4"/><rect x="52" y="64" fill="#999" width="4" height="4"/><rect x="52" y="72" fill="#999" width="4" height="4"/><rect x="8" y="72" fill="#8A8B8B" width="4" height="4"/><rect x="56" y="64" fill="#8A8B8B" width="4" height="4"/><rect y="72" fill="#909191" width="4" height="4"/><rect x="44" y="68" fill="#8A8B8B" width="4" height="4"/><rect x="48" y="72" fill="#8A8B8B" width="4" height="4"/><rect x="40" y="72" fill="#909191" width="4" height="4"/><rect x="64" y="72" fill="#818283" width="4" height="4"/><rect x="72" y="64" fill="#818283" width="4" height="4"/><rect x="64" y="68" fill="#999" width="4" height="4"/><rect x="76" y="64" fill="#999" width="4" height="4"/><rect x="64" y="76" fill="#999" width="4" height="4"/><rect x="36" y="72" fill="#8A8B8B" width="4" height="4"/><rect x="32" y="76" fill="#8A8B8B" width="4" height="4"/><rect x="76" y="72" fill="#8A8B8B" width="4" height="4"/><rect x="72" y="76" fill="#8A8B8B" width="4" height="4"/></svg>