<svg xmlns="http://www.w3.org/2000/svg" width="68" height="68" viewBox="-17 0 68 68" enable-background="new -17 0 68 68"><rect x="23.8" y="3.4" fill="#C9262F" width="25.5" height="23.8"/><polygon fill="#C9262F" points="13.6,5.1 11.9,5.1 10.2,5.1 8.5,5.1 6.8,5.1 6.8,3.4 5.1,3.4 3.4,3.4 1.7,3.4 0,3.4 -1.7,3.4 -1.7,5.1 -1.7,25.5 0,25.5 1.7,25.5 3.4,25.5 5.1,25.5 6.8,25.5 6.8,27.2 8.5,27.2 10.2,27.2 11.9,27.2 13.6,27.2 15.3,27.2 15.3,25.5 15.3,23.8 15.3,22.1 15.3,20.4 15.3,18.7 15.3,17 15.3,15.3 15.3,13.6 15.3,11.9 15.3,10.2 15.3,8.5 15.3,6.8 15.3,5.1"/><g fill="#C9262F"><polygon points="-1.7,25.5 -1.7,5.1 -3.4,5.1 -5.1,5.1 -6.8,5.1 -8.5,5.1 -10.2,5.1 -10.2,6.8 -10.2,8.5 -10.2,10.2 -10.2,11.9 -10.2,13.6 -10.2,15.3 -10.2,17 -10.2,18.7 -10.2,20.4 -10.2,22.1 -10.2,23.8 -10.2,25.5 -10.2,27.2 -8.5,27.2 -6.8,27.2 -5.1,27.2 -3.4,27.2 -1.7,27.2"/><polygon points="13.6,5.1 11.9,5.1 10.2,5.1 8.5,5.1 6.8,5.1 6.8,25.5 6.8,27.2 8.5,27.2 10.2,27.2 11.9,27.2 13.6,27.2 15.3,27.2 15.3,25.5 15.3,23.8 15.3,22.1 15.3,20.4 15.3,18.7 15.3,17 15.3,15.3 15.3,13.6 15.3,11.9 15.3,10.2 15.3,8.5 15.3,6.8 15.3,5.1"/></g><polygon fill="#C9262F" points="3.4,3.4 1.7,3.4 0,3.4 0,5.1 1.7,5.1 3.4,5.1 5.1,5.1 6.8,5.1 6.8,3.4 5.1,3.4"/><rect x="-15.3" y="59.5" fill="#E7E7E7" width="1.7" height="1.699"/><polygon fill="#E7E7E7" points="-15.3,5.1 -15.3,6.8 -15.3,8.5 -15.3,10.2 -15.3,11.9 -15.3,13.6 -15.3,15.3 -15.3,17 -15.3,18.7 -15.3,20.4 -15.3,22.1 -15.3,23.8 -15.3,25.5 -15.3,27.2 -15.3,28.9 -15.3,30.6 -15.3,32.3 -15.3,34 -15.3,35.699 -15.3,37.4 -15.3,39.1 -15.3,40.799 -15.3,42.5 -15.3,44.199 -15.3,45.9 -15.3,47.6 -15.3,49.299 -15.3,51 -15.3,52.699 -15.3,54.4 -15.3,56.1 -15.3,57.799 -13.6,57.799 -13.6,56.1 -13.6,54.4 -13.6,52.699 -13.6,51 -13.6,49.299 -13.6,47.6 -13.6,45.9 -13.6,44.199 -13.6,42.5 -13.6,40.799 -13.6,39.1 -13.6,37.4 -13.6,35.699 -13.6,34 -13.6,32.3 -13.6,30.6 -13.6,28.9 -13.6,27.2 -13.6,25.5 -13.6,23.8 -13.6,22.1 -13.6,20.4 -13.6,18.7 -13.6,17 -13.6,15.3 -13.6,13.6 -13.6,11.9 -13.6,10.2 -13.6,8.5 -13.6,6.8 -13.6,5.1 -13.6,3.4 -11.9,3.4 -11.9,1.7 -13.6,1.7 -15.3,1.7 -15.3,3.4"/><rect x="-15.3" y="62.9" fill="#E7E7E7" width="1.7" height="1.699"/><polygon fill="#010101" points="-11.9,1.7 -11.9,0 -13.6,0 -15.3,0 -15.3,1.7 -13.6,1.7"/><polygon fill="#A8AAAD" points="-13.6,5.1 -13.6,6.8 -13.6,8.5 -13.6,10.2 -13.6,11.9 -13.6,13.6 -13.6,15.3 -13.6,17 -13.6,18.7 -13.6,20.4 -13.6,22.1 -13.6,23.8 -13.6,25.5 -13.6,27.2 -13.6,28.9 -13.6,30.6 -13.6,32.3 -13.6,34 -13.6,35.699 -13.6,37.4 -13.6,39.1 -13.6,40.799 -13.6,42.5 -13.6,44.199 -13.6,45.9 -13.6,47.6 -13.6,49.299 -13.6,51 -13.6,52.699 -13.6,54.4 -13.6,56.1 -13.6,57.799 -15.3,57.799 -15.3,59.5 -13.6,59.5 -13.6,61.199 -15.3,61.199 -15.3,62.9 -13.6,62.9 -13.6,64.6 -15.3,64.6 -15.3,66.299 -13.6,66.299 -11.9,66.299 -11.9,64.6 -11.9,62.9 -11.9,61.199 -11.9,59.5 -11.9,57.799 -11.9,56.1 -11.9,54.4 -11.9,52.699 -11.9,51 -11.9,49.299 -11.9,47.6 -11.9,45.9 -11.9,44.199 -11.9,42.5 -11.9,40.799 -11.9,39.1 -11.9,37.4 -11.9,35.699 -11.9,34 -11.9,32.3 -11.9,30.6 -11.9,28.9 -11.9,27.2 -11.9,25.5 -11.9,23.8 -11.9,22.1 -11.9,20.4 -11.9,18.7 -11.9,17 -11.9,15.3 -11.9,13.6 -11.9,11.9 -11.9,10.2 -11.9,8.5 -11.9,6.8 -11.9,5.1 -11.9,3.4 -13.6,3.4"/><polygon fill="#010101" points="-5.1,27.2 -6.8,27.2 -8.5,27.2 -10.2,27.2 -10.2,25.5 -10.2,23.8 -10.2,22.1 -10.2,20.4 -10.2,18.7 -10.2,17 -10.2,15.3 -10.2,13.6 -10.2,11.9 -10.2,10.2 -10.2,8.5 -10.2,6.8 -10.2,5.1 -8.5,5.1 -6.8,5.1 -5.1,5.1 -3.4,5.1 -1.7,5.1 -1.7,3.4 -3.4,3.4 -5.1,3.4 -6.8,3.4 -8.5,3.4 -10.2,3.4 -10.2,1.7 -11.9,1.7 -11.9,3.4 -11.9,5.1 -11.9,6.8 -11.9,8.5 -11.9,10.2 -11.9,11.9 -11.9,13.6 -11.9,15.3 -11.9,17 -11.9,18.7 -11.9,20.4 -11.9,22.1 -11.9,23.8 -11.9,25.5 -11.9,27.2 -11.9,28.9 -11.9,30.6 -11.9,32.3 -11.9,34 -11.9,35.699 -11.9,37.4 -11.9,39.1 -11.9,40.799 -11.9,42.5 -11.9,44.199 -11.9,45.9 -11.9,47.6 -11.9,49.299 -11.9,51 -11.9,52.699 -11.9,54.4 -11.9,56.1 -11.9,57.799 -11.9,59.5 -11.9,61.199 -11.9,62.9 -11.9,64.6 -11.9,66.299 -13.6,66.299 -15.3,66.299 -15.3,64.6 -15.3,62.9 -15.3,61.199 -15.3,59.5 -15.3,57.799 -15.3,56.1 -15.3,54.4 -15.3,52.699 -15.3,51 -15.3,49.299 -15.3,47.6 -15.3,45.9 -15.3,44.199 -15.3,42.5 -15.3,40.799 -15.3,39.1 -15.3,37.4 -15.3,35.699 -15.3,34 -15.3,32.3 -15.3,30.6 -15.3,28.9 -15.3,27.2 -15.3,25.5 -15.3,23.8 -15.3,22.1 -15.3,20.4 -15.3,18.7 -15.3,17 -15.3,15.3 -15.3,13.6 -15.3,11.9 -15.3,10.2 -15.3,8.5 -15.3,6.8 -15.3,5.1 -15.3,3.4 -15.3,1.7 -17,1.7 -17,3.4 -17,5.1 -17,6.8 -17,8.5 -17,10.2 -17,11.9 -17,13.6 -17,15.3 -17,17 -17,18.7 -17,20.4 -17,22.1 -17,23.8 -17,25.5 -17,27.2 -17,28.9 -17,30.6 -17,32.3 -17,34 -17,35.699 -17,37.4 -17,39.1 -17,40.799 -17,42.5 -17,44.199 -17,45.9 -17,47.6 -17,49.299 -17,51 -17,52.699 -17,54.4 -17,56.1 -17,57.799 -17,59.5 -17,61.199 -17,62.9 -17,64.6 -17,66.299 -17,68 -15.3,68 -13.6,68 -11.9,68 -10.2,68 -10.2,66.299 -10.2,64.6 -10.2,62.9 -10.2,61.199 -10.2,59.5 -10.2,57.799 -10.2,56.1 -10.2,54.4 -10.2,52.699 -10.2,51 -10.2,49.299 -10.2,47.6 -10.2,45.9 -10.2,44.199 -10.2,42.5 -10.2,40.799 -10.2,39.1 -10.2,37.4 -10.2,35.699 -10.2,34 -10.2,32.3 -10.2,30.6 -10.2,28.9 -8.5,28.9 -6.8,28.9 -5.1,28.9 -3.4,28.9 -1.7,28.9 -1.7,27.2 -3.4,27.2"/><polygon fill="#A61F24" points="-10.2,8.5 -10.2,10.2 -10.2,11.9 -10.2,13.6 -10.2,15.3 -10.2,17 -10.2,18.7 -10.2,20.4 -10.2,22.1 -10.2,23.8 -10.2,25.5 -10.2,27.2 -8.5,27.2 -8.5,25.5 -8.5,23.8 -8.5,22.1 -8.5,20.4 -8.5,18.7 -8.5,17 -8.5,15.3 -8.5,13.6 -8.5,11.9 -8.5,10.2 -8.5,8.5 -8.5,6.8 -10.2,6.8"/><polygon fill="#EF664F" points="-3.4,5.1 -5.1,5.1 -6.8,5.1 -8.5,5.1 -8.5,6.8 -6.8,6.8 -5.1,6.8 -3.4,6.8 -1.7,6.8 -1.7,5.1"/><polygon fill="#010101" points="8.5,5.1 10.2,5.1 11.9,5.1 13.6,5.1 15.3,5.1 15.3,3.4 13.6,3.4 11.9,3.4 10.2,3.4 8.5,3.4 6.8,3.4 6.8,5.1"/><polygon fill="#010101" points="15.3,5.1 15.3,6.8 15.3,8.5 15.3,10.2 15.3,11.9 15.3,13.6 15.3,15.3 15.3,17 15.3,18.7 15.3,20.4 15.3,22.1 15.3,23.8 15.3,25.5 15.3,27.2 17,27.2 17,25.5 17,23.8 17,22.1 17,20.4 17,18.7 17,17 17,15.3 17,13.6 17,11.9 17,10.2 17,8.5 17,6.8 17,5.1"/><polygon fill="#010101" points="11.9,27.2 10.2,27.2 8.5,27.2 6.8,27.2 6.8,28.9 8.5,28.9 10.2,28.9 11.9,28.9 13.6,28.9 15.3,28.9 15.3,27.2 13.6,27.2"/><polygon fill="#EF664F" points="8.5,25.5 8.5,23.8 8.5,22.1 8.5,20.4 6.8,20.4 6.8,22.1 6.8,23.8 6.8,25.5 6.8,27.2 8.5,27.2"/><polygon fill="#EF664F" points="6.8,8.5 6.8,10.2 6.8,11.9 6.8,13.6 8.5,13.6 8.5,11.9 8.5,10.2 8.5,8.5 8.5,6.8 6.8,6.8"/><rect x="6.8" y="5.1" fill="#F6892E" width="1.7" height="1.7"/><polygon fill="#EF664F" points="11.9,5.1 10.2,5.1 8.5,5.1 8.5,6.8 10.2,6.8 11.9,6.8 13.6,6.8 15.3,6.8 15.3,5.1 13.6,5.1"/><polygon fill="#010101" points="1.7,3.4 3.4,3.4 5.1,3.4 6.8,3.4 6.8,1.7 5.1,1.7 3.4,1.7 1.7,1.7 0,1.7 -1.7,1.7 -1.7,3.4 0,3.4"/><polygon fill="#010101" points="5.1,25.5 3.4,25.5 1.7,25.5 0,25.5 -1.7,25.5 -1.7,27.2 0,27.2 1.7,27.2 3.4,27.2 5.1,27.2 6.8,27.2 6.8,25.5"/><polygon fill="#8C191C" points="0,22.1 0,20.4 -1.7,20.4 -1.7,22.1 -1.7,23.8 -1.7,25.5 0,25.5 0,23.8"/><polygon fill="#8C191C" points="-1.7,17 0,17 0,15.3 0,13.6 -1.7,13.6 -1.7,15.3"/><polygon fill="#8C191C" points="0,8.5 0,6.8 0,5.1 -1.7,5.1 -1.7,6.8 -1.7,8.5 -1.7,10.2 0,10.2"/><rect x="-1.7" y="3.4" fill="#A61F24" width="1.7" height="1.7"/><polygon fill="#A61F24" points="5.1,22.1 3.4,22.1 3.4,20.4 3.4,18.7 5.1,18.7 5.1,17 6.8,17 6.8,15.3 6.8,13.6 5.1,13.6 5.1,11.9 3.4,11.9 3.4,10.2 3.4,8.5 5.1,8.5 5.1,10.2 6.8,10.2 6.8,8.5 6.8,6.8 6.8,5.1 5.1,5.1 3.4,5.1 1.7,5.1 0,5.1 0,6.8 0,8.5 1.7,8.5 1.7,10.2 1.7,11.9 0,11.9 0,13.6 0,15.3 0,17 0,18.7 1.7,18.7 1.7,20.4 1.7,22.1 0,22.1 0,23.8 0,25.5 1.7,25.5 3.4,25.5 5.1,25.5 6.8,25.5 6.8,23.8 6.8,22.1 6.8,20.4 5.1,20.4"/><polygon fill="#D2D3D4" points="0,11.9 1.7,11.9 1.7,10.2 1.7,8.5 0,8.5 0,10.2"/><polygon fill="#A8AAAD" points="0,11.9 0,10.2 -1.7,10.2 -1.7,11.9 -1.7,13.6 0,13.6"/><polygon fill="#E7E7E7" points="-1.7,17 -1.7,15.3 -1.7,13.6 -3.4,13.6 -3.4,15.3 -5.1,15.3 -5.1,17 -5.1,18.7 -3.4,18.7 -3.4,20.4 -1.7,20.4 -1.7,18.7"/><polygon fill="#D2D3D4" points="0,22.1 1.7,22.1 1.7,20.4 1.7,18.7 0,18.7 0,20.4"/><polygon fill="#A8AAAD" points="0,18.7 0,17 -1.7,17 -1.7,18.7 -1.7,20.4 0,20.4"/><polygon fill="#D2D3D4" points="5.1,8.5 3.4,8.5 3.4,10.2 3.4,11.9 5.1,11.9 5.1,13.6 6.8,13.6 6.8,11.9 6.8,10.2 5.1,10.2"/><polygon fill="#D2D3D4" points="6.8,17 5.1,17 5.1,18.7 3.4,18.7 3.4,20.4 3.4,22.1 5.1,22.1 5.1,20.4 6.8,20.4 6.8,18.7"/><polygon fill="#E7E7E7" points="6.8,15.3 6.8,17 6.8,18.7 6.8,20.4 8.5,20.4 8.5,18.7 10.2,18.7 10.2,17 10.2,15.3 8.5,15.3 8.5,13.6 6.8,13.6"/><rect x="18.7" y="59.5" fill="#E7E7E7" width="1.7" height="1.699"/><polygon fill="#E7E7E7" points="18.7,5.1 18.7,6.8 18.7,8.5 18.7,10.2 18.7,11.9 18.7,13.6 18.7,15.3 18.7,17 18.7,18.7 18.7,20.4 18.7,22.1 18.7,23.8 18.7,25.5 18.7,27.2 18.7,28.9 18.7,30.6 18.7,32.3 18.7,34 18.7,35.699 18.7,37.4 18.7,39.1 18.7,40.799 18.7,42.5 18.7,44.199 18.7,45.9 18.7,47.6 18.7,49.299 18.7,51 18.7,52.699 18.7,54.4 18.7,56.1 18.7,57.799 20.4,57.799 20.4,56.1 20.4,54.4 20.4,52.699 20.4,51 20.4,49.299 20.4,47.6 20.4,45.9 20.4,44.199 20.4,42.5 20.4,40.799 20.4,39.1 20.4,37.4 20.4,35.699 20.4,34 20.4,32.3 20.4,30.6 20.4,28.9 20.4,27.2 20.4,25.5 20.4,23.8 20.4,22.1 20.4,20.4 20.4,18.7 20.4,17 20.4,15.3 20.4,13.6 20.4,11.9 20.4,10.2 20.4,8.5 20.4,6.8 20.4,5.1 20.4,3.4 22.1,3.4 22.1,1.7 20.4,1.7 18.7,1.7 18.7,3.4"/><rect x="18.7" y="62.9" fill="#E7E7E7" width="1.7" height="1.699"/><polygon fill="#010101" points="22.1,1.7 22.1,0 20.4,0 18.7,0 18.7,1.7 20.4,1.7"/><polygon fill="#A8AAAD" points="20.4,5.1 20.4,6.8 20.4,8.5 20.4,10.2 20.4,11.9 20.4,13.6 20.4,15.3 20.4,17 20.4,18.7 20.4,20.4 20.4,22.1 20.4,23.8 20.4,25.5 20.4,27.2 20.4,28.9 20.4,30.6 20.4,32.3 20.4,34 20.4,35.699 20.4,37.4 20.4,39.1 20.4,40.799 20.4,42.5 20.4,44.199 20.4,45.9 20.4,47.6 20.4,49.299 20.4,51 20.4,52.699 20.4,54.4 20.4,56.1 20.4,57.799 18.7,57.799 18.7,59.5 20.4,59.5 20.4,61.199 18.7,61.199 18.7,62.9 20.4,62.9 20.4,64.6 18.7,64.6 18.7,66.299 20.4,66.299 22.1,66.299 22.1,64.6 22.1,62.9 22.1,61.199 22.1,59.5 22.1,57.799 22.1,56.1 22.1,54.4 22.1,52.699 22.1,51 22.1,49.299 22.1,47.6 22.1,45.9 22.1,44.199 22.1,42.5 22.1,40.799 22.1,39.1 22.1,37.4 22.1,35.699 22.1,34 22.1,32.3 22.1,30.6 22.1,28.9 22.1,27.2 22.1,25.5 22.1,23.8 22.1,22.1 22.1,20.4 22.1,18.7 22.1,17 22.1,15.3 22.1,13.6 22.1,11.9 22.1,10.2 22.1,8.5 22.1,6.8 22.1,5.1 22.1,3.4 20.4,3.4"/><polygon fill="#010101" points="28.9,27.2 27.2,27.2 25.5,27.2 23.8,27.2 23.8,25.5 23.8,23.8 23.8,22.1 23.8,20.4 23.8,18.7 23.8,17 23.8,15.3 23.8,13.6 23.8,11.9 23.8,10.2 23.8,8.5 23.8,6.8 23.8,5.1 25.5,5.1 27.2,5.1 28.9,5.1 30.6,5.1 32.3,5.1 32.3,3.4 30.6,3.4 28.9,3.4 27.2,3.4 25.5,3.4 23.8,3.4 23.8,1.7 22.1,1.7 22.1,3.4 22.1,5.1 22.1,6.8 22.1,8.5 22.1,10.2 22.1,11.9 22.1,13.6 22.1,15.3 22.1,17 22.1,18.7 22.1,20.4 22.1,22.1 22.1,23.8 22.1,25.5 22.1,27.2 22.1,28.9 22.1,30.6 22.1,32.3 22.1,34 22.1,35.699 22.1,37.4 22.1,39.1 22.1,40.799 22.1,42.5 22.1,44.199 22.1,45.9 22.1,47.6 22.1,49.299 22.1,51 22.1,52.699 22.1,54.4 22.1,56.1 22.1,57.799 22.1,59.5 22.1,61.199 22.1,62.9 22.1,64.6 22.1,66.299 20.4,66.299 18.7,66.299 18.7,64.6 18.7,62.9 18.7,61.199 18.7,59.5 18.7,57.799 18.7,56.1 18.7,54.4 18.7,52.699 18.7,51 18.7,49.299 18.7,47.6 18.7,45.9 18.7,44.199 18.7,42.5 18.7,40.799 18.7,39.1 18.7,37.4 18.7,35.699 18.7,34 18.7,32.3 18.7,30.6 18.7,28.9 18.7,27.2 18.7,25.5 18.7,23.8 18.7,22.1 18.7,20.4 18.7,18.7 18.7,17 18.7,15.3 18.7,13.6 18.7,11.9 18.7,10.2 18.7,8.5 18.7,6.8 18.7,5.1 18.7,3.4 18.7,1.7 17,1.7 17,3.4 17,5.1 17,6.8 17,8.5 17,10.2 17,11.9 17,13.6 17,15.3 17,17 17,18.7 17,20.4 17,22.1 17,23.8 17,25.5 17,27.2 17,28.9 17,30.6 17,32.3 17,34 17,35.699 17,37.4 17,39.1 17,40.799 17,42.5 17,44.199 17,45.9 17,47.6 17,49.299 17,51 17,52.699 17,54.4 17,56.1 17,57.799 17,59.5 17,61.199 17,62.9 17,64.6 17,66.299 17,68 18.7,68 20.4,68 22.1,68 23.8,68 23.8,66.299 23.8,64.6 23.8,62.9 23.8,61.199 23.8,59.5 23.8,57.799 23.8,56.1 23.8,54.4 23.8,52.699 23.8,51 23.8,49.299 23.8,47.6 23.8,45.9 23.8,44.199 23.8,42.5 23.8,40.799 23.8,39.1 23.8,37.4 23.8,35.699 23.8,34 23.8,32.3 23.8,30.6 23.8,28.9 25.5,28.9 27.2,28.9 28.9,28.9 30.6,28.9 32.3,28.9 32.3,27.2 30.6,27.2"/><polygon fill="#A61F24" points="23.8,8.5 23.8,10.2 23.8,11.9 23.8,13.6 23.8,15.3 23.8,17 23.8,18.7 23.8,20.4 23.8,22.1 23.8,23.8 23.8,25.5 23.8,27.2 25.5,27.2 25.5,25.5 25.5,23.8 25.5,22.1 25.5,20.4 25.5,18.7 25.5,17 25.5,15.3 25.5,13.6 25.5,11.9 25.5,10.2 25.5,8.5 25.5,6.8 23.8,6.8"/><polygon fill="#EF664F" points="30.6,5.1 28.9,5.1 27.2,5.1 25.5,5.1 25.5,6.8 27.2,6.8 28.9,6.8 30.6,6.8 32.3,6.8 32.3,5.1"/><polygon fill="#010101" points="42.5,3.4 44.2,3.4 45.9,3.4 47.6,3.4 49.3,3.4 49.3,1.7 47.6,1.7 45.9,1.7 44.2,1.7 42.5,1.7 40.8,1.7 40.8,3.4"/><polygon fill="#010101" points="49.3,3.4 49.3,5.1 49.3,6.8 49.3,8.5 49.3,10.2 49.3,11.9 49.3,13.6 49.3,15.3 49.3,17 49.3,18.7 49.3,20.4 49.3,22.1 49.3,23.8 49.3,25.5 51,25.5 51,23.8 51,22.1 51,20.4 51,18.7 51,17 51,15.3 51,13.6 51,11.9 51,10.2 51,8.5 51,6.8 51,5.1 51,3.4"/><polygon fill="#010101" points="45.9,25.5 44.2,25.5 42.5,25.5 40.8,25.5 40.8,27.201 42.5,27.201 44.2,27.201 45.9,27.201 47.6,27.201 49.3,27.201 49.3,25.5 47.6,25.5"/><polygon fill="#EF664F" points="42.5,23.8 42.5,22.1 42.5,20.4 42.5,18.7 40.8,18.7 40.8,20.4 40.8,22.1 40.8,23.8 40.8,25.5 42.5,25.5"/><polygon fill="#EF664F" points="40.8,6.8 40.8,8.5 40.8,10.2 40.8,11.9 42.5,11.9 42.5,10.2 42.5,8.5 42.5,6.8 42.5,5.1 40.8,5.1"/><rect x="40.8" y="3.4" fill="#F6892E" width="1.7" height="1.7"/><polygon fill="#EF664F" points="45.9,3.4 44.2,3.4 42.5,3.4 42.5,5.1 44.2,5.1 45.9,5.1 47.6,5.1 49.3,5.1 49.3,3.4 47.6,3.4"/><polygon fill="#010101" points="35.7,5.1 37.4,5.1 39.1,5.1 40.8,5.1 40.8,3.4 39.1,3.4 37.4,3.4 35.7,3.4 34,3.4 32.3,3.4 32.3,5.1 34,5.1"/><polygon fill="#010101" points="39.1,27.2 37.4,27.2 35.7,27.2 34,27.2 32.3,27.2 32.3,28.9 34,28.9 35.7,28.9 37.4,28.9 39.1,28.9 40.8,28.9 40.8,27.2"/><polygon fill="#8C191C" points="34,23.8 34,22.1 32.3,22.1 32.3,23.8 32.3,25.5 32.3,27.2 34,27.2 34,25.5"/><polygon fill="#8C191C" points="32.3,18.7 34,18.7 34,17 34,15.3 32.3,15.3 32.3,17"/><polygon fill="#8C191C" points="34,10.2 34,8.5 34,6.8 32.3,6.8 32.3,8.5 32.3,10.2 32.3,11.9 34,11.9"/><rect x="32.3" y="5.1" fill="#A61F24" width="1.7" height="1.7"/><polygon fill="#A61F24" points="39.1,23.8 37.4,23.8 37.4,22.1 37.4,20.4 39.1,20.4 39.1,18.7 40.8,18.7 40.8,17 40.8,15.3 39.1,15.3 39.1,13.6 37.4,13.6 37.4,11.9 37.4,10.2 39.1,10.2 39.1,11.9 40.8,11.9 40.8,10.2 40.8,8.5 40.8,6.8 39.1,6.8 37.4,6.8 35.7,6.8 34,6.8 34,8.5 34,10.2 35.7,10.2 35.7,11.9 35.7,13.6 34,13.6 34,15.3 34,17 34,18.7 34,20.4 35.7,20.4 35.7,22.1 35.7,23.8 34,23.8 34,25.5 34,27.2 35.7,27.2 37.4,27.2 39.1,27.2 40.8,27.2 40.8,25.5 40.8,23.8 40.8,22.1 39.1,22.1"/><polygon fill="#D2D3D4" points="34,13.6 35.7,13.6 35.7,11.9 35.7,10.2 34,10.2 34,11.9"/><polygon fill="#A8AAAD" points="34,13.6 34,11.9 32.3,11.9 32.3,13.6 32.3,15.3 34,15.3"/><polygon fill="#E7E7E7" points="32.3,17 32.3,15.3 32.3,13.6 30.6,13.6 30.6,15.3 28.9,15.3 28.9,17 28.9,18.7 30.6,18.7 30.6,20.4 32.3,20.4 32.3,18.7"/><polygon fill="#D2D3D4" points="34,23.8 35.7,23.8 35.7,22.1 35.7,20.4 34,20.4 34,22.1"/><polygon fill="#A8AAAD" points="34,20.4 34,18.7 32.3,18.7 32.3,20.4 32.3,22.1 34,22.1"/><polygon fill="#D2D3D4" points="39.1,10.2 37.4,10.2 37.4,11.9 37.4,13.6 39.1,13.6 39.1,15.3 40.8,15.3 40.8,13.6 40.8,11.9 39.1,11.9"/><polygon fill="#D2D3D4" points="40.8,18.7 39.1,18.7 39.1,20.4 37.4,20.4 37.4,22.1 37.4,23.8 39.1,23.8 39.1,22.1 40.8,22.1 40.8,20.4"/><polygon fill="#E7E7E7" points="40.8,13.6 40.8,15.3 40.8,17 40.8,18.7 42.5,18.7 42.5,17 44.2,17 44.2,15.3 44.2,13.6 42.5,13.6 42.5,11.9 40.8,11.9"/></svg>