<svg xmlns="http://www.w3.org/2000/svg" width="17" height="25.5"><polygon fill="#C9262F" points="11.9,3.4 11.9,1.7 8.5,1.7 8.5,3.4 5.1,3.4 5.1,11.9 8.5,11.9 8.5,10.2 11.9,10.2 11.9,11.9 15.3,11.9 15.3,3.4"/><rect x="1.7" y="3.4" fill="#E7E7E7" width="1.7" height="1.7"/><polygon fill="#A8AAAD" points="3.4,6.8 1.7,6.8 1.7,23.8 3.4,23.8"/><polygon fill="#A61F24" points="6.8,5.1 5.1,5.1 5.1,11.9 6.8,11.9"/><polygon fill="#8C191C" points="8.5,10.2 10.2,10.2 10.2,3.4 8.5,3.4"/><polygon fill="#A61F24" points="10.2,10.2 11.9,10.2 11.9,5.1 11.9,3.4 10.2,3.4 10.2,5.1"/><polygon fill="#EF664F" points="11.9,11.9 13.6,11.9 13.6,5.1 11.9,5.1"/><rect x="6.8" y="3.4" fill="#EF664F" width="1.7" height="1.7"/><rect x="8.5" y="1.7" fill="#A61F24" width="1.7" height="1.7"/><rect x="11.9" y="3.4" fill="#F6892E" width="1.7" height="1.7"/><rect x="13.6" y="3.4" fill="#EF664F" width="1.7" height="1.7"/><rect x="1.7" y="23.8" fill="#010101" width="1.7" height="1.7"/><polygon fill="#010101" points="0,23.8 1.7,23.8 1.7,6.8 3.4,6.8 3.4,23.8 5.1,23.8 5.1,13.6 8.5,13.6 8.5,11.9 5.1,11.9 5.1,3.4 3.4,3.4 3.4,5.1 1.7,5.1 1.7,3.4 0,3.4"/><rect x="1.7" y="1.7" fill="#010101" width="1.7" height="1.7"/><polygon fill="#010101" points="8.5,3.4 8.5,1.7 5.1,1.7 5.1,3.4"/><polygon fill="#010101" points="11.9,11.9 11.9,10.2 10.2,10.2 8.5,10.2 8.5,11.9 10.2,11.9"/><polygon fill="#010101" points="11.9,1.7 11.9,0 8.5,0 8.5,1.7"/><polygon fill="#010101" points="15.3,3.4 15.3,1.7 11.9,1.7 11.9,3.4"/><polygon fill="#010101" points="11.9,11.9 11.9,13.6 13.6,13.6 15.3,13.6 15.3,11.9 13.6,11.9"/><polygon fill="#010101" points="15.3,11.9 17,11.9 17,3.4 15.3,3.4"/></svg>