<svg xmlns="http://www.w3.org/2000/svg" width="96" height="70"><polygon fill="#424143" points="24,66 24,64 24,62 24,60 24,58 22,58 22,56 22,54 22,52 22,50 22,48 22,46 20,46 20,44 20,42 20,40 20,38 20,36 20,34 18,34 18,32 18,30 18,28 18,26 18,24 18,22 16,22 16,20 16,18 18,18 18,16 20,16 22,16 24,16 26,16 28,16 28,18 30,18 32,18 34,18 36,18 36,20 38,20 40,20 42,20 44,20 44,22 46,22 48,22 50,22 52,22 54,22 54,24 54,26 54,28 54,30 56,30 56,28 56,26 56,24 56,22 56,20 56,18 56,16 56,14 54,14 54,12 54,10 52,10 52,8 50,8 48,8 46,8 44,8 44,6 42,6 40,6 38,6 36,6 36,4 34,4 32,4 30,4 28,4 28,2 26,2 24,2 22,2 20,2 20,4 18,4 16,4 16,6 14,6 14,8 14,10 12,10 12,12 12,14 12,16 12,18 12,20 12,22 14,22 14,24 14,26 14,28 14,30 14,32 14,34 16,34 16,36 16,38 16,40 16,42 16,44 16,46 18,46 18,48 18,50 18,52 18,54 18,56 18,58 20,58 20,60 20,62 20,64 20,66 20,68 20,70 22,70 24,70 24,68"/><polygon fill="#424143" points="56,32 56,34 56,36 56,38 56,40 56,42 56,44 56,46 58,46 58,44 58,42 58,40 58,38 58,36 58,34 58,32 58,30 56,30"/><polygon fill="#424143" points="58,48 58,50 58,52 58,54 58,56 58,58 58,60 58,62 60,62 60,60 60,58 60,56 60,54 60,52 60,50 60,48 60,46 58,46"/><rect x="6" y="62" fill="#424143" width="2" height="2"/><rect x="62" y="42" fill="#010101" width="2" height="2"/><rect x="60" y="42" fill="#BDBEC0" width="2" height="2"/><rect x="62" y="44" fill="#BDBEC0" width="2" height="2"/><rect x="64" y="46" fill="#BDBEC0" width="2" height="2"/><rect x="64" y="48" fill="#939598" width="2" height="2"/><rect x="62" y="46" fill="#939598" width="2" height="2"/><rect x="60" y="44" fill="#939598" width="2" height="2"/><rect x="72" y="50" fill="#939598" width="2" height="2"/><rect x="76" y="48" fill="#939598" width="2" height="2"/><rect x="80" y="46" fill="#939598" width="2" height="2"/><rect x="78" y="46" fill="#BDBEC0" width="2" height="2"/><rect x="90" y="44" fill="#BDBEC0" width="2" height="2"/><rect x="86" y="38" fill="#BDBEC0" width="2" height="2"/><rect x="74" y="48" fill="#BDBEC0" width="2" height="2"/><polygon fill="#2075BC" points="84,44 84,46 86,46 88,46 88,44 88,42 86,42 86,44"/><rect x="84" y="42" fill="#34A3DC" width="2" height="2"/><rect x="66" y="50" fill="#34A3DC" width="2" height="2"/><polygon fill="#2075BC" points="70,50 68,50 68,52 66,52 66,54 68,54 70,54 70,52"/><rect x="64" y="44" fill="#010101" width="2" height="2"/><polygon fill="#010101" points="72,50 74,50 74,48 72,48 70,48 68,48 68,46 66,46 66,48 66,50 68,50 70,50 70,52 70,54 72,54 74,54 74,52 72,52"/><polygon fill="#010101" points="66,54 66,56 68,56 70,56 70,54 68,54"/><polygon fill="#010101" points="66,50 64,50 64,52 64,54 66,54 66,52"/><polygon fill="#010101" points="62,48 62,46 60,46 60,48 60,50 60,52 60,54 60,56 60,58 60,60 60,62 62,62 62,60 62,58 62,56 62,54 62,52 62,50 64,50 64,48"/><polygon fill="#010101" points="78,48 78,46 76,46 74,46 74,48 76,48"/><polygon fill="#010101" points="78,48 78,50 80,50 82,50 82,48 80,48"/><polygon fill="#010101" points="74,50 74,52 76,52 78,52 78,50 76,50"/><polygon fill="#010101" points="16,50 16,52 16,54 16,56 16,58 18,58 18,56 18,54 18,52 18,50 18,48 18,46 16,46 16,48"/><polygon fill="#010101" points="14,38 14,40 14,42 14,44 14,46 16,46 16,44 16,42 16,40 16,38 16,36 16,34 14,34 14,36"/><polygon fill="#010101" points="12,26 12,28 12,30 12,32 12,34 14,34 14,32 14,30 14,28 14,26 14,24 14,22 12,22 12,24"/><polygon fill="#010101" points="10,12 10,14 10,16 10,18 10,20 10,22 12,22 12,20 12,18 12,16 12,14 12,12 12,10 10,10"/><polygon fill="#010101" points="12,8 12,10 14,10 14,8 14,6 12,6"/><rect x="14" y="4" fill="#010101" width="2" height="2"/><polygon fill="#010101" points="30,4 32,4 34,4 36,4 36,2 34,2 32,2 30,2 28,2 28,4"/><polygon fill="#010101" points="38,6 40,6 42,6 44,6 44,4 42,4 40,4 38,4 36,4 36,6"/><polygon fill="#010101" points="46,8 48,8 50,8 52,8 52,6 50,6 48,6 46,6 44,6 44,8"/><rect x="52" y="8" fill="#010101" width="2" height="2"/><polygon fill="#010101" points="54,14 56,14 56,12 56,10 54,10 54,12"/><polygon fill="#010101" points="56,18 56,20 56,22 56,24 56,26 56,28 56,30 58,30 58,28 58,26 58,24 58,22 58,20 58,18 58,16 58,14 56,14 56,16"/><polygon fill="#010101" points="58,34 58,36 58,38 58,40 58,42 58,44 58,46 60,46 60,44 60,42 62,42 62,40 60,40 60,38 60,36 60,34 60,32 60,30 58,30 58,32"/><polygon fill="#010101" points="62,66 62,68 62,70 64,70 64,68 64,66 64,64 64,62 62,62 62,64"/><polygon fill="#010101" points="20,66 20,64 20,62 20,60 20,58 18,58 18,60 18,62 18,64 18,66 18,68 18,70 20,70 20,68"/><polygon fill="#010101" points="10,66 10,64 10,62 10,60 10,58 8,58 8,56 6,56 6,58 6,60 6,62 8,62 8,64 6,64 6,66 6,68 4,68 2,68 2,70 4,70 6,70 8,70 10,70 10,68"/><polygon fill="#010101" points="4,30 4,28 4,26 4,24 4,22 2,22 2,24 2,26 2,28 2,30 2,32 2,34 4,34 4,32"/><polygon fill="#010101" points="2,18 2,16 2,14 2,12 2,10 0,10 0,12 0,14 0,16 0,18 0,20 0,22 2,22 2,20"/><polygon fill="#010101" points="4,8 4,6 2,6 2,8 2,10 4,10"/><rect x="4" y="4" fill="#010101" width="2" height="2"/><polygon fill="#010101" points="10,4 10,2 8,2 6,2 6,4 8,4"/><polygon fill="#010101" points="14,2 16,2 16,4 18,4 20,4 20,2 22,2 24,2 26,2 28,2 28,0 26,0 24,0 22,0 20,0 18,0 16,0 14,0 12,0 10,0 10,2 12,2"/><polygon fill="#BDBEC0" points="8,6 10,6 12,6 14,6 14,4 16,4 16,2 14,2 12,2 10,2 10,4 8,4 6,4 6,6"/><polygon fill="#939598" points="6,8 8,8 10,8 12,8 12,6 10,6 8,6 6,6 4,6 4,8"/><polygon fill="#BDBEC0" points="10,8 8,8 6,8 4,8 4,10 6,10 8,10 10,10 12,10 12,8"/><polygon fill="#C7AB2E" points="48,24 46,24 44,24 44,22 42,22 40,22 38,22 36,22 36,20 34,20 32,20 30,20 28,20 28,18 26,18 24,18 22,18 20,18 18,18 18,20 18,22 20,22 22,22 24,22 26,22 28,22 28,24 30,24 32,24 34,24 36,24 36,26 38,26 40,26 42,26 44,26 44,28 46,28 48,28 48,26"/><polygon fill="#FFDE11" points="42,36 40,36 40,38 40,40 42,40 42,38"/><polygon fill="#FFDE11" points="30,38 32,38 32,36 32,34 30,34 30,36"/><polygon fill="#FFDE11" points="40,52 40,50 38,50 36,50 34,50 32,50 32,52 34,52 34,54 36,54 38,54 38,52"/><path fill="#FFDE11" d="M54 66v-4h-2v-16h-2v-16h-2v-2h-4v-2h-8v-2h-8v-2h-8v12h2v12h2v12h2v12h28v-4zm-26-30v-2h2v-2h2v2h2v4h-2v2h-2v-2h-2v-2zm16 16h-2v2h-4v2h-4v-2h-2v-2h-2v-4h10v2h4v2zm0-14v2h-2v2h-2v-2h-2v-4h2v-2h2v2h2v2z"/><polygon fill="#424143" points="60,64 60,66 60,68 60,70 62,70 62,68 62,66 62,64 62,62 60,62"/><polygon fill="#939598" points="18,66 18,64 18,62 18,60 18,58 16,58 16,56 16,54 16,52 16,50 16,48 16,46 14,46 14,44 14,42 14,40 14,38 14,36 14,34 12,34 12,32 12,30 12,28 12,26 12,24 12,22 10,22 10,20 10,18 10,16 10,14 10,12 10,10 8,10 6,10 4,10 2,10 2,12 2,14 2,16 2,18 2,20 2,22 4,22 4,24 4,26 4,28 4,30 4,32 4,34 6,34 6,36 6,38 6,40 6,42 6,44 8,44 8,42 10,42 10,44 12,44 12,46 12,48 12,50 12,52 12,54 12,56 10,56 10,58 10,60 10,62 10,64 10,66 10,68 10,70 12,70 14,70 16,70 18,70 18,68"/><polygon fill="#939598" points="58,66 58,64 58,62 56,62 56,64 56,66 56,68 56,70 58,70 58,68"/><polygon opacity=".5" fill="#FFDE11" enable-background="new" points="58,66 58,64 58,62 56,62 56,64 56,66 56,68 56,70 58,70 58,68"/><polygon fill="#939598" points="56,58 56,56 56,54 56,52 56,50 56,48 56,46 54,46 54,48 54,50 54,52 54,54 54,56 54,58 54,60 54,62 56,62 56,60"/><polygon opacity=".5" fill="#FFDE11" enable-background="new" points="56,58 56,56 56,54 56,52 56,50 56,48 56,46 54,46 54,48 54,50 54,52 54,54 54,56 54,58 54,60 54,62 56,62 56,60"/><polygon fill="#939598" points="54,44 54,42 54,40 54,38 54,36 54,34 54,32 54,30 52,30 52,32 52,34 52,36 52,38 52,40 52,42 52,44 52,46 54,46"/><polygon opacity=".5" fill="#FFDE11" enable-background="new" points="54,44 54,42 54,40 54,38 54,36 54,34 54,32 54,30 52,30 52,32 52,34 52,36 52,38 52,40 52,42 52,44 52,46 54,46"/><polygon fill="#939598" points="52,28 52,26 52,24 50,24 50,26 50,28 50,30 52,30"/><polygon opacity=".5" fill="#FFDE11" enable-background="new" points="52,28 52,26 52,24 50,24 50,26 50,28 50,30 52,30"/><polygon fill="#010101" points="26,66 26,64 26,62 26,60 26,58 24,58 24,60 24,62 24,64 24,66 24,68 24,70 26,70 26,68"/><polygon fill="#010101" points="22,50 22,52 22,54 22,56 22,58 24,58 24,56 24,54 24,52 24,50 24,48 24,46 22,46 22,48"/><polygon fill="#010101" points="20,38 20,40 20,42 20,44 20,46 22,46 22,44 22,42 22,40 22,38 22,36 22,34 20,34 20,36"/><polygon fill="#010101" points="18,24 18,26 18,28 18,30 18,32 18,34 20,34 20,32 20,30 20,28 20,26 20,24 20,22 18,22"/><polygon fill="#010101" points="18,18 16,18 16,20 16,22 18,22 18,20"/><polygon fill="#010101" points="22,18 24,18 26,18 28,18 28,16 26,16 24,16 22,16 20,16 18,16 18,18 20,18"/><polygon fill="#010101" points="30,20 32,20 34,20 36,20 36,18 34,18 32,18 30,18 28,18 28,20"/><polygon fill="#010101" points="38,22 40,22 42,22 44,22 44,20 42,20 40,20 38,20 36,20 36,22"/><polygon fill="#010101" points="50,26 50,24 52,24 52,26 52,28 52,30 54,30 54,28 54,26 54,24 54,22 52,22 50,22 48,22 46,22 44,22 44,24 46,24 48,24 48,26 48,28 48,30 50,30 50,28"/><polygon fill="#010101" points="52,42 52,40 52,38 52,36 52,34 52,32 52,30 50,30 50,32 50,34 50,36 50,38 50,40 50,42 50,44 50,46 52,46 52,44"/><polygon fill="#010101" points="54,58 54,56 54,54 54,52 54,50 54,48 54,46 52,46 52,48 52,50 52,52 52,54 52,56 52,58 52,60 52,62 54,62 54,60"/><polygon fill="#010101" points="56,66 56,64 56,62 54,62 54,64 54,66 54,68 54,70 56,70 56,68"/><polygon fill="#010101" points="54,34 54,36 54,38 54,40 54,42 54,44 54,46 56,46 56,44 56,42 56,40 56,38 56,36 56,34 56,32 56,30 54,30 54,32"/><polygon fill="#010101" points="58,58 58,56 58,54 58,52 58,50 58,48 58,46 56,46 56,48 56,50 56,52 56,54 56,56 56,58 56,60 56,62 58,62 58,60"/><polygon fill="#010101" points="60,66 60,64 60,62 58,62 58,64 58,66 58,68 58,70 60,70 60,68"/><polygon fill="#C7AB2E" points="30,36 30,34 28,34 28,36 28,38 30,38"/><rect x="30" y="32" fill="#C7AB2E" width="2" height="2"/><polygon fill="#C7AB2E" points="32,38 34,38 34,36 34,34 32,34 32,36"/><rect x="30" y="38" fill="#C7AB2E" width="2" height="2"/><polygon fill="#C7AB2E" points="40,36 38,36 38,38 38,40 40,40 40,38"/><rect x="40" y="34" fill="#C7AB2E" width="2" height="2"/><polygon fill="#C7AB2E" points="42,38 42,40 44,40 44,38 44,36 42,36"/><rect x="40" y="40" fill="#C7AB2E" width="2" height="2"/><polygon fill="#C7AB2E" points="40,50 40,52 38,52 38,54 40,54 42,54 42,52 44,52 44,50 42,50"/><polygon fill="#C7AB2E" points="34,54 34,56 36,56 38,56 38,54 36,54"/><rect x="32" y="52" fill="#C7AB2E" width="2" height="2"/><polygon fill="#C7AB2E" points="34,50 36,50 38,50 40,50 40,48 38,48 36,48 34,48 32,48 30,48 30,50 30,52 32,52 32,50"/><polygon fill="#010101" points="94,46 94,44 92,44 92,46 90,46 90,44 92,44 92,42 90,42 90,40 90,38 90,36 90,34 88,34 88,36 86,36 86,38 88,38 88,40 86,40 86,38 84,38 84,40 84,42 86,42 88,42 88,44 88,46 86,46 84,46 84,44 84,42 82,42 82,44 80,44 78,44 78,46 80,46 82,46 82,48 84,48 86,48 88,48 90,48 92,48 94,48 96,48 96,46"/><rect x="8" y="42" fill="#010101" width="2" height="2"/><rect x="8" y="44" fill="#BDBEC0" width="2" height="2"/><polygon fill="#939598" points="10,48 10,46 8,46 8,48 8,50 10,50"/><polygon fill="#939598" points="6,54 6,56 8,56 8,54 8,52 8,50 6,50 6,52"/><polygon fill="#939598" points="4,60 4,62 6,62 6,60 6,58 6,56 4,56 4,58"/><polygon fill="#2075BC" points="6,68 6,66 6,64 4,64 4,66 2,66 2,68 4,68"/><rect x="2" y="64" fill="#34A3DC" width="2" height="2"/><polygon fill="#010101" points="8,48 8,46 8,44 6,44 6,42 6,40 6,38 6,36 6,34 4,34 4,36 4,38 4,40 4,42 4,44 4,46 6,46 6,48 6,50 8,50"/><polygon fill="#010101" points="6,54 6,52 6,50 4,50 4,52 4,54 4,56 6,56"/><polygon fill="#010101" points="10,48 10,50 12,50 12,48 12,46 12,44 10,44 10,46"/><polygon fill="#595A5C" points="10,52 10,54 10,56 12,56 12,54 12,52 12,50 10,50"/><rect x="8" y="56" fill="#595A5C" width="2" height="2"/><polygon fill="#010101" points="10,52 10,50 8,50 8,52 8,54 8,56 10,56 10,54"/><polygon fill="#010101" points="6,64 6,62 4,62 4,60 4,58 4,56 2,56 2,58 2,60 2,62 2,64 4,64"/><polygon fill="#010101" points="2,64 0,64 0,66 0,68 2,68 2,66"/></svg>