<svg xmlns="http://www.w3.org/2000/svg" width="288" height="94"><polygon points="68,38 66,38 66,36 64,36 64,34 62,34 62,36 62,38 62,40 60,40 58,40 56,40 54,40 52,40 52,42 54,42 54,44 56,44 56,46 58,46 58,48 60,48 60,50 62,50 62,52 62,54 64,54 64,56 64,58 64,60 64,62 66,62 68,62 70,62 70,60 70,58 70,56 70,54 70,52 70,50 70,48 70,46 70,44 70,42 70,40 68,40" fill="none"/><polygon fill="#231F20" points="46,4 48,4 48,2 46,2 44,2 44,4"/><rect x="48" y="4" fill="#231F20" width="2" height="2"/><polygon fill="#E7E7E7" points="20,6 22,6 22,4 20,4 18,4 16,4 14,4 12,4 10,4 8,4 6,4 4,4 4,6 6,6 8,6 8,8 10,8 10,10 10,12 10,14 10,16 10,18 10,20 10,22 10,24 10,26 12,26 14,26 16,26 16,24 16,22 16,20 16,18 16,16 16,14 16,12 16,10 16,8 18,8 18,6"/><polygon fill="#fff" points="6,4 8,4 10,4 12,4 14,4 16,4 18,4 20,4 22,4 24,4 24,2 22,2 20,2 18,2 16,2 14,2 12,2 10,2 8,2 6,2 4,2 2,2 2,4 4,4"/><polygon fill="#F2F2F2" points="22,6 20,6 18,6 18,8 20,8 22,8 24,8 24,6 24,4 22,4"/><polygon fill="#BDBEC0" points="20,8 18,8 18,10 20,10 22,10 24,10 24,8 22,8"/><polygon fill="#F2F2F2" points="12,28 14,28 16,28 18,28 18,26 18,24 18,22 18,20 18,18 18,16 18,14 18,12 18,10 18,8 16,8 16,10 16,12 16,14 16,16 16,18 16,20 16,22 16,24 16,26 14,26 12,26 10,26 10,24 10,22 10,20 10,18 10,16 10,14 10,12 10,10 10,8 8,8 8,10 8,12 8,14 8,16 8,18 8,20 8,22 8,24 8,26 8,28 10,28"/><polygon fill="#F2F2F2" points="6,8 8,8 8,6 6,6 4,6 4,4 2,4 2,6 2,8 4,8"/><polygon fill="#BDBEC0" points="6,8 4,8 2,8 2,10 4,10 6,10 8,10 8,8"/><polygon fill="#BDBEC0" points="12,30 14,30 16,30 18,30 18,28 16,28 14,28 12,28 10,28 8,28 8,30 10,30"/><polygon fill="#E7E7E7" points="48,6 46,6 44,6 44,4 42,4 40,4 38,4 36,4 34,4 32,4 30,4 30,6 30,8 30,10 30,12 30,14 30,16 30,18 30,20 30,22 30,24 30,26 32,26 34,26 36,26 36,24 36,22 36,20 36,18 36,16 36,14 36,12 36,10 36,8 38,8 38,6 40,6 42,6 42,8 44,8 44,10 44,12 44,14 44,16 44,18 42,18 42,20 42,22 42,24 42,26 44,26 46,26 48,26 50,26 50,24 50,22 48,22 48,20 46,20 46,18 46,16 48,16 48,14 50,14 50,12 50,10 50,8 48,8"/><polygon fill="#fff" points="40,2 38,2 36,2 34,2 32,2 30,2 28,2 28,4 30,4 32,4 34,4 36,4 38,4 40,4 42,4 44,4 44,2 42,2"/><polygon fill="#fff" points="44,4 44,6 46,6 48,6 48,4 46,4"/><rect x="48" y="6" fill="#fff" width="2" height="2"/><rect x="50" y="10" fill="#fff" width="2" height="2"/><rect x="48" y="20" fill="#fff" width="2" height="2"/><rect x="50" y="22" fill="#fff" width="2" height="2"/><polygon fill="#F2F2F2" points="36,8 36,10 36,12 36,14 36,16 36,18 36,20 36,22 36,24 36,26 34,26 32,26 30,26 30,24 30,22 30,20 30,18 30,16 30,14 30,12 30,10 30,8 30,6 30,4 28,4 28,6 28,8 28,10 28,12 28,14 28,16 28,18 28,20 28,22 28,24 28,26 28,28 30,28 32,28 34,28 36,28 38,28 38,26 38,24 38,22 38,20 38,18 38,16 38,14 38,12 38,10 38,8"/><polygon fill="#F2F2F2" points="42,8 42,6 40,6 38,6 38,8 40,8"/><polygon fill="#F2F2F2" points="44,16 44,14 44,12 44,10 44,8 42,8 42,10 42,12 42,14 42,16 42,18 44,18"/><rect x="40" y="18" fill="#fff" width="2" height="2"/><polygon fill="#BDBEC0" points="34,28 32,28 30,28 28,28 28,30 30,30 32,30 34,30 36,30 38,30 38,28 36,28"/><polygon fill="#BDBEC0" points="48,28 46,28 44,28 42,28 40,28 40,30 42,30 44,30 46,30 48,30 50,30 52,30 52,28 50,28"/><polygon fill="#F2F2F2" points="50,26 48,26 46,26 44,26 42,26 42,24 42,22 42,20 40,20 40,22 40,24 40,26 40,28 42,28 44,28 46,28 48,28 50,28 52,28 52,26 52,24 50,24"/><polygon fill="#F2F2F2" points="46,16 46,18 46,20 48,20 48,18 48,16"/><rect x="48" y="14" fill="#F2F2F2" width="2" height="2"/><rect x="50" y="14" fill="#BDBEC0" width="2" height="2"/><rect x="48" y="16" fill="#BDBEC0" width="2" height="2"/><rect x="50" y="12" fill="#F2F2F2" width="2" height="2"/><polygon fill="#BDBEC0" points="40,8 38,8 38,10 40,10 42,10 42,8"/><polygon fill="#fff" points="58,4 60,4 62,4 64,4 66,4 66,2 64,2 62,2 60,2 58,2 56,2 54,2 54,4 56,4"/><polygon fill="#F2F2F2" points="64,6 64,8 64,10 64,12 66,12 66,10 66,8 66,6 66,4 64,4"/><polygon fill="#F2F2F2" points="56,6 56,4 54,4 54,6 54,8 56,8"/><rect x="54" y="8" fill="#BDBEC0" width="2" height="2"/><polygon fill="#F2F2F2" points="76,8 76,10 76,12 78,12 78,10 78,8"/><polygon fill="#F2F2F2" points="70,10 70,8 70,6 70,4 68,4 68,6 68,8 68,10 68,12 70,12"/><rect x="74" y="12" fill="#F2F2F2" width="2" height="2"/><rect x="76" y="12" fill="#BDBEC0" width="2" height="2"/><rect x="56" y="12" fill="#BDBEC0" width="2" height="2"/><rect x="58" y="12" fill="#F2F2F2" width="2" height="2"/><rect x="66" y="12" fill="#fff" width="2" height="2"/><rect x="74" y="14" fill="#BDBEC0" width="2" height="2"/><rect x="72" y="14" fill="#F2F2F2" width="2" height="2"/><rect x="60" y="14" fill="#F2F2F2" width="2" height="2"/><rect x="58" y="14" fill="#BDBEC0" width="2" height="2"/><rect x="60" y="16" fill="#BDBEC0" width="2" height="2"/><polygon fill="#F2F2F2" points="70,16 70,18 70,20 70,22 70,24 70,26 68,26 66,26 64,26 64,24 64,22 64,20 64,18 64,16 62,16 62,18 62,20 62,22 62,24 62,26 62,28 64,28 66,28 68,28 70,28 72,28 72,26 72,24 72,22 72,20 72,18 72,16"/><rect x="72" y="16" fill="#BDBEC0" width="2" height="2"/><polygon fill="#BDBEC0" points="68,28 66,28 64,28 62,28 62,30 64,30 66,30 68,30 70,30 72,30 72,28 70,28"/><polygon fill="#F2F2F2" points="58,10 58,8 56,8 56,10 56,12 58,12"/><polygon fill="#E7E7E7" points="64,10 64,8 64,6 64,4 62,4 60,4 58,4 56,4 56,6 56,8 58,8 58,10 58,12 60,12 60,14 62,14 62,16 64,16 64,18 64,20 64,22 64,24 64,26 66,26 68,26 70,26 70,24 70,22 70,20 70,18 70,16 72,16 72,14 74,14 74,12 76,12 76,10 76,8 78,8 78,6 78,4 76,4 74,4 72,4 70,4 70,6 70,8 70,10 70,12 68,12 68,14 66,14 66,12 64,12"/><rect x="78" y="8" fill="#BDBEC0" width="2" height="2"/><polygon fill="#F2F2F2" points="78,6 78,8 80,8 80,6 80,4 78,4"/><polygon fill="#fff" points="72,4 74,4 76,4 78,4 80,4 80,2 78,2 76,2 74,2 72,2 70,2 68,2 68,4 70,4"/><polygon fill="#231F20" points="286,52 286,50 286,48 284,48 284,46 282,46 282,44 280,44 280,42 278,42 278,40 276,40 276,42 276,44 278,44 278,46 278,48 278,50 278,52 276,52 274,52 272,52 270,52 268,52 268,50 268,48 268,46 266,46 264,46 264,48 264,50 264,52 264,54 264,56 264,58 264,60 264,62 264,64 264,66 264,68 264,70 264,72 264,74 266,74 268,74 268,72 268,70 268,68 270,68 272,68 274,68 276,68 278,68 278,70 278,72 278,74 278,76 276,76 276,78 276,80 274,80 274,82 272,82 270,82 270,84 268,84 266,84 264,84 262,84 262,82 260,82 258,82 258,84 260,84 260,86 262,86 262,88 264,88 264,90 266,90 266,92 268,92 270,92 270,94 272,94 274,94 276,94 278,94 278,92 280,92 282,92 282,90 284,90 284,88 286,88 286,86 286,84 288,84 288,82 288,80 288,78 288,76 288,74 286,74 286,72 284,72 284,70 282,70 282,68 280,68 280,66 278,66 276,66 274,66 274,64 274,62 276,62 278,62 280,62 282,62 284,62 286,62 288,62 288,60 288,58 288,56 288,54 288,52"/><polygon fill="#231F20" points="2,72 2,70 2,68 2,66 2,64 2,62 2,60 2,58 2,56 2,54 2,52 2,50 2,48 2,46 2,44 0,44 0,46 0,48 0,50 0,52 0,54 0,56 0,58 0,60 0,62 0,64 0,66 0,68 0,70 0,72 0,74 0,76 2,76 2,74"/><polygon fill="#231F20" points="4,42 4,40 2,40 2,42 2,44 4,44"/><rect x="4" y="38" fill="#231F20" width="2" height="2"/><polygon fill="#231F20" points="10,38 10,36 8,36 6,36 6,38 8,38"/><polygon fill="#231F20" points="16,70 16,68 16,66 16,64 16,62 16,60 16,58 16,56 16,54 16,52 16,50 16,48 16,46 14,46 12,46 12,48 12,50 12,52 12,54 12,56 12,58 12,60 12,62 12,64 12,66 12,68 12,70 12,72 12,74 14,74 16,74 16,72"/><rect x="4" y="80" fill="#231F20" width="2" height="2"/><polygon fill="#231F20" points="4,76 2,76 2,78 2,80 4,80 4,78"/><rect x="114" y="38" fill="#231F20" width="2" height="2"/><polygon fill="#231F20" points="120,38 120,36 118,36 116,36 116,38 118,38"/><polygon fill="#231F20" points="124,36 126,36 128,36 128,34 126,34 124,34 122,34 120,34 120,36 122,36"/><polygon fill="#231F20" points="130,38 132,38 132,36 130,36 128,36 128,38"/><rect x="132" y="38" fill="#231F20" width="2" height="2"/><path fill="#231F20" d="M254 72v-28h-2v10h-6v-10h-2v-2h-2v-2h-2v-2h-2v-2h-16v2h14v10h-10v2h-2v20h2v2h10v10h-18v2h2v2h2v2h2v2h2v2h20v-12h-2v-2h-2v-2h-2v-2h12v2h2v-4zm-6-16h2v8h-12v-8h10zm-22 6v-6h8v8h-8v-2z"/><polygon fill="#231F20" points="256,42 256,40 254,40 254,42 254,44 256,44"/><rect x="256" y="38" fill="#231F20" width="2" height="2"/><polygon fill="#231F20" points="262,38 262,36 260,36 258,36 258,38 260,38"/><polygon fill="#231F20" points="266,36 268,36 270,36 270,34 268,34 266,34 264,34 262,34 262,36 264,36"/><polygon fill="#231F20" points="272,38 274,38 274,36 272,36 270,36 270,38"/><rect x="274" y="38" fill="#231F20" width="2" height="2"/><rect x="256" y="80" fill="#231F20" width="2" height="2"/><polygon fill="#231F20" points="256,76 254,76 254,78 254,80 256,80 256,78"/><polygon fill="#231F20" points="94,40 94,38 92,38 90,38 90,40 92,40"/><polygon fill="#231F20" points="222,40 222,38 220,38 218,38 218,40 220,40"/><rect x="216" y="80" fill="#231F20" width="2" height="2"/><path fill="#231F20" d="M216 76h-2v-30h2v-4h2v-2h-4v-2h-2v-2h-14v6h-2v-2h-2v-2h-2v-2h-54v6h-2v-2h-2v4h2v8h-10v-6h-4v28h4v-6h10v8h-2v4h-2v2h-4v2h-8v-2h-4v-2h-2v-4h-2v-32h2v-4h-2v-2h-2v-2h-16v2h14v10h-10v2h-2v20h2v2h10v10h-18v-2h-2v-4h-2v-30h2v-4h2v-2h-4v-2h-2v-2h-2v-10h2v-2h2v-2h2v-4h2v-10h-2v-2h-2v-2h-2v-2h-2v-2h-30v6h-2v4h2v6h-2v2h-2v2h2v2h2v8h-12v-12h2v-8h-4v20h-10v-28h16v-2h-44v12h2v2h2v2h2v16h2v2h2v2h8v2h4v2h2v4h2v32h-2v4h-2v2h-4v2h-8v-2h-4v2h2v2h2v2h2v2h2v2h4v2h8v-2h4v-2h2v-2h2v2h2v2h18v-2h4v-2h2v-2h2v-2h2v2h2v2h2v2h2v2h4v2h8v-2h4v-2h2v-2h2v-4h2v2h2v2h2v2h2v2h20v-6h2v2h2v2h2v2h4v2h8v-2h4v-2h2v-2h2v-4h2v2h2v2h2v2h2v2h14v-6h2v2h2v2h2v2h14v-14h2v-8h-2v-8h-2v-8h-2v-8h-2v-8h10v8h2v8h2v14h2v-14h2v-8h2v-8h10v8h-2v8h-2v8h-2v8h-2v8h-2v4h-10v-4h-2v6h2v2h2v2h2v2h2v2h14v-6h2v-8h2v2h2v-4zm-146-34v20h-6v-8h-2v-4h-2v-2h-2v-2h-2v-2h-2v-2h-2v4h2v10h-2v2h-2v2h2v2h2v12h-2v4h-2v2h-4v2h-4v-10h2v-8h-2v-8h2v-8h-4v34h-10v-44h16v2h4v2h2v-2h10v-6h2v2h2v2h2v2h2v2zm-16-34v-6h12v10h2v-10h12v8h-2v4h-2v2h-2v2h-2v12h-10v-12h-2v-2h-2v-2h-2v-4h-2v-2zm-46 20v-18h-6v-8h22v8h-6v20h-10v-2zm56 54h-2v-2h-2v-4h-2v-12h10v10h4v-36h10v38h-2v4h-2v2h-4v2h-8v-2h-2zm34-20v-6h8v8h-8v-2zm70-24h8v44h-10v-44h2zm-22 42v-32h-6v-10h22v10h-6v34h-10v-2z"/><path fill="#EE4136" d="M14 38h-4v2h-4v4h-2v30h2v4h4v2h8v-2h4v-4h2v-30h-2v-4h-4v-2h-4zm4 6v30h-2v2h-4v-2h-2v-30h2v-2h4v2h2z"/><polygon fill="#EE4136" points="132,42 132,40 130,40 128,40 128,38 126,38 124,38 122,38 120,38 120,40 118,40 116,40 116,42 116,44 114,44 114,46 114,48 114,50 114,52 114,54 114,56 114,58 114,60 114,62 114,64 114,66 114,68 114,70 114,72 114,74 116,74 116,76 116,78 118,78 120,78 120,80 122,80 124,80 126,80 128,80 128,78 130,78 132,78 132,76 132,74 134,74 134,72 134,70 132,70 130,70 128,70 128,72 128,74 126,74 126,76 124,76 122,76 122,74 120,74 120,72 120,70 120,68 120,66 120,64 120,62 120,60 120,58 120,56 120,54 120,52 120,50 120,48 120,46 120,44 122,44 122,42 124,42 126,42 126,44 128,44 128,46 128,48 130,48 132,48 134,48 134,46 134,44 132,44"/><polygon fill="#F5CC40" points="274,42 274,40 272,40 270,40 270,38 268,38 266,38 264,38 262,38 262,40 260,40 258,40 258,42 258,44 256,44 256,46 256,48 256,50 256,52 256,54 256,56 256,58 256,60 256,62 256,64 256,66 256,68 256,70 256,72 256,74 258,74 258,76 258,78 260,78 262,78 262,80 264,80 266,80 268,80 270,80 270,78 272,78 274,78 274,76 274,74 276,74 276,72 276,70 274,70 272,70 270,70 270,72 270,74 268,74 268,76 266,76 264,76 264,74 262,74 262,72 262,70 262,68 262,66 262,64 262,62 262,60 262,58 262,56 262,54 262,52 262,50 262,48 262,46 262,44 264,44 264,42 266,42 268,42 268,44 270,44 270,46 270,48 272,48 274,48 276,48 276,46 276,44 274,44"/><polygon fill="#08A650" points="50,44 50,42 48,42 46,42 46,40 44,40 42,40 40,40 38,40 36,40 34,40 32,40 32,42 32,44 32,46 32,48 32,50 32,52 32,54 32,56 32,58 32,60 32,62 32,64 32,66 32,68 32,70 32,72 32,74 32,76 32,78 34,78 36,78 38,78 38,76 38,74 38,72 38,70 38,68 38,66 38,64 38,62 38,60 38,58 38,56 38,54 38,52 38,50 38,48 38,46 40,46 40,44 42,44 44,44 44,46 46,46 46,48 46,50 46,52 46,54 46,56 44,56 44,58 44,60 44,62 46,62 46,64 46,66 46,68 46,70 46,72 44,72 44,74 44,76 44,78 46,78 46,76 48,76 50,76 50,74 50,72 52,72 52,70 52,68 52,66 52,64 52,62 50,62 50,60 48,60 48,58 48,56 50,56 50,54 52,54 52,52 52,50 52,48 52,46 50,46"/><polygon fill="#08A650" points="158,44 160,44 160,42 160,40 158,40 156,40 154,40 152,40 150,40 148,40 146,40 144,40 142,40 142,42 142,44 144,44 146,44 146,46 148,46 148,48 148,50 148,52 148,54 148,56 148,58 148,60 148,62 148,64 148,66 148,68 148,70 148,72 148,74 148,76 148,78 150,78 152,78 154,78 154,76 154,74 154,72 154,70 154,68 154,66 154,64 154,62 154,60 154,58 154,56 154,54 154,52 154,50 154,48 154,46 156,46 156,44"/><polygon fill="#F5CC40" points="66,72 66,70 66,68 66,66 64,66 62,66 60,66 60,68 60,70 60,72 60,74 62,74 62,76 62,78 64,78 66,78 66,80 68,80 70,80 72,80 74,80 74,78 76,78 78,78 78,76 78,74 80,74 80,72 80,70 80,68 80,66 80,64 80,62 80,60 80,58 80,56 80,54 80,52 80,50 80,48 80,46 80,44 80,42 80,40 78,40 76,40 74,40 74,42 74,44 74,46 74,48 74,50 74,52 74,54 74,56 74,58 74,60 74,62 74,64 74,66 74,68 74,70 74,72 74,74 72,74 72,76 70,76 68,76 68,74 66,74"/><polygon fill="#F5CC40" points="168,44 168,46 168,48 168,50 168,52 168,54 168,56 168,58 168,60 168,62 168,64 168,66 168,68 168,70 168,72 168,74 168,76 168,78 170,78 172,78 174,78 174,76 174,74 174,72 174,70 174,68 174,66 174,64 174,62 174,60 174,58 174,56 174,54 174,52 174,50 174,48 174,46 174,44 174,42 174,40 172,40 170,40 168,40 168,42"/><polygon fill="#4169B2" points="94,68 94,66 94,64 94,62 94,60 94,58 94,56 94,54 94,52 94,50 94,48 96,48 96,46 98,46 98,44 100,44 102,44 104,44 106,44 106,42 106,40 104,40 102,40 100,40 98,40 96,40 94,40 94,42 92,42 90,42 90,44 90,46 88,46 88,48 88,50 88,52 88,54 88,56 88,58 88,60 88,62 88,64 88,66 88,68 88,70 88,72 88,74 90,74 90,76 90,78 92,78 94,78 96,78 98,78 100,78 102,78 104,78 106,78 106,76 106,74 104,74 102,74 100,74 98,74 98,72 96,72 96,70 94,70"/><polygon fill="#4169B2" points="100,58 100,60 102,60 104,60 104,58 102,58"/><polygon fill="#EE4136" points="222,68 222,66 222,64 222,62 222,60 222,58 222,56 222,54 222,52 222,50 222,48 224,48 224,46 226,46 226,44 228,44 230,44 232,44 234,44 234,42 234,40 232,40 230,40 228,40 226,40 224,40 222,40 222,42 220,42 218,42 218,44 218,46 216,46 216,48 216,50 216,52 216,54 216,56 216,58 216,60 216,62 216,64 216,66 216,68 216,70 216,72 216,74 218,74 218,76 218,78 220,78 222,78 224,78 226,78 228,78 230,78 232,78 234,78 234,76 232,76 230,76 228,76 226,76 226,74 224,74 224,72 224,70 222,70"/><polygon fill="#EE4136" points="228,58 228,60 230,60 232,60 232,58 230,58"/><polygon fill="#08A650" points="242,60 244,60 246,60 248,60 248,58 246,58 244,58 242,58 240,58 240,60"/><polygon fill="#4169B2" points="188,44 188,42 188,40 186,40 184,40 182,40 182,42 182,44 184,44 184,46 184,48 184,50 184,52 186,52 186,54 186,56 186,58 186,60 188,60 188,62 188,64 188,66 188,68 190,68 190,70 190,72 190,74 190,76 192,76 192,78 194,78 196,78 198,78 198,76 200,76 200,74 200,72 200,70 200,68 202,68 202,66 202,64 202,62 202,60 204,60 204,58 204,56 204,54 204,52 206,52 206,50 206,48 206,46 206,44 208,44 208,42 208,40 206,40 204,40 202,40 202,42 202,44 202,46 200,46 200,48 200,50 200,52 200,54 198,54 198,56 198,58 198,60 198,62 198,64 198,66 198,68 196,68 196,70 194,70 194,68 192,68 192,66 192,64 192,62 192,60 192,58 192,56 192,54 190,54 190,52 190,50 190,48 190,46 188,46"/><polygon fill="#A51E22" points="12,44 12,46 14,46 16,46 16,44 14,44"/><rect x="2" y="74" fill="#A51E22" width="2" height="2"/><rect x="4" y="78" fill="#A51E22" width="2" height="2"/><polygon fill="#A51E22" points="10,82 10,80 8,80 6,80 6,82 8,82"/><polygon fill="#A51E22" points="14,82 12,82 10,82 10,84 12,84 14,84 16,84 18,84 18,82 16,82"/><polygon fill="#A51E22" points="18,80 18,82 20,82 22,82 22,80 20,80"/><rect x="22" y="78" fill="#A51E22" width="2" height="2"/><rect x="24" y="74" fill="#A51E22" width="2" height="2"/><polygon fill="#EF664F" points="12,70 12,68 12,66 12,64 12,62 12,60 12,58 12,56 12,54 12,52 12,50 12,48 12,46 12,44 10,44 10,46 10,48 10,50 10,52 10,54 10,56 10,58 10,60 10,62 10,64 10,66 10,68 10,70 10,72 10,74 12,74 12,72"/><polygon fill="#EF664F" points="16,48 16,50 16,52 16,54 16,56 16,58 16,60 16,62 16,64 16,66 16,68 16,70 16,72 16,74 18,74 18,72 18,70 18,68 18,66 18,64 18,62 18,60 18,58 18,56 18,54 18,52 18,50 18,48 18,46 18,44 16,44 16,46"/><polygon fill="#EF664F" points="14,42 12,42 12,44 14,44 16,44 16,42"/><polygon fill="#EF664F" points="4,70 4,68 4,66 4,64 4,62 4,60 4,58 4,56 4,54 4,52 4,50 4,48 4,46 2,46 2,48 2,50 2,52 2,54 2,56 2,58 2,60 2,62 2,64 2,66 2,68 2,70 2,72 2,74 4,74 4,72"/><polygon fill="#EF664F" points="6,74 4,74 4,76 4,78 6,78 6,76"/><polygon fill="#EF664F" points="8,78 6,78 6,80 8,80 10,80 10,78"/><polygon fill="#EF664F" points="16,80 14,80 12,80 10,80 10,82 12,82 14,82 16,82 18,82 18,80"/><polygon fill="#EF664F" points="20,78 18,78 18,80 20,80 22,80 22,78"/><polygon fill="#EF664F" points="22,74 22,76 22,78 24,78 24,76 24,74"/><polygon fill="#EF664F" points="24,48 24,50 24,52 24,54 24,56 24,58 24,60 24,62 24,64 24,66 24,68 24,70 24,72 24,74 26,74 26,72 26,70 26,68 26,66 26,64 26,62 26,60 26,58 26,56 26,54 26,52 26,50 26,48 26,46 24,46"/><polygon fill="#41B45A" points="52,50 52,52 52,54 54,54 54,52 54,50 54,48 52,48"/><rect x="50" y="54" fill="#41B45A" width="2" height="2"/><polygon fill="#41B45A" points="48,56 48,58 48,60 50,60 50,58 50,56"/><polygon fill="#41B45A" points="52,66 52,68 52,70 52,72 54,72 54,70 54,68 54,66 54,64 52,64"/><polygon fill="#41B45A" points="50,72 50,74 50,76 52,76 52,74 52,72"/><polygon fill="#41B45A" points="48,76 46,76 46,78 48,78 50,78 50,76"/><polygon fill="#41B45A" points="44,78 44,76 44,74 42,74 42,76 42,78 42,80 44,80 46,80 46,78"/><polygon fill="#41B45A" points="46,70 46,68 46,66 46,64 46,62 44,62 44,64 44,66 44,68 44,70 44,72 46,72"/><polygon fill="#41B45A" points="44,60 44,58 42,58 42,60 42,62 44,62"/><polygon fill="#41B45A" points="46,54 46,52 46,50 46,48 46,46 44,46 44,48 44,50 44,52 44,54 44,56 46,56"/><polygon fill="#41B45A" points="44,46 44,44 42,44 40,44 40,46 42,46"/><polygon fill="#41B45A" points="38,46 38,48 38,50 38,52 38,54 38,56 38,58 38,60 38,62 38,64 38,66 38,68 38,70 38,72 38,74 38,76 38,78 36,78 34,78 32,78 32,76 32,74 32,72 32,70 32,68 32,66 32,64 32,62 32,60 32,58 32,56 32,54 32,52 32,50 32,48 32,46 32,44 32,42 32,40 30,40 30,42 30,44 30,46 30,48 30,50 30,52 30,54 30,56 30,58 30,60 30,62 30,64 30,66 30,68 30,70 30,72 30,74 30,76 30,78 30,80 32,80 34,80 36,80 38,80 40,80 40,78 40,76 40,74 40,72 40,70 40,68 40,66 40,64 40,62 40,60 40,58 40,56 40,54 40,52 40,50 40,48 40,46"/><polygon fill="#078241" points="36,80 34,80 32,80 30,80 30,82 32,82 34,82 36,82 38,82 40,82 40,80 38,80"/><polygon fill="#078241" points="42,80 42,82 44,82 46,82 46,80 44,80"/><polygon fill="#078241" points="46,78 46,80 48,80 50,80 50,78 48,78"/><rect x="50" y="76" fill="#078241" width="2" height="2"/><rect x="52" y="72" fill="#078241" width="2" height="2"/><rect x="42" y="62" fill="#078241" width="2" height="2"/><rect x="50" y="56" fill="#078241" width="2" height="2"/><rect x="52" y="54" fill="#078241" width="2" height="2"/><polygon fill="#078241" points="42,46 40,46 40,48 42,48 44,48 44,46"/><polygon fill="#F69F31" points="12,38 14,38 16,38 18,38 18,36 16,36 14,36 12,36 10,36 10,38"/><polygon fill="#F69F31" points="8,40 10,40 10,38 8,38 6,38 6,40"/><polygon fill="#F69F31" points="4,44 6,44 6,42 6,40 4,40 4,42"/><rect x="2" y="44" fill="#F69F31" width="2" height="2"/><polygon fill="#F69F31" points="20,40 22,40 22,38 20,38 18,38 18,40"/><polygon fill="#F69F31" points="22,44 24,44 24,42 24,40 22,40 22,42"/><rect x="24" y="44" fill="#F69F31" width="2" height="2"/><polygon fill="#F69F31" points="12,74 12,76 14,76 16,76 16,74 14,74"/><polygon fill="#96CA5A" points="34,40 36,40 38,40 40,40 42,40 44,40 46,40 46,38 44,38 42,38 40,38 38,38 36,38 34,38 32,38 30,38 30,40 32,40"/><polygon fill="#96CA5A" points="48,42 50,42 50,40 48,40 46,40 46,42"/><polygon fill="#96CA5A" points="50,44 50,46 52,46 52,44 52,42 50,42"/><rect x="52" y="46" fill="#96CA5A" width="2" height="2"/><rect x="50" y="60" fill="#96CA5A" width="2" height="2"/><rect x="52" y="62" fill="#96CA5A" width="2" height="2"/><rect x="42" y="56" fill="#96CA5A" width="2" height="2"/><rect x="42" y="72" fill="#96CA5A" width="2" height="2"/><polygon fill="#ECE367" points="80,42 80,44 80,46 80,48 80,50 80,52 80,54 80,56 80,58 80,60 80,62 80,64 80,66 80,68 80,70 80,72 80,74 82,74 82,72 82,70 82,68 82,66 82,64 82,62 82,60 82,58 82,56 82,54 82,52 82,50 82,48 82,46 82,44 82,42 82,40 80,40"/><polygon fill="#ECE367" points="78,74 78,76 78,78 80,78 80,76 80,74"/><polygon fill="#ECE367" points="76,78 74,78 74,80 76,80 78,80 78,78"/><polygon fill="#ECE367" points="70,82 72,82 74,82 74,80 72,80 70,80 68,80 66,80 66,82 68,82"/><polygon fill="#ECE367" points="66,80 66,78 64,78 62,78 62,80 64,80"/><polygon fill="#ECE367" points="62,76 62,74 60,74 60,76 60,78 62,78"/><polygon fill="#ECE367" points="60,72 60,70 60,68 60,66 58,66 58,68 58,70 58,72 58,74 60,74"/><polygon fill="#ECE367" points="66,68 66,70 66,72 66,74 68,74 68,72 68,70 68,68 68,66 66,66"/><polygon fill="#ECE367" points="74,72 74,70 74,68 74,66 74,64 74,62 74,60 74,58 74,56 74,54 74,52 74,50 74,48 74,46 74,44 74,42 74,40 72,40 72,42 72,44 72,46 72,48 72,50 72,52 72,54 72,56 72,58 72,60 72,62 72,64 72,66 72,68 72,70 72,72 72,74 74,74"/><rect x="80" y="74" fill="#DCA22A" width="2" height="2"/><rect x="78" y="78" fill="#DCA22A" width="2" height="2"/><polygon fill="#DCA22A" points="74,80 74,82 76,82 78,82 78,80 76,80"/><polygon fill="#DCA22A" points="68,84 70,84 72,84 74,84 74,82 72,82 70,82 68,82 66,82 66,84"/><polygon fill="#DCA22A" points="64,80 62,80 62,82 64,82 66,82 66,80"/><rect x="60" y="78" fill="#DCA22A" width="2" height="2"/><rect x="58" y="74" fill="#DCA22A" width="2" height="2"/><polygon fill="#FDF59C" points="70,76 72,76 72,74 70,74 68,74 68,76"/><polygon fill="#FDF59C" points="62,66 64,66 66,66 68,66 68,64 66,64 64,64 62,64 60,64 58,64 58,66 60,66"/><polygon fill="#FDF59C" points="76,40 78,40 80,40 82,40 82,38 80,38 78,38 76,38 74,38 72,38 72,40 74,40"/><polygon fill="#2F81C4" points="106,42 106,44 104,44 102,44 100,44 98,44 98,46 100,46 102,46 104,46 106,46 108,46 108,44 108,42 108,40 106,40"/><rect x="96" y="46" fill="#2F81C4" width="2" height="2"/><polygon fill="#2F81C4" points="94,48 94,50 94,52 94,54 94,56 94,58 94,60 94,62 94,64 94,66 94,68 94,70 96,70 96,68 96,66 96,64 96,62 96,60 96,58 96,56 96,54 96,52 96,50 96,48"/><polygon fill="#2F81C4" points="106,76 106,78 104,78 102,78 100,78 98,78 96,78 94,78 92,78 90,78 90,80 92,80 94,80 96,80 98,80 100,80 102,80 104,80 106,80 108,80 108,78 108,76 108,74 106,74"/><polygon fill="#2F81C4" points="90,76 90,74 88,74 88,76 88,78 90,78"/><polygon fill="#2F81C4" points="102,62 104,62 106,62 106,60 106,58 104,58 104,60 102,60 100,60 100,58 98,58 98,60 98,62 100,62"/><polygon fill="#2F81C4" points="88,72 88,70 88,68 88,66 88,64 88,62 88,60 88,58 88,56 88,54 88,52 88,50 88,48 86,48 86,50 86,52 86,54 86,56 86,58 86,60 86,62 86,64 86,66 86,68 86,70 86,72 86,74 88,74"/><rect x="88" y="44" fill="#2F81C4" width="2" height="2"/><polygon fill="#EF664F" points="234,42 234,44 232,44 230,44 228,44 226,44 226,46 228,46 230,46 232,46 234,46 236,46 236,44 236,42 236,40 234,40"/><rect x="224" y="46" fill="#EF664F" width="2" height="2"/><polygon fill="#EF664F" points="222,48 222,50 222,52 222,54 222,56 222,58 222,60 222,62 222,64 222,66 222,68 222,70 224,70 224,68 224,66 224,64 224,62 224,60 224,58 224,56 224,54 224,52 224,50 224,48"/><rect x="224" y="72" fill="#EF664F" width="2" height="2"/><polygon fill="#EF664F" points="232,74 230,74 228,74 226,74 226,76 228,76 230,76 232,76 234,76 234,78 232,78 230,78 228,78 226,78 224,78 222,78 220,78 218,78 218,80 220,80 222,80 224,80 226,80 228,80 230,80 232,80 234,80 236,80 236,78 236,76 236,74 234,74"/><polygon fill="#EF664F" points="230,62 232,62 234,62 234,60 234,58 232,58 232,60 230,60 228,60 228,58 226,58 226,60 226,62 228,62"/><polygon fill="#EF664F" points="218,74 216,74 216,76 216,78 218,78 218,76"/><polygon fill="#EF664F" points="216,72 216,70 216,68 216,66 216,64 216,62 216,60 216,58 216,56 216,54 216,52 216,50 216,48 214,48 214,50 214,52 214,54 214,56 214,58 214,60 214,62 214,64 214,66 214,68 214,70 214,72 214,74 216,74"/><rect x="216" y="44" fill="#EF664F" width="2" height="2"/><polygon fill="#1E4997" points="104,46 102,46 100,46 98,46 98,48 100,48 102,48 104,48 106,48 108,48 108,46 106,46"/><rect x="96" y="48" fill="#1E4997" width="2" height="2"/><rect x="86" y="74" fill="#1E4997" width="2" height="2"/><rect x="88" y="78" fill="#1E4997" width="2" height="2"/><polygon fill="#1E4997" points="104,80 102,80 100,80 98,80 96,80 94,80 92,80 90,80 90,82 92,82 94,82 96,82 98,82 100,82 102,82 104,82 106,82 108,82 108,80 106,80"/><polygon fill="#1E4997" points="102,64 104,64 106,64 106,62 104,62 102,62 100,62 98,62 98,64 100,64"/><polygon fill="#A51E22" points="232,46 230,46 228,46 226,46 226,48 228,48 230,48 232,48 234,48 236,48 236,46 234,46"/><rect x="224" y="48" fill="#A51E22" width="2" height="2"/><rect x="214" y="74" fill="#A51E22" width="2" height="2"/><rect x="216" y="78" fill="#A51E22" width="2" height="2"/><polygon fill="#A51E22" points="222,82 224,82 226,82 228,82 230,82 232,82 234,82 236,82 236,80 234,80 232,80 230,80 228,80 226,80 224,80 222,80 220,80 218,80 218,82 220,82"/><polygon fill="#A51E22" points="230,64 232,64 234,64 234,62 232,62 230,62 228,62 226,62 226,64 228,64"/><rect x="88" y="42" fill="#20BBEB" width="2" height="2"/><rect x="86" y="46" fill="#20BBEB" width="2" height="2"/><polygon fill="#20BBEB" points="96,40 98,40 100,40 102,40 104,40 106,40 108,40 108,38 106,38 104,38 102,38 100,38 98,38 96,38 94,38 94,40"/><polygon fill="#20BBEB" points="102,58 104,58 106,58 106,56 104,56 102,56 100,56 98,56 98,58 100,58"/><polygon fill="#20BBEB" points="100,74 102,74 104,74 106,74 108,74 108,72 106,72 104,72 102,72 100,72 98,72 98,74"/><rect x="96" y="70" fill="#20BBEB" width="2" height="2"/><polygon fill="#20BBEB" points="92,42 94,42 94,40 92,40 90,40 90,42"/><rect x="216" y="42" fill="#F69F31" width="2" height="2"/><rect x="214" y="46" fill="#F69F31" width="2" height="2"/><polygon fill="#F69F31" points="224,40 226,40 228,40 230,40 232,40 234,40 236,40 236,38 234,38 232,38 230,38 228,38 226,38 224,38 222,38 222,40"/><polygon fill="#F69F31" points="230,58 232,58 234,58 234,56 232,56 230,56 228,56 226,56 226,58 228,58"/><polygon fill="#F69F31" points="228,74 230,74 232,74 234,74 236,74 236,72 234,72 232,72 230,72 228,72 226,72 226,74"/><rect x="224" y="70" fill="#F69F31" width="2" height="2"/><polygon fill="#F69F31" points="220,42 222,42 222,40 220,40 218,40 218,42"/><rect x="132" y="42" fill="#EF664F" width="2" height="2"/><polygon fill="#EF664F" points="134,48 132,48 130,48 128,48 128,46 128,44 126,44 126,46 126,48 126,50 128,50 130,50 132,50 134,50 136,50 136,48 136,46 134,46"/><polygon fill="#EF664F" points="126,44 126,42 124,42 122,42 122,44 124,44"/><polygon fill="#EF664F" points="120,44 120,46 120,48 120,50 120,52 120,54 120,56 120,58 120,60 120,62 120,64 120,66 120,68 120,70 120,72 120,74 122,74 122,72 122,70 122,68 122,66 122,64 122,62 122,60 122,58 122,56 122,54 122,52 122,50 122,48 122,46 122,44"/><polygon fill="#EF664F" points="128,72 128,70 126,70 126,72 126,74 128,74"/><polygon fill="#EF664F" points="134,72 134,74 136,74 136,72 136,70 134,70"/><polygon fill="#EF664F" points="132,74 132,76 132,78 134,78 134,76 134,74"/><polygon fill="#EF664F" points="130,78 128,78 128,80 130,80 132,80 132,78"/><polygon fill="#EF664F" points="126,80 124,80 122,80 120,80 120,82 122,82 124,82 126,82 128,82 128,80"/><polygon fill="#EF664F" points="120,80 120,78 118,78 116,78 116,80 118,80"/><polygon fill="#EF664F" points="116,76 116,74 114,74 114,76 114,78 116,78"/><polygon fill="#EF664F" points="114,72 114,70 114,68 114,66 114,64 114,62 114,60 114,58 114,56 114,54 114,52 114,50 114,48 114,46 112,46 112,48 112,50 112,52 112,54 112,56 112,58 112,60 112,62 112,64 112,66 112,68 112,70 112,72 112,74 114,74"/><rect x="114" y="42" fill="#EF664F" width="2" height="2"/><polygon fill="#A51E22" points="124,44 122,44 122,46 124,46 126,46 126,44"/><polygon fill="#A51E22" points="132,50 130,50 128,50 126,50 126,52 128,52 130,52 132,52 134,52 136,52 136,50 134,50"/><rect x="134" y="74" fill="#A51E22" width="2" height="2"/><rect x="132" y="78" fill="#A51E22" width="2" height="2"/><polygon fill="#A51E22" points="128,80 128,82 130,82 132,82 132,80 130,80"/><polygon fill="#A51E22" points="124,82 122,82 120,82 120,84 122,84 124,84 126,84 128,84 128,82 126,82"/><polygon fill="#A51E22" points="118,80 116,80 116,82 118,82 120,82 120,80"/><rect x="114" y="78" fill="#A51E22" width="2" height="2"/><rect x="112" y="74" fill="#A51E22" width="2" height="2"/><polygon fill="#F69F31" points="122,38 124,38 126,38 128,38 128,36 126,36 124,36 122,36 120,36 120,38"/><polygon fill="#F69F31" points="128,38 128,40 130,40 132,40 132,38 130,38"/><rect x="132" y="40" fill="#F69F31" width="2" height="2"/><rect x="134" y="44" fill="#F69F31" width="2" height="2"/><polygon fill="#F69F31" points="118,40 120,40 120,38 118,38 116,38 116,40"/><rect x="114" y="40" fill="#F69F31" width="2" height="2"/><rect x="112" y="44" fill="#F69F31" width="2" height="2"/><polygon fill="#F69F31" points="130,70 132,70 134,70 136,70 136,68 134,68 132,68 130,68 128,68 126,68 126,70 128,70"/><polygon fill="#F69F31" points="124,76 126,76 126,74 124,74 122,74 122,76"/><rect x="274" y="42" fill="#ECE367" width="2" height="2"/><polygon fill="#ECE367" points="276,48 274,48 272,48 270,48 270,46 270,44 268,44 268,46 268,48 268,50 270,50 272,50 274,50 276,50 278,50 278,48 278,46 276,46"/><polygon fill="#ECE367" points="268,44 268,42 266,42 264,42 264,44 266,44"/><polygon fill="#ECE367" points="262,44 262,46 262,48 262,50 262,52 262,54 262,56 262,58 262,60 262,62 262,64 262,66 262,68 262,70 262,72 262,74 264,74 264,72 264,70 264,68 264,66 264,64 264,62 264,60 264,58 264,56 264,54 264,52 264,50 264,48 264,46 264,44"/><polygon fill="#ECE367" points="270,72 270,70 268,70 268,72 268,74 270,74"/><polygon fill="#ECE367" points="276,72 276,74 278,74 278,72 278,70 276,70"/><polygon fill="#ECE367" points="274,74 274,76 274,78 276,78 276,76 276,74"/><polygon fill="#ECE367" points="272,78 270,78 270,80 272,80 274,80 274,78"/><polygon fill="#ECE367" points="268,80 266,80 264,80 262,80 262,82 264,82 266,82 268,82 270,82 270,80"/><polygon fill="#ECE367" points="260,78 258,78 258,80 260,80 262,80 262,78"/><polygon fill="#ECE367" points="258,74 256,74 256,76 256,78 258,78 258,76"/><polygon fill="#ECE367" points="256,70 256,68 256,66 256,64 256,62 256,60 256,58 256,56 256,54 256,52 256,50 256,48 256,46 254,46 254,48 254,50 254,52 254,54 254,56 254,58 254,60 254,62 254,64 254,66 254,68 254,70 254,72 254,74 256,74 256,72"/><rect x="256" y="42" fill="#ECE367" width="2" height="2"/><polygon fill="#DCA22A" points="266,44 264,44 264,46 266,46 268,46 268,44"/><polygon fill="#DCA22A" points="274,50 272,50 270,50 268,50 268,52 270,52 272,52 274,52 276,52 278,52 278,50 276,50"/><rect x="276" y="74" fill="#DCA22A" width="2" height="2"/><rect x="274" y="78" fill="#DCA22A" width="2" height="2"/><polygon fill="#DCA22A" points="270,80 270,82 272,82 274,82 274,80 272,80"/><polygon fill="#DCA22A" points="266,82 264,82 262,82 262,84 264,84 266,84 268,84 270,84 270,82 268,82"/><polygon fill="#DCA22A" points="262,82 262,80 260,80 258,80 258,82 260,82"/><rect x="256" y="78" fill="#DCA22A" width="2" height="2"/><rect x="254" y="74" fill="#DCA22A" width="2" height="2"/><polygon fill="#FDF59C" points="264,38 266,38 268,38 270,38 270,36 268,36 266,36 264,36 262,36 262,38"/><polygon fill="#FDF59C" points="270,38 270,40 272,40 274,40 274,38 272,38"/><rect x="274" y="40" fill="#FDF59C" width="2" height="2"/><rect x="276" y="44" fill="#FDF59C" width="2" height="2"/><polygon fill="#FDF59C" points="260,40 262,40 262,38 260,38 258,38 258,40"/><rect x="256" y="40" fill="#FDF59C" width="2" height="2"/><rect x="254" y="44" fill="#FDF59C" width="2" height="2"/><polygon fill="#FDF59C" points="272,70 274,70 276,70 278,70 278,68 276,68 274,68 272,68 270,68 268,68 268,70 270,70"/><polygon fill="#FDF59C" points="266,76 268,76 268,74 266,74 264,74 264,76"/><polygon fill="#41B45A" points="160,42 160,44 158,44 156,44 156,46 158,46 160,46 162,46 162,44 162,42 162,40 160,40"/><polygon fill="#41B45A" points="150,80 152,80 154,80 156,80 156,78 156,76 156,74 156,72 156,70 156,68 156,66 156,64 156,62 156,60 156,58 156,56 156,54 156,52 156,50 156,48 156,46 154,46 154,48 154,50 154,52 154,54 154,56 154,58 154,60 154,62 154,64 154,66 154,68 154,70 154,72 154,74 154,76 154,78 152,78 150,78 148,78 148,76 148,74 148,72 148,70 148,68 148,66 148,64 148,62 148,60 148,58 148,56 148,54 148,52 148,50 148,48 148,46 146,46 146,48 146,50 146,52 146,54 146,56 146,58 146,60 146,62 146,64 146,66 146,68 146,70 146,72 146,74 146,76 146,78 146,80 148,80"/><polygon fill="#41B45A" points="144,46 146,46 146,44 144,44 142,44 142,42 142,40 140,40 140,42 140,44 140,46 142,46"/><polygon fill="#078241" points="144,46 142,46 140,46 140,48 142,48 144,48 146,48 146,46"/><polygon fill="#078241" points="158,46 156,46 156,48 158,48 160,48 162,48 162,46 160,46"/><polygon fill="#078241" points="150,82 152,82 154,82 156,82 156,80 154,80 152,80 150,80 148,80 146,80 146,82 148,82"/><polygon fill="#96CA5A" points="144,40 146,40 148,40 150,40 152,40 154,40 156,40 158,40 160,40 162,40 162,38 160,38 158,38 156,38 154,38 152,38 150,38 148,38 146,38 144,38 142,38 140,38 140,40 142,40"/><polygon fill="#ECE367" points="174,42 174,44 174,46 174,48 174,50 174,52 174,54 174,56 174,58 174,60 174,62 174,64 174,66 174,68 174,70 174,72 174,74 174,76 174,78 172,78 170,78 168,78 168,76 168,74 168,72 168,70 168,68 168,66 168,64 168,62 168,60 168,58 168,56 168,54 168,52 168,50 168,48 168,46 168,44 168,42 168,40 166,40 166,42 166,44 166,46 166,48 166,50 166,52 166,54 166,56 166,58 166,60 166,62 166,64 166,66 166,68 166,70 166,72 166,74 166,76 166,78 166,80 168,80 170,80 172,80 174,80 176,80 176,78 176,76 176,74 176,72 176,70 176,68 176,66 176,64 176,62 176,60 176,58 176,56 176,54 176,52 176,50 176,48 176,46 176,44 176,42 176,40 174,40"/><polygon fill="#DCA22A" points="172,80 170,80 168,80 166,80 166,82 168,82 170,82 172,82 174,82 176,82 176,80 174,80"/><polygon fill="#FDF59C" points="168,40 170,40 172,40 174,40 176,40 176,38 174,38 172,38 170,38 168,38 166,38 166,40"/><polygon fill="#2F81C4" points="188,42 188,44 188,46 190,46 190,44 190,42 190,40 188,40"/><polygon fill="#2F81C4" points="190,50 190,52 190,54 192,54 192,52 192,50 192,48 190,48"/><polygon fill="#2F81C4" points="192,58 192,60 192,62 192,64 192,66 192,68 194,68 194,66 194,64 194,62 194,60 194,58 194,56 192,56"/><polygon fill="#2F81C4" points="198,66 198,64 198,62 198,60 198,58 198,56 196,56 196,58 196,60 196,62 196,64 196,66 196,68 198,68"/><polygon fill="#2F81C4" points="200,52 200,50 200,48 198,48 198,50 198,52 198,54 200,54"/><polygon fill="#2F81C4" points="202,44 202,42 202,40 200,40 200,42 200,44 200,46 202,46"/><polygon fill="#2F81C4" points="208,42 208,44 210,44 210,42 210,40 208,40"/><polygon fill="#2F81C4" points="206,44 206,46 206,48 206,50 206,52 208,52 208,50 208,48 208,46 208,44"/><polygon fill="#2F81C4" points="204,52 204,54 204,56 204,58 204,60 206,60 206,58 206,56 206,54 206,52"/><polygon fill="#2F81C4" points="202,60 202,62 202,64 202,66 202,68 204,68 204,66 204,64 204,62 204,60"/><polygon fill="#2F81C4" points="200,68 200,70 200,72 200,74 200,76 202,76 202,74 202,72 202,70 202,68"/><polygon fill="#2F81C4" points="198,76 198,78 196,78 194,78 192,78 192,76 190,76 190,78 190,80 192,80 194,80 196,80 198,80 200,80 200,78 200,76"/><polygon fill="#2F81C4" points="190,74 190,72 190,70 190,68 188,68 188,70 188,72 188,74 188,76 190,76"/><polygon fill="#2F81C4" points="188,66 188,64 188,62 188,60 186,60 186,62 186,64 186,66 186,68 188,68"/><polygon fill="#2F81C4" points="186,58 186,56 186,54 186,52 184,52 184,54 184,56 184,58 184,60 186,60"/><polygon fill="#2F81C4" points="184,50 184,48 184,46 184,44 182,44 182,46 182,48 182,50 182,52 184,52"/><polygon fill="#2F81C4" points="182,42 182,40 180,40 180,42 180,44 182,44"/><rect x="180" y="44" fill="#1E4997" width="2" height="2"/><rect x="182" y="52" fill="#1E4997" width="2" height="2"/><rect x="184" y="60" fill="#1E4997" width="2" height="2"/><rect x="186" y="68" fill="#1E4997" width="2" height="2"/><rect x="188" y="76" fill="#1E4997" width="2" height="2"/><polygon fill="#1E4997" points="196,80 194,80 192,80 190,80 190,82 192,82 194,82 196,82 198,82 200,82 200,80 198,80"/><rect x="200" y="76" fill="#1E4997" width="2" height="2"/><rect x="202" y="68" fill="#1E4997" width="2" height="2"/><rect x="204" y="60" fill="#1E4997" width="2" height="2"/><rect x="206" y="52" fill="#1E4997" width="2" height="2"/><rect x="208" y="44" fill="#1E4997" width="2" height="2"/><polygon fill="#20BBEB" points="184,40 186,40 188,40 190,40 190,38 188,38 186,38 184,38 182,38 180,38 180,40 182,40"/><polygon fill="#20BBEB" points="204,40 206,40 208,40 210,40 210,38 208,38 206,38 204,38 202,38 200,38 200,40 202,40"/><rect x="198" y="46" fill="#20BBEB" width="2" height="2"/><rect x="196" y="54" fill="#20BBEB" width="2" height="2"/><rect x="194" y="68" fill="#20BBEB" width="2" height="2"/><rect x="192" y="54" fill="#20BBEB" width="2" height="2"/><rect x="190" y="46" fill="#20BBEB" width="2" height="2"/><polygon fill="#41B45A" points="248,60 246,60 244,60 242,60 240,60 240,58 238,58 238,60 238,62 240,62 242,62 244,62 246,62 248,62 250,62 250,60 250,58 248,58"/><polygon fill="#078241" points="246,62 244,62 242,62 240,62 238,62 238,64 240,64 242,64 244,64 246,64 248,64 250,64 250,62 248,62"/><polygon fill="#96CA5A" points="242,56 240,56 238,56 238,58 240,58 242,58 244,58 246,58 248,58 250,58 250,56 248,56 246,56 244,56"/></svg>