<svg xmlns="http://www.w3.org/2000/svg" width="80" height="80"><rect width="80" height="80"/><rect x="8" y="4" fill="#613260" width="2" height="2"/><rect x="16" y="2" fill="#271B4A" width="2" height="2"/><rect x="14" y="8" fill="#A254A0" width="2" height="2"/><rect x="4" y="18" fill="#A254A0" width="2" height="2"/><rect x="24" y="18" fill="#A254A0" width="2" height="2"/><rect x="44" y="18" fill="#A254A0" width="2" height="2"/><rect x="64" y="18" fill="#A254A0" width="2" height="2"/><rect x="28" y="4" fill="#613260" width="2" height="2"/><rect x="2" y="6" fill="#77211B" width="2" height="2"/><rect x="2" y="12" fill="#1B1233" width="2" height="2"/><rect x="6" y="12" fill="#1B1233" width="2" height="2"/><rect x="4" y="12" fill="#4E3593" width="2" height="2"/><rect x="12" y="16" fill="#4E3593" width="2" height="2"/><rect x="22" y="12" fill="#1B1233" width="2" height="2"/><rect x="26" y="12" fill="#1B1233" width="2" height="2"/><rect x="24" y="12" fill="#4E3593" width="2" height="2"/><rect x="32" y="16" fill="#4E3593" width="2" height="2"/><rect x="52" y="16" fill="#4E3593" width="2" height="2"/><rect x="72" y="16" fill="#4E3593" width="2" height="2"/><rect x="42" y="12" fill="#1B1233" width="2" height="2"/><rect x="46" y="12" fill="#1B1233" width="2" height="2"/><rect x="44" y="12" fill="#4E3593" width="2" height="2"/><rect x="62" y="12" fill="#1B1233" width="2" height="2"/><rect x="66" y="12" fill="#1B1233" width="2" height="2"/><rect x="64" y="12" fill="#4E3593" width="2" height="2"/><rect x="22" y="6" fill="#77211B" width="2" height="2"/><rect x="12" y="6" fill="#201120" width="2" height="2"/><rect x="16" y="10" fill="#201120" width="2" height="2"/><rect x="16" y="6" fill="#412240" width="2" height="2"/><rect x="12" y="10" fill="#412240" width="2" height="2"/><rect x="36" y="2" fill="#271B4A" width="2" height="2"/><rect x="34" y="8" fill="#A254A0" width="2" height="2"/><rect x="42" y="6" fill="#77211B" width="2" height="2"/><rect x="32" y="6" fill="#201120" width="2" height="2"/><rect x="36" y="10" fill="#201120" width="2" height="2"/><rect x="36" y="6" fill="#412240" width="2" height="2"/><rect x="32" y="10" fill="#412240" width="2" height="2"/><rect x="48" y="4" fill="#613260" width="2" height="2"/><rect x="56" y="2" fill="#271B4A" width="2" height="2"/><rect x="54" y="8" fill="#A254A0" width="2" height="2"/><rect x="62" y="6" fill="#77211B" width="2" height="2"/><rect x="52" y="6" fill="#201120" width="2" height="2"/><rect x="56" y="10" fill="#201120" width="2" height="2"/><rect x="56" y="6" fill="#412240" width="2" height="2"/><rect x="52" y="10" fill="#412240" width="2" height="2"/><rect x="68" y="4" fill="#613260" width="2" height="2"/><rect x="76" y="2" fill="#271B4A" width="2" height="2"/><rect x="74" y="8" fill="#A254A0" width="2" height="2"/><rect x="72" y="6" fill="#201120" width="2" height="2"/><rect x="76" y="10" fill="#201120" width="2" height="2"/><rect x="76" y="6" fill="#412240" width="2" height="2"/><rect x="72" y="10" fill="#412240" width="2" height="2"/><rect x="8" y="24" fill="#613260" width="2" height="2"/><rect x="16" y="22" fill="#271B4A" width="2" height="2"/><rect x="14" y="28" fill="#A254A0" width="2" height="2"/><rect x="4" y="38" fill="#A254A0" width="2" height="2"/><rect x="24" y="38" fill="#A254A0" width="2" height="2"/><rect x="44" y="38" fill="#A254A0" width="2" height="2"/><rect x="64" y="38" fill="#A254A0" width="2" height="2"/><rect x="28" y="24" fill="#613260" width="2" height="2"/><rect x="2" y="26" fill="#77211B" width="2" height="2"/><rect x="2" y="32" fill="#1B1233" width="2" height="2"/><rect x="6" y="32" fill="#1B1233" width="2" height="2"/><rect x="4" y="32" fill="#4E3593" width="2" height="2"/><rect x="12" y="36" fill="#4E3593" width="2" height="2"/><rect x="22" y="32" fill="#1B1233" width="2" height="2"/><rect x="26" y="32" fill="#1B1233" width="2" height="2"/><rect x="24" y="32" fill="#4E3593" width="2" height="2"/><rect x="32" y="36" fill="#4E3593" width="2" height="2"/><rect x="52" y="36" fill="#4E3593" width="2" height="2"/><rect x="72" y="36" fill="#4E3593" width="2" height="2"/><rect x="42" y="32" fill="#1B1233" width="2" height="2"/><rect x="46" y="32" fill="#1B1233" width="2" height="2"/><rect x="44" y="32" fill="#4E3593" width="2" height="2"/><rect x="62" y="32" fill="#1B1233" width="2" height="2"/><rect x="66" y="32" fill="#1B1233" width="2" height="2"/><rect x="64" y="32" fill="#4E3593" width="2" height="2"/><rect x="22" y="26" fill="#77211B" width="2" height="2"/><rect x="12" y="26" fill="#201120" width="2" height="2"/><rect x="16" y="30" fill="#201120" width="2" height="2"/><rect x="16" y="26" fill="#412240" width="2" height="2"/><rect x="12" y="30" fill="#412240" width="2" height="2"/><rect x="36" y="22" fill="#271B4A" width="2" height="2"/><rect x="34" y="28" fill="#A254A0" width="2" height="2"/><rect x="42" y="26" fill="#77211B" width="2" height="2"/><rect x="32" y="26" fill="#201120" width="2" height="2"/><rect x="36" y="30" fill="#201120" width="2" height="2"/><rect x="36" y="26" fill="#412240" width="2" height="2"/><rect x="32" y="30" fill="#412240" width="2" height="2"/><rect x="48" y="24" fill="#613260" width="2" height="2"/><rect x="56" y="22" fill="#271B4A" width="2" height="2"/><rect x="54" y="28" fill="#A254A0" width="2" height="2"/><rect x="62" y="26" fill="#77211B" width="2" height="2"/><rect x="52" y="26" fill="#201120" width="2" height="2"/><rect x="56" y="30" fill="#201120" width="2" height="2"/><rect x="56" y="26" fill="#412240" width="2" height="2"/><rect x="52" y="30" fill="#412240" width="2" height="2"/><rect x="68" y="24" fill="#613260" width="2" height="2"/><rect x="76" y="22" fill="#271B4A" width="2" height="2"/><rect x="74" y="28" fill="#A254A0" width="2" height="2"/><rect x="72" y="26" fill="#201120" width="2" height="2"/><rect x="76" y="30" fill="#201120" width="2" height="2"/><rect x="76" y="26" fill="#412240" width="2" height="2"/><rect x="72" y="30" fill="#412240" width="2" height="2"/><rect x="8" y="44" fill="#613260" width="2" height="2"/><rect x="16" y="42" fill="#271B4A" width="2" height="2"/><rect x="14" y="48" fill="#A254A0" width="2" height="2"/><rect x="4" y="58" fill="#A254A0" width="2" height="2"/><rect x="24" y="58" fill="#A254A0" width="2" height="2"/><rect x="44" y="58" fill="#A254A0" width="2" height="2"/><rect x="64" y="58" fill="#A254A0" width="2" height="2"/><rect x="28" y="44" fill="#613260" width="2" height="2"/><rect x="2" y="46" fill="#77211B" width="2" height="2"/><rect x="2" y="52" fill="#1B1233" width="2" height="2"/><rect x="6" y="52" fill="#1B1233" width="2" height="2"/><rect x="4" y="52" fill="#4E3593" width="2" height="2"/><rect x="12" y="56" fill="#4E3593" width="2" height="2"/><rect x="22" y="52" fill="#1B1233" width="2" height="2"/><rect x="26" y="52" fill="#1B1233" width="2" height="2"/><rect x="24" y="52" fill="#4E3593" width="2" height="2"/><rect x="32" y="56" fill="#4E3593" width="2" height="2"/><rect x="52" y="56" fill="#4E3593" width="2" height="2"/><rect x="72" y="56" fill="#4E3593" width="2" height="2"/><rect x="42" y="52" fill="#1B1233" width="2" height="2"/><rect x="46" y="52" fill="#1B1233" width="2" height="2"/><rect x="44" y="52" fill="#4E3593" width="2" height="2"/><rect x="62" y="52" fill="#1B1233" width="2" height="2"/><rect x="66" y="52" fill="#1B1233" width="2" height="2"/><rect x="64" y="52" fill="#4E3593" width="2" height="2"/><rect x="22" y="46" fill="#77211B" width="2" height="2"/><rect x="12" y="46" fill="#201120" width="2" height="2"/><rect x="16" y="50" fill="#201120" width="2" height="2"/><rect x="16" y="46" fill="#412240" width="2" height="2"/><rect x="12" y="50" fill="#412240" width="2" height="2"/><rect x="36" y="42" fill="#271B4A" width="2" height="2"/><rect x="34" y="48" fill="#A254A0" width="2" height="2"/><rect x="42" y="46" fill="#77211B" width="2" height="2"/><rect x="32" y="46" fill="#201120" width="2" height="2"/><rect x="36" y="50" fill="#201120" width="2" height="2"/><rect x="36" y="46" fill="#412240" width="2" height="2"/><rect x="32" y="50" fill="#412240" width="2" height="2"/><rect x="48" y="44" fill="#613260" width="2" height="2"/><rect x="56" y="42" fill="#271B4A" width="2" height="2"/><rect x="54" y="48" fill="#A254A0" width="2" height="2"/><rect x="62" y="46" fill="#77211B" width="2" height="2"/><rect x="52" y="46" fill="#201120" width="2" height="2"/><rect x="56" y="50" fill="#201120" width="2" height="2"/><rect x="56" y="46" fill="#412240" width="2" height="2"/><rect x="52" y="50" fill="#412240" width="2" height="2"/><rect x="68" y="44" fill="#613260" width="2" height="2"/><rect x="76" y="42" fill="#271B4A" width="2" height="2"/><rect x="74" y="48" fill="#A254A0" width="2" height="2"/><rect x="72" y="46" fill="#201120" width="2" height="2"/><rect x="76" y="50" fill="#201120" width="2" height="2"/><rect x="76" y="46" fill="#412240" width="2" height="2"/><rect x="72" y="50" fill="#412240" width="2" height="2"/><rect x="8" y="64" fill="#613260" width="2" height="2"/><rect x="16" y="62" fill="#271B4A" width="2" height="2"/><rect x="14" y="68" fill="#A254A0" width="2" height="2"/><rect x="4" y="78" fill="#A254A0" width="2" height="2"/><rect x="24" y="78" fill="#A254A0" width="2" height="2"/><rect x="44" y="78" fill="#A254A0" width="2" height="2"/><rect x="64" y="78" fill="#A254A0" width="2" height="2"/><rect x="28" y="64" fill="#613260" width="2" height="2"/><rect x="2" y="66" fill="#77211B" width="2" height="2"/><rect x="2" y="72" fill="#1B1233" width="2" height="2"/><rect x="6" y="72" fill="#1B1233" width="2" height="2"/><rect x="4" y="72" fill="#4E3593" width="2" height="2"/><rect x="12" y="76" fill="#4E3593" width="2" height="2"/><rect x="22" y="72" fill="#1B1233" width="2" height="2"/><rect x="26" y="72" fill="#1B1233" width="2" height="2"/><rect x="24" y="72" fill="#4E3593" width="2" height="2"/><rect x="32" y="76" fill="#4E3593" width="2" height="2"/><rect x="52" y="76" fill="#4E3593" width="2" height="2"/><rect x="72" y="76" fill="#4E3593" width="2" height="2"/><rect x="42" y="72" fill="#1B1233" width="2" height="2"/><rect x="46" y="72" fill="#1B1233" width="2" height="2"/><rect x="44" y="72" fill="#4E3593" width="2" height="2"/><rect x="62" y="72" fill="#1B1233" width="2" height="2"/><rect x="66" y="72" fill="#1B1233" width="2" height="2"/><rect x="64" y="72" fill="#4E3593" width="2" height="2"/><rect x="22" y="66" fill="#77211B" width="2" height="2"/><rect x="12" y="66" fill="#201120" width="2" height="2"/><rect x="16" y="70" fill="#201120" width="2" height="2"/><rect x="16" y="66" fill="#412240" width="2" height="2"/><rect x="12" y="70" fill="#412240" width="2" height="2"/><rect x="36" y="62" fill="#271B4A" width="2" height="2"/><rect x="34" y="68" fill="#A254A0" width="2" height="2"/><rect x="42" y="66" fill="#77211B" width="2" height="2"/><rect x="32" y="66" fill="#201120" width="2" height="2"/><rect x="36" y="70" fill="#201120" width="2" height="2"/><rect x="36" y="66" fill="#412240" width="2" height="2"/><rect x="32" y="70" fill="#412240" width="2" height="2"/><rect x="48" y="64" fill="#613260" width="2" height="2"/><rect x="56" y="62" fill="#271B4A" width="2" height="2"/><rect x="54" y="68" fill="#A254A0" width="2" height="2"/><rect x="62" y="66" fill="#77211B" width="2" height="2"/><rect x="52" y="66" fill="#201120" width="2" height="2"/><rect x="56" y="70" fill="#201120" width="2" height="2"/><rect x="56" y="66" fill="#412240" width="2" height="2"/><rect x="52" y="70" fill="#412240" width="2" height="2"/><rect x="68" y="64" fill="#613260" width="2" height="2"/><rect x="76" y="62" fill="#271B4A" width="2" height="2"/><rect x="74" y="68" fill="#A254A0" width="2" height="2"/><rect x="72" y="66" fill="#201120" width="2" height="2"/><rect x="76" y="70" fill="#201120" width="2" height="2"/><rect x="76" y="66" fill="#412240" width="2" height="2"/><rect x="72" y="70" fill="#412240" width="2" height="2"/></svg>