<svg xmlns="http://www.w3.org/2000/svg" width="20" height="16"><g fill="#693B8F"><rect x="18" y="4" width="2" height="2"/><rect x="18" y="8" width="2" height="2"/><rect x="10" y="8" width="2" height="2"/><rect x="12" y="10" width="2" height="2"/><rect x="8" y="10" width="2" height="2"/><rect x="2" y="8" width="2" height="2"/><rect y="10" width="2" height="2"/><rect x="4" y="10" width="2" height="2"/><polygon points="16,14 16,12 14,12 14,14 12,14 12,12 10,12 10,14 8,14 8,12 6,12 6,14 4,14 4,12 2,12 2,14 0,14 0,16 2,16 4,16 6,16 8,16 10,16 12,16 14,16 16,16 18,16 20,16 20,14 20,12 18,12 18,14"/><rect x="16" y="10" width="2" height="2"/><rect x="14" width="2" height="2"/><rect x="14" y="6" width="2" height="2"/><rect x="10" y="4" width="2" height="2"/><rect x="6" width="2" height="2"/><rect x="6" y="6" width="2" height="2"/><rect x="2" y="4" width="2" height="2"/></g></svg>