<svg xmlns="http://www.w3.org/2000/svg" width="234" height="62"><polygon fill="#25235B" points="230,60 230,58 228,58 226,58 226,56 224,56 222,56 220,56 220,54 218,54 216,54 214,54 212,54 212,52 210,52 208,52 206,52 204,52 202,52 202,50 200,50 198,50 196,50 194,50 194,52 192,52 190,52 188,52 186,52 184,52 184,54 182,54 180,54 178,54 176,54 176,56 174,56 172,56 170,56 170,58 168,58 166,58 166,60 164,60 164,62 166,62 168,62 170,62 172,62 174,62 176,62 178,62 180,62 182,62 184,62 186,62 188,62 190,62 192,62 194,62 196,62 198,62 200,62 202,62 204,62 206,62 208,62 210,62 212,62 214,62 216,62 218,62 220,62 222,62 224,62 226,62 228,62 230,62 232,62 232,60"/><polygon fill="#509CD5" points="170,20 170,18 170,16 168,16 168,14 166,14 164,14 164,16 162,16 162,18 162,20 160,20 160,22 158,22 158,20 156,20 156,18 156,16 154,16 154,14 152,14 152,16 150,16 150,18 152,18 152,20 154,20 154,22 156,22 156,24 158,24 158,26 160,26 160,28 162,28 162,30 164,30 166,30 166,28 168,28 168,26 170,26 170,24 172,24 172,22 172,20"/><polygon fill="#884A99" points="180,10 180,8 178,8 178,6 176,6 174,6 174,4 172,4 170,4 168,4 168,2 166,2 164,2 162,2 160,2 160,4 158,4 156,4 154,4 154,6 152,6 150,6 150,8 148,8 148,10 146,10 146,12 146,14 146,16 148,16 150,16 150,14 152,14 152,12 154,12 154,14 156,14 156,16 158,16 158,18 158,20 160,20 160,18 160,16 162,16 162,14 164,14 164,12 166,12 168,12 168,14 170,14 170,16 172,16 172,18 172,20 174,20 174,22 176,22 176,20 178,20 178,18 178,16 180,16 180,14 182,14 182,12 182,10"/><polygon fill="#804099" points="90,10 90,26 106,26 106,10"/><polygon fill="#804099" points="72,10 72,26 88,26 88,10"/><polygon fill="#804099" points="54,10 54,26 70,26 70,10"/><polygon fill="#804099" points="36,10 36,26 52,26 52,10"/><polygon fill="#804099" points="36,28 36,44 52,44 52,28"/><g fill="#509CD5"><polygon points="8,54 6,54 4,54 4,56 4,58 6,58 6,60 8,60 10,60 10,58 10,56 8,56"/><polygon points="8,52 8,54 10,54 10,56 12,56 14,56 14,54 16,54 16,52 16,50 14,50 12,50 10,50 10,52"/><polygon points="8,44 6,44 4,44 4,46 2,46 2,48 2,50 4,50 4,52 6,52 8,52 8,50 10,50 10,48 10,46 8,46"/><polygon points="16,42 16,40 14,40 12,40 12,42 10,42 10,44 10,46 12,46 12,48 14,48 16,48 16,46 18,46 18,44 18,42"/><polygon points="12,40 12,38 10,38 8,38 8,36 6,36 4,36 4,38 4,40 6,40 6,42 8,42 10,42 10,40"/></g><polygon fill="#509CD5" points="12,30 12,28 10,28 8,28 8,30 6,30 6,32 6,34 8,34 8,36 10,36 12,36 12,34 14,34 14,32 14,30"/><rect x="52" y="26" width="2" height="2" fill="none"/><polygon fill="#010101" points="6,60 6,62 8,62 10,62 10,60 8,60"/><rect x="4" y="58" fill="#010101" width="2" height="2"/><polygon fill="#010101" points="4,54 2,54 2,56 2,58 4,58 4,56"/><rect x="4" y="54" fill="#7FC2E3" width="2" height="2"/><rect x="6" y="54" fill="#087BAF" width="2" height="2"/><rect x="4" y="56" fill="#087BAF" width="2" height="2"/><polygon fill="#087BAF" points="10,56 8,56 8,58 6,58 6,60 8,60 10,60 10,58"/><polygon fill="#010101" points="16,54 18,54 18,52 18,50 16,50 16,52"/><rect x="14" y="54" fill="#010101" width="2" height="2"/><polygon fill="#010101" points="10,56 10,58 10,60 12,60 12,58 14,58 14,56 12,56"/><rect x="8" y="54" fill="#010101" width="2" height="2"/><polygon fill="#087BAF" points="12,50 10,50 10,52 12,52 14,52 14,54 16,54 16,52 16,50 14,50"/><rect x="8" y="52" fill="#087BAF" width="2" height="2"/><polygon fill="#087BAF" points="12,54 10,54 10,56 12,56 14,56 14,54"/><rect x="2" y="44" fill="#010101" width="2" height="2"/><rect x="8" y="50" fill="#010101" width="2" height="2"/><polygon fill="#010101" points="8,54 8,52 6,52 4,52 4,54 6,54"/><rect x="2" y="50" fill="#010101" width="2" height="2"/><polygon fill="#010101" points="2,46 0,46 0,48 0,50 2,50 2,48"/><rect x="2" y="46" fill="#7FC2E3" width="2" height="2"/><polygon fill="#7FC2E3" points="6,46 8,46 8,44 6,44 4,44 4,46"/><polygon fill="#087BAF" points="8,48 8,50 10,50 10,48 10,46 8,46"/><rect x="4" y="46" fill="#C1E0F0" width="2" height="2"/><polygon fill="#087BAF" points="8,52 8,50 6,50 4,50 4,52 6,52"/><rect x="16" y="40" fill="#010101" width="2" height="2"/><polygon fill="#010101" points="18,44 18,46 20,46 20,44 20,42 18,42"/><rect x="16" y="46" fill="#010101" width="2" height="2"/><polygon fill="#010101" points="12,48 12,46 10,46 10,48 10,50 12,50 14,50 16,50 16,48 14,48"/><rect x="10" y="42" fill="#7FC2E3" width="2" height="2"/><polygon fill="#7FC2E3" points="12,40 12,42 14,42 16,42 16,40 14,40"/><rect x="12" y="42" fill="#C1E0F0" width="2" height="2"/><polygon fill="#087BAF" points="14,46 12,46 12,48 14,48 16,48 16,46"/><rect x="16" y="44" fill="#087BAF" width="2" height="2"/><rect x="10" y="40" fill="#010101" width="2" height="2"/><polygon fill="#010101" points="8,44 8,46 10,46 10,44 10,42 8,42 6,42 6,40 4,40 4,42 4,44 6,44"/><polygon fill="#010101" points="4,36 2,36 2,38 2,40 4,40 4,38"/><rect x="4" y="36" fill="#7FC2E3" width="2" height="2"/><rect x="6" y="36" fill="#087BAF" width="2" height="2"/><polygon fill="#087BAF" points="12,40 12,38 10,38 8,38 8,40 6,40 6,42 8,42 10,42 10,40"/><rect x="6" y="28" fill="#010101" width="2" height="2"/><polygon fill="#010101" points="12,28 12,26 10,26 8,26 8,28 10,28"/><rect x="12" y="28" fill="#010101" width="2" height="2"/><polygon fill="#010101" points="14,34 16,34 16,32 16,30 14,30 14,32"/><polygon fill="#010101" points="12,36 10,36 8,36 8,38 10,38 12,38 12,40 14,40 16,40 16,38 14,38 14,36 14,34 12,34"/><polygon fill="#010101" points="8,36 8,34 6,34 6,32 6,30 4,30 4,32 4,34 4,36 6,36"/><rect x="6" y="30" fill="#7FC2E3" width="2" height="2"/><polygon fill="#7FC2E3" points="10,30 12,30 12,28 10,28 8,28 8,30"/><rect x="8" y="30" fill="#C1E0F0" width="2" height="2"/><polygon fill="#087BAF" points="12,36 12,34 10,34 8,34 8,36 10,36"/><rect x="12" y="32" fill="#087BAF" width="2" height="2"/><polygon fill="#010101" points="36,44 36,46 52,46 52,44"/><polygon fill="#010101" points="36,28 34,28 34,44 36,44"/><polygon fill="#A356A2" points="36,32 36,34 36,36 36,38 36,40 36,42 38,42 38,40 38,38 38,36 38,34 38,32 38,30 40,30 42,30 44,30 46,30 48,30 50,30 52,30 52,28 50,28 48,28 46,28 44,28 42,28 40,28 38,28 36,28 36,30"/><polygon fill="#503694" points="52,40 52,38 52,36 52,34 52,32 52,30 50,30 50,32 50,34 50,36 50,38 50,40 50,42 48,42 46,42 44,42 42,42 40,42 38,42 36,42 36,44 38,44 40,44 42,44 44,44 46,44 48,44 50,44 52,44 52,42"/><rect x="40" y="32" fill="#6F4099" width="2" height="2"/><rect x="46" y="34" fill="#6F4099" width="2" height="2"/><rect x="38" y="36" fill="#8C459A" width="2" height="2"/><rect x="42" y="40" fill="#6F4099" width="2" height="2"/><rect x="48" y="40" fill="#8C459A" width="2" height="2"/><polygon fill="#010101" points="52,44 54,44 54,28 52,28"/><polygon fill="#010101" points="40,28 42,28 44,28 46,28 48,28 50,28 52,28 52,26 50,26 48,26 46,26 44,26 42,26 40,26 38,26 36,26 36,28 38,28"/><polygon fill="#010101" points="36,22 36,20 36,18 36,16 36,14 36,12 36,10 34,10 34,12 34,14 34,16 34,18 34,20 34,22 34,24 34,26 36,26 36,24"/><polygon fill="#A356A2" points="36,14 36,16 36,18 36,20 36,22 36,24 38,24 38,22 38,20 38,18 38,16 38,14 38,12 40,12 42,12 44,12 46,12 48,12 50,12 52,12 52,10 50,10 48,10 46,10 44,10 42,10 40,10 38,10 36,10 36,12"/><polygon fill="#503694" points="40,26 42,26 44,26 46,26 48,26 50,26 52,26 52,24 52,22 52,20 52,18 52,16 52,14 52,12 50,12 50,14 50,16 50,18 50,20 50,22 50,24 48,24 46,24 44,24 42,24 40,24 38,24 36,24 36,26 38,26"/><rect x="40" y="14" fill="#6F4099" width="2" height="2"/><rect x="46" y="16" fill="#6F4099" width="2" height="2"/><rect x="38" y="18" fill="#8C459A" width="2" height="2"/><rect x="42" y="22" fill="#6F4099" width="2" height="2"/><rect x="48" y="22" fill="#8C459A" width="2" height="2"/><polygon fill="#010101" points="40,10 42,10 44,10 46,10 48,10 50,10 52,10 52,8 50,8 48,8 46,8 44,8 42,8 40,8 38,8 36,8 36,10 38,10"/><polygon fill="#010101" points="66,26 64,26 62,26 60,26 58,26 56,26 54,26 54,28 56,28 58,28 60,28 62,28 64,28 66,28 68,28 70,28 70,26 68,26"/><polygon fill="#010101" points="52,14 52,16 52,18 52,20 52,22 52,24 52,26 54,26 54,24 54,22 54,20 54,18 54,16 54,14 54,12 54,10 52,10 52,12"/><polygon fill="#A356A2" points="54,14 54,16 54,18 54,20 54,22 54,24 56,24 56,22 56,20 56,18 56,16 56,14 56,12 58,12 60,12 62,12 64,12 66,12 68,12 70,12 70,10 68,10 66,10 64,10 62,10 60,10 58,10 56,10 54,10 54,12"/><polygon fill="#503694" points="70,22 70,20 70,18 70,16 70,14 70,12 68,12 68,14 68,16 68,18 68,20 68,22 68,24 66,24 64,24 62,24 60,24 58,24 56,24 54,24 54,26 56,26 58,26 60,26 62,26 64,26 66,26 68,26 70,26 70,24"/><rect x="58" y="14" fill="#6F4099" width="2" height="2"/><rect x="64" y="16" fill="#6F4099" width="2" height="2"/><rect x="56" y="18" fill="#8C459A" width="2" height="2"/><rect x="60" y="22" fill="#6F4099" width="2" height="2"/><rect x="66" y="22" fill="#8C459A" width="2" height="2"/><polygon fill="#010101" points="58,10 60,10 62,10 64,10 66,10 68,10 70,10 70,8 68,8 66,8 64,8 62,8 60,8 58,8 56,8 54,8 54,10 56,10"/><polygon fill="#010101" points="84,26 82,26 80,26 78,26 76,26 74,26 72,26 72,28 74,28 76,28 78,28 80,28 82,28 84,28 86,28 88,28 88,26 86,26"/><polygon fill="#010101" points="72,22 72,20 72,18 72,16 72,14 72,12 72,10 70,10 70,12 70,14 70,16 70,18 70,20 70,22 70,24 70,26 72,26 72,24"/><polygon fill="#A356A2" points="72,14 72,16 72,18 72,20 72,22 72,24 74,24 74,22 74,20 74,18 74,16 74,14 74,12 76,12 78,12 80,12 82,12 84,12 86,12 88,12 88,10 86,10 84,10 82,10 80,10 78,10 76,10 74,10 72,10 72,12"/><polygon fill="#503694" points="88,22 88,20 88,18 88,16 88,14 88,12 86,12 86,14 86,16 86,18 86,20 86,22 86,24 84,24 82,24 80,24 78,24 76,24 74,24 72,24 72,26 74,26 76,26 78,26 80,26 82,26 84,26 86,26 88,26 88,24"/><rect x="76" y="14" fill="#6F4099" width="2" height="2"/><rect x="82" y="16" fill="#6F4099" width="2" height="2"/><rect x="74" y="18" fill="#8C459A" width="2" height="2"/><rect x="78" y="22" fill="#6F4099" width="2" height="2"/><rect x="84" y="22" fill="#8C459A" width="2" height="2"/><polygon fill="#010101" points="76,10 78,10 80,10 82,10 84,10 86,10 88,10 88,8 86,8 84,8 82,8 80,8 78,8 76,8 74,8 72,8 72,10 74,10"/><polygon fill="#010101" points="102,26 100,26 98,26 96,26 94,26 92,26 90,26 90,28 92,28 94,28 96,28 98,28 100,28 102,28 104,28 106,28 106,26 104,26"/><polygon fill="#010101" points="90,22 90,20 90,18 90,16 90,14 90,12 90,10 88,10 88,12 88,14 88,16 88,18 88,20 88,22 88,24 88,26 90,26 90,24"/><polygon fill="#A356A2" points="90,14 90,16 90,18 90,20 90,22 90,24 92,24 92,22 92,20 92,18 92,16 92,14 92,12 94,12 96,12 98,12 100,12 102,12 104,12 106,12 106,10 104,10 102,10 100,10 98,10 96,10 94,10 92,10 90,10 90,12"/><polygon fill="#503694" points="106,22 106,20 106,18 106,16 106,14 106,12 104,12 104,14 104,16 104,18 104,20 104,22 104,24 102,24 100,24 98,24 96,24 94,24 92,24 90,24 90,26 92,26 94,26 96,26 98,26 100,26 102,26 104,26 106,26 106,24"/><rect x="94" y="14" fill="#6F4099" width="2" height="2"/><rect x="100" y="16" fill="#6F4099" width="2" height="2"/><rect x="92" y="18" fill="#8C459A" width="2" height="2"/><rect x="96" y="22" fill="#6F4099" width="2" height="2"/><rect x="102" y="22" fill="#8C459A" width="2" height="2"/><polygon fill="#010101" points="94,10 96,10 98,10 100,10 102,10 104,10 106,10 106,8 104,8 102,8 100,8 98,8 96,8 94,8 92,8 90,8 90,10 92,10"/><polygon fill="#010101" points="106,12 106,14 106,16 106,18 106,20 106,22 106,24 106,26 108,26 108,24 108,22 108,20 108,18 108,16 108,14 108,12 108,10 106,10"/><polygon fill="#010101" points="146,12 146,10 144,10 144,12 144,14 144,16 146,16 146,14"/><rect x="146" y="8" fill="#010101" width="2" height="2"/><rect x="148" y="6" fill="#010101" width="2" height="2"/><polygon fill="#010101" points="154,6 154,4 152,4 150,4 150,6 152,6"/><polygon fill="#010101" points="158,4 160,4 160,2 158,2 156,2 154,2 154,4 156,4"/><polygon fill="#A356A2" points="156,6 158,6 160,6 160,4 158,4 156,4 154,4 154,6"/><polygon fill="#A356A2" points="152,8 152,10 154,10 154,8 154,6 152,6 150,6 150,8"/><polygon fill="#A356A2" points="162,4 164,4 166,4 168,4 168,2 166,2 164,2 162,2 160,2 160,4"/><polygon fill="#A356A2" points="170,4 168,4 168,6 170,6 172,6 174,6 174,4 172,4"/><polygon fill="#A356A2" points="174,6 174,8 176,8 178,8 178,6 176,6"/><rect x="178" y="8" fill="#A356A2" width="2" height="2"/><polygon fill="#A356A2" points="168,10 168,8 166,8 164,8 164,10 166,10"/><rect x="148" y="8" fill="#A356A2" width="2" height="2"/><rect x="146" y="10" fill="#A356A2" width="2" height="2"/><rect x="146" y="12" fill="#764199" width="2" height="2"/><polygon fill="#503694" points="150,16 150,14 148,14 146,14 146,16 148,16"/><rect x="148" y="12" fill="#A356A2" width="2" height="2"/><rect x="148" y="10" fill="#764199" width="2" height="2"/><rect x="150" y="10" fill="#A356A2" width="2" height="2"/><rect x="150" y="12" fill="#503694" width="2" height="2"/><rect x="152" y="10" fill="#503694" width="2" height="2"/><rect x="154" y="10" fill="#A356A2" width="2" height="2"/><rect x="154" y="12" fill="#503694" width="2" height="2"/><rect x="156" y="12" fill="#A356A2" width="2" height="2"/><rect x="156" y="14" fill="#503694" width="2" height="2"/><polygon fill="#A356A2" points="160,16 160,14 158,14 158,16 158,18 160,18"/><rect x="158" y="18" fill="#503694" width="2" height="2"/><rect x="160" y="14" fill="#503694" width="2" height="2"/><rect x="160" y="12" fill="#A356A2" width="2" height="2"/><rect x="162" y="12" fill="#503694" width="2" height="2"/><rect x="162" y="10" fill="#A356A2" width="2" height="2"/><rect x="160" y="10" fill="#764199" width="2" height="2"/><rect x="156" y="10" fill="#764199" width="2" height="2"/><rect x="158" y="12" fill="#764199" width="2" height="2"/><polygon fill="#503694" points="166,12 168,12 168,10 166,10 164,10 164,12"/><rect x="168" y="10" fill="#A356A2" width="2" height="2"/><rect x="168" y="12" fill="#503694" width="2" height="2"/><rect x="170" y="12" fill="#A356A2" width="2" height="2"/><rect x="170" y="10" fill="#764199" width="2" height="2"/><rect x="172" y="12" fill="#764199" width="2" height="2"/><polygon fill="#A356A2" points="172,16 172,18 174,18 174,16 174,14 172,14"/><rect x="170" y="14" fill="#503694" width="2" height="2"/><rect x="172" y="18" fill="#503694" width="2" height="2"/><rect x="174" y="18" fill="#A356A2" width="2" height="2"/><rect x="174" y="20" fill="#503694" width="2" height="2"/><rect x="176" y="18" fill="#503694" width="2" height="2"/><polygon fill="#764199" points="176,14 174,14 174,16 174,18 176,18 176,16"/><polygon fill="#A356A2" points="176,16 176,18 178,18 178,16 178,14 176,14"/><rect x="178" y="14" fill="#503694" width="2" height="2"/><rect x="178" y="12" fill="#A356A2" width="2" height="2"/><rect x="176" y="12" fill="#764199" width="2" height="2"/><rect x="174" y="12" fill="#884A99" width="2" height="2"/><rect x="174" y="10" fill="#764199" width="2" height="2"/><rect x="178" y="10" fill="#764199" width="2" height="2"/><rect x="180" y="10" fill="#A356A2" width="2" height="2"/><rect x="180" y="12" fill="#503694" width="2" height="2"/><polygon fill="#010101" points="164,2 166,2 168,2 168,0 166,0 164,0 162,0 160,0 160,2 162,2"/><polygon fill="#010101" points="170,4 172,4 174,4 174,2 172,2 170,2 168,2 168,4"/><polygon fill="#010101" points="176,6 178,6 178,4 176,4 174,4 174,6"/><rect x="178" y="6" fill="#010101" width="2" height="2"/><rect x="180" y="8" fill="#010101" width="2" height="2"/><polygon fill="#010101" points="182,14 184,14 184,12 184,10 182,10 182,12"/><rect x="180" y="14" fill="#010101" width="2" height="2"/><polygon fill="#010101" points="178,18 178,20 180,20 180,18 180,16 178,16"/><rect x="176" y="20" fill="#010101" width="2" height="2"/><polygon fill="#010101" points="174,20 172,20 172,22 172,24 174,24 176,24 176,22 174,22"/><polygon fill="#010101" points="172,16 170,16 170,18 170,20 172,20 172,18"/><rect x="168" y="14" fill="#010101" width="2" height="2"/><polygon fill="#010101" points="166,12 164,12 164,14 166,14 168,14 168,12"/><rect x="162" y="14" fill="#010101" width="2" height="2"/><polygon fill="#010101" points="162,18 162,16 160,16 160,18 160,20 162,20"/><rect x="158" y="20" fill="#010101" width="2" height="2"/><polygon fill="#010101" points="158,18 158,16 156,16 156,18 156,20 158,20"/><rect x="154" y="14" fill="#010101" width="2" height="2"/><rect x="152" y="12" fill="#010101" width="2" height="2"/><rect x="150" y="14" fill="#010101" width="2" height="2"/><polygon fill="#010101" points="148,16 146,16 146,18 148,18 150,18 150,16"/><rect x="170" y="24" fill="#010101" width="2" height="2"/><rect x="168" y="26" fill="#010101" width="2" height="2"/><rect x="166" y="28" fill="#010101" width="2" height="2"/><polygon fill="#010101" points="162,30 162,32 164,32 166,32 166,30 164,30"/><rect x="160" y="28" fill="#010101" width="2" height="2"/><rect x="158" y="26" fill="#010101" width="2" height="2"/><rect x="156" y="24" fill="#010101" width="2" height="2"/><rect x="154" y="22" fill="#010101" width="2" height="2"/><rect x="152" y="20" fill="#010101" width="2" height="2"/><rect x="150" y="18" fill="#010101" width="2" height="2"/><rect x="150" y="16" fill="#087BAF" width="2" height="2"/><rect x="152" y="14" fill="#087BAF" width="2" height="2"/><polygon fill="#087BAF" points="156,16 154,16 154,18 154,20 156,20 156,18"/><rect x="156" y="20" fill="#087BAF" width="2" height="2"/><rect x="158" y="22" fill="#087BAF" width="2" height="2"/><rect x="160" y="20" fill="#087BAF" width="2" height="2"/><rect x="160" y="24" fill="#087BAF" width="2" height="2"/><rect x="160" y="26" fill="#7FC2E3" width="2" height="2"/><polygon fill="#087BAF" points="164,28 162,28 162,30 164,30 166,30 166,28"/><rect x="166" y="26" fill="#087BAF" width="2" height="2"/><rect x="166" y="24" fill="#7FC2E3" width="2" height="2"/><rect x="168" y="24" fill="#087BAF" width="2" height="2"/><polygon fill="#087BAF" points="172,20 170,20 170,22 170,24 172,24 172,22"/><polygon fill="#087BAF" points="170,16 168,16 168,18 166,18 166,16 168,16 168,14 166,14 164,14 164,16 162,16 162,18 162,20 164,20 164,22 166,22 166,20 168,20 170,20 170,18"/><rect x="166" y="16" fill="#7FC2E3" width="2" height="2"/><rect x="166" y="22" fill="#087BAF" width="2" height="2"/><rect x="162" y="24" fill="#7FC2E3" width="2" height="2"/><rect x="162" y="22" fill="#087BAF" width="2" height="2"/><rect x="164" y="22" fill="#7FC2E3" width="2" height="2"/><rect x="162" y="60" fill="#010101" width="2" height="2"/><rect x="164" y="58" fill="#010101" width="2" height="2"/><polygon fill="#010101" points="170,58 170,56 168,56 166,56 166,58 168,58"/><polygon fill="#010101" points="174,56 176,56 176,54 174,54 172,54 170,54 170,56 172,56"/><polygon fill="#010101" points="180,54 182,54 184,54 184,52 182,52 180,52 178,52 176,52 176,54 178,54"/><polygon fill="#010101" points="188,52 190,52 192,52 194,52 194,50 192,50 190,50 188,50 186,50 184,50 184,52 186,52"/><polygon fill="#010101" points="198,50 200,50 202,50 202,48 200,48 198,48 196,48 194,48 194,50 196,50"/><polygon fill="#010101" points="204,52 206,52 208,52 210,52 212,52 212,50 210,50 208,50 206,50 204,50 202,50 202,52"/><polygon fill="#010101" points="214,54 216,54 218,54 220,54 220,52 218,52 216,52 214,52 212,52 212,54"/><polygon fill="#010101" points="222,56 224,56 226,56 226,54 224,54 222,54 220,54 220,56"/><polygon fill="#010101" points="228,58 230,58 230,56 228,56 226,56 226,58"/><rect x="230" y="58" fill="#010101" width="2" height="2"/><rect x="232" y="60" fill="#010101" width="2" height="2"/><polygon fill="#342A6A" points="196,52 198,52 200,52 202,52 202,50 200,50 198,50 196,50 194,50 194,52"/><polygon fill="#342A6A" points="186,54 188,54 190,54 192,54 194,54 194,52 192,52 190,52 188,52 186,52 184,52 184,54"/><polygon fill="#342A6A" points="178,56 180,56 182,56 184,56 184,54 182,54 180,54 178,54 176,54 176,56"/><rect x="224" y="56" fill="#181144" width="2" height="2"/><polygon fill="#342A6A" points="172,58 174,58 176,58 176,56 174,56 172,56 170,56 170,58"/><polygon fill="#342A6A" points="168,60 170,60 170,58 168,58 166,58 166,60"/><rect x="218" y="58" fill="#181144" width="2" height="2"/><rect x="222" y="58" fill="#181144" width="2" height="2"/><rect x="224" y="58" fill="#25235B" width="2" height="2"/><polygon fill="#181144" points="230,60 230,58 228,58 226,58 226,60 224,60 224,62 226,62 228,62 230,62 232,62 232,60"/><rect x="222" y="60" fill="#25235B" width="2" height="2"/><rect x="220" y="60" fill="#181144" width="2" height="2"/><rect x="218" y="60" fill="#25235B" width="2" height="2"/><rect x="216" y="60" fill="#181144" width="2" height="2"/><rect x="212" y="60" fill="#181144" width="2" height="2"/><rect x="164" y="60" fill="#342A6A" width="2" height="2"/></svg>