<svg xmlns="http://www.w3.org/2000/svg" width="20" height="40"><rect fill="#010101" width="20" height="40"/><polygon fill="#804099" points="0,2 0,4 0,6 0,8 0,10 2,10 2,12 4,12 4,14 6,14 8,14 10,14 12,14 12,12 14,12 14,10 16,10 18,10 18,12 20,12 20,10 20,8 20,4 20,2"/><path fill="#562567" d="M18 14v-2h-4v2h-2v2h-8v-2h-2v-2h-2v28h20v-26h-2z"/><polygon fill="#010101" points="0,0 0,2 20,2 20,0"/><polygon fill="#A356A2" points="0,2 0,4 20,4 20,2"/><rect y="6" fill="#A356A2" width="2" height="2"/><rect x="4" y="6" fill="#764199" width="2" height="2"/><rect x="8" y="6" fill="#764199" width="2" height="2"/><rect x="12" y="6" fill="#764199" width="2" height="2"/><polygon fill="#A356A2" points="16,8 18,8 18,6 16,6 14,6 14,8"/><rect y="8" fill="#503694" width="2" height="2"/><rect y="10" fill="#010101" width="2" height="2"/><polygon fill="#713586" points="18,14 16,14 16,16 16,18 16,20 18,20 18,22 20,22 20,20 20,18 20,16 18,16"/><polygon fill="#713586" points="2,18 2,16 2,14 0,14 0,16 0,18 0,20 2,20"/><rect x="4" y="18" fill="#713586" width="2" height="2"/><rect x="12" y="18" fill="#884A99" width="2" height="2"/><rect x="14" y="20" fill="#884A99" width="2" height="2"/><polygon fill="#713586" points="10,22 12,22 12,20 10,20 8,20 8,22"/><rect x="6" y="20" fill="#884A99" width="2" height="2"/><rect x="2" y="20" fill="#884A99" width="2" height="2"/><rect x="12" y="22" fill="#884A99" width="2" height="2"/><polygon fill="#713586" points="16,22 14,22 14,24 12,24 12,26 12,28 10,28 10,30 10,32 12,32 12,30 14,30 14,28 16,28 16,26 18,26 18,24 16,24"/><rect x="16" y="22" fill="#884A99" width="2" height="2"/><polygon fill="#884A99" points="12,26 12,24 10,24 8,24 8,26 10,26"/><path fill="#010101" d="M0 40h20v-16h-2v4h-2v2h-2v2h-2v4h-2v-6h-2v-6h-2v2h-2v2h-2v-4h4v-2h-6"/><rect x="2" y="12" fill="#010101" width="2" height="2"/><polygon fill="#010101" points="8,14 6,14 4,14 4,16 6,16 8,16 10,16 12,16 12,14 10,14"/><rect x="12" y="12" fill="#010101" width="2" height="2"/><polygon fill="#010101" points="14,10 14,12 16,12 18,12 18,10 16,10"/><rect x="18" y="12" fill="#010101" width="2" height="2"/><rect x="2" y="10" fill="#503694" width="2" height="2"/><polygon fill="#A356A2" points="6,12 8,12 10,12 12,12 12,10 10,10 8,10 6,10 4,10 4,12"/><rect x="12" y="10" fill="#503694" width="2" height="2"/><polygon fill="#503694" points="10,12 8,12 6,12 4,12 4,14 6,14 8,14 10,14 12,14 12,12"/><rect x="2" y="8" fill="#A356A2" width="2" height="2"/><rect x="6" y="8" fill="#764199" width="2" height="2"/><rect x="10" y="8" fill="#764199" width="2" height="2"/><rect x="12" y="8" fill="#A356A2" width="2" height="2"/><polygon fill="#503694" points="14,8 14,10 16,10 18,10 18,8 16,8"/><rect x="18" y="10" fill="#503694" width="2" height="2"/><rect x="18" y="8" fill="#A356A2" width="2" height="2"/><rect x="16" y="34" fill="#010101" width="2" height="2"/><rect x="16" y="34" opacity=".5" fill="#503694" enable-background="new" width="2" height="2"/><rect y="30" fill="#010101" width="2" height="2"/><rect y="30" opacity=".3" fill="#EF4237" enable-background="new" width="2" height="2"/><rect x="6" y="38" fill="#010101" width="2" height="2"/><rect x="6" y="38" opacity=".5" fill="#A356A2" enable-background="new" width="2" height="2"/></svg>