<svg xmlns="http://www.w3.org/2000/svg" width="20" height="110"><path fill="#010101" d="M0 0v67h20v-67h-20zm4 8v-2h2v2h-2zm8 8v-2h2v2h-2zm6 10h-2v-2h2v2z"/><rect x="2" y="82" fill="#181144" width="2" height="2"/><rect x="10" y="82" fill="#181144" width="2" height="2"/><rect x="18" y="82" fill="#181144" width="2" height="2"/><path fill="#181144" d="M18 66h-2v-2h-2v2h-2v-2h-2v2h-2v-2h-2v2h-2v-2h-2v2h-2v21h20v-23h-2v2z"/><rect x="16" y="62" fill="#181144" width="2" height="2"/><rect x="12" y="62" fill="#181144" width="2" height="2"/><rect x="8" y="62" fill="#181144" width="2" height="2"/><rect x="4" y="62" fill="#181144" width="2" height="2"/><rect y="62" fill="#181144" width="2" height="2"/><rect x="2" y="60" fill="#181144" width="2" height="2"/><rect x="10" y="60" fill="#181144" width="2" height="2"/><rect x="18" y="60" fill="#181144" width="2" height="2"/><rect x="14" y="58" fill="#181144" width="2" height="2"/><rect x="8" y="44" fill="#010101" width="2" height="2"/><rect x="8" y="44" opacity=".5" fill="#503694" enable-background="new" width="2" height="2"/><rect x="12" y="14" fill="#010101" width="2" height="2"/><rect x="12" y="14" opacity=".25" fill="#503694" enable-background="new" width="2" height="2"/><rect x="10" y="30" fill="#010101" width="2" height="2"/><rect x="10" y="30" opacity=".25" fill="#503694" enable-background="new" width="2" height="2"/><rect x="4" y="6" fill="#010101" width="2" height="2"/><rect x="4" y="6" opacity=".5" fill="#A356A2" enable-background="new" width="2" height="2"/><rect x="2" y="34" fill="#010101" width="2" height="2"/><rect x="2" y="34" opacity=".25" fill="#A356A2" enable-background="new" width="2" height="2"/><rect x="16" y="24" fill="#010101" width="2" height="2"/><rect x="16" y="24" opacity=".3" fill="#EF4237" enable-background="new" width="2" height="2"/><rect x="14" y="52" fill="#010101" width="2" height="2"/><rect x="14" y="52" opacity=".15" fill="#EF4237" enable-background="new" width="2" height="2"/><rect x="6" y="58" fill="#181144" width="2" height="2"/><rect x="2" y="98" fill="#25235B" width="2" height="2"/><rect x="10" y="98" fill="#25235B" width="2" height="2"/><rect x="18" y="98" fill="#25235B" width="2" height="2"/><path fill="#25235B" d="M18 86h-2v-2h-2v2h-2v-2h-2v2h-2v-2h-2v2h-2v-2h-2v2h-2v17h20v-19h-2v2z"/><rect x="16" y="82" fill="#25235B" width="2" height="2"/><rect x="12" y="82" fill="#25235B" width="2" height="2"/><rect x="8" y="82" fill="#25235B" width="2" height="2"/><rect x="4" y="82" fill="#25235B" width="2" height="2"/><rect y="82" fill="#25235B" width="2" height="2"/><rect x="2" y="80" fill="#25235B" width="2" height="2"/><rect x="10" y="80" fill="#25235B" width="2" height="2"/><rect x="18" y="80" fill="#25235B" width="2" height="2"/><rect x="14" y="78" fill="#25235B" width="2" height="2"/><rect x="6" y="78" fill="#25235B" width="2" height="2"/><polygon fill="#342A6A" points="18,102 16,102 16,100 14,100 14,102 12,102 12,100 10,100 10,102 8,102 8,100 6,100 6,102 4,102 4,100 2,100 2,102 0,102 0,104 0,106 0,108 0,110 2,110 4,110 6,110 8,110 10,110 12,110 14,110 16,110 18,110 20,110 20,108 20,106 20,104 20,102 20,100 18,100"/><rect x="16" y="98" fill="#342A6A" width="2" height="2"/><rect x="12" y="98" fill="#342A6A" width="2" height="2"/><rect x="8" y="98" fill="#342A6A" width="2" height="2"/><rect x="4" y="98" fill="#342A6A" width="2" height="2"/><rect y="98" fill="#342A6A" width="2" height="2"/><rect x="2" y="96" fill="#342A6A" width="2" height="2"/><rect x="10" y="96" fill="#342A6A" width="2" height="2"/><rect x="18" y="96" fill="#342A6A" width="2" height="2"/><rect x="14" y="94" fill="#342A6A" width="2" height="2"/><rect x="6" y="94" fill="#342A6A" width="2" height="2"/></svg>