<svg xmlns="http://www.w3.org/2000/svg" width="80" height="80"><rect fill="#AF9E4F" width="80" height="80"/><rect x="16" fill="#B6A451" width="4" height="4"/><rect x="8" y="8" fill="#A69446" width="4" height="4"/><rect x="24" y="16" fill="#A69446" width="4" height="4"/><rect x="36" y="32" fill="#A69446" width="4" height="4"/><rect x="12" y="20" fill="#A69446" width="4" height="4"/><rect x="64" y="16" fill="#A69446" width="4" height="4"/><rect x="28" y="8" fill="#A69446" width="4" height="4"/><rect x="48" y="8" fill="#A69446" width="4" height="4"/><rect x="68" y="8" fill="#A69446" width="4" height="4"/><rect x="40" y="12" fill="#A69446" width="4" height="4"/><rect y="12" fill="#A69446" width="4" height="4"/><rect x="8" y="4" fill="#B6A451" width="4" height="4"/><rect x="8" y="28" fill="#A69446" width="4" height="4"/><rect x="8" y="24" fill="#B6A451" width="4" height="4"/><rect x="28" y="28" fill="#A69446" width="4" height="4"/><rect x="28" y="24" fill="#B6A451" width="4" height="4"/><rect x="48" y="28" fill="#A69446" width="4" height="4"/><rect x="48" y="24" fill="#B6A451" width="4" height="4"/><rect x="68" y="28" fill="#A69446" width="4" height="4"/><rect x="68" y="24" fill="#B6A451" width="4" height="4"/><rect x="28" y="4" fill="#B6A451" width="4" height="4"/><rect x="48" y="4" fill="#B6A451" width="4" height="4"/><rect x="68" y="4" fill="#B6A451" width="4" height="4"/><rect x="56" fill="#B6A451" width="4" height="4"/><rect x="72" y="16" fill="#B6A451" width="4" height="4"/><rect x="32" y="16" fill="#B6A451" width="4" height="4"/><rect x="16" y="20" fill="#B6A451" width="4" height="4"/><rect x="52" y="20" fill="#A69446" width="4" height="4"/><rect x="56" y="20" fill="#B6A451" width="4" height="4"/><rect fill="#B6A451" width="8" height="4"/><rect y="4" fill="#A69446" width="8" height="4"/><rect y="20" fill="#B6A451" width="8" height="4"/><rect y="24" fill="#A69446" width="8" height="4"/><rect x="72" y="20" fill="#B6A451" width="8" height="4"/><rect x="72" y="24" fill="#A69446" width="8" height="4"/><rect x="72" y="4" fill="#A69446" width="8" height="4"/><rect x="72" fill="#B6A451" width="8" height="4"/><rect x="32" fill="#B6A451" width="16" height="4"/><rect x="32" y="4" fill="#A69446" width="16" height="4"/><rect x="52" y="12" fill="#A69446" width="16" height="4"/><rect x="12" y="8" fill="#B6A451" width="16" height="4"/><rect x="12" y="12" fill="#A69446" width="16" height="4"/><rect x="12" y="28" fill="#B6A451" width="16" height="4"/><rect x="12" y="32" fill="#A69446" width="16" height="4"/><rect x="32" y="20" fill="#B6A451" width="16" height="4"/><rect x="32" y="24" fill="#A69446" width="16" height="4"/><rect x="52" y="28" fill="#B6A451" width="16" height="4"/><rect x="52" y="32" fill="#A69446" width="16" height="4"/><rect x="52" y="8" fill="#B6A451" width="16" height="4"/><rect x="16" y="40" fill="#B6A451" width="4" height="4"/><rect x="8" y="48" fill="#A69446" width="4" height="4"/><rect x="24" y="56" fill="#A69446" width="4" height="4"/><rect x="36" y="72" fill="#A69446" width="4" height="4"/><rect x="12" y="60" fill="#A69446" width="4" height="4"/><rect x="64" y="56" fill="#A69446" width="4" height="4"/><rect x="28" y="48" fill="#A69446" width="4" height="4"/><rect x="48" y="48" fill="#A69446" width="4" height="4"/><rect x="68" y="48" fill="#A69446" width="4" height="4"/><rect x="40" y="52" fill="#A69446" width="4" height="4"/><rect y="52" fill="#A69446" width="4" height="4"/><rect x="8" y="44" fill="#B6A451" width="4" height="4"/><rect x="8" y="68" fill="#A69446" width="4" height="4"/><rect x="8" y="64" fill="#B6A451" width="4" height="4"/><rect x="28" y="68" fill="#A69446" width="4" height="4"/><rect x="28" y="64" fill="#B6A451" width="4" height="4"/><rect x="48" y="68" fill="#A69446" width="4" height="4"/><rect x="48" y="64" fill="#B6A451" width="4" height="4"/><rect x="68" y="68" fill="#A69446" width="4" height="4"/><rect x="68" y="64" fill="#B6A451" width="4" height="4"/><rect x="28" y="44" fill="#B6A451" width="4" height="4"/><rect x="48" y="44" fill="#B6A451" width="4" height="4"/><rect x="68" y="44" fill="#B6A451" width="4" height="4"/><rect x="56" y="40" fill="#B6A451" width="4" height="4"/><rect x="72" y="56" fill="#B6A451" width="4" height="4"/><rect x="32" y="56" fill="#B6A451" width="4" height="4"/><rect x="16" y="60" fill="#B6A451" width="4" height="4"/><rect x="52" y="60" fill="#A69446" width="4" height="4"/><rect x="56" y="60" fill="#B6A451" width="4" height="4"/><rect y="40" fill="#B6A451" width="8" height="4"/><rect y="44" fill="#A69446" width="8" height="4"/><rect y="60" fill="#B6A451" width="8" height="4"/><rect y="64" fill="#A69446" width="8" height="4"/><rect x="72" y="60" fill="#B6A451" width="8" height="4"/><rect x="72" y="64" fill="#A69446" width="8" height="4"/><rect x="72" y="44" fill="#A69446" width="8" height="4"/><rect x="72" y="40" fill="#B6A451" width="8" height="4"/><rect x="32" y="40" fill="#B6A451" width="16" height="4"/><rect x="32" y="44" fill="#A69446" width="16" height="4"/><rect x="52" y="52" fill="#A69446" width="16" height="4"/><rect x="12" y="48" fill="#B6A451" width="16" height="4"/><rect x="12" y="52" fill="#A69446" width="16" height="4"/><rect x="12" y="68" fill="#B6A451" width="16" height="4"/><rect x="12" y="72" fill="#A69446" width="16" height="4"/><rect x="32" y="60" fill="#B6A451" width="16" height="4"/><rect x="32" y="64" fill="#A69446" width="16" height="4"/><rect x="52" y="68" fill="#B6A451" width="16" height="4"/><rect x="52" y="72" fill="#A69446" width="16" height="4"/><rect x="52" y="48" fill="#B6A451" width="16" height="4"/></svg>