<svg xmlns="http://www.w3.org/2000/svg" width="142" height="70"><rect x="122" y="18" width="2" height="2" fill="none"/><rect x="126" y="24" fill="#EDD471" width="2" height="2"/><rect x="130" y="32" fill="#EDD471" width="2" height="2"/><rect x="136" y="32" fill="#EDD471" width="2" height="2"/><rect x="132" y="30" fill="#EDD471" width="2" height="2"/><rect x="136" y="24" fill="#EDD471" width="2" height="2"/><polygon fill="#EDD471" points="132,30 132,28 130,28 128,28 128,30 130,30"/><rect x="126" y="30" fill="#EDD471" width="2" height="2"/><rect x="134" y="26" fill="#EDD471" width="2" height="2"/><rect x="130" y="14" fill="#EDD471" width="2" height="2"/><rect x="136" y="14" fill="#EDD471" width="2" height="2"/><rect x="126" y="6" fill="#EDD471" width="2" height="2"/><rect x="126" y="12" fill="#EDD471" width="2" height="2"/><rect x="136" y="6" fill="#EDD471" width="2" height="2"/><rect x="132" y="12" fill="#EDD471" width="2" height="2"/><rect x="134" y="8" fill="#EDD471" width="2" height="2"/><polygon fill="#EDD471" points="132,10 130,10 128,10 128,12 130,12 132,12"/><rect x="118" y="24" fill="#EDD471" width="2" height="2"/><polygon fill="#EDD471" points="114,28 112,28 110,28 110,30 112,30 114,30"/><rect x="114" y="30" fill="#EDD471" width="2" height="2"/><rect x="118" y="32" fill="#EDD471" width="2" height="2"/><rect x="116" y="26" fill="#EDD471" width="2" height="2"/><rect x="112" y="32" fill="#EDD471" width="2" height="2"/><rect x="108" y="30" fill="#EDD471" width="2" height="2"/><rect x="108" y="24" fill="#EDD471" width="2" height="2"/><polygon fill="#67BB57" points="12,66 12,64 10,64 10,62 8,62 8,64 8,66 10,66"/><polygon fill="#67BB57" points="6,60 8,60 8,58 6,58 6,56 4,56 4,58 4,60 4,62 6,62"/><polygon fill="#67BB57" points="20,50 20,48 18,48 16,48 16,50 14,50 14,52 16,52 16,54 14,54 14,56 12,56 12,54 10,54 10,56 10,58 10,60 10,62 12,62 12,64 14,64 14,66 16,66 16,64 16,62 16,60 18,60 18,62 20,62 20,60 20,58 18,58 18,56 18,54 20,54 20,56 20,58 22,58 22,56 22,54 22,52 20,52"/><rect x="22" y="50" fill="#67BB57" width="2" height="2"/><rect x="12" y="48" fill="#67BB57" width="2" height="2"/><rect x="6" y="50" fill="#67BB57" width="2" height="2"/><rect x="24" y="52" fill="#67BB57" width="2" height="2"/><rect x="12" y="52" fill="#67BB57" width="2" height="2"/><rect x="14" y="46" fill="#67BB57" width="2" height="2"/><polygon fill="#67BB57" points="20,46 20,48 22,48 22,46 22,44 20,44"/><polygon fill="#010101" points="14,68 12,68 12,70 14,70 16,70 18,70 18,68 16,68"/><polygon fill="#010101" points="18,66 18,68 20,68 22,68 22,66 20,66"/><rect x="22" y="64" fill="#010101" width="2" height="2"/><rect x="24" y="62" fill="#010101" width="2" height="2"/><polygon fill="#010101" points="26,60 26,62 28,62 28,60 28,58 26,58"/><polygon fill="#010101" points="28,54 28,56 28,58 30,58 30,56 30,54 30,52 28,52"/><polygon fill="#010101" points="26,52 28,52 28,50 28,48 26,48 26,50"/><rect x="24" y="46" fill="#010101" width="2" height="2"/><rect x="22" y="44" fill="#010101" width="2" height="2"/><polygon fill="#010101" points="20,44 22,44 22,42 20,42 18,42 18,44"/><polygon fill="#010101" points="16,42 18,42 18,40 16,40 14,40 12,40 12,42 14,42"/><polygon fill="#010101" points="12,44 12,42 10,42 8,42 8,44 10,44"/><rect x="6" y="44" fill="#010101" width="2" height="2"/><rect x="4" y="46" fill="#010101" width="2" height="2"/><polygon fill="#010101" points="4,50 4,48 2,48 2,50 2,52 4,52"/><polygon fill="#010101" points="2,54 2,52 0,52 0,54 0,56 0,58 2,58 2,56"/><polygon fill="#010101" points="4,58 2,58 2,60 2,62 4,62 4,60"/><rect x="4" y="62" fill="#010101" width="2" height="2"/><rect x="6" y="64" fill="#010101" width="2" height="2"/><polygon fill="#010101" points="10,66 8,66 8,68 10,68 12,68 12,66"/><rect x="10" y="62" fill="#08A650" width="2" height="2"/><rect x="6" y="62" fill="#08A650" width="2" height="2"/><rect x="6" y="60" fill="#E6EDC2" width="2" height="2"/><rect x="16" y="60" fill="#E6EDC2" width="2" height="2"/><polygon fill="#08A650" points="10,58 8,58 8,60 8,62 10,62 10,60"/><polygon fill="#AACD4C" points="4,56 4,54 4,52 2,52 2,54 2,56 2,58 4,58"/><polygon fill="#AACD4C" points="10,56 10,54 10,52 8,52 8,54 8,56 8,58 10,58"/><rect x="18" y="56" fill="#08A650" width="2" height="2"/><polygon fill="#08A650" points="28,54 28,52 26,52 26,54 26,56 24,56 24,54 24,52 22,52 22,54 22,56 22,58 20,58 20,60 20,62 18,62 16,62 16,64 16,66 14,66 14,64 12,64 12,66 12,68 14,68 16,68 18,68 18,66 20,66 22,66 22,64 24,64 24,62 26,62 26,60 26,58 28,58 28,56"/><rect x="24" y="54" fill="#E6EDC2" width="2" height="2"/><rect x="18" y="54" fill="#E6EDC2" width="2" height="2"/><rect x="12" y="54" fill="#AACD4C" width="2" height="2"/><polygon fill="#08A650" points="8,54 8,52 6,52 6,54 4,54 4,56 6,56 6,58 8,58 8,56"/><rect x="4" y="52" fill="#E6EDC2" width="2" height="2"/><rect x="10" y="52" fill="#08A650" width="2" height="2"/><rect x="14" y="52" fill="#AACD4C" width="2" height="2"/><rect x="12" y="50" fill="#AACD4C" width="2" height="2"/><rect x="10" y="50" fill="#E6EDC2" width="2" height="2"/><polygon fill="#08A650" points="10,52 10,50 10,48 8,48 8,50 8,52"/><polygon fill="#AACD4C" points="4,52 6,52 6,50 8,50 8,48 10,48 10,46 12,46 12,44 10,44 8,44 8,46 6,46 6,48 4,48 4,50"/><rect x="10" y="48" fill="#AACD4C" width="2" height="2"/><rect x="14" y="48" fill="#AACD4C" width="2" height="2"/><polygon fill="#08A650" points="22,48 20,48 20,50 20,52 22,52 22,50 24,50 24,52 26,52 26,50 26,48 24,48"/><rect x="22" y="46" fill="#E6EDC2" width="2" height="2"/><rect x="18" y="46" fill="#08A650" width="2" height="2"/><rect x="16" y="46" fill="#AACD4C" width="2" height="2"/><rect x="12" y="46" fill="#AACD4C" width="2" height="2"/><rect x="10" y="46" fill="#08A650" width="2" height="2"/><rect x="12" y="44" fill="#08A650" width="2" height="2"/><rect x="16" y="44" fill="#08A650" width="2" height="2"/><rect x="18" y="44" fill="#AACD4C" width="2" height="2"/><polygon fill="#AACD4C" points="14,44 14,46 16,46 16,44 18,44 18,42 16,42 14,42 12,42 12,44"/><rect x="72" y="30" fill="#EDD471" width="2" height="2"/><rect x="72" y="24" fill="#EDD471" width="2" height="2"/><rect x="82" y="24" fill="#EDD471" width="2" height="2"/><rect x="82" y="32" fill="#EDD471" width="2" height="2"/><rect x="76" y="32" fill="#EDD471" width="2" height="2"/><rect x="78" y="30" fill="#EDD471" width="2" height="2"/><polygon fill="#EDD471" points="78,28 76,28 74,28 74,30 76,30 78,30"/><rect x="80" y="26" fill="#EDD471" width="2" height="2"/><polygon fill="#FEE982" points="70,24 70,26 70,28 70,30 70,32 70,34 72,34 72,32 72,30 72,28 72,26 72,24 72,22 74,22 76,22 78,22 80,22 82,22 84,22 86,22 86,20 84,20 82,20 80,20 78,20 76,20 74,20 72,20 70,20 70,22"/><polygon fill="#B09E4F" points="86,32 86,30 86,28 86,26 86,24 86,22 84,22 84,24 84,26 84,28 84,30 84,32 84,34 82,34 80,34 78,34 76,34 74,34 72,34 70,34 70,36 72,36 74,36 76,36 78,36 80,36 82,36 84,36 86,36 86,34"/><rect x="82" y="22" fill="#D1BA5B" width="2" height="2"/><rect x="72" y="22" fill="#D1BA5B" width="2" height="2"/><rect x="72" y="26" fill="#E1C965" width="2" height="2"/><rect x="72" y="28" fill="#D1BA5B" width="2" height="2"/><rect x="72" y="32" fill="#D1BA5B" width="2" height="2"/><polygon fill="#E1C965" points="76,30 74,30 74,32 74,34 76,34 76,32"/><polygon fill="#E1C965" points="74,26 76,26 78,26 78,28 80,28 80,26 80,24 82,24 82,22 80,22 78,22 76,22 74,22 74,24"/><polygon fill="#D1BA5B" points="78,28 78,26 76,26 74,26 74,28 76,28"/><rect x="76" y="30" fill="#D1BA5B" width="2" height="2"/><rect x="78" y="28" fill="#D1BA5B" width="2" height="2"/><rect x="80" y="24" fill="#D1BA5B" width="2" height="2"/><rect x="82" y="30" fill="#D1BA5B" width="2" height="2"/><polygon fill="#E1C965" points="82,28 80,28 80,30 80,32 78,32 78,34 80,34 82,34 82,32 82,30 84,30 84,28 84,26 82,26"/><polygon fill="#010101" points="74,20 76,20 78,20 80,20 82,20 84,20 86,20 86,18 84,18 82,18 80,18 78,18 76,18 74,18 72,18 70,18 70,20 72,20"/><polygon fill="#010101" points="82,36 80,36 78,36 76,36 74,36 72,36 70,36 70,38 72,38 74,38 76,38 78,38 80,38 82,38 84,38 86,38 86,36 84,36"/><polygon fill="#010101" points="70,32 70,30 70,28 70,26 70,24 70,22 70,20 68,20 68,22 68,24 68,26 68,28 68,30 68,32 68,34 68,36 70,36 70,34"/><polygon fill="#010101" points="88,32 88,30 88,28 88,26 88,24 88,22 88,20 86,20 86,22 86,24 86,26 86,28 86,30 86,32 86,34 86,36 88,36 88,34"/><polygon fill="#FEE982" points="106,24 106,26 106,28 106,30 106,32 106,34 108,34 108,32 108,30 108,28 108,26 108,24 108,22 110,22 112,22 114,22 116,22 118,22 120,22 122,22 122,20 120,20 118,20 116,20 114,20 112,20 110,20 108,20 106,20 106,22"/><polygon fill="#B09E4F" points="122,32 122,30 122,28 122,26 122,24 122,22 120,22 120,24 120,26 120,28 120,30 120,32 120,34 118,34 116,34 114,34 112,34 110,34 108,34 106,34 106,36 108,36 110,36 112,36 114,36 116,36 118,36 120,36 122,36 122,34"/><rect x="118" y="22" fill="#D1BA5B" width="2" height="2"/><rect x="108" y="22" fill="#D1BA5B" width="2" height="2"/><rect x="108" y="26" fill="#E1C965" width="2" height="2"/><rect x="108" y="28" fill="#D1BA5B" width="2" height="2"/><rect x="108" y="32" fill="#D1BA5B" width="2" height="2"/><polygon fill="#E1C965" points="112,30 110,30 110,32 110,34 112,34 112,32"/><polygon fill="#E1C965" points="110,26 112,26 114,26 114,28 116,28 116,26 116,24 118,24 118,22 116,22 114,22 112,22 110,22 110,24"/><polygon fill="#D1BA5B" points="114,28 114,26 112,26 110,26 110,28 112,28"/><rect x="112" y="30" fill="#D1BA5B" width="2" height="2"/><rect x="114" y="28" fill="#D1BA5B" width="2" height="2"/><rect x="116" y="24" fill="#D1BA5B" width="2" height="2"/><rect x="118" y="30" fill="#D1BA5B" width="2" height="2"/><polygon fill="#E1C965" points="118,28 116,28 116,30 116,32 114,32 114,34 116,34 118,34 118,32 118,30 120,30 120,28 120,26 118,26"/><polygon fill="#010101" points="110,20 112,20 114,20 116,20 118,20 120,20 122,20 122,18 120,18 118,18 116,18 114,18 112,18 110,18 108,18 106,18 106,20 108,20"/><polygon fill="#010101" points="118,36 116,36 114,36 112,36 110,36 108,36 106,36 106,38 108,38 110,38 112,38 114,38 116,38 118,38 120,38 122,38 122,36 120,36"/><rect x="94" y="32" fill="#EDD471" width="2" height="2"/><rect x="90" y="30" fill="#EDD471" width="2" height="2"/><rect x="90" y="24" fill="#EDD471" width="2" height="2"/><rect x="96" y="30" fill="#EDD471" width="2" height="2"/><rect x="98" y="26" fill="#EDD471" width="2" height="2"/><rect x="100" y="32" fill="#EDD471" width="2" height="2"/><polygon fill="#EDD471" points="96,28 94,28 92,28 92,30 94,30 96,30"/><rect x="100" y="24" fill="#EDD471" width="2" height="2"/><polygon fill="#FEE982" points="88,24 88,26 88,28 88,30 88,32 88,34 90,34 90,32 90,30 90,28 90,26 90,24 90,22 92,22 94,22 96,22 98,22 100,22 102,22 104,22 104,20 102,20 100,20 98,20 96,20 94,20 92,20 90,20 88,20 88,22"/><polygon fill="#B09E4F" points="104,32 104,30 104,28 104,26 104,24 104,22 102,22 102,24 102,26 102,28 102,30 102,32 102,34 100,34 98,34 96,34 94,34 92,34 90,34 88,34 88,36 90,36 92,36 94,36 96,36 98,36 100,36 102,36 104,36 104,34"/><rect x="100" y="22" fill="#D1BA5B" width="2" height="2"/><rect x="90" y="22" fill="#D1BA5B" width="2" height="2"/><rect x="90" y="26" fill="#E1C965" width="2" height="2"/><rect x="90" y="28" fill="#D1BA5B" width="2" height="2"/><rect x="90" y="32" fill="#D1BA5B" width="2" height="2"/><polygon fill="#E1C965" points="94,30 92,30 92,32 92,34 94,34 94,32"/><polygon fill="#E1C965" points="92,26 94,26 96,26 96,28 98,28 98,26 98,24 100,24 100,22 98,22 96,22 94,22 92,22 92,24"/><polygon fill="#D1BA5B" points="96,28 96,26 94,26 92,26 92,28 94,28"/><rect x="94" y="30" fill="#D1BA5B" width="2" height="2"/><rect x="96" y="28" fill="#D1BA5B" width="2" height="2"/><rect x="98" y="24" fill="#D1BA5B" width="2" height="2"/><rect x="100" y="30" fill="#D1BA5B" width="2" height="2"/><polygon fill="#E1C965" points="100,28 98,28 98,30 98,32 96,32 96,34 98,34 100,34 100,32 100,30 102,30 102,28 102,26 100,26"/><polygon fill="#010101" points="92,20 94,20 96,20 98,20 100,20 102,20 104,20 104,18 102,18 100,18 98,18 96,18 94,18 92,18 90,18 88,18 88,20 90,20"/><polygon fill="#010101" points="100,36 98,36 96,36 94,36 92,36 90,36 88,36 88,38 90,38 92,38 94,38 96,38 98,38 100,38 102,38 104,38 104,36 102,36"/><polygon fill="#010101" points="106,32 106,30 106,28 106,26 106,24 106,22 106,20 104,20 104,22 104,24 104,26 104,28 104,30 104,32 104,34 104,36 106,36 106,34"/><polygon fill="#FEE982" points="136,20 134,20 132,20 130,20 128,20 126,20 124,20 124,22 124,24 124,26 124,28 124,30 124,32 124,34 126,34 126,32 126,30 126,28 126,26 126,24 126,22 128,22 130,22 132,22 134,22 136,22 138,22 140,22 140,20 138,20"/><polygon fill="#B09E4F" points="140,32 140,30 140,28 140,26 140,24 140,22 138,22 138,24 138,26 138,28 138,30 138,32 138,34 136,34 134,34 132,34 130,34 128,34 126,34 124,34 124,36 126,36 128,36 130,36 132,36 134,36 136,36 138,36 140,36 140,34"/><rect x="136" y="22" fill="#D1BA5B" width="2" height="2"/><rect x="126" y="22" fill="#D1BA5B" width="2" height="2"/><rect x="126" y="26" fill="#E1C965" width="2" height="2"/><rect x="126" y="28" fill="#D1BA5B" width="2" height="2"/><rect x="126" y="32" fill="#D1BA5B" width="2" height="2"/><polygon fill="#E1C965" points="130,30 128,30 128,32 128,34 130,34 130,32"/><polygon fill="#E1C965" points="128,26 130,26 132,26 132,28 134,28 134,26 134,24 136,24 136,22 134,22 132,22 130,22 128,22 128,24"/><polygon fill="#D1BA5B" points="132,28 132,26 130,26 128,26 128,28 130,28"/><rect x="130" y="30" fill="#D1BA5B" width="2" height="2"/><rect x="132" y="28" fill="#D1BA5B" width="2" height="2"/><rect x="134" y="24" fill="#D1BA5B" width="2" height="2"/><rect x="136" y="30" fill="#D1BA5B" width="2" height="2"/><polygon fill="#E1C965" points="136,28 134,28 134,30 134,32 132,32 132,34 134,34 136,34 136,32 136,30 138,30 138,28 138,26 136,26"/><polygon fill="#010101" points="140,24 140,26 140,28 140,30 140,32 140,34 140,36 142,36 142,34 142,32 142,30 142,28 142,26 142,24 142,22 142,20 140,20 140,22"/><polygon fill="#010101" points="136,36 134,36 132,36 130,36 128,36 126,36 124,36 124,38 126,38 128,38 130,38 132,38 134,38 136,38 138,38 140,38 140,36 138,36"/><polygon fill="#010101" points="124,32 124,30 124,28 124,26 124,24 124,22 124,20 122,20 122,22 122,24 122,26 122,28 122,30 122,32 122,34 122,36 124,36 124,34"/><polygon fill="#FEE982" points="124,6 124,8 124,10 124,12 124,14 124,16 126,16 126,14 126,12 126,10 126,8 126,6 126,4 128,4 130,4 132,4 134,4 136,4 138,4 140,4 140,2 138,2 136,2 134,2 132,2 130,2 128,2 126,2 124,2 124,4"/><polygon fill="#B09E4F" points="140,14 140,12 140,10 140,8 140,6 140,4 138,4 138,6 138,8 138,10 138,12 138,14 138,16 136,16 134,16 132,16 130,16 128,16 126,16 124,16 124,18 126,18 128,18 130,18 132,18 134,18 136,18 138,18 140,18 140,16"/><rect x="136" y="4" fill="#D1BA5B" width="2" height="2"/><rect x="126" y="4" fill="#D1BA5B" width="2" height="2"/><rect x="126" y="8" fill="#E1C965" width="2" height="2"/><rect x="126" y="10" fill="#D1BA5B" width="2" height="2"/><rect x="126" y="14" fill="#D1BA5B" width="2" height="2"/><polygon fill="#E1C965" points="130,12 128,12 128,14 128,16 130,16 130,14"/><polygon fill="#E1C965" points="128,8 130,8 132,8 132,10 134,10 134,8 134,6 136,6 136,4 134,4 132,4 130,4 128,4 128,6"/><polygon fill="#D1BA5B" points="132,10 132,8 130,8 128,8 128,10 130,10"/><rect x="130" y="12" fill="#D1BA5B" width="2" height="2"/><rect x="132" y="10" fill="#D1BA5B" width="2" height="2"/><rect x="134" y="6" fill="#D1BA5B" width="2" height="2"/><rect x="136" y="12" fill="#D1BA5B" width="2" height="2"/><polygon fill="#E1C965" points="136,10 134,10 134,12 134,14 132,14 132,16 134,16 136,16 136,14 136,12 138,12 138,10 138,8 136,8"/><polygon fill="#010101" points="128,2 130,2 132,2 134,2 136,2 138,2 140,2 140,0 138,0 136,0 134,0 132,0 130,0 128,0 126,0 124,0 124,2 126,2"/><polygon fill="#010101" points="140,2 140,4 140,6 140,8 140,10 140,12 140,14 140,16 140,18 142,18 142,16 142,14 142,12 142,10 142,8 142,6 142,4 142,2"/><polygon fill="#010101" points="136,18 134,18 132,18 130,18 128,18 126,18 124,18 124,20 126,20 128,20 130,20 132,20 134,20 136,20 138,20 140,20 140,18 138,18"/><polygon fill="#010101" points="124,16 124,14 124,12 124,10 124,8 124,6 124,4 124,2 122,2 122,4 122,6 122,8 122,10 122,12 122,14 122,16 122,18 124,18"/></svg>