<svg xmlns="http://www.w3.org/2000/svg" width="266" height="60"><g fill="#F89521"><polygon points="104,54 102,54 102,52 102,50 102,48 100,48 98,48 96,48 96,46 96,44 96,42 94,42 92,42 90,42 90,40 90,38 90,36 88,36 86,36 84,36 84,34 84,32 84,30 82,30 80,30 78,30 78,28 78,26 78,24 76,24 74,24 72,24 72,22 72,20 72,18 70,18 68,18 66,18 66,16 66,14 66,12 64,12 62,12 60,12 58,12 56,12 54,12 52,12 50,12 48,12 46,12 44,12 42,12 42,14 42,16 42,18 40,18 38,18 36,18 36,20 36,22 36,24 34,24 32,24 30,24 30,26 30,28 30,30 28,30 26,30 24,30 24,32 24,34 24,36 22,36 20,36 18,36 18,38 18,40 18,42 16,42 14,42 12,42 12,44 12,46 12,48 10,48 8,48 6,48 6,50 6,52 6,54 4,54 2,54 0,54 0,56 0,58 0,60 54,60 108,60 108,58 108,56 108,54 106,54"/><polygon points="264,58 264,56 262,56 262,54 260,54 260,52 258,52 258,50 256,50 256,48 254,48 254,46 252,46 252,44 250,44 250,42 248,42 248,40 246,40 246,38 244,38 244,36 242,36 242,34 240,34 240,32 238,32 238,30 236,30 236,28 234,28 234,26 232,26 232,24 230,24 230,22 228,22 228,20 226,20 226,18 224,18 224,16 222,16 222,14 220,14 220,12 218,12 218,10 216,10 216,8 214,8 214,6 212,6 212,4 210,4 210,2 208,2 208,0 206,0 204,0 204,2 202,2 202,4 200,4 200,6 198,6 198,8 196,8 196,10 194,10 194,12 192,12 192,14 190,14 190,16 188,16 188,18 186,18 186,20 184,20 184,22 182,22 182,24 180,24 180,26 178,26 178,28 176,28 176,30 174,30 174,32 172,32 172,34 170,34 170,36 168,36 168,38 166,38 166,40 164,40 164,42 162,42 162,44 160,44 160,46 158,46 158,48 156,48 156,50 154,50 154,52 152,52 152,54 150,54 150,56 148,56 148,58 146,58 146,60 148,60 150,60 152,60 154,60 156,60 158,60 160,60 162,60 164,60 166,60 168,60 170,60 172,60 174,60 176,60 178,60 180,60 182,60 184,60 186,60 188,60 190,60 192,60 194,60 196,60 198,60 200,60 202,60 204,60 206,60 208,60 210,60 212,60 214,60 216,60 218,60 220,60 222,60 224,60 226,60 228,60 230,60 232,60 234,60 236,60 238,60 240,60 242,60 244,60 246,60 248,60 250,60 252,60 254,60 256,60 258,60 260,60 262,60 264,60 266,60 266,58"/></g></svg>