<svg xmlns="http://www.w3.org/2000/svg" width="20" height="40"><polygon fill="#FEE982" points="0,2 0,8 2,8 2,10 4,10 4,12 12,12 12,10 14,10 14,8 16,8 18,8 18,10 20,10 20,2"/><polygon fill="#836B45" points="18,14 18,12 16,12 14,12 14,14 12,14 12,16 10,16 8,16 6,16 4,16 4,14 2,14 2,12 0,12 0,40 20,40 20,14"/><polygon fill="#010101" points="18,0 16,0 14,0 12,0 10,0 8,0 6,0 4,0 2,0 0,0 0,2 2,2 4,2 6,2 8,2 10,2 12,2 14,2 16,2 18,2 20,2 20,0"/><polygon fill="#E1C965" points="16,4 14,4 12,4 10,4 8,4 6,4 4,4 2,4 0,4 0,6 2,6 2,8 4,8 4,10 6,10 8,10 10,10 12,10 12,8 14,8 14,6 16,6 18,6 18,8 20,8 20,6 20,4 18,4"/><rect y="8" fill="#B09E4F" width="2" height="2"/><rect y="10" fill="#010101" width="2" height="2"/><rect y="12" fill="#695636" width="2" height="2"/><polygon fill="#695636" points="14,12 14,14 12,14 12,16 10,16 8,16 6,16 4,16 4,14 2,14 2,16 2,18 2,20 4,20 4,18 6,18 6,20 8,20 10,20 12,20 12,18 14,18 14,20 16,20 16,18 16,16 16,14 18,14 18,12 16,12"/><rect x="18" y="14" fill="#695636" width="2" height="2"/><rect y="18" fill="#A17D5A" width="2" height="2"/><rect x="4" y="18" fill="#A17D5A" width="2" height="2"/><rect x="16" y="18" fill="#A17D5A" width="2" height="2"/><rect x="18" y="20" fill="#A17D5A" width="2" height="2"/><rect x="16" y="20" fill="#695636" width="2" height="2"/><rect x="12" y="20" fill="#695636" width="2" height="2"/><polygon fill="#A17D5A" points="10,22 12,22 12,20 10,20 8,20 8,22"/><rect y="20" fill="#695636" width="2" height="2"/><polygon fill="#695636" points="10,24 12,24 12,22 10,22 8,22 6,22 6,20 4,20 4,22 4,24 6,24 6,26 8,26 8,24"/><polygon fill="#695636" points="18,24 18,26 18,28 20,28 20,26 20,24 20,22 18,22"/><rect x="2" y="24" fill="#A17D5A" width="2" height="2"/><rect y="26" fill="#A17D5A" width="2" height="2"/><rect x="2" y="26" fill="#695636" width="2" height="2"/><polygon fill="#695636" points="10,26 8,26 8,28 10,28 12,28 12,26"/><rect x="12" y="26" fill="#A17D5A" width="2" height="2"/><rect x="16" y="26" fill="#A17D5A" width="2" height="2"/><rect x="16" y="28" fill="#695636" width="2" height="2"/><rect x="14" y="28" fill="#A17D5A" width="2" height="2"/><polygon fill="#695636" points="14,28 12,28 12,30 12,32 10,32 10,34 12,34 12,36 14,36 14,34 14,32 16,32 16,30 14,30"/><rect x="6" y="28" fill="#A17D5A" width="2" height="2"/><rect y="28" fill="#695636" width="2" height="2"/><rect x="6" y="30" fill="#695636" width="2" height="2"/><rect x="18" y="32" fill="#695636" width="2" height="2"/><rect x="2" y="32" fill="#695636" width="2" height="2"/><rect x="16" y="34" fill="#695636" width="2" height="2"/><rect x="14" y="34" fill="#A17D5A" width="2" height="2"/><rect x="8" y="34" fill="#695636" width="2" height="2"/><rect x="6" y="34" fill="#A17D5A" width="2" height="2"/><rect x="4" y="34" fill="#695636" width="2" height="2"/><rect y="34" fill="#695636" width="2" height="2"/><polygon fill="#695636" points="18,38 16,38 16,36 14,36 14,38 12,38 12,36 10,36 10,38 8,38 8,36 6,36 6,38 4,38 4,36 2,36 2,38 0,38 0,40 2,40 4,40 6,40 8,40 10,40 12,40 14,40 16,40 18,40 20,40 20,38 20,36 18,36"/><rect x="16" y="36" fill="#A17D5A" width="2" height="2"/><rect x="12" y="36" fill="#A17D5A" width="2" height="2"/><rect x="8" y="36" fill="#A17D5A" width="2" height="2"/><rect x="4" y="36" fill="#A17D5A" width="2" height="2"/><rect y="36" fill="#A17D5A" width="2" height="2"/><rect x="2" y="12" fill="#010101" width="2" height="2"/><polygon fill="#010101" points="8,14 6,14 4,14 4,16 6,16 8,16 10,16 12,16 12,14 10,14"/><rect x="12" y="12" fill="#010101" width="2" height="2"/><polygon fill="#010101" points="14,10 14,12 16,12 18,12 18,10 16,10"/><rect x="18" y="12" fill="#010101" width="2" height="2"/><rect x="2" y="10" fill="#B09E4F" width="2" height="2"/><rect x="12" y="10" fill="#B09E4F" width="2" height="2"/><polygon fill="#B09E4F" points="6,14 8,14 10,14 12,14 12,12 10,12 8,12 6,12 4,12 4,14"/><polygon fill="#B09E4F" points="16,10 18,10 18,8 16,8 14,8 14,10"/><rect x="18" y="10" fill="#B09E4F" width="2" height="2"/></svg>