<svg xmlns="http://www.w3.org/2000/svg" width="200" height="140"><polygon fill="#010101" points="42,118 44,118 44,116 42,116 40,116 40,118"/><rect x="38" y="118" fill="#010101" width="2" height="2"/><rect x="40" y="120" fill="#010101" width="2" height="2"/><rect x="38" y="116" fill="#2075BC" width="2" height="2"/><polygon fill="#939598" points="34,132 34,134 36,134 36,132 36,130 34,130"/><rect x="32" y="134" fill="#939598" width="2" height="2"/><polygon fill="#010101" points="36,134 38,134 38,132 38,130 36,130 36,132"/><rect x="34" y="134" fill="#010101" width="2" height="2"/><polygon fill="#010101" points="32,138 32,140 34,140 34,138 34,136 32,136"/><polygon fill="#010101" points="34,134 34,132 34,130 32,130 32,132 30,132 28,132 26,132 26,130 24,130 22,130 20,130 20,132 20,134 22,134 24,134 26,134 28,134 30,134 30,136 32,136 32,134"/><polygon fill="#010101" points="18,124 18,122 18,120 18,118 18,116 16,116 16,118 16,120 16,122 16,124 16,126 16,128 18,128 18,126"/><polygon fill="#010101" points="34,120 34,122 34,124 34,126 34,128 34,130 36,130 36,128 36,126 36,124 36,122 36,120 36,118 34,118"/><polygon fill="#010101" points="36,108 36,110 36,112 36,114 36,116 36,118 38,118 38,116 40,116 40,114 38,114 38,112 38,110 38,108 38,106 36,106"/><polygon fill="#C7AB2E" points="26,98 26,100 28,100 30,100 30,98 28,98"/><polygon fill="#C7AB2E" points="32,102 34,102 34,100 32,100 30,100 30,102"/><polygon fill="#FFDE11" points="34,102 32,102 30,102 30,100 28,100 26,100 26,102 26,104 24,104 24,106 24,108 24,110 24,112 24,114 24,116 22,116 22,118 22,120 22,122 24,122 26,122 26,124 28,124 30,124 30,122 30,120 30,118 32,118 32,116 32,114 32,112 32,110 32,108 32,106 34,106 34,104"/><polygon fill="#010101" points="32,100 34,100 34,102 34,104 34,106 36,106 36,104 36,102 36,100 36,98 34,98 32,98 30,98 30,100"/><polygon fill="#010101" points="32,108 32,110 32,112 32,114 32,116 32,118 34,118 34,116 34,114 34,112 34,110 34,108 34,106 32,106"/><polygon fill="#010101" points="28,126 30,126 32,126 32,124 32,122 32,120 32,118 30,118 30,120 30,122 30,124 28,124 26,124 26,126"/><polygon fill="#010101" points="24,124 26,124 26,122 24,122 22,122 22,124"/><polygon fill="#010101" points="20,120 20,122 22,122 22,120 22,118 22,116 20,116 20,118"/><polygon fill="#010101" points="22,108 22,110 22,112 22,114 22,116 24,116 24,114 24,112 24,110 24,108 24,106 24,104 22,104 22,106"/><polygon fill="#010101" points="16,114 16,112 16,110 14,110 12,110 12,112 14,112 14,114 14,116 16,116"/><polygon fill="#010101" points="14,124 14,122 14,120 14,118 14,116 12,116 12,118 12,120 12,122 12,124 12,126 12,128 14,128 14,126"/><polygon fill="#939598" points="20,100 20,98 20,96 18,96 18,98 18,100 18,102 18,104 20,104 20,102"/><polygon fill="#939598" points="18,114 18,112 16,112 16,114 16,116 18,116"/><polygon fill="#939598" points="16,126 16,124 16,122 16,120 16,118 16,116 14,116 14,118 14,120 14,122 14,124 14,126 14,128 16,128"/><polygon fill="#424143" points="38,102 38,100 38,98 38,96 38,94 36,94 34,94 32,94 30,94 28,94 26,94 26,96 28,96 30,96 30,98 32,98 34,98 36,98 36,100 36,102 36,104 36,106 38,106 38,104"/><polygon fill="#424143" points="36,114 36,112 36,110 36,108 36,106 34,106 34,108 34,110 34,112 34,114 34,116 34,118 36,118 36,116"/><polygon fill="#424143" points="32,120 32,122 32,124 32,126 30,126 28,126 26,126 26,124 24,124 22,124 22,122 20,122 20,120 20,118 20,116 18,116 18,118 18,120 18,122 18,124 18,126 18,128 20,128 20,130 22,130 24,130 26,130 26,132 28,132 30,132 32,132 32,130 34,130 34,128 34,126 34,124 34,122 34,120 34,118 32,118"/><polygon fill="#424143" points="22,114 22,112 22,110 22,108 22,106 22,104 20,104 20,106 20,108 20,110 20,112 20,114 20,116 22,116"/><polygon fill="#424143" points="24,102 24,100 24,98 24,96 22,96 22,98 22,100 22,102 22,104 24,104"/><polygon fill="#939598" points="20,130 18,130 18,132 18,134 20,134 20,132"/><rect x="16" y="128" fill="#939598" width="2" height="2"/><rect x="16" y="134" fill="#939598" width="2" height="2"/><rect x="18" y="134" fill="#010101" width="2" height="2"/><polygon fill="#010101" points="16,138 16,140 18,140 18,138 18,136 16,136"/><rect x="14" y="134" fill="#010101" width="2" height="2"/><polygon fill="#010101" points="18,132 18,130 16,130 16,132 16,134 18,134"/><rect x="18" y="128" fill="#010101" width="2" height="2"/><rect x="14" y="128" fill="#010101" width="2" height="2"/><polygon fill="#010101" points="16,108 16,106 18,106 18,108 16,108 16,110 18,110 18,112 18,114 18,116 20,116 20,114 20,112 20,110 20,108 20,106 20,104 18,104 18,102 18,100 18,98 18,96 16,96 14,96 14,98 16,98 16,100 16,102 16,104 14,104 14,106 12,106 12,108 14,108"/><rect x="12" y="108" fill="#2075BC" width="2" height="2"/><rect x="14" y="108" fill="#939598" width="2" height="2"/><rect x="16" y="106" fill="#939598" width="2" height="2"/><rect x="16" y="110" fill="#6E6F72" width="2" height="2"/><rect x="10" y="110" fill="#939598" width="2" height="2"/><rect x="10" y="108" fill="#010101" width="2" height="2"/><rect x="8" y="110" fill="#010101" width="2" height="2"/><rect x="10" y="112" fill="#010101" width="2" height="2"/><rect x="8" y="114" fill="#010101" width="2" height="2"/><polygon fill="#010101" points="6,112 4,112 4,114 6,114 8,114 8,112"/><rect x="6" y="116" fill="#010101" width="2" height="2"/><rect x="8" y="112" fill="#2075BC" width="2" height="2"/><polygon fill="#010101" points="36,92 34,92 32,92 30,92 28,92 26,92 26,94 28,94 30,94 32,94 34,94 36,94 38,94 38,92"/><polygon fill="#010101" points="22,94 20,94 18,94 18,96 20,96 20,98 20,100 20,102 20,104 22,104 22,102 22,100 22,98 22,96 24,96 24,98 24,100 24,102 24,104 26,104 26,102 26,100 26,98 28,98 30,98 30,96 28,96 26,96 26,94 24,94"/><polygon fill="#010101" points="12,94 10,94 10,96 12,96 14,96 14,94"/><polygon fill="#010101" points="10,90 8,90 8,92 8,94 10,94 10,92"/><polygon fill="#010101" points="14,90 16,90 16,88 14,88 12,88 10,88 10,90 12,90"/><polygon fill="#010101" points="20,88 22,88 24,88 26,88 26,86 24,86 24,84 24,82 22,82 22,84 22,86 20,86 18,86 16,86 16,88 18,88"/><polygon fill="#C9262F" points="18,90 20,90 22,90 24,90 26,90 26,88 24,88 22,88 20,88 18,88 16,88 16,90"/><polygon fill="#C9262F" points="12,92 14,92 16,92 16,90 14,90 12,90 10,90 10,92"/><rect x="10" y="92" fill="#E1C965" width="2" height="2"/><rect x="12" y="92" fill="#A61F24" width="2" height="2"/><polygon fill="#B09E4F" points="18,96 18,94 16,94 14,94 14,96 16,96"/><polygon fill="#E1C965" points="18,90 16,90 16,92 14,92 14,94 16,94 18,94 18,92"/><rect x="18" y="90" fill="#A61F24" width="2" height="2"/><polygon fill="#E1C965" points="22,92 24,92 24,90 22,90 20,90 20,92"/><polygon fill="#B09E4F" points="24,92 22,92 20,92 18,92 18,94 20,94 22,94 24,94 26,94 26,92"/><rect x="24" y="90" fill="#A61F24" width="2" height="2"/><rect x="24" y="84" fill="#E1C965" width="2" height="2"/><polygon fill="#E1C965" points="28,80 28,82 26,82 26,84 28,84 30,84 30,82 32,82 32,80 30,80"/><polygon fill="#C2AE57" points="30,82 30,84 32,84 34,84 34,82 32,82"/><rect x="26" y="80" fill="#FEE982" width="2" height="2"/><rect x="24" y="82" fill="#FEE982" width="2" height="2"/><polygon fill="#B09E4F" points="28,92 30,92 32,92 34,92 36,92 36,90 34,90 32,90 30,90 28,90 26,90 26,92"/><polygon fill="#E1C965" points="30,90 30,88 28,88 26,88 26,90 28,90"/><rect x="30" y="88" fill="#A61F24" width="2" height="2"/><polygon fill="#E1C965" points="34,90 36,90 36,88 34,88 32,88 32,90"/><polygon fill="#C9262F" points="32,86 30,86 28,86 26,86 26,88 28,88 30,88 32,88 34,88 36,88 36,86 34,86"/><rect x="36" y="90" fill="#A61F24" width="2" height="2"/><polygon fill="#C9262F" points="38,88 36,88 36,90 38,90 40,90 42,90 42,88 40,88"/><rect x="38" y="92" fill="#B09E4F" width="2" height="2"/><polygon fill="#E1C965" points="42,90 40,90 38,90 38,92 40,92 40,94 42,94 42,92"/><polygon fill="#90833E" points="44,96 42,96 42,94 40,94 40,96 40,98 42,98 44,98 46,98 46,96"/><polygon fill="#B09E4F" points="46,94 46,92 44,92 44,94 42,94 42,96 44,96 46,96 48,96 48,94"/><rect x="46" y="92" fill="#C9262F" width="2" height="2"/><polygon fill="#C9262F" points="42,90 42,92 44,92 46,92 46,90 44,90"/><rect x="42" y="92" fill="#A61F24" width="2" height="2"/><polygon fill="#010101" points="32,84 30,84 28,84 26,84 26,86 28,86 30,86 32,86 34,86 36,86 36,84 36,82 34,82 34,84"/><polygon fill="#010101" points="38,88 40,88 42,88 42,86 40,86 38,86 36,86 36,88"/><rect x="32" y="80" fill="#010101" width="2" height="2"/><polygon fill="#010101" points="30,80 32,80 32,78 30,78 28,78 26,78 26,80 28,80"/><rect x="24" y="80" fill="#010101" width="2" height="2"/><polygon fill="#010101" points="44,90 46,90 46,88 44,88 42,88 42,90"/><rect x="46" y="90" fill="#010101" width="2" height="2"/><polygon fill="#010101" points="48,92 48,94 48,96 50,96 50,94 50,92"/><rect x="46" y="96" fill="#010101" width="2" height="2"/><polygon fill="#010101" points="42,98 40,98 40,96 40,94 38,94 38,96 38,98 38,100 38,102 38,104 38,106 40,106 40,104 40,102 40,100 42,100 44,100 46,100 46,98 44,98"/><rect x="62" y="112" width="2" height="2" fill="none"/><polygon fill="#939598" points="84,132 84,134 86,134 86,132 86,130 84,130"/><rect x="82" y="134" fill="#939598" width="2" height="2"/><polygon fill="#010101" points="86,134 88,134 88,132 88,130 86,130 86,132"/><rect x="84" y="134" fill="#010101" width="2" height="2"/><polygon fill="#010101" points="82,138 82,140 84,140 84,138 84,136 82,136"/><rect x="80" y="134" fill="#010101" width="2" height="2"/><polygon fill="#010101" points="88,120 88,122 90,122 90,120 90,118 88,118"/><rect x="90" y="116" fill="#010101" width="2" height="2"/><rect x="92" y="118" fill="#010101" width="2" height="2"/><rect x="88" y="116" fill="#2075BC" width="2" height="2"/><polygon fill="#010101" points="86,106 86,108 86,110 86,112 86,114 86,116 84,116 84,118 84,120 84,122 84,124 84,126 84,128 82,128 82,130 80,130 78,130 76,130 76,128 74,128 72,128 70,128 70,126 68,126 68,124 68,122 68,120 68,118 68,116 68,114 66,114 66,116 66,118 66,120 66,122 66,124 66,126 64,126 64,128 64,130 66,130 66,128 68,128 68,130 70,130 70,132 70,134 72,134 72,132 74,132 76,132 78,132 80,132 82,132 82,134 84,134 84,132 84,130 86,130 86,128 86,126 86,124 86,122 86,120 86,118 88,118 88,116 90,116 90,114 90,112 88,112 88,110 88,108 88,106 88,104 86,104"/><polygon fill="#C7AB2E" points="76,96 76,98 78,98 80,98 80,96 78,96"/><polygon fill="#C7AB2E" points="82,100 84,100 84,98 82,98 80,98 80,100"/><polygon fill="#FFDE11" points="74,106 74,108 74,110 74,112 74,114 72,114 72,116 72,118 72,120 74,120 76,120 76,122 78,122 80,122 80,120 80,118 80,116 82,116 82,114 82,112 82,110 82,108 82,106 82,104 84,104 84,102 84,100 82,100 80,100 80,98 78,98 76,98 76,100 76,102 74,102 74,104"/><polygon fill="#010101" points="82,98 84,98 84,100 84,102 84,104 86,104 86,102 86,100 86,98 86,96 84,96 82,96 80,96 80,98"/><polygon fill="#010101" points="84,112 84,110 84,108 84,106 84,104 82,104 82,106 82,108 82,110 82,112 82,114 82,116 84,116 84,114"/><polygon fill="#010101" points="80,118 80,120 80,122 78,122 76,122 76,124 78,124 80,124 82,124 82,122 82,120 82,118 82,116 80,116"/><polygon fill="#010101" points="74,120 72,120 72,122 74,122 76,122 76,120"/><polygon fill="#010101" points="70,118 70,120 72,120 72,118 72,116 72,114 70,114 70,116"/><polygon fill="#010101" points="72,106 72,108 72,110 72,112 72,114 74,114 74,112 74,110 74,108 74,106 74,104 74,102 72,102 72,104"/><polygon fill="#010101" points="64,122 64,120 64,118 64,116 64,114 62,114 62,112 60,112 60,114 60,116 62,116 62,118 62,120 62,122 62,124 62,126 64,126 64,124"/><polygon fill="#939598" points="70,98 70,96 70,94 68,94 68,96 68,98 68,100 68,102 70,102 70,100"/><polygon fill="#939598" points="68,110 66,110 66,112 66,114 68,114 68,112"/><polygon fill="#939598" points="66,124 66,122 66,120 66,118 66,116 66,114 64,114 64,116 64,118 64,120 64,122 64,124 64,126 66,126"/><polygon fill="#424143" points="88,100 88,98 88,96 88,94 88,92 86,92 84,92 82,92 80,92 78,92 76,92 76,94 78,94 80,94 80,96 82,96 84,96 86,96 86,98 86,100 86,102 86,104 88,104 88,102"/><polygon fill="#424143" points="84,106 84,108 84,110 84,112 84,114 84,116 86,116 86,114 86,112 86,110 86,108 86,106 86,104 84,104"/><polygon fill="#424143" points="82,118 82,120 82,122 82,124 80,124 78,124 76,124 76,122 74,122 72,122 72,120 70,120 70,118 70,116 70,114 68,114 68,116 68,118 68,120 68,122 68,124 68,126 70,126 70,128 72,128 74,128 76,128 76,130 78,130 80,130 82,130 82,128 84,128 84,126 84,124 84,122 84,120 84,118 84,116 82,116"/><polygon fill="#424143" points="72,112 72,110 72,108 72,106 72,104 72,102 70,102 70,104 70,106 70,108 70,110 70,112 70,114 72,114"/><polygon fill="#424143" points="74,100 74,98 74,96 74,94 72,94 72,96 72,98 72,100 72,102 74,102"/><polygon fill="#939598" points="70,130 68,130 68,132 68,134 70,134 70,132"/><rect x="66" y="128" fill="#939598" width="2" height="2"/><rect x="66" y="134" fill="#939598" width="2" height="2"/><rect x="68" y="134" fill="#010101" width="2" height="2"/><polygon fill="#010101" points="66,138 66,140 68,140 68,138 68,136 66,136"/><rect x="64" y="134" fill="#010101" width="2" height="2"/><polygon fill="#010101" points="68,132 68,130 66,130 66,132 66,134 68,134"/><polygon fill="#010101" points="66,106 66,104 68,104 68,106 66,106 66,108 68,108 68,110 68,112 68,114 70,114 70,112 70,110 70,108 70,106 70,104 70,102 68,102 68,100 68,98 68,96 68,94 66,94 64,94 64,96 66,96 66,98 66,100 66,102 64,102 64,104 62,104 62,106 64,106"/><rect x="62" y="106" fill="#2075BC" width="2" height="2"/><rect x="64" y="106" fill="#939598" width="2" height="2"/><rect x="66" y="104" fill="#939598" width="2" height="2"/><rect x="66" y="108" fill="#6E6F72" width="2" height="2"/><polygon fill="#010101" points="62,110 62,112 64,112 64,114 66,114 66,112 66,110 66,108 64,108 62,108 62,106 60,106 60,108 58,108 58,110 58,112 60,112 60,110"/><rect x="60" y="110" fill="#2075BC" width="2" height="2"/><polygon fill="#010101" points="86,90 84,90 82,90 80,90 78,90 76,90 76,92 78,92 80,92 82,92 84,92 86,92 88,92 88,90"/><polygon fill="#010101" points="72,92 70,92 68,92 68,94 70,94 70,96 70,98 70,100 70,102 72,102 72,100 72,98 72,96 72,94 74,94 74,96 74,98 74,100 74,102 76,102 76,100 76,98 76,96 78,96 80,96 80,94 78,94 76,94 76,92 74,92"/><polygon fill="#010101" points="62,92 60,92 60,94 62,94 64,94 64,92"/><polygon fill="#010101" points="60,88 58,88 58,90 58,92 60,92 60,90"/><polygon fill="#010101" points="64,88 66,88 66,86 64,86 62,86 60,86 60,88 62,88"/><polygon fill="#010101" points="70,86 72,86 74,86 76,86 76,84 74,84 74,82 74,80 72,80 72,82 72,84 70,84 68,84 66,84 66,86 68,86"/><polygon fill="#C9262F" points="68,88 70,88 72,88 74,88 76,88 76,86 74,86 72,86 70,86 68,86 66,86 66,88"/><polygon fill="#C9262F" points="62,90 64,90 66,90 66,88 64,88 62,88 60,88 60,90"/><rect x="60" y="90" fill="#E1C965" width="2" height="2"/><rect x="62" y="90" fill="#A61F24" width="2" height="2"/><polygon fill="#B09E4F" points="68,94 68,92 66,92 64,92 64,94 66,94"/><polygon fill="#E1C965" points="68,88 66,88 66,90 64,90 64,92 66,92 68,92 68,90"/><rect x="68" y="88" fill="#A61F24" width="2" height="2"/><polygon fill="#E1C965" points="72,90 74,90 74,88 72,88 70,88 70,90"/><polygon fill="#B09E4F" points="74,90 72,90 70,90 68,90 68,92 70,92 72,92 74,92 76,92 76,90"/><rect x="74" y="88" fill="#A61F24" width="2" height="2"/><rect x="74" y="82" fill="#E1C965" width="2" height="2"/><polygon fill="#E1C965" points="78,78 78,80 76,80 76,82 78,82 80,82 80,80 82,80 82,78 80,78"/><polygon fill="#C2AE57" points="80,80 80,82 82,82 84,82 84,80 82,80"/><rect x="76" y="78" fill="#FEE982" width="2" height="2"/><rect x="74" y="80" fill="#FEE982" width="2" height="2"/><polygon fill="#B09E4F" points="78,90 80,90 82,90 84,90 86,90 86,88 84,88 82,88 80,88 78,88 76,88 76,90"/><polygon fill="#E1C965" points="80,88 80,86 78,86 76,86 76,88 78,88"/><rect x="80" y="86" fill="#A61F24" width="2" height="2"/><polygon fill="#E1C965" points="84,88 86,88 86,86 84,86 82,86 82,88"/><polygon fill="#C9262F" points="82,84 80,84 78,84 76,84 76,86 78,86 80,86 82,86 84,86 86,86 86,84 84,84"/><rect x="86" y="88" fill="#A61F24" width="2" height="2"/><polygon fill="#C9262F" points="88,86 86,86 86,88 88,88 90,88 92,88 92,86 90,86"/><rect x="88" y="90" fill="#B09E4F" width="2" height="2"/><polygon fill="#E1C965" points="92,88 90,88 88,88 88,90 90,90 90,92 92,92 92,90"/><polygon fill="#90833E" points="94,94 92,94 92,92 90,92 90,94 90,96 92,96 94,96 96,96 96,94"/><polygon fill="#B09E4F" points="96,92 96,90 94,90 94,92 92,92 92,94 94,94 96,94 98,94 98,92"/><rect x="96" y="90" fill="#C9262F" width="2" height="2"/><polygon fill="#C9262F" points="92,88 92,90 94,90 96,90 96,88 94,88"/><rect x="92" y="90" fill="#A61F24" width="2" height="2"/><polygon fill="#010101" points="82,82 80,82 78,82 76,82 76,84 78,84 80,84 82,84 84,84 86,84 86,82 86,80 84,80 84,82"/><polygon fill="#010101" points="88,86 90,86 92,86 92,84 90,84 88,84 86,84 86,86"/><rect x="82" y="78" fill="#010101" width="2" height="2"/><polygon fill="#010101" points="80,78 82,78 82,76 80,76 78,76 76,76 76,78 78,78"/><rect x="74" y="78" fill="#010101" width="2" height="2"/><polygon fill="#010101" points="94,88 96,88 96,86 94,86 92,86 92,88"/><rect x="96" y="88" fill="#010101" width="2" height="2"/><polygon fill="#010101" points="98,90 98,92 98,94 100,94 100,92 100,90"/><rect x="96" y="94" fill="#010101" width="2" height="2"/><polygon fill="#010101" points="92,96 90,96 90,94 90,92 88,92 88,94 88,96 88,98 88,100 88,102 88,104 90,104 90,102 90,100 90,98 92,98 94,98 96,98 96,96 94,96"/><polygon fill="#010101" points="16,36 16,38 18,38 18,36 18,34 18,32 16,32 16,34"/><polygon fill="#010101" points="18,28 18,30 18,32 20,32 20,30 20,28 20,26 18,26"/><polygon fill="#010101" points="18,24 18,22 16,22 14,22 14,24 16,24 16,26 18,26"/><polygon fill="#010101" points="14,36 14,34 14,32 12,32 10,32 10,34 12,34 12,36 12,38 14,38"/><polygon fill="#010101" points="22,30 22,32 24,32 24,30 24,28 24,26 22,26 22,28"/><polygon fill="#010101" points="20,36 20,38 22,38 22,36 22,34 22,32 20,32 20,34"/><polygon fill="#010101" points="18,40 18,42 18,44 20,44 20,42 20,40 20,38 18,38"/><rect x="16" y="44" fill="#010101" width="2" height="2"/><polygon fill="#010101" points="20,48 22,48 22,46 20,46 18,46 18,48"/><polygon fill="#010101" points="24,50 26,50 26,52 28,52 28,50 28,48 26,48 24,48 22,48 22,50"/><polygon fill="#010101" points="30,38 30,40 30,42 32,42 32,40 32,38 32,36 30,36"/><polygon fill="#010101" points="34,32 34,30 32,30 32,32 32,34 32,36 34,36 34,34"/><polygon fill="#010101" points="34,28 34,30 36,30 36,28 36,26 34,26 32,26 32,28"/><polygon fill="#010101" points="30,26 32,26 32,24 30,24 28,24 28,26"/><polygon fill="#010101" points="36,32 36,34 36,36 34,36 34,38 34,40 34,42 36,42 38,42 38,40 36,40 36,38 38,38 38,36 38,34 38,32 38,30 36,30"/><polygon fill="#010101" points="28,44 28,46 28,48 30,48 30,46 30,44 30,42 28,42"/><polygon fill="#010101" points="32,44 32,46 32,48 34,48 34,46 34,44 34,42 32,42"/><polygon fill="#010101" points="12,42 12,40 12,38 10,38 10,40 10,42 10,44 12,44"/><polygon fill="#010101" points="16,42 16,40 16,38 14,38 14,40 14,42 14,44 16,44"/><polygon fill="#010101" points="30,50 30,52 30,54 32,54 32,52 32,50 32,48 30,48"/><polygon fill="#424143" points="24,24 24,22 22,22 22,24 22,26 24,26"/><polygon fill="#424143" points="20,30 20,32 22,32 22,30 22,28 22,26 20,26 20,28"/><polygon fill="#424143" points="18,36 18,38 20,38 20,36 20,34 20,32 18,32 18,34"/><polygon fill="#424143" points="18,40 18,38 16,38 16,40 16,42 16,44 18,44 18,42"/><polygon fill="#424143" points="28,50 28,52 26,52 26,50 24,50 22,50 22,48 20,48 18,48 18,46 16,46 16,44 14,44 14,46 14,48 14,50 16,50 16,52 18,52 20,52 20,54 22,54 24,54 24,56 26,56 28,56 28,54 30,54 30,52 30,50 30,48 28,48"/><polygon fill="#424143" points="32,44 32,42 30,42 30,44 30,46 30,48 32,48 32,46"/><polygon fill="#424143" points="34,38 34,36 32,36 32,38 32,40 32,42 34,42 34,40"/><polygon fill="#424143" points="34,32 34,34 34,36 36,36 36,34 36,32 36,30 34,30"/><polygon fill="#424143" points="38,26 38,24 36,24 36,22 34,22 32,22 30,22 28,22 28,24 30,24 32,24 32,26 34,26 36,26 36,28 36,30 38,30 38,28"/><polygon fill="#939598" points="18,26 20,26 20,24 20,22 18,22 18,24"/><polygon fill="#939598" points="16,30 16,32 18,32 18,30 18,28 18,26 16,26 16,28"/><polygon fill="#939598" points="16,36 16,34 16,32 14,32 14,34 14,36 14,38 16,38"/><polygon fill="#939598" points="12,42 12,44 14,44 14,42 14,40 14,38 12,38 12,40"/><polygon fill="#939598" points="10,48 10,50 12,50 12,48 12,46 12,44 10,44 10,46"/><rect x="32" y="28" fill="#C7AB2E" width="2" height="2"/><polygon fill="#C7AB2E" points="28,26 28,28 30,28 32,28 32,26 30,26"/><rect x="26" y="24" fill="#C7AB2E" width="2" height="2"/><polygon fill="#FFDE11" points="24,30 24,32 22,32 22,34 22,36 22,38 20,38 20,40 20,42 20,44 18,44 18,46 20,46 22,46 22,48 24,48 26,48 28,48 28,46 28,44 28,42 30,42 30,40 30,38 30,36 32,36 32,34 32,32 32,30 32,28 30,28 28,28 28,26 26,26 24,26 24,28"/><polygon fill="#010101" points="40,40 42,40 42,38 40,38 38,38 38,40"/><rect x="42" y="36" fill="#010101" width="2" height="2"/><polygon fill="#010101" points="46,34 46,32 44,32 44,34 44,36 46,36"/><rect x="46" y="36" fill="#010101" width="2" height="2"/><rect x="48" y="34" fill="#010101" width="2" height="2"/><polygon fill="#010101" points="44,40 42,40 42,42 44,42 46,42 46,40 46,38 44,38"/><polygon fill="#010101" points="38,42 38,44 40,44 42,44 42,42 40,42"/><rect x="36" y="38" fill="#939598" width="2" height="2"/><rect x="38" y="40" fill="#2075BC" width="2" height="2"/><rect x="40" y="40" fill="#939598" width="2" height="2"/><rect x="42" y="38" fill="#939598" width="2" height="2"/><rect x="44" y="36" fill="#2075BC" width="2" height="2"/><polygon fill="#010101" points="14,30 14,32 16,32 16,30 16,28 16,26 14,26 14,28 12,28 10,28 10,30 12,30"/><rect x="10" y="30" fill="#2075BC" width="2" height="2"/><rect x="12" y="30" fill="#939598" width="2" height="2"/><rect x="8" y="32" fill="#939598" width="2" height="2"/><rect x="8" y="30" fill="#010101" width="2" height="2"/><rect x="6" y="32" fill="#010101" width="2" height="2"/><rect x="8" y="34" fill="#010101" width="2" height="2"/><rect x="6" y="36" fill="#010101" width="2" height="2"/><polygon fill="#010101" points="4,34 2,34 2,36 4,36 6,36 6,34"/><rect x="4" y="38" fill="#010101" width="2" height="2"/><rect x="6" y="34" fill="#2075BC" width="2" height="2"/><polygon fill="#939598" points="30,56 30,58 32,58 32,56 32,54 30,54"/><rect x="28" y="58" fill="#939598" width="2" height="2"/><polygon fill="#010101" points="32,58 34,58 34,56 34,54 32,54 32,56"/><rect x="30" y="58" fill="#010101" width="2" height="2"/><polygon fill="#010101" points="28,62 28,64 30,64 30,62 30,60 28,60"/><polygon fill="#010101" points="30,58 30,56 30,54 28,54 28,56 26,56 24,56 24,54 22,54 20,54 20,52 18,52 16,52 16,50 14,50 14,48 14,46 14,44 12,44 12,46 12,48 12,50 10,50 10,52 12,52 14,52 14,54 16,54 18,54 18,56 20,56 22,56 22,58 24,58 26,58 26,60 28,60 28,58"/><polygon fill="#939598" points="8,50 6,50 6,52 8,52 10,52 10,50"/><rect x="4" y="48" fill="#939598" width="2" height="2"/><polygon fill="#010101" points="6,52 6,54 8,54 10,54 10,52 8,52"/><rect x="4" y="50" fill="#010101" width="2" height="2"/><polygon fill="#010101" points="2,48 0,48 0,50 2,50 4,50 4,48"/><rect x="4" y="46" fill="#010101" width="2" height="2"/><polygon fill="#010101" points="8,50 10,50 10,48 10,46 10,44 8,44 8,46 8,48 6,48 6,50"/><rect x="12" y="20" fill="#010101" width="2" height="2"/><polygon fill="#010101" points="12,16 10,16 10,18 10,20 12,20 12,18"/><polygon fill="#010101" points="16,16 18,16 18,14 16,14 14,14 12,14 12,16 14,16"/><polygon fill="#010101" points="22,14 24,14 26,14 28,14 30,14 32,14 34,14 36,14 38,14 40,14 42,14 42,12 40,12 38,12 36,12 36,10 34,10 34,12 32,12 30,12 28,12 26,12 24,12 24,10 22,10 22,12 20,12 18,12 18,14 20,14"/><polygon fill="#C9262F" points="20,16 22,16 24,16 26,16 28,16 30,16 32,16 34,16 36,16 38,16 40,16 42,16 42,14 40,14 38,14 36,14 34,14 32,14 30,14 28,14 26,14 24,14 22,14 20,14 18,14 18,16"/><polygon fill="#C9262F" points="14,18 16,18 18,18 18,16 16,16 14,16 12,16 12,18"/><rect x="12" y="18" fill="#A61F24" width="2" height="2"/><polygon fill="#E1C965" points="16,18 14,18 14,20 16,20 18,20 18,18"/><polygon fill="#B09E4F" points="18,22 18,20 16,20 14,20 14,22 16,22"/><rect x="18" y="16" fill="#A61F24" width="2" height="2"/><polygon fill="#E1C965" points="22,18 24,18 24,16 22,16 20,16 20,18"/><rect x="24" y="16" fill="#A61F24" width="2" height="2"/><polygon fill="#E1C965" points="28,18 30,18 30,16 28,16 26,16 26,18"/><polygon fill="#E1C965" points="28,8 28,10 26,10 26,12 28,12 30,12 30,10 32,10 32,8 30,8"/><polygon fill="#C2AE57" points="30,10 30,12 32,12 34,12 34,10 32,10"/><rect x="26" y="8" fill="#FEE982" width="2" height="2"/><rect x="24" y="10" fill="#FEE982" width="2" height="2"/><rect x="30" y="16" fill="#A61F24" width="2" height="2"/><polygon fill="#E1C965" points="34,18 36,18 36,16 34,16 32,16 32,18"/><rect x="36" y="16" fill="#A61F24" width="2" height="2"/><polygon fill="#B09E4F" points="40,18 38,18 36,18 34,18 32,18 30,18 28,18 26,18 24,18 22,18 20,18 18,18 18,20 20,20 22,20 24,20 26,20 28,20 30,20 32,20 34,20 36,20 38,20 38,22 40,22 40,20"/><polygon fill="#E1C965" points="42,16 40,16 38,16 38,18 40,18 40,20 42,20 42,18"/><rect x="40" y="20" fill="#90833E" width="2" height="2"/><polygon fill="#010101" points="44,22 42,22 40,22 38,22 38,20 36,20 34,20 32,20 30,20 28,20 26,20 24,20 22,20 20,20 18,20 18,22 20,22 20,24 20,26 22,26 22,24 22,22 24,22 24,24 24,26 26,26 26,24 28,24 28,22 30,22 32,22 34,22 36,22 36,24 38,24 38,26 38,28 38,30 40,30 40,28 40,26 40,24 42,24 44,24 46,24 48,24 48,22 46,22"/><polygon fill="#B09E4F" points="48,18 46,18 44,18 44,20 42,20 42,22 44,22 46,22 48,22 48,20"/><polygon fill="#C9262F" points="42,16 42,18 44,18 46,18 46,16 44,16"/><rect x="42" y="18" fill="#A61F24" width="2" height="2"/><rect x="32" y="8" fill="#010101" width="2" height="2"/><polygon fill="#010101" points="30,8 32,8 32,6 30,6 28,6 26,6 26,8 28,8"/><rect x="24" y="8" fill="#010101" width="2" height="2"/><polygon fill="#010101" points="44,16 46,16 46,14 44,14 42,14 42,16"/><rect x="46" y="16" fill="#010101" width="2" height="2"/><polygon fill="#010101" points="48,18 48,20 48,22 50,22 50,20 50,18"/><polygon fill="#939598" points="78,56 78,58 80,58 82,58 82,56 80,56"/><rect x="82" y="58" fill="#939598" width="2" height="2"/><rect x="82" y="56" fill="#010101" width="2" height="2"/><polygon fill="#010101" points="86,60 88,60 88,58 86,58 84,58 84,60"/><rect x="82" y="60" fill="#010101" width="2" height="2"/><polygon fill="#010101" points="80,58 78,58 78,60 80,60 82,60 82,58"/><rect x="68" y="32" fill="#939598" width="2" height="2"/><rect x="66" y="32" fill="#010101" width="2" height="2"/><polygon fill="#010101" points="64,34 62,34 62,36 64,36 66,36 66,34"/><rect x="64" y="38" fill="#010101" width="2" height="2"/><rect x="66" y="34" fill="#2075BC" width="2" height="2"/><polygon fill="#424143" points="82,26 82,24 84,24 86,24 86,22 84,22 82,22 80,22 80,24 80,26 80,28 82,28"/><polygon fill="#424143" points="78,32 78,34 80,34 80,32 80,30 80,28 78,28 78,30"/><rect x="76" y="40" fill="#424143" width="2" height="2"/><polygon fill="#424143" points="76,44 76,42 74,42 74,44 74,46 74,48 76,48 76,46"/><polygon fill="#424143" points="74,48 72,48 72,50 72,52 72,54 74,54 74,56 76,56 78,56 78,54 78,52 76,52 76,50 74,50"/><polygon fill="#BDBEC0" points="78,24 78,22 76,22 74,22 74,24 76,24"/><polygon fill="#939598" points="72,32 72,34 74,34 74,32 76,32 76,30 76,28 78,28 78,26 78,24 76,24 74,24 74,26 74,28 72,28 72,30"/><polygon fill="#939598" points="70,52 70,50 70,48 72,48 72,46 72,44 72,42 74,42 74,40 74,38 72,38 72,36 72,34 70,34 70,36 70,38 70,40 70,42 68,42 68,44 68,46 68,48 66,48 66,50 66,52 68,52"/><polygon fill="#010101" points="70,34 72,34 72,32 72,30 72,28 70,28 70,30 68,30 68,32 70,32"/><polygon fill="#010101" points="70,40 70,38 70,36 70,34 68,34 68,36 66,36 66,38 68,38 68,40 68,42 70,42"/><polygon fill="#010101" points="68,46 68,44 68,42 66,42 66,44 66,46 66,48 68,48"/><polygon fill="#010101" points="66,48 64,48 64,50 64,52 66,52 66,50"/><polygon fill="#C7AB2E" points="86,26 84,26 84,28 82,28 82,30 84,30 86,30 86,28"/><polygon fill="#FFDE11" points="82,34 80,34 80,36 82,36 84,36 84,34 84,32 84,30 82,30 82,32"/><polygon fill="#FFDE11" points="80,42 78,42 78,44 78,46 78,48 76,48 76,50 78,50 80,50 80,48 80,46 80,44 82,44 82,42"/><polygon fill="#010101" points="80,32 80,34 82,34 82,32 82,30 82,28 80,28 80,30"/><polygon fill="#010101" points="76,44 76,46 76,48 78,48 78,46 78,44 78,42 76,42"/><rect x="74" y="48" fill="#010101" width="2" height="2"/><polygon fill="#010101" points="76,50 76,52 78,52 78,54 78,56 80,56 82,56 82,54 80,54 80,52 80,50 78,50"/><polygon fill="#010101" points="84,32 84,34 84,36 82,36 80,36 80,34 78,34 78,32 78,30 78,28 76,28 76,30 76,32 74,32 74,34 76,34 76,36 78,36 78,38 80,38 82,38 82,40 84,40 84,38 86,38 86,36 86,34 86,32 86,30 84,30"/><polygon fill="#010101" points="80,46 80,48 80,50 82,50 82,48 82,46 82,44 80,44"/><rect x="74" y="40" fill="#010101" width="2" height="2"/><polygon fill="#010101" points="74,46 74,44 74,42 72,42 72,44 72,46 72,48 74,48"/><polygon fill="#010101" points="76,56 74,56 74,54 72,54 72,52 72,50 72,48 70,48 70,50 70,52 68,52 66,52 66,54 66,56 66,58 68,58 68,56 68,54 70,54 70,56 70,58 72,58 74,58 76,58 78,58 78,56"/><rect x="74" y="34" fill="#939598" width="2" height="2"/><rect x="72" y="34" fill="#010101" width="2" height="2"/><rect x="74" y="36" fill="#010101" width="2" height="2"/><rect x="86" y="38" fill="#010101" width="2" height="2"/><rect x="88" y="36" fill="#010101" width="2" height="2"/><polygon fill="#010101" points="84,42 82,42 82,44 84,44 86,44 86,42 86,40 84,40"/><polygon fill="#010101" points="78,40 78,42 80,42 82,42 82,40 80,40"/><rect x="76" y="38" fill="#010101" width="2" height="2"/><rect x="72" y="36" fill="#6E6F72" width="2" height="2"/><rect x="74" y="38" fill="#6E6F72" width="2" height="2"/><rect x="76" y="36" fill="#939598" width="2" height="2"/><rect x="78" y="38" fill="#2075BC" width="2" height="2"/><rect x="80" y="38" fill="#939598" width="2" height="2"/><rect x="82" y="40" fill="#939598" width="2" height="2"/><rect x="84" y="38" fill="#2075BC" width="2" height="2"/><polygon fill="#939598" points="70,54 68,54 68,56 68,58 70,58 70,56"/><rect x="66" y="58" fill="#939598" width="2" height="2"/><rect x="68" y="58" fill="#010101" width="2" height="2"/><polygon fill="#010101" points="66,62 66,64 68,64 68,62 68,60 66,60"/><rect x="64" y="58" fill="#010101" width="2" height="2"/><rect x="64" y="20" fill="#010101" width="2" height="2"/><polygon fill="#010101" points="64,16 62,16 62,18 62,20 64,20 64,18"/><polygon fill="#010101" points="68,16 70,16 72,16 72,14 70,14 68,14 66,14 64,14 64,16 66,16"/><polygon fill="#010101" points="76,14 78,14 80,14 82,14 84,14 86,14 88,14 90,14 90,12 88,12 88,10 86,10 86,12 84,12 82,12 80,12 78,12 76,12 76,10 74,10 74,12 72,12 72,14 74,14"/><polygon fill="#C9262F" points="74,16 76,16 78,16 80,16 82,16 84,16 86,16 88,16 90,16 90,14 88,14 86,14 84,14 82,14 80,14 78,14 76,14 74,14 72,14 72,16"/><polygon fill="#C9262F" points="66,18 68,18 70,18 72,18 72,16 70,16 68,16 66,16 64,16 64,18"/><polygon fill="#E1C965" points="68,20 68,18 66,18 64,18 64,20 66,20"/><rect x="68" y="18" fill="#A61F24" width="2" height="2"/><polygon fill="#B09E4F" points="70,22 72,22 72,20 70,20 68,20 66,20 66,22 68,22"/><rect x="70" y="18" fill="#E1C965" width="2" height="2"/><rect x="72" y="16" fill="#E1C965" width="2" height="2"/><rect x="74" y="16" fill="#A61F24" width="2" height="2"/><polygon fill="#E1C965" points="78,18 80,18 80,16 78,16 76,16 76,18"/><polygon fill="#E1C965" points="80,8 80,10 78,10 78,12 80,12 82,12 82,10 84,10 84,8 82,8"/><polygon fill="#C2AE57" points="82,10 82,12 84,12 86,12 86,10 84,10"/><rect x="78" y="8" fill="#FEE982" width="2" height="2"/><rect x="76" y="10" fill="#FEE982" width="2" height="2"/><rect x="80" y="16" fill="#A61F24" width="2" height="2"/><polygon fill="#E1C965" points="84,18 86,18 86,16 84,16 82,16 82,18"/><polygon fill="#A61F24" points="88,18 90,18 90,16 88,16 86,16 86,18"/><polygon fill="#B09E4F" points="86,18 84,18 82,18 80,18 78,18 76,18 74,18 72,18 72,20 74,20 76,20 78,20 80,20 82,20 84,20 86,20 88,20 88,18"/><rect x="88" y="20" fill="#90833E" width="2" height="2"/><polygon fill="#010101" points="92,22 90,22 88,22 88,20 86,20 84,20 82,20 80,20 78,20 76,20 74,20 72,20 72,22 70,22 68,22 66,22 66,24 68,24 70,24 72,24 72,26 72,28 74,28 74,26 74,24 74,22 76,22 78,22 78,24 78,26 78,28 80,28 80,26 80,24 80,22 82,22 84,22 86,22 86,24 84,24 82,24 82,26 82,28 84,28 84,26 86,26 86,28 86,30 88,30 88,28 88,26 88,24 90,24 92,24 94,24 96,24 96,22 94,22"/><polygon fill="#B09E4F" points="96,18 94,18 94,20 92,20 90,20 90,22 92,22 94,22 96,22 96,20"/><rect x="92" y="18" fill="#A61F24" width="2" height="2"/><polygon fill="#C9262F" points="90,16 90,18 92,18 94,18 94,16 92,16"/><polygon fill="#E1C965" points="90,18 88,18 88,20 90,20 92,20 92,18"/><rect x="84" y="8" fill="#010101" width="2" height="2"/><polygon fill="#010101" points="82,8 84,8 84,6 82,6 80,6 78,6 78,8 80,8"/><rect x="76" y="8" fill="#010101" width="2" height="2"/><polygon fill="#010101" points="92,16 94,16 94,14 92,14 90,14 90,16"/><rect x="94" y="16" fill="#010101" width="2" height="2"/><polygon fill="#010101" points="96,18 96,20 96,22 98,22 98,20 98,18"/><rect x="132" y="44" fill="#010101" width="2" height="2"/><rect x="134" y="46" fill="#010101" width="2" height="2"/><rect x="130" y="44" fill="#2075BC" width="2" height="2"/><polygon fill="#939598" points="128,48 128,46 126,46 124,46 124,48 126,48 126,50 124,50 124,52 124,54 122,54 122,56 124,56 126,56 126,54 126,52 128,52 128,50"/><rect x="122" y="48" fill="#939598" width="2" height="2"/><polygon fill="#939598" points="128,40 128,42 126,42 126,44 128,44 130,44 130,42 130,40 130,38 128,38"/><polygon fill="#939598" points="132.09,26 132,26 130.09,26 130,26 128.09,26 128,26 128,28 126.09,28 126,28 126,30 126,32 128,32 128,34 130,34 130,36 132,36 132,34 132,32 132,30 132,28 134,28 134,26"/><polygon fill="#010101" points="122,56 122,54 120,54 120,56 120,58 122,58 122,60 124,60 124,58 126,58 126,56 124,56"/><polygon fill="#010101" points="126,54 126,56 128,56 128,54 128,52 126,52"/><polygon fill="#010101" points="130,44 128,44 126,44 124,44 124,46 126,46 128,46 128,48 128,50 128,52 130,52 130,50 132,50 132,48 132,46 130,46"/><polygon fill="#010101" points="130,38 130,40 130,42 130,44 132,44 132,42 132,40 132,38 132,36 130,36"/><polygon fill="#010101" points="132,30 132,32 132,34 132,36 134,36 134,34 134,32 134,30 134,28 132,28"/><polygon fill="#010101" points="120,52 120,50 118,50 118,52 118,54 120,54"/><polygon fill="#010101" points="118,56 118,54 116,54 116,56 116,58 118,58"/><rect x="116" y="58" fill="#939598" width="2" height="2"/><polygon fill="#939598" points="120,54 118,54 118,56 118,58 120,58 120,56"/><polygon fill="#939598" points="120,54 122,54 122,52 122,50 120,50 120,52"/><polygon fill="#010101" points="114,58 112,58 112,60 114,60 116,60 116,58"/><rect x="116" y="60" fill="#010101" width="2" height="2"/><rect x="118" y="58" fill="#010101" width="2" height="2"/><polygon fill="#010101" points="122,52 122,54 124,54 124,52 124,50 122,50"/><polygon fill="#010101" points="122,48 124,48 124,46 122,46 122,44 120,44 120,42 118,42 118,44 118,46 120,46 120,48 120,50 122,50"/><rect x="126" y="58" fill="#010101" width="2" height="2"/><polygon fill="#010101" points="124,62 124,64 126,64 126,62 126,60 124,60"/><rect x="124" y="58" fill="#939598" width="2" height="2"/><rect x="126" y="36" fill="#010101" width="2" height="2"/><rect x="126" y="34" fill="#939598" width="2" height="2"/><rect x="128" y="34" fill="#010101" width="2" height="2"/><polygon fill="#010101" points="126,42 126,40 126,38 124,38 124,40 124,42"/><rect x="122" y="42" fill="#010101" width="2" height="2"/><rect x="124" y="48" fill="#010101" width="2" height="2"/><polygon fill="#010101" points="122,40 122,38 120,38 120,40 120,42 122,42"/><rect x="122" y="36" fill="#010101" width="2" height="2"/><rect x="128" y="36" fill="#6E6F72" width="2" height="2"/><polygon fill="#6E6F72" points="126,42 128,42 128,40 128,38 126,38 126,40"/><rect x="124" y="42" fill="#6E6F72" width="2" height="2"/><rect x="124" y="36" fill="#939598" width="2" height="2"/><rect x="122" y="38" fill="#2075BC" width="2" height="2"/><rect x="122" y="40" fill="#939598" width="2" height="2"/><rect x="120" y="42" fill="#939598" width="2" height="2"/><rect x="122" y="44" fill="#2075BC" width="2" height="2"/><polygon fill="#010101" points="136.09,24 136,24 134.09,24 134,24 132.09,24 132,24 130.09,24 130,24 128.09,24 128,24 126.09,24 126.09,26 126,26 124.09,26 122.09,26 120.09,26 118.09,26 118.09,28 120.09,28 122.09,28 124,28 124,30 124,32 124,34 124,36 126,36 126,34 128,34 128,32 126,32 126,30 126,28 126.09,28 128,28 128,26 128.09,26 130,26 130.09,26 132,26 132.09,26 134,26 134,28 136,28 136,26 136.09,26 138.09,26 140.09,26 140.09,24 138.09,24"/><polygon fill="#010101" points="140.09,22 140.09,24 142.09,24 144.09,24 144.09,22 142.09,22"/><polygon fill="#010101" points="144.09,20 144.09,22 146.09,22 146.09,20 146,20"/><polygon fill="#010101" points="146.09,16 146,16 144.09,16 142.09,16 140.09,16 138.09,16 136.09,16 136.09,18 134.09,18 134,18 132.09,18 132,18 130.09,18 130,18 128.09,18 128,18 126.09,18 126.09,16 126.09,14 126.09,12 124.09,12 124.09,14 124.09,16 124.09,18 124.09,20 126,20 126.09,20 128,20 128.09,20 130,20 130.09,20 132,20 132.09,20 134,20 134.09,20 136,20 136.09,20 138.09,20 138.09,18 140.09,18 142.09,18 144.09,18 146,18 146.09,18 146.09,20 148,20 148,18 148,16"/><polygon fill="#010101" points="134.09,16 136.09,16 136.09,14 136.09,12 134.09,12 134.09,14"/><rect x="132.09" y="10" fill="#010101" width="2" height="2"/><polygon fill="#010101" points="132.09,10 132.09,8 130.09,8 128.09,8 128.09,10 130.09,10"/><rect x="126.09" y="10" fill="#010101" width="2" height="2"/><polygon fill="#FEE982" points="126.09,16 126.09,18 128,18 128.09,18 128.09,16 128.09,14 128.09,12 126.09,12 126.09,14"/><polygon fill="#E1C965" points="130.09,14 132.09,14 132.09,12 130.09,12 128.09,12 128.09,14 128.09,16 130.09,16"/><polygon fill="#FEE982" points="130.09,12 132.09,12 132.09,10 130.09,10 128.09,10 128.09,12"/><polygon fill="#C2AE57" points="132.09,14 130.09,14 130.09,16 128.09,16 128.09,18 130,18 130.09,18 132,18 132.09,18 134,18 134.09,18 136.09,18 136.09,16 134.09,16 134.09,14 134.09,12 132.09,12"/><polygon fill="#C9262F" points="142.09,20 142.09,18 140.09,18 138.09,18 138.09,20 140.09,20"/><rect x="142.09" y="18" fill="#A61F24" width="2" height="2"/><polygon fill="#B09E4F" points="146,18 144.09,18 144.09,20 146,20 146.09,20 146.09,18"/><rect x="142.09" y="20" fill="#B09E4F" width="2" height="2"/><rect x="140.09" y="20" fill="#A61F24" width="2" height="2"/><rect x="138.09" y="20" fill="#C2AE57" width="2" height="2"/><rect x="136.09" y="20" fill="#A61F24" width="2" height="2"/><polygon fill="#C9262F" points="126,22 126.09,22 128,22 128.09,22 130,22 130.09,22 132,22 132.09,22 134,22 134.09,22 136,22 136.09,22 136.09,20 136,20 134.09,20 134,20 132.09,20 132,20 130.09,20 130,20 128.09,20 128,20 126.09,20 126,20 124.09,20 124.09,22"/><rect x="116.09" y="22" fill="#FEE982" width="2" height="2"/><polygon fill="#C9262F" points="124.09,24 124.09,22 122.09,22 120.09,22 118.09,22 118.09,24 120.09,24 122.09,24"/><polygon fill="#E1C965" points="126,22 124.09,22 124.09,24 122.09,24 122.09,26 124.09,26 126,26 126.09,26 126.09,24 126.09,22"/><polygon fill="#A61F24" points="128,22 126.09,22 126.09,24 128,24 128.09,24 128.09,22"/><polygon fill="#E1C965" points="132,22 130.09,22 130,22 128.09,22 128.09,24 130,24 130.09,24 132,24 132.09,24 132.09,22"/><polygon fill="#A61F24" points="134,22 132.09,22 132.09,24 134,24 134.09,24 134.09,22"/><polygon fill="#C2AE57" points="136,22 134.09,22 134.09,24 136,24 136.09,24 138.09,24 138.09,22 136.09,22"/><rect x="138.09" y="22" fill="#B09E4F" width="2" height="2"/><rect x="120.09" y="24" fill="#A61F24" width="2" height="2"/><rect x="118.09" y="24" fill="#E1C965" width="2" height="2"/><rect x="116.09" y="24" fill="#010101" width="2" height="2"/><polygon fill="#010101" points="118.09,22 120.09,22 122.09,22 124.09,22 124.09,20 122.09,20 120.09,20 118.09,20 116.09,20 114.09,20 114.09,22 114.09,24 116.09,24 116.09,22"/><rect x="168" y="50" width="2" height="2" fill="none"/><rect x="170" y="52" fill="#939598" width="2" height="2"/><polygon fill="#010101" points="170,56 170,58 172,58 172,56 172,54 170,54"/><rect x="168" y="52" fill="#010101" width="2" height="2"/><rect x="166" y="48" fill="#939598" width="2" height="2"/><rect x="164" y="50" fill="#939598" width="2" height="2"/><rect x="166" y="50" fill="#010101" width="2" height="2"/><polygon fill="#010101" points="164,54 164,56 166,56 166,54 166,52 164,52"/><rect x="162" y="50" fill="#010101" width="2" height="2"/><rect x="166" y="26" fill="#010101" width="2" height="2"/><polygon fill="#010101" points="164,28 162,28 162,30 164,30 166,30 166,28"/><polygon fill="#424143" points="182,20 182,18 180,18 180,20 180,22 182,22"/><polygon fill="#424143" points="178,26 178,28 180,28 180,26 180,24 180,22 178,22 178,24"/><polygon fill="#424143" points="178,32 178,30 178,28 176,28 176,30 176,32 176,34 176,36 178,36 178,34"/><polygon fill="#424143" points="176,38 176,36 174,36 174,38 174,40 174,42 176,42 176,40"/><polygon fill="#424143" points="178,46 176,46 176,44 174,44 174,42 172,42 172,44 172,46 172,48 174,48 174,50 176,50 178,50 178,48"/><polygon fill="#939598" points="172,26 172,28 174,28 176,28 176,26 176,24 176,22 178,22 178,20 178,18 176,18 174,18 174,20 174,22 172,22 172,24"/><polygon fill="#939598" points="172,38 172,36 174,36 174,34 174,32 174,30 172,30 172,32 170,32 170,34 170,36 168,36 168,38 170,38"/><polygon fill="#939598" points="170,40 168,40 168,42 170,42 172,42 172,40"/><polygon fill="#939598" points="166,46 168,46 170,46 170,44 168,44 168,42 166,42 166,44"/><polygon fill="#010101" points="174,20 174,18 172,18 170,18 168,18 166,18 166,20 168,20 170,20 172,20 172,22 174,22"/><polygon fill="#C7AB2E" points="186,20 184,20 184,22 182,22 182,24 184,24 186,24 186,22"/><polygon fill="#FFDE11" points="184,26 184,24 182,24 182,26 182,28 180,28 180,30 180,32 180,34 180,36 178,36 178,38 178,40 178,42 176,42 176,44 178,44 180,44 180,42 180,40 180,38 182,38 182,36 182,34 182,32 182,30 184,30 184,28"/><polygon fill="#010101" points="180,26 180,28 182,28 182,26 182,24 182,22 180,22 180,24"/><polygon fill="#010101" points="178,30 178,32 178,34 178,36 180,36 180,34 180,32 180,30 180,28 178,28"/><polygon fill="#010101" points="176,38 176,40 176,42 178,42 178,40 178,38 178,36 176,36"/><rect x="174" y="42" fill="#010101" width="2" height="2"/><polygon fill="#010101" points="176,44 176,46 178,46 178,48 178,50 180,50 180,48 180,46 180,44 178,44"/><polygon fill="#010101" points="184,26 184,28 184,30 186,30 186,28 186,26 186,24 184,24"/><polygon fill="#010101" points="182,32 182,34 182,36 182,38 184,38 184,36 184,34 184,32 184,30 182,30"/><polygon fill="#010101" points="180,40 180,42 180,44 182,44 182,42 182,40 182,38 180,38"/><polygon fill="#010101" points="176,24 176,26 176,28 178,28 178,26 178,24 178,22 176,22"/><polygon fill="#010101" points="174,38 174,36 172,36 172,38 170,38 168,38 168,40 170,40 172,40 172,42 174,42 174,40"/><polygon fill="#010101" points="174,50 174,48 172,48 172,46 172,44 172,42 170,42 168,42 168,44 170,44 170,46 168,46 166,46 166,44 166,42 164,42 164,44 164,46 164,48 164,50 166,50 166,48 168,48 168,50 170,50 170,52 172,52 172,54 174,54 174,52 176,52 178,52 178,50 176,50"/><rect x="170" y="30" fill="#010101" width="2" height="2"/><rect x="170" y="28" fill="#939598" width="2" height="2"/><polygon fill="#010101" points="174,30 174,32 174,34 174,36 176,36 176,34 176,32 176,30 176,28 174,28 172,28 172,30"/><polygon fill="#010101" points="170,28 172,28 172,26 172,24 172,22 170,22 170,24 168,24 168,26 170,26"/><rect x="168" y="28" fill="#010101" width="2" height="2"/><polygon fill="#010101" points="170,36 170,34 170,32 168,32 168,34 168,36"/><rect x="166" y="36" fill="#010101" width="2" height="2"/><rect x="166" y="40" fill="#010101" width="2" height="2"/><polygon fill="#010101" points="164,38 164,36 162,36 162,38 162,40 164,40 166,40 166,38"/><polygon fill="#010101" points="166,34 166,32 164,32 164,34 164,36 166,36"/><rect x="166" y="30" fill="#010101" width="2" height="2"/><rect x="168" y="26" fill="#6E6F72" width="2" height="2"/><rect x="166" y="28" fill="#6E6F72" width="2" height="2"/><rect x="168" y="30" fill="#939598" width="2" height="2"/><rect x="166" y="32" fill="#2075BC" width="2" height="2"/><rect x="166" y="34" fill="#939598" width="2" height="2"/><rect x="164" y="36" fill="#939598" width="2" height="2"/><rect x="166" y="38" fill="#2075BC" width="2" height="2"/><polygon fill="#010101" points="184,16 182,16 180,16 178,16 176,16 174,16 174,18 176,18 178,18 178,20 178,22 180,22 180,20 180,18 182,18 182,20 182,22 184,22 184,20 186,20 186,22 186,24 188,24 188,22 188,20 188,18 188,16 186,16"/><polygon fill="#010101" points="188,14 188,16 190,16 192,16 192,14 190,14"/><polygon fill="#010101" points="192,12 192,14 194,14 194,12 193.91,12"/><polygon fill="#010101" points="194,8 193.91,8 192,8 190,8 188,8 186,8 184,8 184,10 182,10 180,10 178,10 176,10 174,10 174,8 174,6 174,4 172,4 172,6 172,8 172,10 172,12 174,12 176,12 178,12 180,12 182,12 184,12 186,12 186,10 188,10 190,10 192,10 193.91,10 194,10 194,12 195.91,12 195.91,10 195.91,8"/><polygon fill="#010101" points="182,8 184,8 184,6 184,4 182,4 182,6"/><rect x="180" y="2" fill="#010101" width="2" height="2"/><polygon fill="#010101" points="180,2 180,0 178,0 176,0 176,2 178,2"/><rect x="174" y="2" fill="#010101" width="2" height="2"/><polygon fill="#FEE982" points="174,8 174,10 176,10 176,8 176,6 176,4 174,4 174,6"/><polygon fill="#E1C965" points="178,6 180,6 180,4 178,4 176,4 176,6 176,8 178,8"/><polygon fill="#FEE982" points="178,4 180,4 180,2 178,2 176,2 176,4"/><polygon fill="#C2AE57" points="180,6 178,6 178,8 176,8 176,10 178,10 180,10 182,10 184,10 184,8 182,8 182,6 182,4 180,4"/><polygon fill="#C9262F" points="190,12 190,10 188,10 186,10 186,12 188,12"/><rect x="190" y="10" fill="#A61F24" width="2" height="2"/><polygon fill="#B09E4F" points="193.91,10 192,10 192,12 193.91,12 194,12 194,10"/><rect x="190" y="12" fill="#B09E4F" width="2" height="2"/><rect x="188" y="12" fill="#A61F24" width="2" height="2"/><rect x="186" y="12" fill="#C2AE57" width="2" height="2"/><rect x="184" y="12" fill="#A61F24" width="2" height="2"/><polygon fill="#C9262F" points="174,14 176,14 178,14 180,14 182,14 184,14 184,12 182,12 180,12 178,12 176,12 174,12 172,12 172,14"/><rect x="164" y="14" fill="#FEE982" width="2" height="2"/><polygon fill="#C9262F" points="172,16 172,14 170,14 168,14 166,14 166,16 168,16 170,16"/><polygon fill="#E1C965" points="172,14 172,16 170,16 170,18 172,18 174,18 174,16 174,14"/><rect x="174" y="14" fill="#A61F24" width="2" height="2"/><polygon fill="#E1C965" points="178,14 176,14 176,16 178,16 180,16 180,14"/><rect x="180" y="14" fill="#A61F24" width="2" height="2"/><polygon fill="#C2AE57" points="182,14 182,16 184,16 186,16 186,14 184,14"/><rect x="186" y="14" fill="#B09E4F" width="2" height="2"/><rect x="168" y="16" fill="#A61F24" width="2" height="2"/><rect x="166" y="16" fill="#E1C965" width="2" height="2"/><rect x="164" y="16" fill="#010101" width="2" height="2"/><polygon fill="#010101" points="166,14 168,14 170,14 172,14 172,12 170,12 168,12 166,12 164,12 162,12 162,14 162,16 164,16 164,14"/></svg>