<svg xmlns="http://www.w3.org/2000/svg" width="20" height="110"><path fill="#FEE982" d="M0 0v67h20v-67h-20z"/><path fill="#F4DA4D" d="M18 66h-2v-2h-2v2h-2v-2h-2v2h-2v-2h-2v2h-2v-2h-2v2h-2v21h20v-23h-2v2z"/><rect x="16" y="62" fill="#F4DA4D" width="2" height="2"/><rect x="12" y="62" fill="#F4DA4D" width="2" height="2"/><rect x="8" y="62" fill="#F4DA4D" width="2" height="2"/><rect x="4" y="62" fill="#F4DA4D" width="2" height="2"/><rect y="62" fill="#F4DA4D" width="2" height="2"/><rect x="2" y="60" fill="#F4DA4D" width="2" height="2"/><rect x="10" y="60" fill="#F4DA4D" width="2" height="2"/><rect x="18" y="60" fill="#F4DA4D" width="2" height="2"/><rect x="14" y="58" fill="#F4DA4D" width="2" height="2"/><rect x="6" y="58" fill="#F4DA4D" width="2" height="2"/><path fill="#FBB041" d="M18 86h-2v-2h-2v2h-2v-2h-2v2h-2v-2h-2v2h-2v-2h-2v2h-2v17h20v-19h-2v2z"/><rect x="16" y="82" fill="#FBB041" width="2" height="2"/><rect x="12" y="82" fill="#FBB041" width="2" height="2"/><rect x="8" y="82" fill="#FBB041" width="2" height="2"/><rect x="4" y="82" fill="#FBB041" width="2" height="2"/><rect y="82" fill="#FBB041" width="2" height="2"/><rect x="2" y="80" fill="#FBB041" width="2" height="2"/><rect x="10" y="80" fill="#FBB041" width="2" height="2"/><rect x="18" y="80" fill="#FBB041" width="2" height="2"/><rect x="14" y="78" fill="#FBB041" width="2" height="2"/><rect x="6" y="78" fill="#FBB041" width="2" height="2"/><polygon fill="#F89521" points="18,102 16,102 16,100 14,100 14,102 12,102 12,100 10,100 10,102 8,102 8,100 6,100 6,102 4,102 4,100 2,100 2,102 0,102 0,104 0,106 0,108 0,110 2,110 4,110 6,110 8,110 10,110 12,110 14,110 16,110 18,110 20,110 20,108 20,106 20,104 20,102 20,100 18,100"/><rect x="16" y="98" fill="#F89521" width="2" height="2"/><rect x="12" y="98" fill="#F89521" width="2" height="2"/><rect x="8" y="98" fill="#F89521" width="2" height="2"/><rect x="4" y="98" fill="#F89521" width="2" height="2"/><rect y="98" fill="#F89521" width="2" height="2"/><rect x="2" y="96" fill="#F89521" width="2" height="2"/><rect x="10" y="96" fill="#F89521" width="2" height="2"/><rect x="18" y="96" fill="#F89521" width="2" height="2"/><rect x="14" y="94" fill="#F89521" width="2" height="2"/><rect x="6" y="94" fill="#F89521" width="2" height="2"/></svg>