<svg xmlns="http://www.w3.org/2000/svg" width="80" height="80"><rect fill="#22226D" width="80" height="80"/><rect x="12" fill="#0055A7" width="4" height="4"/><rect x="24" y="16" fill="#0055A7" width="4" height="4"/><rect x="64" y="16" fill="#0055A7" width="4" height="4"/><rect y="8" fill="#223D99" width="4" height="4"/><rect x="4" y="12" fill="#223D99" width="4" height="4"/><rect y="32" fill="#223D99" width="4" height="4"/><rect x="12" y="32" fill="#223D99" width="4" height="4"/><rect x="24" y="20" fill="#223D99" width="4" height="4"/><rect x="36" y="20" fill="#223D99" width="4" height="4"/><rect x="40" y="32" fill="#223D99" width="4" height="4"/><rect x="52" y="32" fill="#223D99" width="4" height="4"/><rect x="64" y="20" fill="#223D99" width="4" height="4"/><rect x="76" y="20" fill="#223D99" width="4" height="4"/><rect x="44" y="12" fill="#0050A1" width="4" height="4"/><rect x="32" y="24" fill="#0050A1" width="4" height="4"/><rect x="12" y="40" fill="#0050A1" width="4" height="4"/><rect x="12" y="28" fill="#0050A1" width="4" height="4"/><rect x="72" y="24" fill="#0050A1" width="4" height="4"/><rect x="52" y="40" fill="#0050A1" width="4" height="4"/><rect x="52" y="28" fill="#0050A1" width="4" height="4"/><rect x="40" y="8" fill="#223D99" width="4" height="4"/><rect x="12" y="8" fill="#223D99" width="4" height="8"/><rect x="52" y="8" fill="#223D99" width="4" height="8"/><rect x="52" fill="#0055A7" width="4" height="4"/><rect x="4" y="4" fill="#223D99" width="8" height="4"/><rect x="4" y="28" fill="#223D99" width="8" height="4"/><rect x="44" y="28" fill="#223D99" width="8" height="4"/><rect x="28" y="16" fill="#223D99" width="8" height="4"/><rect x="68" y="16" fill="#223D99" width="8" height="4"/><rect x="44" y="4" fill="#223D99" width="8" height="4"/><rect x="24" y="4" fill="#0050A1" width="8" height="4"/><rect x="16" y="8" fill="#0050A1" width="8" height="4"/><rect x="8" y="16" fill="#0050A1" width="8" height="4"/><rect y="20" fill="#0050A1" width="8" height="4"/><rect x="16" y="20" fill="#0050A1" width="8" height="4"/><rect x="24" y="28" fill="#0050A1" width="8" height="4"/><rect x="16" y="32" fill="#0050A1" width="8" height="4"/><rect x="32" y="32" fill="#0050A1" width="8" height="4"/><rect x="56" y="32" fill="#0050A1" width="8" height="4"/><rect x="72" y="32" fill="#0050A1" width="8" height="4"/><rect x="64" y="28" fill="#0050A1" width="8" height="4"/><rect x="40" y="20" fill="#0050A1" width="8" height="4"/><rect x="48" y="16" fill="#0050A1" width="8" height="4"/><rect x="56" y="20" fill="#0050A1" width="8" height="4"/><rect x="16" y="12" fill="#2B2E8A" width="8" height="4"/><rect x="8" y="20" fill="#2B2E8A" width="8" height="4"/><rect x="48" y="20" fill="#2B2E8A" width="8" height="4"/><rect x="40" y="24" fill="#2B2E8A" width="8" height="4"/><rect x="56" y="24" fill="#2B2E8A" width="8" height="4"/><rect x="16" y="24" fill="#2B2E8A" width="8" height="4"/><rect x="24" y="32" fill="#2B2E8A" width="8" height="4"/><rect x="16" y="36" fill="#2B2E8A" width="8" height="4"/><rect x="32" y="36" fill="#2B2E8A" width="8" height="4"/><rect x="56" y="36" fill="#2B2E8A" width="8" height="4"/><rect x="72" y="36" fill="#2B2E8A" width="8" height="4"/><rect x="64" y="32" fill="#2B2E8A" width="8" height="4"/><rect y="24" fill="#2B2E8A" width="8" height="4"/><rect x="24" y="8" fill="#2B2E8A" width="8" height="4"/><rect x="24" y="8" fill="#2B2E8A" width="8" height="4"/><rect x="32" y="12" fill="#2B2E8A" width="8" height="4"/><rect x="56" y="12" fill="#2B2E8A" width="8" height="4"/><rect x="64" y="8" fill="#2B2E8A" width="8" height="4"/><rect x="64" y="8" fill="#2B2E8A" width="8" height="4"/><rect x="72" y="12" fill="#2B2E8A" width="8" height="4"/><rect x="32" y="8" fill="#0050A1" width="8" height="4"/><rect x="56" y="8" fill="#0050A1" width="8" height="4"/><rect x="72" y="8" fill="#0050A1" width="8" height="4"/><rect x="64" y="4" fill="#0050A1" width="8" height="4"/><rect x="12" y="40" fill="#0055A7" width="4" height="4"/><rect x="24" y="56" fill="#0055A7" width="4" height="4"/><rect x="64" y="56" fill="#0055A7" width="4" height="4"/><rect y="48" fill="#223D99" width="4" height="4"/><rect x="4" y="52" fill="#223D99" width="4" height="4"/><rect y="72" fill="#223D99" width="4" height="4"/><rect x="12" y="72" fill="#223D99" width="4" height="4"/><rect x="24" y="60" fill="#223D99" width="4" height="4"/><rect x="36" y="60" fill="#223D99" width="4" height="4"/><rect x="40" y="72" fill="#223D99" width="4" height="4"/><rect x="52" y="72" fill="#223D99" width="4" height="4"/><rect x="64" y="60" fill="#223D99" width="4" height="4"/><rect x="76" y="60" fill="#223D99" width="4" height="4"/><rect x="44" y="52" fill="#0050A1" width="4" height="4"/><rect x="32" y="64" fill="#0050A1" width="4" height="4"/><rect x="12" y="68" fill="#0050A1" width="4" height="4"/><rect x="72" y="64" fill="#0050A1" width="4" height="4"/><rect x="52" y="68" fill="#0050A1" width="4" height="4"/><rect x="40" y="48" fill="#223D99" width="4" height="4"/><rect x="12" y="48" fill="#223D99" width="4" height="8"/><rect x="52" y="48" fill="#223D99" width="4" height="8"/><rect x="52" y="40" fill="#0055A7" width="4" height="4"/><rect x="4" y="44" fill="#223D99" width="8" height="4"/><rect x="4" y="68" fill="#223D99" width="8" height="4"/><rect x="44" y="68" fill="#223D99" width="8" height="4"/><rect x="28" y="56" fill="#223D99" width="8" height="4"/><rect x="68" y="56" fill="#223D99" width="8" height="4"/><rect x="44" y="44" fill="#223D99" width="8" height="4"/><rect x="24" y="44" fill="#0050A1" width="8" height="4"/><rect x="16" y="48" fill="#0050A1" width="8" height="4"/><rect x="8" y="56" fill="#0050A1" width="8" height="4"/><rect y="60" fill="#0050A1" width="8" height="4"/><rect x="16" y="60" fill="#0050A1" width="8" height="4"/><rect x="24" y="68" fill="#0050A1" width="8" height="4"/><rect x="16" y="72" fill="#0050A1" width="8" height="4"/><rect x="32" y="72" fill="#0050A1" width="8" height="4"/><rect x="56" y="72" fill="#0050A1" width="8" height="4"/><rect x="72" y="72" fill="#0050A1" width="8" height="4"/><rect x="64" y="68" fill="#0050A1" width="8" height="4"/><rect x="40" y="60" fill="#0050A1" width="8" height="4"/><rect x="48" y="56" fill="#0050A1" width="8" height="4"/><rect x="56" y="60" fill="#0050A1" width="8" height="4"/><rect x="16" y="52" fill="#2B2E8A" width="8" height="4"/><rect x="8" y="60" fill="#2B2E8A" width="8" height="4"/><rect x="48" y="60" fill="#2B2E8A" width="8" height="4"/><rect x="40" y="64" fill="#2B2E8A" width="8" height="4"/><rect x="56" y="64" fill="#2B2E8A" width="8" height="4"/><rect x="16" y="64" fill="#2B2E8A" width="8" height="4"/><rect x="24" y="72" fill="#2B2E8A" width="8" height="4"/><rect x="16" y="76" fill="#2B2E8A" width="8" height="4"/><rect x="32" y="76" fill="#2B2E8A" width="8" height="4"/><rect x="56" y="76" fill="#2B2E8A" width="8" height="4"/><rect x="72" y="76" fill="#2B2E8A" width="8" height="4"/><rect x="64" y="72" fill="#2B2E8A" width="8" height="4"/><rect y="64" fill="#2B2E8A" width="8" height="4"/><rect x="24" y="48" fill="#2B2E8A" width="8" height="4"/><rect x="24" y="48" fill="#2B2E8A" width="8" height="4"/><rect x="32" y="52" fill="#2B2E8A" width="8" height="4"/><rect x="56" y="52" fill="#2B2E8A" width="8" height="4"/><rect x="64" y="48" fill="#2B2E8A" width="8" height="4"/><rect x="64" y="48" fill="#2B2E8A" width="8" height="4"/><rect x="72" y="52" fill="#2B2E8A" width="8" height="4"/><rect x="32" y="48" fill="#0050A1" width="8" height="4"/><rect x="56" y="48" fill="#0050A1" width="8" height="4"/><rect x="72" y="48" fill="#0050A1" width="8" height="4"/><rect x="64" y="44" fill="#0050A1" width="8" height="4"/></svg>