<svg xmlns="http://www.w3.org/2000/svg" width="152" height="52"><polygon fill="#6E6F72" points="24,46 24,48 22,48 20,48 20,50 18,50 18,52 20,52 22,52 24,52 24,50 26,50 26,48 26,46"/><polygon fill="#939598" points="12,50 12,48 12,46 10,46 8,46 8,48 6,48 4,48 4,46 2,46 2,48 2,50 4,50 4,52 14,52 14,50"/><polygon fill="#fff" points="22,44 22,42 20,42 18,42 18,40 16,40 14,40 12,40 10,40 10,42 8,42 6,42 6,44 4,44 4,46 6,46 8,46 8,44 10,44 12,44 12,46 14,46 14,48 14,50 16,50 18,50 18,48 20,48 20,46 22,46 24,46 24,44"/><rect x="138" y="16" fill="#20BBEB" width="12" height="12"/><rect x="124" y="16" fill="#20BBEB" width="12" height="12"/><rect x="110" y="16" fill="#20BBEB" width="12" height="12"/><rect x="96" y="16" fill="#20BBEB" width="12" height="12"/><rect x="138" y="2" fill="#20BBEB" width="12" height="12"/><rect x="124" y="2" fill="#20BBEB" width="12" height="12"/><rect x="110" y="2" fill="#20BBEB" width="12" height="12"/><rect x="96" y="2" fill="#20BBEB" width="12" height="12"/><rect x="82" y="16" fill="#20BBEB" width="12" height="12"/><rect x="68" y="16" fill="#20BBEB" width="12" height="12"/><rect x="54" y="16" fill="#20BBEB" width="12" height="12"/><rect x="40" y="16" fill="#20BBEB" width="12" height="12"/><rect x="122" y="14" width="2" height="2" fill="none"/><rect x="108" y="14" width="2" height="2" fill="none"/><rect x="136" y="14" width="2" height="2" fill="none"/><rect x="94" y="14" width="2" height="2" fill="none"/><polygon fill="#010101" points="58,16 60,16 62,16 64,16 66,16 66,14 64,14 62,14 60,14 58,14 56,14 54,14 54,16 56,16"/><polygon fill="#010101" points="62,28 60,28 58,28 56,28 54,28 54,30 56,30 58,30 60,30 62,30 64,30 66,30 66,28 64,28"/><polygon fill="#AAE0FA" points="56,18 58,18 60,18 62,18 64,18 66,18 66,16 64,16 62,16 60,16 58,16 56,16 54,16 54,18"/><polygon fill="#7BCFF4" points="56,20 58,20 58,18 56,18 54,18 54,20 54,22 56,22"/><polygon fill="#7BCFF4" points="58,28 58,26 60,26 60,24 62,24 62,22 64,22 64,20 66,20 66,18 64,18 62,18 62,20 60,20 60,22 58,22 58,24 56,24 56,26 54,26 54,28 56,28"/><polygon fill="#18A1DC" points="60,26 58,26 58,28 60,28 62,28 62,26"/><rect x="62" y="26" fill="#7BCFF4" width="2" height="2"/><rect x="64" y="26" fill="#18A1DC" width="2" height="2"/><rect x="64" y="24" fill="#7BCFF4" width="2" height="2"/><polygon fill="#010101" points="44,16 46,16 48,16 50,16 52,16 52,14 50,14 48,14 46,14 44,14 42,14 40,14 40,16 42,16"/><polygon fill="#010101" points="54,24 54,22 54,20 54,18 54,16 52,16 52,18 52,20 52,22 52,24 52,26 52,28 54,28 54,26"/><polygon fill="#010101" points="48,28 46,28 44,28 42,28 40,28 40,30 42,30 44,30 46,30 48,30 50,30 52,30 52,28 50,28"/><polygon fill="#010101" points="40,24 40,22 40,20 40,18 40,16 38,16 38,18 38,20 38,22 38,24 38,26 38,28 40,28 40,26"/><polygon fill="#AAE0FA" points="42,18 44,18 46,18 48,18 50,18 52,18 52,16 50,16 48,16 46,16 44,16 42,16 40,16 40,18"/><polygon fill="#7BCFF4" points="42,20 44,20 44,18 42,18 40,18 40,20 40,22 42,22"/><polygon fill="#7BCFF4" points="44,28 44,26 46,26 46,24 48,24 48,22 50,22 50,20 52,20 52,18 50,18 48,18 48,20 46,20 46,22 44,22 44,24 42,24 42,26 40,26 40,28 42,28"/><polygon fill="#18A1DC" points="46,26 44,26 44,28 46,28 48,28 48,26"/><rect x="48" y="26" fill="#7BCFF4" width="2" height="2"/><rect x="50" y="26" fill="#18A1DC" width="2" height="2"/><rect x="50" y="24" fill="#7BCFF4" width="2" height="2"/><polygon fill="#010101" points="132,28 130,28 128,28 126,28 124,28 124,30 126,30 128,30 130,30 132,30 134,30 136,30 136,28 134,28"/><polygon fill="#AAE0FA" points="132,16 130,16 128,16 126,16 124,16 124,18 126,18 128,18 130,18 132,18 134,18 136,18 136,16 134,16"/><polygon fill="#7BCFF4" points="126,20 128,20 128,18 126,18 124,18 124,20 124,22 126,22"/><polygon fill="#7BCFF4" points="128,28 128,26 130,26 130,24 132,24 132,22 134,22 134,20 136,20 136,18 134,18 132,18 132,20 130,20 130,22 128,22 128,24 126,24 126,26 124,26 124,28 126,28"/><polygon fill="#18A1DC" points="130,26 128,26 128,28 130,28 132,28 132,26"/><rect x="132" y="26" fill="#7BCFF4" width="2" height="2"/><rect x="134" y="26" fill="#18A1DC" width="2" height="2"/><rect x="134" y="24" fill="#7BCFF4" width="2" height="2"/><polygon fill="#010101" points="128,2 130,2 132,2 134,2 136,2 136,0 134,0 132,0 130,0 128,0 126,0 124,0 124,2 126,2"/><polygon fill="#010101" points="134,14 132,14 130,14 128,14 126,14 124,14 124,16 126,16 128,16 130,16 132,16 134,16 136,16 136,14"/><polygon fill="#AAE0FA" points="126,4 128,4 130,4 132,4 134,4 136,4 136,2 134,2 132,2 130,2 128,2 126,2 124,2 124,4"/><polygon fill="#7BCFF4" points="126,6 128,6 128,4 126,4 124,4 124,6 124,8 126,8"/><polygon fill="#7BCFF4" points="128,14 128,12 130,12 130,10 132,10 132,8 134,8 134,6 136,6 136,4 134,4 132,4 132,6 130,6 130,8 128,8 128,10 126,10 126,12 124,12 124,14 126,14"/><polygon fill="#18A1DC" points="130,12 128,12 128,14 130,14 132,14 132,12"/><rect x="132" y="12" fill="#7BCFF4" width="2" height="2"/><rect x="134" y="12" fill="#18A1DC" width="2" height="2"/><rect x="134" y="10" fill="#7BCFF4" width="2" height="2"/><polygon fill="#010101" points="150,20 150,22 150,24 150,26 150,28 152,28 152,26 152,24 152,22 152,20 152,18 152,16 150,16 150,18"/><polygon fill="#010101" points="146,28 144,28 142,28 140,28 138,28 138,30 140,30 142,30 144,30 146,30 148,30 150,30 150,28 148,28"/><polygon fill="#010101" points="138,24 138,22 138,20 138,18 138,16 136,16 136,18 136,20 136,22 136,24 136,26 136,28 138,28 138,26"/><polygon fill="#AAE0FA" points="146,16 144,16 142,16 140,16 138,16 138,18 140,18 142,18 144,18 146,18 148,18 150,18 150,16 148,16"/><polygon fill="#7BCFF4" points="138,22 140,22 140,20 142,20 142,18 140,18 138,18 138,20"/><polygon fill="#7BCFF4" points="142,28 142,26 144,26 144,24 146,24 146,22 148,22 148,20 150,20 150,18 148,18 146,18 146,20 144,20 144,22 142,22 142,24 140,24 140,26 138,26 138,28 140,28"/><polygon fill="#18A1DC" points="144,26 142,26 142,28 144,28 146,28 146,26"/><rect x="146" y="26" fill="#7BCFF4" width="2" height="2"/><rect x="148" y="26" fill="#18A1DC" width="2" height="2"/><rect x="148" y="24" fill="#7BCFF4" width="2" height="2"/><polygon fill="#010101" points="142,2 144,2 146,2 148,2 150,2 150,0 148,0 146,0 144,0 142,0 140,0 138,0 138,2 140,2"/><polygon fill="#010101" points="150,2 150,4 150,6 150,8 150,10 150,12 150,14 152,14 152,12 152,10 152,8 152,6 152,4 152,2"/><polygon fill="#010101" points="146,14 144,14 142,14 140,14 138,14 138,16 140,16 142,16 144,16 146,16 148,16 150,16 150,14 148,14"/><polygon fill="#010101" points="136,6 136,8 136,10 136,12 136,14 138,14 138,12 138,10 138,8 138,6 138,4 138,2 136,2 136,4"/><polygon fill="#AAE0FA" points="140,4 142,4 144,4 146,4 148,4 150,4 150,2 148,2 146,2 144,2 142,2 140,2 138,2 138,4"/><polygon fill="#7BCFF4" points="140,6 142,6 142,4 140,4 138,4 138,6 138,8 140,8"/><polygon fill="#18A1DC" points="144,12 142,12 142,14 144,14 146,14 146,12"/><polygon fill="#7BCFF4" points="146,4 146,6 144,6 144,8 142,8 142,10 140,10 140,12 138,12 138,14 140,14 142,14 142,12 144,12 144,10 146,10 146,8 148,8 148,6 150,6 150,4 148,4"/><rect x="146" y="12" fill="#7BCFF4" width="2" height="2"/><rect x="148" y="12" fill="#18A1DC" width="2" height="2"/><rect x="148" y="10" fill="#7BCFF4" width="2" height="2"/><polygon fill="#010101" points="72,16 74,16 76,16 78,16 80,16 80,14 78,14 76,14 74,14 72,14 70,14 68,14 68,16 70,16"/><polygon fill="#010101" points="76,28 74,28 72,28 70,28 68,28 68,30 70,30 72,30 74,30 76,30 78,30 80,30 80,28 78,28"/><polygon fill="#010101" points="68,24 68,22 68,20 68,18 68,16 66,16 66,18 66,20 66,22 66,24 66,26 66,28 68,28 68,26"/><polygon fill="#AAE0FA" points="70,18 72,18 74,18 76,18 78,18 80,18 80,16 78,16 76,16 74,16 72,16 70,16 68,16 68,18"/><polygon fill="#7BCFF4" points="70,20 72,20 72,18 70,18 68,18 68,20 68,22 70,22"/><polygon fill="#7BCFF4" points="72,28 72,26 74,26 74,24 76,24 76,22 78,22 78,20 80,20 80,18 78,18 76,18 76,20 74,20 74,22 72,22 72,24 70,24 70,26 68,26 68,28 70,28"/><polygon fill="#18A1DC" points="74,26 72,26 72,28 74,28 76,28 76,26"/><rect x="76" y="26" fill="#7BCFF4" width="2" height="2"/><rect x="78" y="26" fill="#18A1DC" width="2" height="2"/><rect x="78" y="24" fill="#7BCFF4" width="2" height="2"/><polygon fill="#010101" points="86,16 88,16 90,16 92,16 94,16 94,14 92,14 90,14 88,14 86,14 84,14 82,14 82,16 84,16"/><polygon fill="#010101" points="90,28 88,28 86,28 84,28 82,28 82,30 84,30 86,30 88,30 90,30 92,30 94,30 94,28 92,28"/><polygon fill="#010101" points="82,24 82,22 82,20 82,18 82,16 80,16 80,18 80,20 80,22 80,24 80,26 80,28 82,28 82,26"/><polygon fill="#AAE0FA" points="84,18 86,18 88,18 90,18 92,18 94,18 94,16 92,16 90,16 88,16 86,16 84,16 82,16 82,18"/><polygon fill="#7BCFF4" points="84,20 86,20 86,18 84,18 82,18 82,20 82,22 84,22"/><polygon fill="#7BCFF4" points="86,28 86,26 88,26 88,24 90,24 90,22 92,22 92,20 94,20 94,18 92,18 90,18 90,20 88,20 88,22 86,22 86,24 84,24 84,26 82,26 82,28 84,28"/><polygon fill="#18A1DC" points="88,26 86,26 86,28 88,28 90,28 90,26"/><rect x="90" y="26" fill="#7BCFF4" width="2" height="2"/><rect x="92" y="26" fill="#18A1DC" width="2" height="2"/><rect x="92" y="24" fill="#7BCFF4" width="2" height="2"/><polygon fill="#010101" points="104,28 102,28 100,28 98,28 96,28 96,30 98,30 100,30 102,30 104,30 106,30 108,30 108,28 106,28"/><polygon fill="#010101" points="96,24 96,22 96,20 96,18 96,16 94,16 94,18 94,20 94,22 94,24 94,26 94,28 96,28 96,26"/><polygon fill="#AAE0FA" points="104,16 102,16 100,16 98,16 96,16 96,18 98,18 100,18 102,18 104,18 106,18 108,18 108,16 106,16"/><polygon fill="#7BCFF4" points="98,20 100,20 100,18 98,18 96,18 96,20 96,22 98,22"/><polygon fill="#7BCFF4" points="100,28 100,26 102,26 102,24 104,24 104,22 106,22 106,20 108,20 108,18 106,18 104,18 104,20 102,20 102,22 100,22 100,24 98,24 98,26 96,26 96,28 98,28"/><polygon fill="#18A1DC" points="102,26 100,26 100,28 102,28 104,28 104,26"/><rect x="104" y="26" fill="#7BCFF4" width="2" height="2"/><rect x="106" y="26" fill="#18A1DC" width="2" height="2"/><rect x="106" y="24" fill="#7BCFF4" width="2" height="2"/><polygon fill="#010101" points="100,2 102,2 104,2 106,2 108,2 108,0 106,0 104,0 102,0 100,0 98,0 96,0 96,2 98,2"/><polygon fill="#010101" points="96,12 96,10 96,8 96,6 96,4 96,2 94,2 94,4 94,6 94,8 94,10 94,12 94,14 96,14"/><polygon fill="#010101" points="106,14 104,14 102,14 100,14 98,14 96,14 96,16 98,16 100,16 102,16 104,16 106,16 108,16 108,14"/><polygon fill="#AAE0FA" points="98,4 100,4 102,4 104,4 106,4 108,4 108,2 106,2 104,2 102,2 100,2 98,2 96,2 96,4"/><polygon fill="#7BCFF4" points="98,6 100,6 100,4 98,4 96,4 96,6 96,8 98,8"/><polygon fill="#7BCFF4" points="100,14 100,12 102,12 102,10 104,10 104,8 106,8 106,6 108,6 108,4 106,4 104,4 104,6 102,6 102,8 100,8 100,10 98,10 98,12 96,12 96,14 98,14"/><polygon fill="#18A1DC" points="102,12 100,12 100,14 102,14 104,14 104,12"/><rect x="104" y="12" fill="#7BCFF4" width="2" height="2"/><rect x="106" y="12" fill="#18A1DC" width="2" height="2"/><rect x="106" y="10" fill="#7BCFF4" width="2" height="2"/><polygon fill="#010101" points="114,2 116,2 118,2 120,2 122,2 122,0 120,0 118,0 116,0 114,0 112,0 110,0 110,2 112,2"/><polygon fill="#010101" points="122,6 122,8 122,10 122,12 122,14 124,14 124,12 124,10 124,8 124,6 124,4 124,2 122,2 122,4"/><polygon fill="#010101" points="108,6 108,8 108,10 108,12 108,14 110,14 110,12 110,10 110,8 110,6 110,4 110,2 108,2 108,4"/><polygon fill="#AAE0FA" points="112,4 114,4 116,4 118,4 120,4 122,4 122,2 120,2 118,2 116,2 114,2 112,2 110,2 110,4"/><polygon fill="#7BCFF4" points="112,6 114,6 114,4 112,4 110,4 110,6 110,8 112,8"/><polygon fill="#7BCFF4" points="114,14 114,12 116,12 116,10 118,10 118,8 120,8 120,6 122,6 122,4 120,4 118,4 118,6 116,6 116,8 114,8 114,10 112,10 112,12 110,12 110,14 112,14"/><polygon fill="#18A1DC" points="116,12 114,12 114,14 116,14 118,14 118,12"/><rect x="118" y="12" fill="#7BCFF4" width="2" height="2"/><rect x="120" y="12" fill="#18A1DC" width="2" height="2"/><rect x="120" y="10" fill="#7BCFF4" width="2" height="2"/><polygon fill="#010101" points="124,24 124,22 124,20 124,18 124,16 122,16 122,18 122,20 122,22 122,24 122,26 122,28 124,28 124,26"/><polygon fill="#010101" points="120,14 118,14 116,14 114,14 112,14 110,14 110,16 112,16 114,16 116,16 118,16 120,16 122,16 122,14"/><polygon fill="#010101" points="118,28 116,28 114,28 112,28 110,28 110,30 112,30 114,30 116,30 118,30 120,30 122,30 122,28 120,28"/><polygon fill="#010101" points="110,24 110,22 110,20 110,18 110,16 108,16 108,18 108,20 108,22 108,24 108,26 108,28 110,28 110,26"/><polygon fill="#AAE0FA" points="118,16 116,16 114,16 112,16 110,16 110,18 112,18 114,18 116,18 118,18 120,18 122,18 122,16 120,16"/><polygon fill="#7BCFF4" points="112,20 114,20 114,18 112,18 110,18 110,20 110,22 112,22"/><polygon fill="#7BCFF4" points="114,28 114,26 116,26 116,24 118,24 118,22 120,22 120,20 122,20 122,18 120,18 118,18 118,20 116,20 116,22 114,22 114,24 112,24 112,26 110,26 110,28 112,28"/><polygon fill="#18A1DC" points="116,26 114,26 114,28 116,28 118,28 118,26"/><rect x="118" y="26" fill="#7BCFF4" width="2" height="2"/><rect x="120" y="26" fill="#18A1DC" width="2" height="2"/><rect x="120" y="24" fill="#7BCFF4" width="2" height="2"/><rect x="2" y="50" fill="#010101" width="2" height="2"/><polygon fill="#010101" points="2,46 0,46 0,48 0,50 2,50 2,48"/><rect x="2" y="44" fill="#010101" width="2" height="2"/><rect x="4" y="42" fill="#010101" width="2" height="2"/><polygon fill="#010101" points="10,42 10,40 8,40 6,40 6,42 8,42"/><polygon fill="#E8EBEF" points="16,46 18,46 18,44 20,44 20,42 18,42 16,42 14,42 14,44 16,44"/><rect x="10" y="42" fill="#A3C4C6" width="2" height="2"/><rect x="6" y="44" fill="#A3C4C6" width="2" height="2"/><rect x="12" y="44" fill="#A3C4C6" width="2" height="2"/><polygon fill="#A3C4C6" points="16,48 14,48 14,50 16,50 18,50 18,48"/><rect x="18" y="46" fill="#A3C4C6" width="2" height="2"/><polygon fill="#A3C4C6" points="20,44 20,46 22,46 24,46 24,44 22,44"/><polygon fill="#010101" points="18,40 18,38 10,38 10,40"/><polygon fill="#010101" points="20,46 20,48 22,48 24,48 24,46 22,46"/><rect x="18" y="48" fill="#010101" width="2" height="2"/><polygon fill="#010101" points="14,50 14,52 18,52 18,50"/><polygon fill="#010101" points="14,46 12,46 12,48 12,50 14,50 14,48"/><polygon fill="#010101" points="10,46 12,46 12,44 10,44 8,44 8,46"/><polygon fill="#6E6F72" points="4,48 4,50 6,50 8,50 8,48 6,48"/><rect x="12" y="50" fill="#6E6F72" width="2" height="2"/><polygon fill="#6E6F72" points="10,46 8,46 8,48 10,48 12,48 12,46"/><rect x="20" y="50" fill="#939598" width="2" height="2"/><polygon fill="#010101" points="6,46 4,46 4,48 6,48 8,48 8,46"/><polygon fill="#010101" points="20,42 22,42 22,40 20,40 18,40 18,42"/><rect x="22" y="42" fill="#010101" width="2" height="2"/><rect x="24" y="44" fill="#010101" width="2" height="2"/><polygon fill="#010101" points="26,46 26,48 26,50 28,50 28,48 28,46"/><rect x="24" y="50" fill="#010101" width="2" height="2"/></svg>