<svg xmlns="http://www.w3.org/2000/svg" width="88" height="56"><polygon fill="#fff" points="80.5,22 80.5,20 80.5,18 78.5,18 78.5,16 76.5,16 76.5,14 74.5,14 74.5,12 74.5,10 76.5,10 76.5,8 76.5,6 74.5,6 74.5,4 72.5,4 72.5,2 70.5,2 70.5,0 68.5,0 66.5,0 64.5,0 64.5,2 62.5,2 62.5,4 60.5,4 60.5,6 58.5,6 58.5,8 58.5,10 60.5,10 60.5,12 60.5,14 58.5,14 58.5,16 56.5,16 56.5,18 54.5,18 54.5,20 54.5,22 52.5,22 52.5,24 52.5,26 54.5,26 54.5,28 54.5,30 52.5,30 52.5,32 50.5,32 50.5,34 48.5,34 48.5,36 48.5,38 48.5,40 48.5,42 48.5,44 48.5,46 48.5,48 48.5,50 50.5,50 50.5,52 52.5,52 52.5,54 54.5,54 54.5,56 56.5,56 58.5,56 60.5,56 62.5,56 64.5,56 66.5,56 68.5,56 70.5,56 72.5,56 72.5,54 74.5,54 74.5,52 76.5,52 76.5,50 78.5,50 78.5,48 78.5,46 80.5,46 80.5,44 80.5,42 80.5,40 80.5,38 78.5,38 78.5,36 78.5,34 76.5,34 76.5,32 74.5,32 74.5,30 76.5,30 78.5,30 80.5,30 80.5,28 80.5,26 82.5,26 82.5,24 82.5,22"/><polygon points="48.5,38 48.5,40 48.5,42 48.5,44 48.5,46 46.5,46 46.5,44 46.5,42 46.5,40 46.5,38"/><polygon points="68.5,54 66.5,54 64.5,54 62.5,54 60.5,54 58.5,54 56.5,54 54.5,54 54.5,56 56.5,56 58.5,56 60.5,56 62.5,56 64.5,56 66.5,56 68.5,56 70.5,56 72.5,56 72.5,54 70.5,54"/><rect x="52.5" y="52" width="2" height="2"/><rect x="50.5" y="50" width="2" height="2"/><polygon points="50.5,46 48.5,46 48.5,48 48.5,50 50.5,50 50.5,48"/><polygon points="76.5,48 76.5,50 78.5,50 78.5,48 78.5,46 76.5,46"/><rect x="74.5" y="50" width="2" height="2"/><rect x="72.5" y="52" width="2" height="2"/><polygon points="74.5,28 72.5,28 72.5,30 72.5,32 74.5,32 74.5,30 76.5,30 76.5,28"/><rect x="74.5" y="32" width="2" height="2"/><polygon points="76.5,38 78.5,38 78.5,36 78.5,34 76.5,34 76.5,36"/><polygon points="50.5,36 50.5,34 48.5,34 48.5,36 48.5,38 50.5,38"/><rect x="50.5" y="32" width="2" height="2"/><rect x="52.5" y="30" width="2" height="2"/><rect x="58.5" y="28" width="2" height="2"/><polygon points="78.5,42 78.5,44 78.5,46 80.5,46 80.5,44 80.5,42 80.5,40 80.5,38 78.5,38 78.5,40"/><polygon fill="#fff" points="62.5,28 60.5,28 60.5,30 60.5,32 62.5,32 62.5,30"/><polygon fill="#fff" points="56.5,32 58.5,32 58.5,30 56.5,30 54.5,30 54.5,32"/><polygon fill="#fff" points="72.5,30 70.5,30 68.5,30 66.5,30 66.5,32 68.5,32 68.5,34 70.5,34 70.5,36 72.5,36 72.5,38 74.5,38 74.5,40 76.5,40 76.5,42 74.5,42 74.5,44 76.5,44 76.5,46 78.5,46 78.5,44 78.5,42 78.5,40 78.5,38 76.5,38 76.5,36 76.5,34 74.5,34 74.5,32 72.5,32"/><rect x="74.5" y="48" fill="#E7ECF0" width="2" height="2"/><rect x="74.5" y="46" fill="#fff" width="2" height="2"/><rect x="74.5" y="44" fill="#E7ECF0" width="2" height="2"/><rect x="74.5" y="40" fill="#E7ECF0" width="2" height="2"/><rect x="72.5" y="38" fill="#E7ECF0" width="2" height="2"/><rect x="72.5" y="40" fill="#fff" width="2" height="2"/><rect x="72.5" y="44" fill="#fff" width="2" height="2"/><rect x="72.5" y="48" fill="#fff" width="2" height="2"/><path fill="#E7ECF0" d="M72.5 50v-2h2v-2h-2v-2h2v-2h-2v-2h-2v-2h-2v-2h-2v-2h-2v2h-2v-4h-2v-2h-2v2h-4v2h-2v4h2v2h-2v2h2v2h2v-2h2v2h-2v2h2v2h2v-2h2v2h-2v2h2v2h2v-2h2v2h2v2h4v-2h2v-2h-2zm-8-6h-2v-2h2v2z"/><rect x="70.5" y="38" fill="#fff" width="2" height="2"/><rect x="70.5" y="36" fill="#E7ECF0" width="2" height="2"/><rect x="68.5" y="36" fill="#fff" width="2" height="2"/><rect x="68.5" y="34" fill="#E7ECF0" width="2" height="2"/><rect x="66.5" y="32" fill="#E7ECF0" width="2" height="2"/><rect x="66.5" y="34" fill="#fff" width="2" height="2"/><rect x="66.5" y="52" fill="#A3C4C6" width="2" height="2"/><rect x="64.5" y="52" fill="#E7ECF0" width="2" height="2"/><rect x="64.5" y="50" fill="#A3C4C6" width="2" height="2"/><polygon fill="#fff" points="62.5,32 62.5,34 64.5,34 66.5,34 66.5,32 64.5,32"/><polygon fill="#fff" points="80.5,22 78.5,22 78.5,24 76.5,24 76.5,26 78.5,26 80.5,26 80.5,24"/><rect x="76.5" y="22" fill="#E7ECF0" width="2" height="2"/><polygon fill="#fff" points="70.5,14 70.5,16 72.5,16 72.5,18 74.5,18 74.5,20 76.5,20 76.5,22 78.5,22 78.5,20 78.5,18 76.5,18 76.5,16 74.5,16 74.5,14 72.5,14"/><polygon fill="#A3C4C6" points="62.5,12 64.5,12 64.5,14 66.5,14 68.5,14 70.5,14 70.5,12 68.5,12 66.5,12 66.5,10 64.5,10 64.5,8 64.5,6 62.5,6 60.5,6 60.5,8 60.5,10 62.5,10"/><rect x="62.5" y="4" fill="#E7ECF0" width="2" height="2"/><rect x="64.5" y="4" width="2" height="2"/><polygon fill="#fff" points="66.5,4 68.5,4 70.5,4 70.5,2 68.5,2 66.5,2 64.5,2 64.5,4"/><rect x="68.5" y="4" width="2" height="2"/><rect x="70.5" y="4" fill="#fff" width="2" height="2"/><rect x="72.5" y="6" fill="#fff" width="2" height="2"/><rect x="72.5" y="8" fill="#A3C4C6" width="2" height="2"/><polygon fill="#E7ECF0" points="72.5,10 72.5,8 72.5,6 70.5,6 68.5,6 68.5,8 70.5,8 70.5,10 68.5,10 68.5,12 70.5,12 72.5,12"/><rect x="68.5" y="8" width="2" height="2"/><rect x="64.5" y="6" fill="#E7ECF0" width="2" height="2"/><rect x="64.5" y="8" width="2" height="2"/><rect x="72.5" y="18" fill="#E7ECF0" width="2" height="2"/><rect x="70.5" y="18" fill="#fff" width="2" height="2"/><rect x="72.5" y="20" fill="#fff" width="2" height="2"/><rect x="74.5" y="20" fill="#E7ECF0" width="2" height="2"/><rect x="74.5" y="22" fill="#fff" width="2" height="2"/><polygon fill="#A3C4C6" points="78.5,26 76.5,26 74.5,26 74.5,28 76.5,28 76.5,30 78.5,30 78.5,28"/><rect x="58.5" y="24" fill="#E7ECF0" width="2" height="2"/><rect x="58.5" y="22" fill="#A3C4C6" width="2" height="2"/><rect x="56.5" y="22" fill="#E7ECF0" width="2" height="2"/><polygon fill="#A3C4C6" points="56.5,28 56.5,30 58.5,30 58.5,28 60.5,28 62.5,28 62.5,30 64.5,30 64.5,28 64.5,26 62.5,26 62.5,24 60.5,24 60.5,26 58.5,26 58.5,24 56.5,24 56.5,22 54.5,22 54.5,24 54.5,26 56.5,26"/><rect x="56.5" y="20" fill="#A3C4C6" width="2" height="2"/><rect x="58.5" y="18" fill="#A3C4C6" width="2" height="2"/><rect x="56.5" y="18" fill="#E7ECF0" width="2" height="2"/><path fill="#E7ECF0" d="M60.5 18v2h-2v2h2v2h2v2h2v2h6v2h2v-2h2v-2h2v-2h-2v-2h-2v-2h-2v-2h2v-2h-2v-2h-10v2h-2v2h2zm6-2h2v2h-2v-2zm0 8h2v2h-2v-2z"/><rect x="60.5" y="46" fill="#A3C4C6" width="2" height="2"/><rect x="58.5" y="48" fill="#A3C4C6" width="2" height="2"/><rect x="60.5" y="50" fill="#A3C4C6" width="2" height="2"/><rect x="58.5" y="50" fill="#E7ECF0" width="2" height="2"/><rect x="60.5" y="52" fill="#E7ECF0" width="2" height="2"/><rect x="56.5" y="48" fill="#E7ECF0" width="2" height="2"/><rect x="54.5" y="46" fill="#E7ECF0" width="2" height="2"/><rect x="56.5" y="46" fill="#A3C4C6" width="2" height="2"/><rect x="54.5" y="44" fill="#A3C4C6" width="2" height="2"/><rect x="56.5" y="42" fill="#A3C4C6" width="2" height="2"/><polygon fill="#A3C4C6" points="58.5,54 60.5,54 60.5,52 58.5,52 58.5,50 56.5,50 56.5,48 54.5,48 54.5,46 52.5,46 52.5,44 54.5,44 54.5,42 52.5,42 52.5,40 54.5,40 54.5,38 52.5,38 52.5,36 50.5,36 50.5,38 48.5,38 48.5,40 48.5,42 48.5,44 48.5,46 50.5,46 50.5,48 50.5,50 52.5,50 52.5,52 54.5,52 54.5,54 56.5,54"/><rect x="52.5" y="44" fill="#E7ECF0" width="2" height="2"/><polygon points="56.5,20 56.5,18 54.5,18 54.5,20 54.5,22 56.5,22"/><rect x="56.5" y="16" width="2" height="2"/><rect x="58.5" y="14" width="2" height="2"/><polygon points="80.5,22 80.5,24 80.5,26 82.5,26 82.5,24 82.5,22"/><polygon points="78.5,22 80.5,22 80.5,20 80.5,18 78.5,18 78.5,20"/><rect x="76.5" y="16" width="2" height="2"/><rect x="74.5" y="14" width="2" height="2"/><polygon points="78.5,28 78.5,30 80.5,30 80.5,28 80.5,26 78.5,26"/><polygon points="54.5,22 52.5,22 52.5,24 52.5,26 54.5,26 54.5,24"/><polygon points="56.5,28 56.5,26 54.5,26 54.5,28 54.5,30 56.5,30"/><polygon points="72.5,12 70.5,12 70.5,14 72.5,14 74.5,14 74.5,12 74.5,10 72.5,10"/><polygon points="74.5,10 76.5,10 76.5,8 76.5,6 74.5,6 74.5,8"/><rect x="72.5" y="4" width="2" height="2"/><rect x="70.5" y="2" width="2" height="2"/><rect x="64.5" y="28" fill="#fff" width="2" height="2"/><rect x="62.5" y="52" fill="#A3C4C6" width="2" height="2"/><rect x="62.5" y="42" width="2" height="2"/><rect x="62.5" y="34" width="2" height="2"/><polygon fill="#E7ECF0" points="62.5,30 62.5,32 64.5,32 66.5,32 66.5,30 64.5,30"/><polygon fill="#A3C4C6" points="68.5,28 66.5,28 66.5,30 68.5,30 70.5,30 70.5,28"/><rect x="66.5" y="4" fill="#E7ECF0" width="2" height="2"/><rect x="66.5" y="10" width="2" height="2"/><rect x="66.5" y="8" fill="#F7941E" width="2" height="2"/><rect x="66.5" y="6" width="2" height="2"/><rect x="66.5" y="16" width="2" height="2"/><rect x="66.5" y="24" width="2" height="2"/><polygon points="68.5,2 70.5,2 70.5,0 68.5,0 66.5,0 64.5,0 64.5,2 66.5,2"/><rect x="62.5" y="2" width="2" height="2"/><rect x="60.5" y="4" width="2" height="2"/><polygon points="60.5,6 58.5,6 58.5,8 58.5,10 60.5,10 60.5,8"/><polygon points="64.5,14 64.5,12 62.5,12 62.5,10 60.5,10 60.5,12 60.5,14 62.5,14"/><polygon points="39.5,38 39.5,36 39.5,34 37.5,34 37.5,32 35.5,32 35.5,30 33.5,30 33.5,28 33.5,26 35.5,26 35.5,24 35.5,22 33.5,22 33.5,20 33.5,18 31.5,18 31.5,16 29.5,16 29.5,14 27.5,14 27.5,12 27.5,10 29.5,10 29.5,8 29.5,6 27.5,6 27.5,4 25.5,4 25.5,2 23.5,2 23.5,0 21.5,0 19.5,0 17.5,0 17.5,2 15.5,2 15.5,4 13.5,4 13.5,6 11.5,6 11.5,8 11.5,10 13.5,10 13.5,12 13.5,14 11.5,14 11.5,16 9.5,16 9.5,18 7.5,18 7.5,20 7.5,22 5.5,22 5.5,24 5.5,26 7.5,26 7.5,28 7.5,30 9.5,30 11.5,30 13.5,30 13.5,32 11.5,32 11.5,34 9.5,34 9.5,36 9.5,38 7.5,38 7.5,40 7.5,42 7.5,44 7.5,46 9.5,46 9.5,48 9.5,50 11.5,50 11.5,52 13.5,52 13.5,54 15.5,54 15.5,56 17.5,56 19.5,56 21.5,56 23.5,56 25.5,56 27.5,56 29.5,56 31.5,56 33.5,56 33.5,54 35.5,54 35.5,52 37.5,52 37.5,50 39.5,50 39.5,48 39.5,46 41.5,46 41.5,44 41.5,42 41.5,40 41.5,38"/><g fill="#E7ECF0"><path d="M37.5 38v-4h-2v-2h-2v-2h-2v-4h2v-4h-2v-4h-2v-2h-2v-2h-4v-2h2v-2h2v-4h-2v-2h-2v2h-2v2h2v2h-2v2h-2v-2h-2v-2h2v-2h-2v-2h-2v2h-2v4h2v2h2v2h-4v2h-2v2h-2v4h-2v4h2v4h2v-2h4v4h-2v2h-2v4h-2v8h2v4h2v2h2v2h18v-2h2v-2h2v-4h2v-8h-2zm-14-4h2v2h-2v-2zm-2-16h-2v-2h2v2zm0 6v2h-2v-2h2zm2 18h2v2h-2v-2zm4-12v-2h2v2h-2z"/><polygon points="19.5,6 21.5,6 21.5,4 23.5,4 23.5,2 21.5,2 19.5,2 17.5,2 17.5,4 19.5,4"/><rect x="19.5" y="8" width="2" height="2"/></g><polygon fill="#fff" points="25.5,28 25.5,30 25.5,32 27.5,32 27.5,30 27.5,28"/><polygon fill="#fff" points="29.5,30 29.5,32 31.5,32 33.5,32 33.5,30 31.5,30"/><polygon fill="#fff" points="11.5,44 13.5,44 13.5,42 11.5,42 11.5,40 13.5,40 13.5,38 15.5,38 15.5,36 17.5,36 17.5,34 19.5,34 19.5,32 21.5,32 21.5,30 19.5,30 17.5,30 15.5,30 15.5,32 13.5,32 13.5,34 11.5,34 11.5,36 11.5,38 9.5,38 9.5,40 9.5,42 9.5,44 9.5,46 11.5,46"/><rect x="11.5" y="46" fill="#fff" width="2" height="2"/><rect x="13.5" y="40" fill="#fff" width="2" height="2"/><rect x="13.5" y="44" fill="#fff" width="2" height="2"/><rect x="13.5" y="48" fill="#fff" width="2" height="2"/><rect x="15.5" y="38" fill="#fff" width="2" height="2"/><rect x="17.5" y="36" fill="#fff" width="2" height="2"/><rect x="19.5" y="34" fill="#fff" width="2" height="2"/><rect x="19.5" y="52" fill="#A3C4C6" width="2" height="2"/><rect x="21.5" y="50" fill="#A3C4C6" width="2" height="2"/><polygon fill="#fff" points="21.5,32 21.5,34 23.5,34 25.5,34 25.5,32 23.5,32"/><polygon fill="#fff" points="11.5,26 11.5,24 9.5,24 9.5,22 7.5,22 7.5,24 7.5,26 9.5,26"/><polygon fill="#fff" points="9.5,22 11.5,22 11.5,20 13.5,20 13.5,18 15.5,18 15.5,16 17.5,16 17.5,14 15.5,14 13.5,14 13.5,16 11.5,16 11.5,18 9.5,18 9.5,20"/><polygon fill="#A3C4C6" points="23.5,6 23.5,8 23.5,10 21.5,10 21.5,12 19.5,12 17.5,12 17.5,14 19.5,14 21.5,14 23.5,14 23.5,12 25.5,12 25.5,10 27.5,10 27.5,8 27.5,6 25.5,6"/><polygon fill="#fff" points="19.5,4 21.5,4 23.5,4 23.5,2 21.5,2 19.5,2 17.5,2 17.5,4"/><rect x="15.5" y="4" fill="#fff" width="2" height="2"/><rect x="13.5" y="6" fill="#fff" width="2" height="2"/><rect x="13.5" y="8" fill="#A3C4C6" width="2" height="2"/><rect x="15.5" y="18" fill="#fff" width="2" height="2"/><rect x="13.5" y="20" fill="#fff" width="2" height="2"/><rect x="11.5" y="22" fill="#fff" width="2" height="2"/><polygon fill="#A3C4C6" points="13.5,28 13.5,26 11.5,26 9.5,26 9.5,28 9.5,30 11.5,30 11.5,28"/><rect x="27.5" y="22" fill="#A3C4C6" width="2" height="2"/><polygon fill="#A3C4C6" points="31.5,24 29.5,24 29.5,26 27.5,26 27.5,24 25.5,24 25.5,26 23.5,26 23.5,28 23.5,30 25.5,30 25.5,28 27.5,28 29.5,28 29.5,30 31.5,30 31.5,28 31.5,26 33.5,26 33.5,24 33.5,22 31.5,22"/><rect x="29.5" y="20" fill="#A3C4C6" width="2" height="2"/><rect x="27.5" y="18" fill="#A3C4C6" width="2" height="2"/><rect x="25.5" y="46" fill="#A3C4C6" width="2" height="2"/><rect x="27.5" y="48" fill="#A3C4C6" width="2" height="2"/><rect x="25.5" y="50" fill="#A3C4C6" width="2" height="2"/><rect x="29.5" y="46" fill="#A3C4C6" width="2" height="2"/><rect x="31.5" y="44" fill="#A3C4C6" width="2" height="2"/><rect x="29.5" y="42" fill="#A3C4C6" width="2" height="2"/><polygon fill="#A3C4C6" points="39.5,42 39.5,40 39.5,38 37.5,38 37.5,36 35.5,36 35.5,38 33.5,38 33.5,40 35.5,40 35.5,42 33.5,42 33.5,44 35.5,44 35.5,46 33.5,46 33.5,48 31.5,48 31.5,50 29.5,50 29.5,52 27.5,52 27.5,54 29.5,54 31.5,54 33.5,54 33.5,52 35.5,52 35.5,50 37.5,50 37.5,48 37.5,46 39.5,46 39.5,44"/><rect x="21.5" y="28" fill="#fff" width="2" height="2"/><rect x="23.5" y="52" fill="#A3C4C6" width="2" height="2"/><polygon fill="#A3C4C6" points="19.5,28 17.5,28 17.5,30 19.5,30 21.5,30 21.5,28"/><rect x="19.5" y="8" fill="#F7941E" width="2" height="2"/><rect x="19.5" y="52" fill="#A3C4C6" width="2" height="2"/><rect x="21.5" y="50" fill="#A3C4C6" width="2" height="2"/><rect x="25.5" y="46" fill="#A3C4C6" width="2" height="2"/><rect x="27.5" y="48" fill="#A3C4C6" width="2" height="2"/><rect x="25.5" y="50" fill="#A3C4C6" width="2" height="2"/><rect x="29.5" y="46" fill="#A3C4C6" width="2" height="2"/><rect x="31.5" y="44" fill="#A3C4C6" width="2" height="2"/><rect x="29.5" y="42" fill="#A3C4C6" width="2" height="2"/><rect x="23.5" y="52" fill="#A3C4C6" width="2" height="2"/><polygon points="48.5,38 48.5,36 48.5,34 50.5,34 50.5,32 52.5,32 52.5,30 54.5,30 54.5,28 54.5,26 52.5,26 52.5,24 52.5,22 54.5,22 54.5,20 54.5,18 56.5,18 56.5,16 58.5,16 58.5,14 60.5,14 60.5,12 60.5,10 58.5,10 58.5,8 58.5,6 60.5,6 60.5,4 62.5,4 62.5,2 64.5,2 64.5,0 66.5,0 68.5,0 70.5,0 70.5,2 72.5,2 72.5,4 74.5,4 74.5,6 76.5,6 76.5,8 76.5,10 74.5,10 74.5,12 74.5,14 76.5,14 76.5,16 78.5,16 78.5,18 80.5,18 80.5,20 80.5,22 82.5,22 82.5,24 82.5,26 80.5,26 80.5,28 80.5,30 78.5,30 76.5,30 74.5,30 74.5,32 76.5,32 76.5,34 78.5,34 78.5,36 78.5,38 80.5,38 80.5,40 80.5,42 80.5,44 80.5,46 78.5,46 78.5,48 78.5,50 76.5,50 76.5,52 74.5,52 74.5,54 72.5,54 72.5,56 70.5,56 68.5,56 66.5,56 64.5,56 62.5,56 60.5,56 58.5,56 56.5,56 54.5,56 54.5,54 52.5,54 52.5,52 50.5,52 50.5,50 48.5,50 48.5,48 48.5,46 46.5,46 46.5,44 46.5,42 46.5,40 46.5,38"/><g fill="#E7ECF0"><path d="M48.5 38v8h2v4h2v2h2v2h18v-2h2v-2h2v-4h2v-8h-2v-4h-2v-2h-2v-4h4v2h2v-4h2v-4h-2v-4h-2v-2h-2v-2h-4v-2h2v-2h2v-4h-2v-2h-2v2h-2v2h2v2h-2v2h-2v-2h-2v-2h2v-2h-2v-2h-2v2h-2v4h2v2h2v2h-4v2h-2v2h-2v4h-2v4h2v4h-2v4h-2v2h-2v2h-2zm16-2h-2v-2h2v2zm2-20h2v2h-2v-2zm2 8v2h-2v-2h2zm-4 20h-2v-2h2v2zm-6-14v-2h2v2h-2z"/><polygon points="68.5,6 66.5,6 66.5,4 64.5,4 64.5,2 66.5,2 68.5,2 70.5,2 70.5,4 68.5,4"/><rect x="66.5" y="8" width="2" height="2"/></g><polygon fill="#fff" points="64.5,28 64.5,30 64.5,32 66.5,32 66.5,30 66.5,28"/><polygon fill="#fff" points="68.5,30 68.5,32 70.5,32 72.5,32 72.5,30 70.5,30"/><polygon fill="#fff" points="50.5,44 52.5,44 52.5,42 50.5,42 50.5,40 52.5,40 52.5,38 54.5,38 54.5,36 56.5,36 56.5,34 58.5,34 58.5,32 60.5,32 60.5,30 58.5,30 56.5,30 54.5,30 54.5,32 52.5,32 52.5,34 50.5,34 50.5,36 50.5,38 48.5,38 48.5,40 48.5,42 48.5,44 48.5,46 50.5,46"/><rect x="50.5" y="46" fill="#fff" width="2" height="2"/><rect x="52.5" y="40" fill="#fff" width="2" height="2"/><rect x="52.5" y="44" fill="#fff" width="2" height="2"/><rect x="52.5" y="48" fill="#fff" width="2" height="2"/><rect x="54.5" y="38" fill="#fff" width="2" height="2"/><rect x="56.5" y="36" fill="#fff" width="2" height="2"/><rect x="58.5" y="34" fill="#fff" width="2" height="2"/><rect x="72.5" y="32" fill="#fff" width="2" height="2"/><rect x="74.5" y="34" fill="#fff" width="2" height="2"/><rect x="33.5" y="32" fill="#fff" width="2" height="2"/><rect x="35.5" y="34" fill="#fff" width="2" height="2"/><rect x="58.5" y="52" fill="#A3C4C6" width="2" height="2"/><rect x="60.5" y="50" fill="#A3C4C6" width="2" height="2"/><polygon fill="#fff" points="60.5,32 60.5,34 62.5,34 64.5,34 64.5,32 62.5,32"/><polygon fill="#fff" points="58.5,26 58.5,24 56.5,24 56.5,22 54.5,22 54.5,24 54.5,26 56.5,26"/><polygon fill="#fff" points="56.5,22 58.5,22 58.5,20 60.5,20 60.5,18 62.5,18 62.5,16 64.5,16 64.5,14 62.5,14 60.5,14 60.5,16 58.5,16 58.5,18 56.5,18 56.5,20"/><polygon fill="#A3C4C6" points="70.5,6 70.5,8 70.5,10 68.5,10 68.5,12 66.5,12 64.5,12 64.5,14 66.5,14 68.5,14 70.5,14 70.5,12 72.5,12 72.5,10 74.5,10 74.5,8 74.5,6 72.5,6"/><polygon fill="#fff" points="70.5,4 70.5,2 68.5,2 66.5,2 64.5,2 64.5,4 66.5,4 68.5,4"/><rect x="62.5" y="4" fill="#fff" width="2" height="2"/><rect x="60.5" y="6" fill="#fff" width="2" height="2"/><rect x="60.5" y="8" fill="#A3C4C6" width="2" height="2"/><rect x="62.5" y="18" fill="#fff" width="2" height="2"/><rect x="60.5" y="20" fill="#fff" width="2" height="2"/><rect x="58.5" y="22" fill="#fff" width="2" height="2"/><polygon fill="#A3C4C6" points="60.5,28 60.5,26 58.5,26 56.5,26 56.5,28 56.5,30 58.5,30 58.5,28"/><rect x="74.5" y="22" fill="#A3C4C6" width="2" height="2"/><polygon fill="#A3C4C6" points="78.5,24 76.5,24 76.5,26 74.5,26 74.5,24 72.5,24 72.5,26 70.5,26 70.5,28 70.5,30 72.5,30 72.5,28 74.5,28 76.5,28 76.5,30 78.5,30 78.5,28 78.5,26 80.5,26 80.5,24 80.5,22 78.5,22"/><rect x="76.5" y="20" fill="#A3C4C6" width="2" height="2"/><rect x="74.5" y="18" fill="#A3C4C6" width="2" height="2"/><rect x="64.5" y="46" fill="#A3C4C6" width="2" height="2"/><rect x="66.5" y="48" fill="#A3C4C6" width="2" height="2"/><rect x="64.5" y="50" fill="#A3C4C6" width="2" height="2"/><rect x="68.5" y="46" fill="#A3C4C6" width="2" height="2"/><rect x="70.5" y="44" fill="#A3C4C6" width="2" height="2"/><rect x="68.5" y="42" fill="#A3C4C6" width="2" height="2"/><polygon fill="#A3C4C6" points="78.5,42 78.5,40 78.5,38 76.5,38 76.5,36 74.5,36 74.5,38 72.5,38 72.5,40 74.5,40 74.5,42 72.5,42 72.5,44 74.5,44 74.5,46 72.5,46 72.5,48 70.5,48 70.5,50 68.5,50 68.5,52 66.5,52 66.5,54 68.5,54 70.5,54 72.5,54 72.5,52 74.5,52 74.5,50 76.5,50 76.5,48 76.5,46 78.5,46 78.5,44"/><rect x="68.5" y="28" fill="#fff" width="2" height="2"/><rect x="62.5" y="52" fill="#A3C4C6" width="2" height="2"/><polygon fill="#A3C4C6" points="66.5,28 64.5,28 64.5,30 66.5,30 68.5,30 68.5,28"/><rect x="66.5" y="8" fill="#F7941E" width="2" height="2"/><rect x="58.5" y="52" fill="#A3C4C6" width="2" height="2"/><rect x="60.5" y="50" fill="#A3C4C6" width="2" height="2"/><rect x="64.5" y="46" fill="#A3C4C6" width="2" height="2"/><rect x="66.5" y="48" fill="#A3C4C6" width="2" height="2"/><rect x="64.5" y="50" fill="#A3C4C6" width="2" height="2"/><rect x="68.5" y="46" fill="#A3C4C6" width="2" height="2"/><rect x="70.5" y="44" fill="#A3C4C6" width="2" height="2"/><rect x="68.5" y="42" fill="#A3C4C6" width="2" height="2"/><polygon fill="#A3C4C6" points="78.5,42 78.5,40 78.5,38 76.5,38 76.5,36 74.5,36 74.5,38 72.5,38 72.5,40 74.5,40 74.5,42 72.5,42 72.5,44 74.5,44 74.5,46 72.5,46 72.5,48 70.5,48 70.5,50 68.5,50 68.5,52 66.5,52 66.5,54 68.5,54 70.5,54 72.5,54 72.5,52 74.5,52 74.5,50 76.5,50 76.5,48 76.5,46 78.5,46 78.5,44"/><rect x="62.5" y="52" fill="#A3C4C6" width="2" height="2"/></svg>