<svg xmlns="http://www.w3.org/2000/svg" width="200" height="132"><polygon fill="#C9262F" points="18,90 20,90 22,90 22,88 20,88 20,86 18,86 18,88 16,88 16,90 16,92 18,92"/><polygon fill="#C9262F" points="28,84 28,82 26,82 26,84 26,86 28,86 30,86 30,84"/><rect x="34" y="80" fill="#C9262F" width="2" height="2"/><polygon fill="#C9262F" points="30,84 32,84 34,84 34,82 32,82 32,80 30,80 30,82"/><polygon fill="#C9262F" points="24,86 24,84 22,84 22,86 22,88 24,88 26,88 26,86"/><rect x="24" y="78" fill="#C9262F" width="2" height="2"/><rect x="22" y="76" fill="#C9262F" width="2" height="2"/><rect x="26" y="76" fill="#C9262F" width="2" height="2"/><polygon fill="#C9262F" points="22,80 22,78 20,78 20,80 20,82 22,82"/><polygon fill="#424143" points="24,94 24,92 22,92 22,94 22,96 24,96"/><polygon fill="#424143" points="22,106 22,104 22,102 22,100 22,98 22,96 20,96 20,98 20,100 20,102 20,104 20,106 20,108 22,108"/><polygon fill="#424143" points="36,106 36,104 36,102 36,100 36,98 34,98 34,100 34,102 34,104 34,106 34,108 34,110 36,110 36,108"/><polygon fill="#424143" points="34,86 32,86 32,88 30,88 30,90 32,90 34,90 36,90 36,92 36,94 36,96 36,98 38,98 38,96 38,94 38,92 38,90 38,88 38,86 36,86"/><polygon fill="#424143" points="32,112 32,114 32,116 32,118 30,118 28,118 26,118 26,116 24,116 22,116 22,114 20,114 20,112 20,110 20,108 18,108 18,110 18,112 18,114 18,116 18,118 18,120 20,120 20,122 22,122 24,122 26,122 26,124 28,124 30,124 32,124 32,122 34,122 34,120 34,118 34,116 34,114 34,112 34,110 32,110"/><polygon fill="#010101" points="40,108 40,106 38,106 38,104 38,102 38,100 38,98 36,98 36,100 36,102 36,104 36,106 36,108 36,110 38,110 38,108"/><rect x="38" y="110" fill="#010101" width="2" height="2"/><rect x="40" y="112" fill="#010101" width="2" height="2"/><polygon fill="#010101" points="42,108 40,108 40,110 42,110 44,110 44,108"/><rect x="38" y="108" fill="#2075BC" width="2" height="2"/><polygon fill="#939598" points="34,124 34,126 36,126 36,124 36,122 34,122"/><rect x="32" y="126" fill="#939598" width="2" height="2"/><polygon fill="#010101" points="36,126 38,126 38,124 38,122 36,122 36,124"/><rect x="34" y="126" fill="#010101" width="2" height="2"/><polygon fill="#010101" points="32,130 32,132 34,132 34,130 34,128 32,128"/><polygon fill="#010101" points="34,126 34,124 34,122 32,122 32,124 30,124 28,124 26,124 26,122 24,122 22,122 20,122 20,124 20,126 22,126 24,126 26,126 28,126 30,126 30,128 32,128 32,126"/><polygon fill="#010101" points="18,116 18,114 18,112 18,110 18,108 16,108 16,110 16,112 16,114 16,116 16,118 16,120 18,120 18,118"/><polygon fill="#010101" points="34,112 34,114 34,116 34,118 34,120 34,122 36,122 36,120 36,118 36,116 36,114 36,112 36,110 34,110"/><polygon fill="#010101" points="38,90 38,92 38,94 38,96 38,98 40,98 40,96 40,94 40,92 40,90 40,88 40,86 38,86 38,88"/><polygon fill="#C7AB2E" points="30,92 30,90 28,90 26,90 26,92 28,92"/><polygon fill="#C7AB2E" points="32,94 34,94 34,92 32,92 30,92 30,94"/><polygon fill="#FFDE11" points="34,94 32,94 30,94 30,92 28,92 26,92 26,94 26,96 24,96 24,98 24,100 24,102 24,104 24,106 24,108 22,108 22,110 22,112 22,114 24,114 26,114 26,116 28,116 30,116 30,114 30,112 30,110 32,110 32,108 32,106 32,104 32,102 32,100 32,98 34,98 34,96"/><polygon fill="#010101" points="36,94 36,92 36,90 34,90 32,90 30,90 30,92 32,92 34,92 34,94 34,96 34,98 36,98 36,96"/><polygon fill="#010101" points="32,100 32,102 32,104 32,106 32,108 32,110 34,110 34,108 34,106 34,104 34,102 34,100 34,98 32,98"/><polygon fill="#010101" points="28,118 30,118 32,118 32,116 32,114 32,112 32,110 30,110 30,112 30,114 30,116 28,116 26,116 26,118"/><polygon fill="#010101" points="24,116 26,116 26,114 24,114 22,114 22,116"/><polygon fill="#010101" points="20,112 20,114 22,114 22,112 22,110 22,108 20,108 20,110"/><polygon fill="#010101" points="22,100 22,102 22,104 22,106 22,108 24,108 24,106 24,104 24,102 24,100 24,98 24,96 22,96 22,98"/><polygon fill="#010101" points="16,106 16,104 16,102 14,102 12,102 12,104 14,104 14,106 14,108 16,108"/><polygon fill="#010101" points="14,116 14,114 14,112 14,110 14,108 12,108 12,110 12,112 12,114 12,116 12,118 12,120 14,120 14,118"/><rect x="18" y="94" fill="#939598" width="2" height="2"/><polygon fill="#939598" points="18,106 18,104 16,104 16,106 16,108 18,108"/><polygon fill="#939598" points="16,118 16,116 16,114 16,112 16,110 16,108 14,108 14,110 14,112 14,114 14,116 14,118 14,120 16,120"/><polygon fill="#939598" points="20,122 18,122 18,124 18,126 20,126 20,124"/><rect x="16" y="120" fill="#939598" width="2" height="2"/><rect x="16" y="126" fill="#939598" width="2" height="2"/><rect x="18" y="126" fill="#010101" width="2" height="2"/><polygon fill="#010101" points="16,130 16,132 18,132 18,130 18,128 16,128"/><rect x="14" y="126" fill="#010101" width="2" height="2"/><polygon fill="#010101" points="18,124 18,122 16,122 16,124 16,126 18,126"/><rect x="18" y="120" fill="#010101" width="2" height="2"/><rect x="14" y="120" fill="#010101" width="2" height="2"/><polygon fill="#010101" points="16,100 16,98 18,98 18,100 16,100 16,102 18,102 18,104 18,106 18,108 20,108 20,106 20,104 20,102 20,100 20,98 20,96 18,96 18,94 20,94 20,96 22,96 22,94 22,92 24,92 24,94 24,96 26,96 26,94 26,92 26,90 28,90 30,90 30,88 32,88 32,86 30,86 28,86 28,88 26,88 24,88 24,90 22,90 20,90 20,92 18,92 16,92 16,94 16,96 14,96 14,98 12,98 12,100 14,100"/><rect x="12" y="100" fill="#2075BC" width="2" height="2"/><rect x="14" y="100" fill="#939598" width="2" height="2"/><rect x="16" y="98" fill="#939598" width="2" height="2"/><rect x="16" y="102" fill="#6E6F72" width="2" height="2"/><rect x="10" y="102" fill="#939598" width="2" height="2"/><rect x="10" y="100" fill="#010101" width="2" height="2"/><rect x="8" y="102" fill="#010101" width="2" height="2"/><rect x="10" y="104" fill="#010101" width="2" height="2"/><rect x="8" y="106" fill="#010101" width="2" height="2"/><polygon fill="#010101" points="6,104 4,104 4,106 6,106 8,106 8,104"/><rect x="6" y="108" fill="#010101" width="2" height="2"/><rect x="8" y="104" fill="#2075BC" width="2" height="2"/><polygon fill="#010101" points="16,88 18,88 18,86 16,86 16,84 16,82 14,82 14,84 14,86 14,88 14,90 14,92 16,92 16,90"/><polygon fill="#010101" points="22,84 20,84 18,84 18,86 20,86 22,86"/><polygon fill="#010101" points="22,82 22,84 24,84 26,84 26,82 24,82"/><polygon fill="#010101" points="28,82 30,82 30,80 28,80 26,80 26,82"/><polygon fill="#010101" points="30,78 30,80 32,80 34,80 36,80 36,78 34,78 34,76 32,76 32,78"/><polygon fill="#010101" points="30,76 32,76 32,74 30,74 28,74 28,76"/><polygon fill="#010101" points="26,74 28,74 28,72 26,72 24,72 22,72 22,74 24,74"/><rect x="20" y="74" fill="#010101" width="2" height="2"/><rect x="18" y="76" fill="#010101" width="2" height="2"/><polygon fill="#010101" points="18,80 18,78 16,78 16,80 16,82 18,82"/><polygon fill="#010101" points="36,84 34,84 32,84 32,86 34,86 36,86 38,86 38,84 38,82 38,80 36,80 36,82"/><rect x="16" y="82" fill="#EF664F" width="2" height="2"/><rect x="16" y="84" fill="#A61F24" width="2" height="2"/><polygon fill="#EF664F" points="18,82 20,82 20,80 20,78 18,78 18,80"/><rect x="20" y="86" fill="#EF664F" width="2" height="2"/><rect x="24" y="84" fill="#EF664F" width="2" height="2"/><rect x="30" y="84" fill="#EF664F" width="2" height="2"/><rect x="26" y="86" fill="#EF664F" width="2" height="2"/><rect x="22" y="88" fill="#EF664F" width="2" height="2"/><rect x="18" y="90" fill="#EF664F" width="2" height="2"/><rect x="28" y="82" fill="#EF664F" width="2" height="2"/><rect x="34" y="82" fill="#EF664F" width="2" height="2"/><rect x="32" y="80" fill="#EF664F" width="2" height="2"/><polygon fill="#A61F24" points="22,84 22,82 20,82 18,82 18,84 20,84"/><rect x="20" y="76" fill="#EF664F" width="2" height="2"/><polygon fill="#A61F24" points="22,82 24,82 26,82 26,80 24,80 24,78 22,78 22,80"/><rect x="24" y="76" fill="#A61F24" width="2" height="2"/><polygon fill="#A61F24" points="28,76 28,78 26,78 26,80 28,80 30,80 30,78 32,78 32,76 30,76"/><polygon fill="#EF664F" points="24,76 26,76 28,76 28,74 26,74 24,74 22,74 22,76"/><rect x="60" y="104" width="2" height="2" fill="none"/><rect x="70" y="86" fill="#EF664F" width="2" height="2"/><rect x="74" y="84" fill="#EF664F" width="2" height="2"/><rect x="72" y="82" fill="#EF664F" width="2" height="2"/><rect x="78" y="82" fill="#EF664F" width="2" height="2"/><rect x="66" y="88" fill="#EF664F" width="2" height="2"/><rect x="82" y="80" fill="#EF664F" width="2" height="2"/><rect x="76" y="80" fill="#EF664F" width="2" height="2"/><rect x="68" y="84" fill="#EF664F" width="2" height="2"/><rect x="80" y="78" fill="#EF664F" width="2" height="2"/><rect x="72" y="76" fill="#C9262F" width="2" height="2"/><polygon fill="#C9262F" points="70,78 70,76 68,76 68,78 68,80 70,80"/><rect x="70" y="74" fill="#C9262F" width="2" height="2"/><rect x="74" y="74" fill="#C9262F" width="2" height="2"/><polygon fill="#424143" points="72,92 72,90 70,90 70,92 70,94 72,94"/><polygon fill="#424143" points="82,84 80,84 80,86 78,86 78,88 80,88 82,88 84,88 84,90 84,92 84,94 84,96 86,96 86,94 86,92 86,90 86,88 86,86 86,84 84,84"/><polygon fill="#424143" points="80,110 80,112 80,114 80,116 78,116 76,116 74,116 74,114 72,114 70,114 70,112 68,112 68,110 68,108 68,106 66,106 66,108 66,110 66,112 66,114 66,116 66,118 68,118 68,120 70,120 72,120 74,120 74,122 76,122 78,122 80,122 80,120 82,120 82,118 82,116 82,114 82,112 82,110 82,108 80,108"/><polygon fill="#424143" points="70,104 70,102 70,100 70,98 70,96 70,94 68,94 68,96 68,98 68,100 68,102 68,104 68,106 70,106"/><polygon fill="#424143" points="82,98 82,100 82,102 82,104 82,106 82,108 84,108 84,106 84,104 84,102 84,100 84,98 84,96 82,96"/><polygon fill="#939598" points="82,124 82,126 84,126 84,124 84,122 82,122"/><rect x="80" y="126" fill="#939598" width="2" height="2"/><polygon fill="#010101" points="84,126 86,126 86,124 86,122 84,122 84,124"/><rect x="82" y="126" fill="#010101" width="2" height="2"/><polygon fill="#010101" points="80,130 80,132 82,132 82,130 82,128 80,128"/><rect x="78" y="126" fill="#010101" width="2" height="2"/><polygon fill="#010101" points="86,112 86,114 88,114 88,112 88,110 86,110"/><rect x="88" y="108" fill="#010101" width="2" height="2"/><rect x="90" y="110" fill="#010101" width="2" height="2"/><polygon fill="#010101" points="88,108 88,106 88,104 86,104 86,102 86,100 86,98 86,96 84,96 84,98 84,100 84,102 84,104 84,106 84,108 82,108 82,110 82,112 82,114 82,116 82,118 82,120 80,120 80,122 78,122 76,122 74,122 74,120 72,120 70,120 68,120 68,118 66,118 66,116 66,114 66,112 66,110 66,108 66,106 64,106 64,108 64,110 64,112 64,114 64,116 64,118 62,118 62,120 62,122 64,122 64,120 66,120 66,122 68,122 68,124 68,126 70,126 70,124 72,124 74,124 76,124 78,124 80,124 80,126 82,126 82,124 82,122 84,122 84,120 84,118 84,116 84,114 84,112 84,110 86,110 86,108"/><rect x="86" y="108" fill="#2075BC" width="2" height="2"/><polygon fill="#010101" points="86,88 86,90 86,92 86,94 86,96 88,96 88,94 88,92 88,90 88,88 88,86 88,84 86,84 86,86"/><polygon fill="#C7AB2E" points="78,90 78,88 76,88 74,88 74,90 76,90"/><polygon fill="#C7AB2E" points="80,92 82,92 82,90 80,90 78,90 78,92"/><polygon fill="#FFDE11" points="72,98 72,100 72,102 72,104 72,106 70,106 70,108 70,110 70,112 72,112 74,112 74,114 76,114 78,114 78,112 78,110 78,108 80,108 80,106 80,104 80,102 80,100 80,98 80,96 82,96 82,94 82,92 80,92 78,92 78,90 76,90 74,90 74,92 74,94 72,94 72,96"/><polygon fill="#010101" points="84,92 84,90 84,88 82,88 80,88 78,88 78,90 80,90 82,90 82,92 82,94 82,96 84,96 84,94"/><polygon fill="#010101" points="82,104 82,102 82,100 82,98 82,96 80,96 80,98 80,100 80,102 80,104 80,106 80,108 82,108 82,106"/><polygon fill="#010101" points="78,110 78,112 78,114 76,114 74,114 74,116 76,116 78,116 80,116 80,114 80,112 80,110 80,108 78,108"/><polygon fill="#010101" points="72,112 70,112 70,114 72,114 74,114 74,112"/><polygon fill="#010101" points="68,110 68,112 70,112 70,110 70,108 70,106 68,106 68,108"/><polygon fill="#010101" points="70,98 70,100 70,102 70,104 70,106 72,106 72,104 72,102 72,100 72,98 72,96 72,94 70,94 70,96"/><polygon fill="#010101" points="62,114 62,112 62,110 62,108 62,106 60,106 60,104 58,104 58,106 58,108 60,108 60,110 60,112 60,114 60,116 60,118 62,118 62,116"/><rect x="66" y="92" fill="#939598" width="2" height="2"/><polygon fill="#939598" points="66,102 64,102 64,104 64,106 66,106 66,104"/><polygon fill="#939598" points="64,116 64,114 64,112 64,110 64,108 64,106 62,106 62,108 62,110 62,112 62,114 62,116 62,118 64,118"/><polygon fill="#939598" points="68,122 66,122 66,124 66,126 68,126 68,124"/><rect x="64" y="120" fill="#939598" width="2" height="2"/><rect x="64" y="126" fill="#939598" width="2" height="2"/><rect x="66" y="126" fill="#010101" width="2" height="2"/><polygon fill="#010101" points="64,130 64,132 66,132 66,130 66,128 64,128"/><rect x="62" y="126" fill="#010101" width="2" height="2"/><polygon fill="#010101" points="66,124 66,122 64,122 64,124 64,126 66,126"/><polygon fill="#010101" points="64,98 64,96 66,96 66,98 64,98 64,100 66,100 66,102 66,104 66,106 68,106 68,104 68,102 68,100 68,98 68,96 68,94 66,94 66,92 68,92 68,94 70,94 70,92 70,90 72,90 72,92 72,94 74,94 74,92 74,90 74,88 76,88 78,88 78,86 80,86 80,84 78,84 76,84 76,86 74,86 72,86 72,88 70,88 68,88 68,90 66,90 64,90 64,92 64,94 62,94 62,96 60,96 60,98 62,98"/><rect x="60" y="98" fill="#2075BC" width="2" height="2"/><rect x="62" y="98" fill="#939598" width="2" height="2"/><rect x="64" y="96" fill="#939598" width="2" height="2"/><rect x="64" y="100" fill="#6E6F72" width="2" height="2"/><polygon fill="#010101" points="60,102 60,104 62,104 62,106 64,106 64,104 64,102 64,100 62,100 60,100 60,98 58,98 58,100 56,100 56,102 56,104 58,104 58,102"/><rect x="58" y="102" fill="#2075BC" width="2" height="2"/><polygon fill="#010101" points="64,86 66,86 66,84 64,84 64,82 64,80 62,80 62,82 62,84 62,86 62,88 62,90 64,90 64,88"/><polygon fill="#010101" points="70,82 68,82 66,82 66,84 68,84 70,84"/><polygon fill="#010101" points="70,80 70,82 72,82 74,82 74,80 72,80"/><polygon fill="#010101" points="76,80 78,80 78,78 76,78 74,78 74,80"/><polygon fill="#010101" points="78,76 78,78 80,78 82,78 84,78 84,76 82,76 82,74 80,74 80,76"/><polygon fill="#010101" points="78,74 80,74 80,72 78,72 76,72 76,74"/><polygon fill="#010101" points="74,72 76,72 76,70 74,70 72,70 70,70 70,72 72,72"/><rect x="68" y="72" fill="#010101" width="2" height="2"/><rect x="66" y="74" fill="#010101" width="2" height="2"/><polygon fill="#010101" points="66,78 66,76 64,76 64,78 64,80 66,80"/><polygon fill="#010101" points="84,82 82,82 80,82 80,84 82,84 84,84 86,84 86,82 86,80 86,78 84,78 84,80"/><rect x="64" y="80" fill="#EF664F" width="2" height="2"/><rect x="64" y="82" fill="#A61F24" width="2" height="2"/><polygon fill="#EF664F" points="66,80 68,80 68,78 68,76 66,76 66,78"/><polygon fill="#A61F24" points="70,82 70,80 68,80 66,80 66,82 68,82"/><rect x="68" y="74" fill="#EF664F" width="2" height="2"/><polygon fill="#A61F24" points="70,80 72,80 74,80 74,78 72,78 72,76 70,76 70,78"/><rect x="72" y="74" fill="#A61F24" width="2" height="2"/><polygon fill="#A61F24" points="76,74 76,76 74,76 74,78 76,78 78,78 78,76 80,76 80,74 78,74"/><polygon fill="#EF664F" points="72,74 74,74 76,74 76,72 74,72 72,72 70,72 70,74"/><polygon fill="#C9262F" points="66,88 68,88 70,88 70,86 68,86 68,84 66,84 66,86 64,86 64,88 64,90 66,90"/><polygon fill="#C9262F" points="72,84 72,82 70,82 70,84 70,86 72,86 74,86 74,84"/><polygon fill="#C9262F" points="76,82 76,80 74,80 74,82 74,84 76,84 78,84 78,82"/><polygon fill="#C9262F" points="78,82 80,82 82,82 82,80 80,80 80,78 78,78 78,80"/><rect x="82" y="78" fill="#C9262F" width="2" height="2"/><polygon fill="#C9262F" points="26,14 26,12 24,12 22,12 22,14 24,14"/><polygon fill="#C9262F" points="28,10 26,10 26,12 28,12 30,12 30,10 30,8 28,8"/><polygon fill="#EF664F" points="24,20 24,18 24,16 22,16 22,18 22,20"/><polygon fill="#EF664F" points="20,18 18,18 18,20 18,22 20,22 20,20"/><polygon fill="#EF664F" points="16,22 16,20 14,20 14,22 14,24 16,24"/><polygon fill="#EF664F" points="28,16 26,16 26,18 26,20 28,20 28,18"/><polygon fill="#EF664F" points="30,18 30,20 32,20 32,18 32,16 30,16"/><polygon fill="#EF664F" points="34,22 36,22 36,20 36,18 34,18 34,20"/><polygon fill="#424143" points="28,50 28,52 26,52 26,50 24,50 22,50 22,48 20,48 18,48 18,46 16,46 16,44 14,44 14,46 14,48 14,50 16,50 16,52 18,52 20,52 20,54 22,54 24,54 24,56 26,56 28,56 28,54 30,54 30,52 30,50 30,48 28,48"/><polygon fill="#424143" points="34,32 34,34 34,36 36,36 36,34 36,32 36,30 34,30"/><polygon fill="#424143" points="24,24 24,22 22,22 22,24 22,26 24,26"/><polygon fill="#424143" points="34,24 32,24 32,26 34,26 36,26 36,28 36,30 38,30 38,28 38,26 38,24 36,24"/><polygon fill="#424143" points="28,22 28,24 30,24 32,24 32,22 30,22"/><polygon fill="#424143" points="18,40 18,38 16,38 16,40 16,42 16,44 18,44 18,42"/><polygon fill="#424143" points="32,44 32,42 30,42 30,44 30,46 30,48 32,48 32,46"/><polygon fill="#424143" points="20,30 20,32 22,32 22,30 22,28 22,26 20,26 20,28"/><polygon fill="#424143" points="20,34 20,32 18,32 18,34 18,36 18,38 20,38 20,36"/><polygon fill="#424143" points="34,38 34,36 32,36 32,38 32,40 32,42 34,42 34,40"/><polygon fill="#010101" points="16,36 16,38 18,38 18,36 18,34 18,32 16,32 16,34"/><polygon fill="#010101" points="18,30 18,32 20,32 20,30 20,28 20,26 18,26 18,28"/><polygon fill="#010101" points="14,36 14,34 14,32 12,32 10,32 10,34 12,34 12,36 12,38 14,38"/><polygon fill="#010101" points="24,24 24,26 26,26 26,24 28,24 28,22 30,22 32,22 32,20 30,20 28,20 26,20 24,20 22,20 22,22 24,22"/><polygon fill="#010101" points="22,30 22,32 24,32 24,30 24,28 24,26 22,26 22,28"/><polygon fill="#010101" points="20,34 20,36 20,38 22,38 22,36 22,34 22,32 20,32"/><polygon fill="#010101" points="18,40 18,42 18,44 20,44 20,42 20,40 20,38 18,38"/><rect x="16" y="44" fill="#010101" width="2" height="2"/><polygon fill="#010101" points="20,48 22,48 22,46 20,46 18,46 18,48"/><polygon fill="#010101" points="24,50 26,50 26,52 28,52 28,50 28,48 26,48 24,48 22,48 22,50"/><polygon fill="#010101" points="30,38 30,40 30,42 32,42 32,40 32,38 32,36 30,36"/><polygon fill="#010101" points="34,32 34,30 32,30 32,32 32,34 32,36 34,36 34,34"/><polygon fill="#010101" points="36,26 34,26 32,26 32,28 34,28 34,30 36,30 36,28"/><polygon fill="#010101" points="28,24 28,26 30,26 32,26 32,24 30,24"/><polygon fill="#010101" points="38,28 38,30 40,30 40,28 40,26 40,24 38,24 38,26"/><polygon fill="#010101" points="28,44 28,46 28,48 30,48 30,46 30,44 30,42 28,42"/><polygon fill="#010101" points="32,44 32,46 32,48 34,48 34,46 34,44 34,42 32,42"/><polygon fill="#010101" points="12,42 12,40 12,38 10,38 10,40 10,42 10,44 12,44"/><polygon fill="#010101" points="16,42 16,40 16,38 14,38 14,40 14,42 14,44 16,44"/><polygon fill="#010101" points="30,50 30,52 30,54 32,54 32,52 32,50 32,48 30,48"/><polygon fill="#939598" points="18,30 18,28 16,28 16,30 16,32 18,32"/><polygon fill="#939598" points="16,36 16,34 16,32 14,32 14,34 14,36 14,38 16,38"/><polygon fill="#939598" points="12,42 12,44 14,44 14,42 14,40 14,38 12,38 12,40"/><polygon fill="#939598" points="10,48 10,50 12,50 12,48 12,46 12,44 10,44 10,46"/><rect x="32" y="28" fill="#C7AB2E" width="2" height="2"/><polygon fill="#C7AB2E" points="28,26 28,28 30,28 32,28 32,26 30,26"/><rect x="26" y="24" fill="#C7AB2E" width="2" height="2"/><polygon fill="#FFDE11" points="32,32 32,30 32,28 30,28 28,28 28,26 26,26 24,26 24,28 24,30 24,32 22,32 22,34 22,36 22,38 20,38 20,40 20,42 20,44 18,44 18,46 20,46 22,46 22,48 24,48 26,48 28,48 28,46 28,44 28,42 30,42 30,40 30,38 30,36 32,36 32,34"/><polygon fill="#010101" points="40,40 42,40 42,38 40,38 38,38 38,40"/><rect x="42" y="36" fill="#010101" width="2" height="2"/><polygon fill="#010101" points="46,34 46,32 44,32 44,34 44,36 46,36"/><rect x="46" y="36" fill="#010101" width="2" height="2"/><rect x="48" y="34" fill="#010101" width="2" height="2"/><polygon fill="#010101" points="44,40 42,40 42,42 44,42 46,42 46,40 46,38 44,38"/><polygon fill="#010101" points="38,42 38,44 40,44 42,44 42,42 40,42"/><polygon fill="#010101" points="36,40 36,38 38,38 38,36 38,34 38,32 38,30 36,30 36,32 36,34 36,36 34,36 34,38 34,40 34,42 36,42 38,42 38,40"/><rect x="36" y="38" fill="#939598" width="2" height="2"/><rect x="38" y="40" fill="#2075BC" width="2" height="2"/><rect x="40" y="40" fill="#939598" width="2" height="2"/><rect x="42" y="38" fill="#939598" width="2" height="2"/><rect x="44" y="36" fill="#2075BC" width="2" height="2"/><polygon fill="#010101" points="14,30 14,32 16,32 16,30 16,28 16,26 18,26 18,24 20,24 20,26 22,26 22,24 22,22 20,22 18,22 16,22 16,24 14,24 14,26 14,28 12,28 10,28 10,30 12,30"/><rect x="10" y="30" fill="#2075BC" width="2" height="2"/><rect x="12" y="30" fill="#939598" width="2" height="2"/><rect x="8" y="32" fill="#939598" width="2" height="2"/><rect x="8" y="30" fill="#010101" width="2" height="2"/><rect x="6" y="32" fill="#010101" width="2" height="2"/><rect x="8" y="34" fill="#010101" width="2" height="2"/><rect x="6" y="36" fill="#010101" width="2" height="2"/><polygon fill="#010101" points="4,34 2,34 2,36 4,36 6,36 6,34"/><rect x="4" y="38" fill="#010101" width="2" height="2"/><rect x="6" y="34" fill="#2075BC" width="2" height="2"/><polygon fill="#939598" points="30,56 30,58 32,58 32,56 32,54 30,54"/><rect x="28" y="58" fill="#939598" width="2" height="2"/><polygon fill="#010101" points="32,58 34,58 34,56 34,54 32,54 32,56"/><rect x="30" y="58" fill="#010101" width="2" height="2"/><polygon fill="#010101" points="28,62 28,64 30,64 30,62 30,60 28,60"/><polygon fill="#010101" points="30,58 30,56 30,54 28,54 28,56 26,56 24,56 24,54 22,54 20,54 20,52 18,52 16,52 16,50 14,50 14,48 14,46 14,44 12,44 12,46 12,48 12,50 10,50 10,52 12,52 14,52 14,54 16,54 18,54 18,56 20,56 22,56 22,58 24,58 26,58 26,60 28,60 28,58"/><polygon fill="#939598" points="8,50 6,50 6,52 8,52 10,52 10,50"/><rect x="4" y="48" fill="#939598" width="2" height="2"/><polygon fill="#010101" points="6,52 6,54 8,54 10,54 10,52 8,52"/><rect x="4" y="50" fill="#010101" width="2" height="2"/><polygon fill="#010101" points="2,48 0,48 0,50 2,50 4,50 4,48"/><rect x="4" y="46" fill="#010101" width="2" height="2"/><polygon fill="#010101" points="8,50 10,50 10,48 10,46 10,44 8,44 8,46 8,48 6,48 6,50"/><polygon fill="#010101" points="34,22 32,22 32,24 34,24 36,24 38,24 38,22 36,22"/><polygon fill="#010101" points="14,20 12,20 12,22 12,24 14,24 14,22"/><rect x="14" y="18" fill="#010101" width="2" height="2"/><polygon fill="#010101" points="20,18 22,18 22,16 20,16 18,16 18,14 16,14 16,16 16,18 18,18"/><polygon fill="#010101" points="26,16 28,16 30,16 32,16 32,14 30,14 28,14 26,14 24,14 22,14 22,16 24,16"/><polygon fill="#C9262F" points="30,16 28,16 28,18 28,20 30,20 30,18"/><polygon fill="#C9262F" points="26,16 24,16 24,18 24,20 26,20 26,18"/><polygon fill="#C9262F" points="22,18 20,18 20,20 20,22 22,22 22,20"/><polygon fill="#C9262F" points="16,22 18,22 18,20 18,18 16,18 16,20"/><rect x="18" y="24" fill="#6E6F72" width="2" height="2"/><rect x="16" y="26" fill="#6E6F72" width="2" height="2"/><polygon fill="#A61F24" points="32,22 34,22 34,20 34,18 32,18 32,20"/><polygon fill="#A61F24" points="36,20 36,22 38,22 38,20 38,18 36,18"/><polygon fill="#010101" points="34,16 32,16 32,18 34,18 36,18 38,18 38,16 36,16 36,14 36,12 34,12 34,14"/><rect x="32" y="10" fill="#010101" width="2" height="2"/><rect x="30" y="8" fill="#010101" width="2" height="2"/><polygon fill="#010101" points="30,8 30,6 28,6 26,6 26,8 28,8"/><polygon fill="#010101" points="26,10 26,8 24,8 22,8 22,10 24,10"/><rect x="20" y="10" fill="#010101" width="2" height="2"/><rect x="18" y="12" fill="#010101" width="2" height="2"/><polygon fill="#010101" points="38,22 40,22 40,20 40,18 38,18 38,20"/><polygon fill="#A61F24" points="30,12 28,12 26,12 26,14 28,14 30,14 32,14 32,16 34,16 34,14 34,12 32,12 32,10 30,10"/><rect x="26" y="8" fill="#EF664F" width="2" height="2"/><polygon fill="#EF664F" points="24,12 26,12 26,10 24,10 22,10 22,12"/><rect x="20" y="12" fill="#EF664F" width="2" height="2"/><rect x="20" y="14" fill="#A61F24" width="2" height="2"/><rect x="18" y="14" fill="#EF664F" width="2" height="2"/><polygon fill="#C9262F" points="82,12 82,10 80,10 78,10 76,10 76,12 74,12 74,14 72,14 72,16 72,18 74,18 76,18 78,18 78,16 80,16 82,16 84,16 84,14 84,12"/><polygon fill="#EF664F" points="86,18 86,16 84,16 84,18 82,18 80,18 78,18 78,20 76,20 74,20 72,20 72,22 72,24 74,24 76,24 78,24 78,22 80,22 82,22 84,22 84,20 86,20 86,22 88,22 88,20 88,18"/><polygon fill="#939598" points="78,56 78,58 80,58 82,58 82,56 80,56"/><rect x="82" y="58" fill="#939598" width="2" height="2"/><rect x="82" y="56" fill="#010101" width="2" height="2"/><polygon fill="#010101" points="86,60 88,60 88,58 86,58 84,58 84,60"/><rect x="82" y="60" fill="#010101" width="2" height="2"/><polygon fill="#010101" points="80,58 78,58 78,60 80,60 82,60 82,58"/><rect x="68" y="32" fill="#939598" width="2" height="2"/><rect x="66" y="32" fill="#010101" width="2" height="2"/><polygon fill="#010101" points="64,34 62,34 62,36 64,36 66,36 66,34"/><rect x="64" y="38" fill="#010101" width="2" height="2"/><rect x="66" y="34" fill="#2075BC" width="2" height="2"/><rect x="84" y="22" fill="#424143" width="2" height="2"/><polygon fill="#424143" points="82,26 82,24 80,24 80,26 80,28 82,28"/><polygon fill="#424143" points="78,32 78,34 80,34 80,32 80,30 80,28 78,28 78,30"/><rect x="76" y="40" fill="#424143" width="2" height="2"/><polygon fill="#424143" points="76,44 76,42 74,42 74,44 74,46 74,48 76,48 76,46"/><polygon fill="#424143" points="74,48 72,48 72,50 72,52 72,54 74,54 74,56 76,56 78,56 78,54 78,52 76,52 76,50 74,50"/><polygon fill="#939598" points="72,32 72,34 74,34 74,32 76,32 76,30 76,28 78,28 78,26 76,26 74,26 74,28 72,28 72,30"/><polygon fill="#939598" points="70,52 70,50 70,48 72,48 72,46 72,44 72,42 74,42 74,40 74,38 72,38 72,36 72,34 70,34 70,36 70,38 70,40 70,42 68,42 68,44 68,46 68,48 66,48 66,50 66,52 68,52"/><polygon fill="#010101" points="70,34 72,34 72,32 72,30 72,28 70,28 70,30 68,30 68,32 70,32"/><polygon fill="#010101" points="70,40 70,38 70,36 70,34 68,34 68,36 66,36 66,38 68,38 68,40 68,42 70,42"/><polygon fill="#010101" points="68,46 68,44 68,42 66,42 66,44 66,46 66,48 68,48"/><polygon fill="#010101" points="66,48 64,48 64,50 64,52 66,52 66,50"/><polygon fill="#C7AB2E" points="86,26 84,26 84,28 82,28 82,30 84,30 86,30 86,28"/><polygon fill="#FFDE11" points="82,34 80,34 80,36 82,36 84,36 84,34 84,32 84,30 82,30 82,32"/><polygon fill="#FFDE11" points="80,42 78,42 78,44 78,46 78,48 76,48 76,50 78,50 80,50 80,48 80,46 80,44 82,44 82,42"/><polygon fill="#010101" points="80,32 80,34 82,34 82,32 82,30 82,28 80,28 80,30"/><polygon fill="#010101" points="76,44 76,46 76,48 78,48 78,46 78,44 78,42 76,42"/><rect x="74" y="48" fill="#010101" width="2" height="2"/><polygon fill="#010101" points="76,50 76,52 78,52 78,54 78,56 80,56 82,56 82,54 80,54 80,52 80,50 78,50"/><polygon fill="#010101" points="84,32 84,34 84,36 82,36 80,36 80,34 78,34 78,32 78,30 78,28 76,28 76,30 76,32 74,32 74,34 76,34 76,36 78,36 78,38 80,38 82,38 82,40 84,40 84,38 86,38 86,36 86,34 86,32 86,30 84,30"/><polygon fill="#010101" points="80,46 80,48 80,50 82,50 82,48 82,46 82,44 80,44"/><rect x="74" y="40" fill="#010101" width="2" height="2"/><polygon fill="#010101" points="74,46 74,44 74,42 72,42 72,44 72,46 72,48 74,48"/><polygon fill="#010101" points="76,56 74,56 74,54 72,54 72,52 72,50 72,48 70,48 70,50 70,52 68,52 66,52 66,54 66,56 66,58 68,58 68,56 68,54 70,54 70,56 70,58 72,58 74,58 76,58 78,58 78,56"/><rect x="74" y="34" fill="#939598" width="2" height="2"/><rect x="72" y="34" fill="#010101" width="2" height="2"/><rect x="74" y="36" fill="#010101" width="2" height="2"/><rect x="86" y="38" fill="#010101" width="2" height="2"/><rect x="88" y="36" fill="#010101" width="2" height="2"/><polygon fill="#010101" points="84,42 82,42 82,44 84,44 86,44 86,42 86,40 84,40"/><polygon fill="#010101" points="78,40 78,42 80,42 82,42 82,40 80,40"/><rect x="76" y="38" fill="#010101" width="2" height="2"/><rect x="72" y="36" fill="#6E6F72" width="2" height="2"/><rect x="74" y="38" fill="#6E6F72" width="2" height="2"/><rect x="76" y="36" fill="#939598" width="2" height="2"/><rect x="78" y="38" fill="#2075BC" width="2" height="2"/><rect x="80" y="38" fill="#939598" width="2" height="2"/><rect x="82" y="40" fill="#939598" width="2" height="2"/><rect x="84" y="38" fill="#2075BC" width="2" height="2"/><polygon fill="#939598" points="70,54 68,54 68,56 68,58 70,58 70,56"/><rect x="66" y="58" fill="#939598" width="2" height="2"/><rect x="68" y="58" fill="#010101" width="2" height="2"/><polygon fill="#010101" points="66,62 66,64 68,64 68,62 68,60 66,60"/><rect x="64" y="58" fill="#010101" width="2" height="2"/><rect x="84" y="20" fill="#010101" width="2" height="2"/><polygon fill="#010101" points="86,24 84,24 84,22 82,22 80,22 78,22 78,24 76,24 74,24 72,24 72,26 72,28 74,28 74,26 76,26 78,26 78,28 80,28 80,26 80,24 82,24 82,26 82,28 84,28 84,26 86,26 86,28 86,30 88,30 88,28 88,26 88,24 88,22 86,22"/><polygon fill="#010101" points="88,18 88,20 88,22 90,22 90,20 90,18"/><rect x="86" y="16" fill="#010101" width="2" height="2"/><polygon fill="#010101" points="84,16 86,16 86,14 86,12 84,12 84,14"/><rect x="82" y="10" fill="#010101" width="2" height="2"/><polygon fill="#010101" points="80,10 82,10 82,8 80,8 78,8 76,8 76,10 78,10"/><rect x="74" y="10" fill="#010101" width="2" height="2"/><rect x="72" y="12" fill="#010101" width="2" height="2"/><polygon fill="#010101" points="72,14 70,14 70,16 70,18 72,18 72,16"/><polygon fill="#C9262F" points="84,18 82,18 82,20 82,22 84,22 84,20"/><polygon fill="#C9262F" points="80,18 78,18 78,20 78,22 80,22 80,20"/><polygon fill="#C9262F" points="76,20 74,20 74,22 74,24 76,24 76,22"/><polygon fill="#A61F24" points="88,18 86,18 86,20 86,22 88,22 88,20"/><polygon fill="#010101" points="82,18 84,18 84,16 82,16 80,16 78,16 78,18 80,18"/><polygon fill="#010101" points="76,20 78,20 78,18 76,18 74,18 72,18 72,20 74,20"/><polygon fill="#010101" points="72,20 70,20 70,22 70,24 72,24 72,22"/><rect x="74" y="12" fill="#EF664F" width="2" height="2"/><rect x="72" y="14" fill="#EF664F" width="2" height="2"/><polygon fill="#EF664F" points="78,12 80,12 80,10 78,10 76,10 76,12"/><rect x="76" y="16" fill="#A61F24" width="2" height="2"/><polygon fill="#A61F24" points="82,14 80,14 80,16 82,16 84,16 84,14 84,12 82,12"/><polygon fill="#C9262F" points="130,11.833 128,11.833 128,13.833 126,13.833 126,15.833 128,15.833 130,15.833 130,13.833 132,13.833 132,11.833 132,9.833 130,9.833"/><polygon fill="#EF664F" points="128,17.833 128,19.833 128,21.833 130,21.833 130,19.833 130,17.833"/><polygon fill="#EF664F" points="132,17.833 132,19.833 134,19.833 134,17.833 134,15.833 132,15.833"/><rect x="132" y="43.833" fill="#010101" width="2" height="2"/><rect x="134" y="45.833" fill="#010101" width="2" height="2"/><rect x="130" y="43.833" fill="#2075BC" width="2" height="2"/><polygon fill="#010101" points="128,25.833 128,23.833 130,23.833 130,21.833 128,21.833 126,21.833 126,23.833 126,25.833 126,27.833 128,27.833"/><polygon fill="#939598" points="128,47.833 128,45.833 126,45.833 124,45.833 124,47.833 126,47.833 126,49.833 124,49.833 124,51.833 124,53.833 122,53.833 122,55.833 124,55.833 126,55.833 126,53.833 126,51.833 128,51.833 128,49.833"/><rect x="122" y="47.833" fill="#939598" width="2" height="2"/><polygon fill="#939598" points="128,39.833 128,41.833 126,41.833 126,43.833 128,43.833 130,43.833 130,41.833 130,39.833 130,37.833 128,37.833"/><polygon fill="#939598" points="134,23.833 132,23.833 130,23.833 130,25.833 128,25.833 128,27.833 126,27.833 126,29.833 126,31.833 128,31.833 128,33.833 130,33.833 130,35.833 132,35.833 132,33.833 132,31.833 132,29.833 132,27.833 134,27.833 134,25.833"/><polygon fill="#010101" points="122,55.833 122,53.833 120,53.833 120,55.833 120,57.833 122,57.833 122,59.833 124,59.833 124,57.833 126,57.833 126,55.833 124,55.833"/><polygon fill="#010101" points="126,53.833 126,55.833 128,55.833 128,53.833 128,51.833 126,51.833"/><polygon fill="#010101" points="130,43.833 128,43.833 126,43.833 124,43.833 124,45.833 126,45.833 128,45.833 128,47.833 128,49.833 128,51.833 130,51.833 130,49.833 132,49.833 132,47.833 132,45.833 130,45.833"/><polygon fill="#010101" points="130,37.833 130,39.833 130,41.833 130,43.833 132,43.833 132,41.833 132,39.833 132,37.833 132,35.833 130,35.833"/><polygon fill="#010101" points="132,29.833 132,31.833 132,33.833 132,35.833 134,35.833 134,33.833 134,31.833 134,29.833 134,27.833 132,27.833"/><polygon fill="#010101" points="120,51.833 120,49.833 118,49.833 118,51.833 118,53.833 120,53.833"/><polygon fill="#010101" points="118,55.833 118,53.833 116,53.833 116,55.833 116,57.833 118,57.833"/><rect x="116" y="57.833" fill="#939598" width="2" height="2"/><polygon fill="#939598" points="120,53.833 118,53.833 118,55.833 118,57.833 120,57.833 120,55.833"/><polygon fill="#939598" points="120,53.833 122,53.833 122,51.833 122,49.833 120,49.833 120,51.833"/><polygon fill="#010101" points="114,57.833 112,57.833 112,59.833 114,59.833 116,59.833 116,57.833"/><rect x="116" y="59.833" fill="#010101" width="2" height="2"/><rect x="118" y="57.833" fill="#010101" width="2" height="2"/><polygon fill="#010101" points="122,51.833 122,53.833 124,53.833 124,51.833 124,49.833 122,49.833"/><polygon fill="#010101" points="122,47.833 124,47.833 124,45.833 122,45.833 122,43.833 120,43.833 120,41.833 118,41.833 118,43.833 118,45.833 120,45.833 120,47.833 120,49.833 122,49.833"/><rect x="126" y="57.833" fill="#010101" width="2" height="2"/><polygon fill="#010101" points="124,61.833 124,63.833 126,63.833 126,61.833 126,59.833 124,59.833"/><rect x="124" y="57.833" fill="#939598" width="2" height="2"/><rect x="126" y="35.833" fill="#010101" width="2" height="2"/><rect x="126" y="33.833" fill="#939598" width="2" height="2"/><rect x="128" y="33.833" fill="#010101" width="2" height="2"/><polygon fill="#010101" points="126,33.833 128,33.833 128,31.833 126,31.833 126,29.833 126,27.833 124,27.833 124,29.833 124,31.833 124,33.833 124,35.833 126,35.833"/><polygon fill="#010101" points="126,41.833 126,39.833 126,37.833 124,37.833 124,39.833 124,41.833"/><rect x="122" y="41.833" fill="#010101" width="2" height="2"/><rect x="124" y="47.833" fill="#010101" width="2" height="2"/><polygon fill="#010101" points="122,39.833 122,37.833 120,37.833 120,39.833 120,41.833 122,41.833"/><rect x="122" y="35.833" fill="#010101" width="2" height="2"/><rect x="128" y="35.833" fill="#6E6F72" width="2" height="2"/><polygon fill="#6E6F72" points="126,41.833 128,41.833 128,39.833 128,37.833 126,37.833 126,39.833"/><rect x="124" y="41.833" fill="#6E6F72" width="2" height="2"/><rect x="124" y="35.833" fill="#939598" width="2" height="2"/><rect x="122" y="37.833" fill="#2075BC" width="2" height="2"/><rect x="122" y="39.833" fill="#939598" width="2" height="2"/><rect x="120" y="41.833" fill="#939598" width="2" height="2"/><rect x="122" y="43.833" fill="#2075BC" width="2" height="2"/><polygon fill="#010101" points="132,19.833 130,19.833 130,21.833 132,21.833 134,21.833 134,23.833 134,25.833 134,27.833 136,27.833 136,25.833 136,23.833 136,21.833 136,19.833 134,19.833"/><polygon fill="#010101" points="136,15.833 136,17.833 136,19.833 138,19.833 138,17.833 138,15.833"/><polygon fill="#010101" points="132,13.833 130,13.833 130,15.833 132,15.833 134,15.833 136,15.833 136,13.833 136,11.833 134,11.833 134,13.833"/><polygon fill="#010101" points="126,17.833 128,17.833 130,17.833 130,15.833 128,15.833 126,15.833 126,13.833 126,11.833 124,11.833 124,13.833 124,15.833 124,17.833 124,19.833 124,21.833 126,21.833 126,19.833"/><rect x="132" y="9.833" fill="#010101" width="2" height="2"/><polygon fill="#010101" points="132,9.833 132,7.833 130,7.833 128,7.833 128,9.833 130,9.833"/><rect x="128" y="9.833" fill="#EF664F" width="2" height="2"/><rect x="126" y="11.833" fill="#EF664F" width="2" height="2"/><rect x="132" y="11.833" fill="#A61F24" width="2" height="2"/><polygon fill="#6E6F72" points="132,23.833 134,23.833 134,21.833 132,21.833 130,21.833 130,23.833"/><rect x="128" y="23.833" fill="#6E6F72" width="2" height="2"/><polygon fill="#A61F24" points="136,15.833 134,15.833 134,17.833 134,19.833 136,19.833 136,17.833"/><polygon fill="#C9262F" points="132,15.833 130,15.833 130,17.833 130,19.833 132,19.833 132,17.833"/><polygon fill="#C9262F" points="128,19.833 128,17.833 126,17.833 126,19.833 126,21.833 128,21.833"/><rect x="126" y="9.833" fill="#010101" width="2" height="2"/><rect x="168" y="50" width="2" height="2" fill="none"/><polygon fill="#C9262F" points="176,10 176,8 178,8 180,8 180,6 182,6 182,4 182,2 180,2 180,4 178,4 176,4 176,6 174,6 174,8 172,8 172,10 174,10"/><polygon fill="#EF664F" points="176,12 176,14 176,16 178,16 178,14 178,12"/><polygon fill="#EF664F" points="174,14 174,12 172,12 172,14 172,16 174,16"/><polygon fill="#EF664F" points="182,10 180,10 180,12 180,14 182,14 182,12"/><polygon fill="#EF664F" points="184,10 184,12 186,12 186,10 186,8 184,8"/><rect x="170" y="52" fill="#939598" width="2" height="2"/><polygon fill="#010101" points="170,56 170,58 172,58 172,56 172,54 170,54"/><rect x="168" y="52" fill="#010101" width="2" height="2"/><rect x="166" y="48" fill="#939598" width="2" height="2"/><rect x="164" y="50" fill="#939598" width="2" height="2"/><rect x="166" y="50" fill="#010101" width="2" height="2"/><polygon fill="#010101" points="164,54 164,56 166,56 166,54 166,52 164,52"/><rect x="162" y="50" fill="#010101" width="2" height="2"/><rect x="166" y="26" fill="#010101" width="2" height="2"/><polygon fill="#010101" points="164,28 162,28 162,30 164,30 166,30 166,28"/><polygon fill="#424143" points="182,20 182,18 184,18 186,18 186,16 184,16 182,16 180,16 180,18 180,20 180,22 182,22"/><polygon fill="#424143" points="178,26 178,28 180,28 180,26 180,24 180,22 178,22 178,24"/><polygon fill="#424143" points="178,32 178,30 178,28 176,28 176,30 176,32 176,34 176,36 178,36 178,34"/><polygon fill="#424143" points="176,38 176,36 174,36 174,38 174,40 174,42 176,42 176,40"/><polygon fill="#424143" points="178,46 176,46 176,44 174,44 174,42 172,42 172,44 172,46 172,48 174,48 174,50 176,50 178,50 178,48"/><polygon fill="#939598" points="172,26 172,28 174,28 176,28 176,26 176,24 176,22 178,22 178,20 178,18 176,18 174,18 174,20 174,22 172,22 172,24"/><polygon fill="#939598" points="172,38 172,36 174,36 174,34 174,32 174,30 172,30 172,32 170,32 170,34 170,36 168,36 168,38 170,38"/><polygon fill="#939598" points="170,40 168,40 168,42 170,42 172,42 172,40"/><polygon fill="#939598" points="166,46 168,46 170,46 170,44 168,44 168,42 166,42 166,44"/><polygon fill="#C7AB2E" points="186,20 184,20 184,22 182,22 182,24 184,24 186,24 186,22"/><polygon fill="#FFDE11" points="184,26 184,24 182,24 182,26 182,28 180,28 180,30 180,32 180,34 180,36 178,36 178,38 178,40 178,42 176,42 176,44 178,44 180,44 180,42 180,40 180,38 182,38 182,36 182,34 182,32 182,30 184,30 184,28"/><polygon fill="#010101" points="180,26 180,28 182,28 182,26 182,24 182,22 180,22 180,24"/><polygon fill="#010101" points="178,30 178,32 178,34 178,36 180,36 180,34 180,32 180,30 180,28 178,28"/><polygon fill="#010101" points="176,38 176,40 176,42 178,42 178,40 178,38 178,36 176,36"/><rect x="174" y="42" fill="#010101" width="2" height="2"/><polygon fill="#010101" points="176,44 176,46 178,46 178,48 178,50 180,50 180,48 180,46 180,44 178,44"/><polygon fill="#010101" points="184,26 184,28 184,30 186,30 186,28 186,26 186,24 184,24"/><polygon fill="#010101" points="182,32 182,34 182,36 182,38 184,38 184,36 184,34 184,32 184,30 182,30"/><polygon fill="#010101" points="180,40 180,42 180,44 182,44 182,42 182,40 182,38 180,38"/><polygon fill="#010101" points="176,24 176,26 176,28 178,28 178,26 178,24 178,22 176,22"/><polygon fill="#010101" points="174,38 174,36 172,36 172,38 170,38 168,38 168,40 170,40 172,40 172,42 174,42 174,40"/><polygon fill="#010101" points="174,50 174,48 172,48 172,46 172,44 172,42 170,42 168,42 168,44 170,44 170,46 168,46 166,46 166,44 166,42 164,42 164,44 164,46 164,48 164,50 166,50 166,48 168,48 168,50 170,50 170,52 172,52 172,54 174,54 174,52 176,52 178,52 178,50 176,50"/><rect x="170" y="30" fill="#010101" width="2" height="2"/><rect x="170" y="28" fill="#939598" width="2" height="2"/><polygon fill="#010101" points="174,30 174,32 174,34 174,36 176,36 176,34 176,32 176,30 176,28 174,28 172,28 172,30"/><polygon fill="#010101" points="170,28 172,28 172,26 172,24 172,22 170,22 170,24 168,24 168,26 170,26"/><rect x="168" y="28" fill="#010101" width="2" height="2"/><polygon fill="#010101" points="170,36 170,34 170,32 168,32 168,34 168,36"/><rect x="166" y="36" fill="#010101" width="2" height="2"/><rect x="166" y="40" fill="#010101" width="2" height="2"/><polygon fill="#010101" points="164,38 164,36 162,36 162,38 162,40 164,40 166,40 166,38"/><polygon fill="#010101" points="166,34 166,32 164,32 164,34 164,36 166,36"/><rect x="166" y="30" fill="#010101" width="2" height="2"/><rect x="168" y="26" fill="#6E6F72" width="2" height="2"/><rect x="166" y="28" fill="#6E6F72" width="2" height="2"/><rect x="168" y="30" fill="#939598" width="2" height="2"/><rect x="166" y="32" fill="#2075BC" width="2" height="2"/><rect x="166" y="34" fill="#939598" width="2" height="2"/><rect x="164" y="36" fill="#939598" width="2" height="2"/><rect x="166" y="38" fill="#2075BC" width="2" height="2"/><polygon fill="#010101" points="186,12 184,12 184,14 182,14 180,14 178,14 178,16 176,16 174,16 172,16 172,18 172,20 172,22 174,22 174,20 174,18 176,18 178,18 178,20 178,22 180,22 180,20 180,18 180,16 182,16 184,16 186,16 186,18 184,18 182,18 182,20 182,22 184,22 184,20 186,20 186,22 186,24 188,24 188,22 188,20 188,18 188,16 188,14 186,14"/><polygon fill="#010101" points="188,10 188,12 188,14 190,14 190,12 190,10"/><rect x="186" y="8" fill="#010101" width="2" height="2"/><polygon fill="#010101" points="184,8 186,8 186,6 186,4 184,4 184,6"/><rect x="182" y="2" fill="#010101" width="2" height="2"/><polygon fill="#010101" points="180,2 182,2 182,0 180,0 178,0 176,0 176,2 178,2"/><rect x="174" y="2" fill="#010101" width="2" height="2"/><rect x="172" y="4" fill="#010101" width="2" height="2"/><polygon fill="#010101" points="172,6 170,6 170,8 170,10 172,10 172,8"/><polygon fill="#C9262F" points="182,10 182,12 182,14 184,14 184,12 184,10"/><polygon fill="#C9262F" points="180,10 178,10 178,12 178,14 180,14 180,12"/><polygon fill="#C9262F" points="176,12 174,12 174,14 174,16 176,16 176,14"/><polygon fill="#A61F24" points="188,10 186,10 186,12 186,14 188,14 188,12"/><polygon fill="#010101" points="182,10 184,10 184,8 182,8 180,8 178,8 178,10 180,10"/><polygon fill="#010101" points="176,12 178,12 178,10 176,10 174,10 172,10 172,12 174,12"/><polygon fill="#010101" points="172,12 170,12 170,14 170,16 172,16 172,14"/><rect x="174" y="4" fill="#EF664F" width="2" height="2"/><rect x="172" y="6" fill="#EF664F" width="2" height="2"/><polygon fill="#EF664F" points="178,4 180,4 180,2 178,2 176,2 176,4"/><rect x="176" y="8" fill="#A61F24" width="2" height="2"/><polygon fill="#A61F24" points="182,6 180,6 180,8 182,8 184,8 184,6 184,4 182,4"/></svg>