<svg xmlns="http://www.w3.org/2000/svg" width="436.699" height="110"><path fill="#349AD6" d="M416.855 0h-416.855v98h2v-2h2v2h2v2h2v-2h2v-2h2v2h2v2h2v-2h2v-2h2v2h1.843v-2h2v2h2v2h2v-2h2v-2h2v2h2v2h2v-2h2v-2h2v2h1.843v-2h2v2h2v2h2v-2h2v-2h2v2h2v2h2v-2h2v-2h2v2h-2v2h2v10h39.529v-8h2v-2h-2v-2h2v-2h2v2h2v2h2v-2h2v-2h2v2h2v2h2v-2h2v-2h2v2h1.843v-2h2v2h2v2h2v-2h2v-2h2v2h2v2h2v-2h2v-2h2v2h1.843v-2h2v2h2v2h2v-2h2v-2h2v2h2v2h2v-2h2v-2h2v2h1.843v-2h2v2h2v2h2v-2h2v-2h2v2h2v2h2v-2h2v-2h2v2h1.843v-2h2v2h2v2h2v-2h2v-2h2v2h2v2h2v-2h2v-2h2v2h1.843v-2h2v2h2v2h2v-2h2v-2h2v2h2v2h2v-2h2v-2h2v2h1.843v-2h2v2h2v2h2v-2h2v-2h2v2h2v2h2v-2h2v-2h2v2h1.844v-2h2v2h2v2h2v-2h2v-2h2v2h2v2h2v-2h2v-2h2v2h1.842v-2h2v2h2v2h2v-2h2v-2h2v2h2v2h2v-2h2v-2h2v2h1.844v-2h2v2h2v2h2v-2h2v-2h2v2h2v2h2v-2h2v-2h2v2h-2v2h2v10h118.9v-8h2v-2h-2v-2h2v-2h2v2h2v2h2v-2h2v-2h2v2h2v2h2v-2h2v-2h2v-96h-19.848zm-408.855 96h-2v-2h2v2zm8 0h-2v-2h2v2zm11.843 0h-2v-2h2v2zm8 0h-2v-2h2v2zm11.843 0h-2v-2h2v2zm8 0h-2v-2h2v2zm51.528 0h-2v-2h2v2zm8 0h-2v-2h2v2zm11.843 0h-2v-2h2v2zm8 0h-2v-2h2v2zm11.842 0h-2v-2h2v2zm8 0h-2v-2h2v2zm11.843 0h-2v-2h2v2zm8 0h-2v-2h2v2zm11.843 0h-2v-2h2v2zm8 0h-2v-2h2v2zm11.843 0h-2v-2h2v2zm8 0h-2v-2h2v2zm11.843 0h-2v-2h2v2zm8 0h-2v-2h2v2zm11.842 0h-2v-2h2v2zm8 0h-2v-2h2v2zm11.844 0h-2v-2h2v2zm8 0h-2v-2h2v2zm11.841 0h-2v-2h2v2zm8 0h-2v-2h2v2zm130.901 0h-2v-2h2v2zm8 0h-2v-2h2v2z"/><g fill="#2F90CC"><rect x="16" y="62" width="2" height="2"/><rect x="12" y="62" width="2" height="2"/><rect x="8" y="62" width="2" height="2"/><rect x="4" y="62" width="2" height="2"/><rect y="62" width="2" height="2"/><rect x="2" y="60" width="2" height="2"/><rect x="10" y="60" width="2" height="2"/><rect x="14" y="58" width="2" height="2"/><rect x="6" y="58" width="2" height="2"/><rect x="35.843" y="62" width="2" height="2"/><rect x="31.843" y="62" width="2" height="2"/><rect x="27.843" y="62" width="2" height="2"/><rect x="23.843" y="62" width="2" height="2"/><rect x="21.843" y="60" width="2" height="2"/><rect x="29.843" y="60" width="2" height="2"/><rect x="33.843" y="58" width="2" height="2"/><rect x="25.843" y="58" width="2" height="2"/><rect x="55.686" y="62" width="2" height="2"/><rect x="51.686" y="62" width="2" height="2"/><rect x="47.686" y="62" width="2" height="2"/><rect x="43.686" y="62" width="2" height="2"/><rect x="41.686" y="60" width="2" height="2"/><rect x="49.686" y="60" width="2" height="2"/><rect x="53.686" y="58" width="2" height="2"/><rect x="45.686" y="58" width="2" height="2"/><rect x="75.528" y="62" width="2" height="2"/><rect x="71.528" y="62" width="2" height="2"/><rect x="67.528" y="62" width="2" height="2"/><rect x="63.528" y="62" width="2" height="2"/><rect x="61.528" y="60" width="2" height="2"/><rect x="69.528" y="60" width="2" height="2"/><rect x="73.528" y="58" width="2" height="2"/><rect x="65.528" y="58" width="2" height="2"/><rect x="95.371" y="62" width="2" height="2"/><rect x="91.371" y="62" width="2" height="2"/><rect x="87.371" y="62" width="2" height="2"/><rect x="83.371" y="62" width="2" height="2"/><rect x="81.371" y="60" width="2" height="2"/><rect x="89.371" y="60" width="2" height="2"/><rect x="93.371" y="58" width="2" height="2"/><rect x="85.371" y="58" width="2" height="2"/><rect x="115.214" y="62" width="2" height="2"/><rect x="111.214" y="62" width="2" height="2"/><rect x="107.214" y="62" width="2" height="2"/><rect x="103.214" y="62" width="2" height="2"/><rect x="101.214" y="60" width="2" height="2"/><rect x="109.214" y="60" width="2" height="2"/><rect x="113.214" y="58" width="2" height="2"/><rect x="105.214" y="58" width="2" height="2"/><rect x="135.057" y="62" width="2" height="2"/><rect x="131.057" y="62" width="2" height="2"/><rect x="127.057" y="62" width="2" height="2"/><rect x="123.057" y="62" width="2" height="2"/><rect x="121.057" y="60" width="2" height="2"/><rect x="129.057" y="60" width="2" height="2"/><rect x="133.057" y="58" width="2" height="2"/><rect x="125.057" y="58" width="2" height="2"/><rect x="154.899" y="62" width="2" height="2"/><rect x="150.899" y="62" width="2" height="2"/><rect x="146.899" y="62" width="2" height="2"/><rect x="142.899" y="62" width="2" height="2"/><rect x="140.899" y="60" width="2" height="2"/><rect x="148.899" y="60" width="2" height="2"/><rect x="152.899" y="58" width="2" height="2"/><rect x="144.899" y="58" width="2" height="2"/><rect x="174.742" y="62" width="2" height="2"/><rect x="170.742" y="62" width="2" height="2"/><rect x="166.742" y="62" width="2" height="2"/><rect x="162.742" y="62" width="2" height="2"/><rect x="160.742" y="60" width="2" height="2"/><rect x="168.742" y="60" width="2" height="2"/><rect x="172.742" y="58" width="2" height="2"/><rect x="164.742" y="58" width="2" height="2"/><rect x="194.585" y="62" width="2" height="2"/><rect x="190.585" y="62" width="2" height="2"/><rect x="186.585" y="62" width="2" height="2"/><rect x="182.585" y="62" width="2" height="2"/><rect x="180.585" y="60" width="2" height="2"/><rect x="188.585" y="60" width="2" height="2"/><rect x="192.585" y="58" width="2" height="2"/><rect x="184.585" y="58" width="2" height="2"/><rect x="214.428" y="62" width="2" height="2"/><rect x="210.428" y="62" width="2" height="2"/><rect x="206.428" y="62" width="2" height="2"/><rect x="202.428" y="62" width="2" height="2"/><rect x="200.428" y="60" width="2" height="2"/><rect x="208.428" y="60" width="2" height="2"/><rect x="212.428" y="58" width="2" height="2"/><rect x="204.428" y="58" width="2" height="2"/><rect x="234.271" y="62" width="2" height="2"/><rect x="230.271" y="62" width="2" height="2"/><rect x="226.271" y="62" width="2" height="2"/><rect x="222.271" y="62" width="2" height="2"/><rect x="220.271" y="60" width="2" height="2"/><rect x="228.271" y="60" width="2" height="2"/><rect x="232.271" y="58" width="2" height="2"/><rect x="224.271" y="58" width="2" height="2"/><rect x="254.113" y="62" width="2" height="2"/><rect x="250.113" y="62" width="2" height="2"/><rect x="246.113" y="62" width="2" height="2"/><rect x="242.113" y="62" width="2" height="2"/><rect x="240.113" y="60" width="2" height="2"/><rect x="248.113" y="60" width="2" height="2"/><rect x="252.113" y="58" width="2" height="2"/><rect x="244.113" y="58" width="2" height="2"/><rect x="273.957" y="62" width="2" height="2"/><rect x="269.957" y="62" width="2" height="2"/><rect x="265.957" y="62" width="2" height="2"/><rect x="261.957" y="62" width="2" height="2"/><rect x="259.957" y="60" width="2" height="2"/><rect x="267.957" y="60" width="2" height="2"/><rect x="271.957" y="58" width="2" height="2"/><rect x="263.957" y="58" width="2" height="2"/><rect x="293.798" y="62" width="2" height="2"/><rect x="289.798" y="62" width="2" height="2"/><rect x="285.798" y="62" width="2" height="2"/><rect x="281.798" y="62" width="2" height="2"/><rect x="279.798" y="60" width="2" height="2"/><rect x="287.798" y="60" width="2" height="2"/><rect x="291.798" y="58" width="2" height="2"/><rect x="283.798" y="58" width="2" height="2"/><rect x="313.642" y="62" width="2" height="2"/><rect x="309.642" y="62" width="2" height="2"/><rect x="305.642" y="62" width="2" height="2"/><rect x="301.642" y="62" width="2" height="2"/><rect x="299.642" y="60" width="2" height="2"/><rect x="307.642" y="60" width="2" height="2"/><rect x="311.642" y="58" width="2" height="2"/><rect x="303.642" y="58" width="2" height="2"/><rect x="333.484" y="62" width="2" height="2"/><rect x="329.484" y="62" width="2" height="2"/><rect x="325.484" y="62" width="2" height="2"/><rect x="321.484" y="62" width="2" height="2"/><rect x="319.484" y="60" width="2" height="2"/><rect x="327.484" y="60" width="2" height="2"/><rect x="331.484" y="58" width="2" height="2"/><rect x="323.484" y="58" width="2" height="2"/><polygon points="353.328,66 353.328,64 351.328,64 351.328,66 349.328,66 349.328,64 347.328,64 347.328,66 345.328,66 345.328,64 343.328,64 343.328,66 341.328,66 341.328,64 339.328,64 339.328,66 337.484,66 337.484,64 339.328,64 339.328,62 337.484,62 337.484,60 335.484,60 335.484,62 337.328,62 337.328,64 335.484,64 335.484,66 333.484,66 333.484,64 331.484,64 331.484,66 329.484,66 329.484,64 327.484,64 327.484,66 325.484,66 325.484,64 323.484,64 323.484,66 321.484,66 321.484,64 319.484,64 319.484,66 317.642,66 317.642,64 319.484,64 319.484,62 317.642,62 317.642,60 315.642,60 315.642,62 317.484,62 317.484,64 315.642,64 315.642,66 313.642,66 313.642,64 311.642,64 311.642,66 309.642,66 309.642,64 307.642,64 307.642,66 305.642,66 305.642,64 303.642,64 303.642,66 301.642,66 301.642,64 299.642,64 299.642,66 297.798,66 297.798,64 299.642,64 299.642,62 297.798,62 297.798,60 295.798,60 295.798,62 297.642,62 297.642,64 295.798,64 295.798,66 293.798,66 293.798,64 291.798,64 291.798,66 289.798,66 289.798,64 287.798,64 287.798,66 285.798,66 285.798,64 283.798,64 283.798,66 281.798,66 281.798,64 279.798,64 279.798,66 277.957,66 277.957,64 279.798,64 279.798,62 277.957,62 277.957,60 275.957,60 275.957,62 277.798,62 277.798,64 275.957,64 275.957,66 273.957,66 273.957,64 271.957,64 271.957,66 269.957,66 269.957,64 267.957,64 267.957,66 265.957,66 265.957,64 263.957,64 263.957,66 261.957,66 261.957,64 259.957,64 259.957,66 258.113,66 258.113,64 259.957,64 259.957,62 258.113,62 258.113,60 256.113,60 256.113,62 257.957,62 257.957,64 256.113,64 256.113,66 254.113,66 254.113,64 252.113,64 252.113,66 250.113,66 250.113,64 248.113,64 248.113,66 246.113,66 246.113,64 244.113,64 244.113,66 242.113,66 242.113,64 240.113,64 240.113,66 238.271,66 238.271,64 240.113,64 240.113,62 238.271,62 238.271,60 236.271,60 236.271,62 238.113,62 238.113,64 236.271,64 236.271,66 234.271,66 234.271,64 232.271,64 232.271,66 230.271,66 230.271,64 228.271,64 228.271,66 226.271,66 226.271,64 224.271,64 224.271,66 222.271,66 222.271,64 220.271,64 220.271,66 218.428,66 218.428,64 220.271,64 220.271,62 218.428,62 218.428,60 216.428,60 216.428,62 218.271,62 218.271,64 216.428,64 216.428,66 214.428,66 214.428,64 212.428,64 212.428,66 210.428,66 210.428,64 208.428,64 208.428,66 206.428,66 206.428,64 204.428,64 204.428,66 202.428,66 202.428,64 200.428,64 200.428,66 198.585,66 198.585,64 200.428,64 200.428,62 198.585,62 198.585,60 196.585,60 196.585,62 198.428,62 198.428,64 196.585,64 196.585,66 194.585,66 194.585,64 192.585,64 192.585,66 190.585,66 190.585,64 188.585,64 188.585,66 186.585,66 186.585,64 184.585,64 184.585,66 182.585,66 182.585,64 180.585,64 180.585,66 178.742,66 178.742,64 180.585,64 180.585,62 178.742,62 178.742,60 176.742,60 176.742,62 178.585,62 178.585,64 176.742,64 176.742,66 174.742,66 174.742,64 172.742,64 172.742,66 170.742,66 170.742,64 168.742,64 168.742,66 166.742,66 166.742,64 164.742,64 164.742,66 162.742,66 162.742,64 160.742,64 160.742,66 158.899,66 158.899,64 160.742,64 160.742,62 158.899,62 158.899,60 156.899,60 156.899,62 158.742,62 158.742,64 156.899,64 156.899,66 154.899,66 154.899,64 152.899,64 152.899,66 150.899,66 150.899,64 148.899,64 148.899,66 146.899,66 146.899,64 144.899,64 144.899,66 142.899,66 142.899,64 140.899,64 140.899,66 139.057,66 139.057,64 140.899,64 140.899,62 139.057,62 139.057,60 137.057,60 137.057,62 138.899,62 138.899,64 137.057,64 137.057,66 135.057,66 135.057,64 133.057,64 133.057,66 131.057,66 131.057,64 129.057,64 129.057,66 127.057,66 127.057,64 125.057,64 125.057,66 123.057,66 123.057,64 121.057,64 121.057,66 119.214,66 119.214,64 121.057,64 121.057,62 119.214,62 119.214,60 117.214,60 117.214,62 119.057,62 119.057,64 117.214,64 117.214,66 115.214,66 115.214,64 113.214,64 113.214,66 111.214,66 111.214,64 109.214,64 109.214,66 107.214,66 107.214,64 105.214,64 105.214,66 103.214,66 103.214,64 101.214,64 101.214,66 99.371,66 99.371,64 101.214,64 101.214,62 99.371,62 99.371,60 97.371,60 97.371,62 99.214,62 99.214,64 97.371,64 97.371,66 95.371,66 95.371,64 93.371,64 93.371,66 91.371,66 91.371,64 89.371,64 89.371,66 87.371,66 87.371,64 85.371,64 85.371,66 83.371,66 83.371,64 81.371,64 81.371,66 79.528,66 79.528,64 81.371,64 81.371,62 79.528,62 79.528,60 77.528,60 77.528,62 79.371,62 79.371,64 77.528,64 77.528,66 75.528,66 75.528,64 73.528,64 73.528,66 71.528,66 71.528,64 69.528,64 69.528,66 67.528,66 67.528,64 65.528,64 65.528,66 63.528,66 63.528,64 61.528,64 61.528,66 59.686,66 59.686,64 61.528,64 61.528,62 59.686,62 59.686,60 57.686,60 57.686,62 59.528,62 59.528,64 57.686,64 57.686,66 55.686,66 55.686,64 53.686,64 53.686,66 51.686,66 51.686,64 49.686,64 49.686,66 47.686,66 47.686,64 45.686,64 45.686,66 43.686,66 43.686,64 41.686,64 41.686,66 39.843,66 39.843,64 41.686,64 41.686,62 39.843,62 39.843,60 37.843,60 37.843,62 39.686,62 39.686,64 37.843,64 37.843,66 35.843,66 35.843,64 33.843,64 33.843,66 31.843,66 31.843,64 29.843,64 29.843,66 27.843,66 27.843,64 25.843,64 25.843,66 23.843,66 23.843,64 21.843,64 21.843,66 20,66 20,64 21.843,64 21.843,62 20,62 20,60 18,60 18,62 19.843,62 19.843,64 18,64 18,66 16,66 16,64 14,64 14,66 12,66 12,64 10,64 10,66 8,66 8,64 6,64 6,66 4,66 4,64 2,64 2,66 0,66 0,110 357.328,110 357.328,66 357.328,64 355.328,64 355.328,66"/><rect x="353.328" y="62" width="2" height="2"/><rect x="349.328" y="62" width="2" height="2"/><rect x="345.328" y="62" width="2" height="2"/><rect x="341.328" y="62" width="2" height="2"/><rect x="339.328" y="60" width="2" height="2"/><rect x="347.328" y="60" width="2" height="2"/><rect x="355.328" y="60" width="2" height="2"/><rect x="351.328" y="58" width="2" height="2"/><rect x="343.328" y="58" width="2" height="2"/><rect x="393.013" y="62" width="2" height="2"/><rect x="389.013" y="62" width="2" height="2"/><rect x="385.013" y="62" width="2" height="2"/><rect x="381.013" y="62" width="2" height="2"/><rect x="377.013" y="62" width="2" height="2"/><rect x="379.013" y="60" width="2" height="2"/><rect x="387.013" y="60" width="2" height="2"/><rect x="391.013" y="58" width="2" height="2"/><rect x="383.013" y="58" width="2" height="2"/><rect x="412.855" y="62" width="2" height="2"/><rect x="408.855" y="62" width="2" height="2"/><rect x="404.855" y="62" width="2" height="2"/><rect x="400.855" y="62" width="2" height="2"/><rect x="398.855" y="60" width="2" height="2"/><rect x="406.855" y="60" width="2" height="2"/><rect x="410.855" y="58" width="2" height="2"/><rect x="402.855" y="58" width="2" height="2"/><polygon points="432.699,66 432.699,64 430.699,64 430.699,66 428.699,66 428.699,64 426.699,64 426.699,66 424.699,66 424.699,64 422.699,64 422.699,66 420.699,66 420.699,64 418.699,64 418.699,66 416.855,66 416.855,64 418.699,64 418.699,62 416.855,62 416.855,60 414.855,60 414.855,62 416.699,62 416.699,64 414.855,64 414.855,66 412.855,66 412.855,64 410.855,64 410.855,66 408.855,66 408.855,64 406.855,64 406.855,66 404.855,66 404.855,64 402.855,64 402.855,66 400.855,66 400.855,64 398.855,64 398.855,66 397.013,66 397.013,64 398.855,64 398.855,62 397.013,62 397.013,60 395.013,60 395.013,62 396.855,62 396.855,64 395.013,64 395.013,66 393.013,66 393.013,64 391.013,64 391.013,66 389.013,66 389.013,64 387.013,64 387.013,66 385.013,66 385.013,64 383.013,64 383.013,66 381.013,66 381.013,64 379.013,64 379.013,66 377.013,66 377.013,110 436.699,110 436.699,66 436.699,64 434.699,64 434.699,66"/><rect x="432.699" y="62" width="2" height="2"/><rect x="428.699" y="62" width="2" height="2"/><rect x="424.699" y="62" width="2" height="2"/><rect x="420.699" y="62" width="2" height="2"/><rect x="418.699" y="60" width="2" height="2"/><rect x="426.699" y="60" width="2" height="2"/><rect x="434.699" y="60" width="2" height="2"/><rect x="430.699" y="58" width="2" height="2"/><rect x="422.699" y="58" width="2" height="2"/></g><g fill="#2A81B7"><rect x="16" y="82" width="2" height="2"/><rect x="12" y="82" width="2" height="2"/><rect x="8" y="82" width="2" height="2"/><rect x="4" y="82" width="2" height="2"/><rect y="82" width="2" height="2"/><rect x="2" y="80" width="2" height="2"/><rect x="10" y="80" width="2" height="2"/><rect x="14" y="78" width="2" height="2"/><rect x="6" y="78" width="2" height="2"/><rect x="35.843" y="82" width="2" height="2"/><rect x="31.843" y="82" width="2" height="2"/><rect x="27.843" y="82" width="2" height="2"/><rect x="23.843" y="82" width="2" height="2"/><rect x="21.843" y="80" width="2" height="2"/><rect x="29.843" y="80" width="2" height="2"/><rect x="33.843" y="78" width="2" height="2"/><rect x="25.843" y="78" width="2" height="2"/><polygon points="55.686,86 55.686,84 53.686,84 53.686,86 51.686,86 51.686,84 49.686,84 49.686,86 47.686,86 47.686,84 45.686,84 45.686,86 43.686,86 43.686,84 41.686,84 41.686,86 39.843,86 39.843,84 41.686,84 41.686,82 39.843,82 39.843,80 37.843,80 37.843,82 39.686,82 39.686,84 37.843,84 37.843,86 35.843,86 35.843,84 33.843,84 33.843,86 31.843,86 31.843,84 29.843,84 29.843,86 27.843,86 27.843,84 25.843,84 25.843,86 23.843,86 23.843,84 21.843,84 21.843,86 20,86 20,84 21.843,84 21.843,82 20,82 20,80 18,80 18,82 19.843,82 19.843,84 18,84 18,86 16,86 16,84 14,84 14,86 12,86 12,84 10,84 10,86 8,86 8,84 6,84 6,86 4,86 4,84 2,84 2,86 0,86 0,110 59.686,110 59.686,86 59.686,84 57.686,84 57.686,86"/><rect x="55.686" y="82" width="2" height="2"/><rect x="51.686" y="82" width="2" height="2"/><rect x="47.686" y="82" width="2" height="2"/><rect x="43.686" y="82" width="2" height="2"/><rect x="41.686" y="80" width="2" height="2"/><rect x="49.686" y="80" width="2" height="2"/><rect x="57.686" y="80" width="2" height="2"/><rect x="53.686" y="78" width="2" height="2"/><rect x="45.686" y="78" width="2" height="2"/><rect x="95.371" y="82" width="2" height="2"/><rect x="91.371" y="82" width="2" height="2"/><rect x="87.371" y="82" width="2" height="2"/><rect x="83.371" y="82" width="2" height="2"/><rect x="79.371" y="82" width="2" height="2"/><rect x="81.371" y="80" width="2" height="2"/><rect x="89.371" y="80" width="2" height="2"/><rect x="93.371" y="78" width="2" height="2"/><rect x="85.371" y="78" width="2" height="2"/><rect x="115.214" y="82" width="2" height="2"/><rect x="111.214" y="82" width="2" height="2"/><rect x="107.214" y="82" width="2" height="2"/><rect x="103.214" y="82" width="2" height="2"/><rect x="101.214" y="80" width="2" height="2"/><rect x="109.214" y="80" width="2" height="2"/><rect x="113.214" y="78" width="2" height="2"/><rect x="105.214" y="78" width="2" height="2"/><rect x="135.057" y="82" width="2" height="2"/><rect x="131.057" y="82" width="2" height="2"/><rect x="127.057" y="82" width="2" height="2"/><rect x="123.057" y="82" width="2" height="2"/><rect x="121.057" y="80" width="2" height="2"/><rect x="129.057" y="80" width="2" height="2"/><rect x="133.057" y="78" width="2" height="2"/><rect x="125.057" y="78" width="2" height="2"/><rect x="154.899" y="82" width="2" height="2"/><rect x="150.899" y="82" width="2" height="2"/><rect x="146.899" y="82" width="2" height="2"/><rect x="142.899" y="82" width="2" height="2"/><rect x="140.899" y="80" width="2" height="2"/><rect x="148.899" y="80" width="2" height="2"/><rect x="152.899" y="78" width="2" height="2"/><rect x="144.899" y="78" width="2" height="2"/><rect x="174.742" y="82" width="2" height="2"/><rect x="170.742" y="82" width="2" height="2"/><rect x="166.742" y="82" width="2" height="2"/><rect x="162.742" y="82" width="2" height="2"/><rect x="160.742" y="80" width="2" height="2"/><rect x="168.742" y="80" width="2" height="2"/><rect x="172.742" y="78" width="2" height="2"/><rect x="164.742" y="78" width="2" height="2"/><rect x="194.585" y="82" width="2" height="2"/><rect x="190.585" y="82" width="2" height="2"/><rect x="186.585" y="82" width="2" height="2"/><rect x="182.585" y="82" width="2" height="2"/><rect x="180.585" y="80" width="2" height="2"/><rect x="188.585" y="80" width="2" height="2"/><rect x="192.585" y="78" width="2" height="2"/><rect x="184.585" y="78" width="2" height="2"/><rect x="214.428" y="82" width="2" height="2"/><rect x="210.428" y="82" width="2" height="2"/><rect x="206.428" y="82" width="2" height="2"/><rect x="202.428" y="82" width="2" height="2"/><rect x="200.428" y="80" width="2" height="2"/><rect x="208.428" y="80" width="2" height="2"/><rect x="212.428" y="78" width="2" height="2"/><rect x="204.428" y="78" width="2" height="2"/><rect x="234.271" y="82" width="2" height="2"/><rect x="230.271" y="82" width="2" height="2"/><rect x="226.271" y="82" width="2" height="2"/><rect x="222.271" y="82" width="2" height="2"/><rect x="220.271" y="80" width="2" height="2"/><rect x="228.271" y="80" width="2" height="2"/><rect x="232.271" y="78" width="2" height="2"/><rect x="224.271" y="78" width="2" height="2"/><rect x="254.113" y="82" width="2" height="2"/><rect x="250.113" y="82" width="2" height="2"/><rect x="246.113" y="82" width="2" height="2"/><rect x="242.113" y="82" width="2" height="2"/><rect x="240.113" y="80" width="2" height="2"/><rect x="248.113" y="80" width="2" height="2"/><rect x="252.113" y="78" width="2" height="2"/><rect x="244.113" y="78" width="2" height="2"/><rect x="273.957" y="82" width="2" height="2"/><rect x="269.957" y="82" width="2" height="2"/><rect x="265.957" y="82" width="2" height="2"/><rect x="261.957" y="82" width="2" height="2"/><rect x="259.957" y="80" width="2" height="2"/><rect x="267.957" y="80" width="2" height="2"/><rect x="271.957" y="78" width="2" height="2"/><rect x="263.957" y="78" width="2" height="2"/><rect x="293.798" y="82" width="2" height="2"/><rect x="289.798" y="82" width="2" height="2"/><rect x="285.798" y="82" width="2" height="2"/><rect x="281.798" y="82" width="2" height="2"/><rect x="279.798" y="80" width="2" height="2"/><rect x="287.798" y="80" width="2" height="2"/><rect x="291.798" y="78" width="2" height="2"/><rect x="283.798" y="78" width="2" height="2"/><rect x="313.642" y="82" width="2" height="2"/><rect x="309.642" y="82" width="2" height="2"/><rect x="305.642" y="82" width="2" height="2"/><rect x="301.642" y="82" width="2" height="2"/><rect x="299.642" y="80" width="2" height="2"/><rect x="307.642" y="80" width="2" height="2"/><rect x="311.642" y="78" width="2" height="2"/><rect x="303.642" y="78" width="2" height="2"/><rect x="333.484" y="82" width="2" height="2"/><rect x="329.484" y="82" width="2" height="2"/><rect x="325.484" y="82" width="2" height="2"/><rect x="321.484" y="82" width="2" height="2"/><rect x="319.484" y="80" width="2" height="2"/><rect x="327.484" y="80" width="2" height="2"/><rect x="331.484" y="78" width="2" height="2"/><rect x="323.484" y="78" width="2" height="2"/><polygon points="353.328,86 353.328,84 351.328,84 351.328,86 349.328,86 349.328,84 347.328,84 347.328,86 345.328,86 345.328,84 343.328,84 343.328,86 341.328,86 341.328,84 339.328,84 339.328,86 337.484,86 337.484,84 339.328,84 339.328,82 337.484,82 337.484,80 335.484,80 335.484,82 337.328,82 337.328,84 335.484,84 335.484,86 333.484,86 333.484,84 331.484,84 331.484,86 329.484,86 329.484,84 327.484,84 327.484,86 325.484,86 325.484,84 323.484,84 323.484,86 321.484,86 321.484,84 319.484,84 319.484,86 317.642,86 317.642,84 319.484,84 319.484,82 317.642,82 317.642,80 315.642,80 315.642,82 317.484,82 317.484,84 315.642,84 315.642,86 313.642,86 313.642,84 311.642,84 311.642,86 309.642,86 309.642,84 307.642,84 307.642,86 305.642,86 305.642,84 303.642,84 303.642,86 301.642,86 301.642,84 299.642,84 299.642,86 297.798,86 297.798,84 299.642,84 299.642,82 297.798,82 297.798,80 295.798,80 295.798,82 297.642,82 297.642,84 295.798,84 295.798,86 293.798,86 293.798,84 291.798,84 291.798,86 289.798,86 289.798,84 287.798,84 287.798,86 285.798,86 285.798,84 283.798,84 283.798,86 281.798,86 281.798,84 279.798,84 279.798,86 277.957,86 277.957,84 279.798,84 279.798,82 277.957,82 277.957,80 275.957,80 275.957,82 277.798,82 277.798,84 275.957,84 275.957,86 273.957,86 273.957,84 271.957,84 271.957,86 269.957,86 269.957,84 267.957,84 267.957,86 265.957,86 265.957,84 263.957,84 263.957,86 261.957,86 261.957,84 259.957,84 259.957,86 258.113,86 258.113,84 259.957,84 259.957,82 258.113,82 258.113,80 256.113,80 256.113,82 257.957,82 257.957,84 256.113,84 256.113,86 254.113,86 254.113,84 252.113,84 252.113,86 250.113,86 250.113,84 248.113,84 248.113,86 246.113,86 246.113,84 244.113,84 244.113,86 242.113,86 242.113,84 240.113,84 240.113,86 238.271,86 238.271,84 240.113,84 240.113,82 238.271,82 238.271,80 236.271,80 236.271,82 238.113,82 238.113,84 236.271,84 236.271,86 234.271,86 234.271,84 232.271,84 232.271,86 230.271,86 230.271,84 228.271,84 228.271,86 226.271,86 226.271,84 224.271,84 224.271,86 222.271,86 222.271,84 220.271,84 220.271,86 218.428,86 218.428,84 220.271,84 220.271,82 218.428,82 218.428,80 216.428,80 216.428,82 218.271,82 218.271,84 216.428,84 216.428,86 214.428,86 214.428,84 212.428,84 212.428,86 210.428,86 210.428,84 208.428,84 208.428,86 206.428,86 206.428,84 204.428,84 204.428,86 202.428,86 202.428,84 200.428,84 200.428,86 198.585,86 198.585,84 200.428,84 200.428,82 198.585,82 198.585,80 196.585,80 196.585,82 198.428,82 198.428,84 196.585,84 196.585,86 194.585,86 194.585,84 192.585,84 192.585,86 190.585,86 190.585,84 188.585,84 188.585,86 186.585,86 186.585,84 184.585,84 184.585,86 182.585,86 182.585,84 180.585,84 180.585,86 178.742,86 178.742,84 180.585,84 180.585,82 178.742,82 178.742,80 176.742,80 176.742,82 178.585,82 178.585,84 176.742,84 176.742,86 174.742,86 174.742,84 172.742,84 172.742,86 170.742,86 170.742,84 168.742,84 168.742,86 166.742,86 166.742,84 164.742,84 164.742,86 162.742,86 162.742,84 160.742,84 160.742,86 158.899,86 158.899,84 160.742,84 160.742,82 158.899,82 158.899,80 156.899,80 156.899,82 158.742,82 158.742,84 156.899,84 156.899,86 154.899,86 154.899,84 152.899,84 152.899,86 150.899,86 150.899,84 148.899,84 148.899,86 146.899,86 146.899,84 144.899,84 144.899,86 142.899,86 142.899,84 140.899,84 140.899,86 139.057,86 139.057,84 140.899,84 140.899,82 139.057,82 139.057,80 137.057,80 137.057,82 138.899,82 138.899,84 137.057,84 137.057,86 135.057,86 135.057,84 133.057,84 133.057,86 131.057,86 131.057,84 129.057,84 129.057,86 127.057,86 127.057,84 125.057,84 125.057,86 123.057,86 123.057,84 121.057,84 121.057,86 119.214,86 119.214,84 121.057,84 121.057,82 119.214,82 119.214,80 117.214,80 117.214,82 119.057,82 119.057,84 117.214,84 117.214,86 115.214,86 115.214,84 113.214,84 113.214,86 111.214,86 111.214,84 109.214,84 109.214,86 107.214,86 107.214,84 105.214,84 105.214,86 103.214,86 103.214,84 101.214,84 101.214,86 99.371,86 99.371,84 101.214,84 101.214,82 99.371,82 99.371,80 97.371,80 97.371,82 99.214,82 99.214,84 97.371,84 97.371,86 95.371,86 95.371,84 93.371,84 93.371,86 91.371,86 91.371,84 89.371,84 89.371,86 87.371,86 87.371,84 85.371,84 85.371,86 83.371,86 83.371,84 81.371,84 81.371,86 79.371,86 79.371,110 353.328,110 355.328,110 357.328,110 357.328,100 357.328,98 357.328,96 357.328,94 357.328,92 357.328,90 357.328,88 357.328,86 357.328,84 355.328,84 355.328,86"/><rect x="353.328" y="82" width="2" height="2"/><rect x="349.328" y="82" width="2" height="2"/><rect x="345.328" y="82" width="2" height="2"/><rect x="341.328" y="82" width="2" height="2"/><rect x="339.328" y="80" width="2" height="2"/><rect x="347.328" y="80" width="2" height="2"/><rect x="355.328" y="80" width="2" height="2"/><rect x="351.328" y="78" width="2" height="2"/><rect x="343.328" y="78" width="2" height="2"/><rect x="412.855" y="82" width="2" height="2"/><rect x="408.855" y="82" width="2" height="2"/><rect x="404.855" y="82" width="2" height="2"/><rect x="400.855" y="82" width="2" height="2"/><rect x="396.855" y="82" width="2" height="2"/><rect x="398.855" y="80" width="2" height="2"/><rect x="406.855" y="80" width="2" height="2"/><rect x="410.855" y="78" width="2" height="2"/><rect x="402.855" y="78" width="2" height="2"/><polygon points="432.699,86 432.699,84 430.699,84 430.699,86 428.699,86 428.699,84 426.699,84 426.699,86 424.699,86 424.699,84 422.699,84 422.699,86 420.699,86 420.699,84 418.699,84 418.699,86 416.855,86 416.855,84 418.699,84 418.699,82 416.855,82 416.855,80 414.855,80 414.855,82 416.699,82 416.699,84 414.855,84 414.855,86 412.855,86 412.855,84 410.855,84 410.855,86 408.855,86 408.855,84 406.855,84 406.855,86 404.855,86 404.855,84 402.855,84 402.855,86 400.855,86 400.855,84 398.855,84 398.855,86 396.855,86 396.855,110 436.699,110 436.699,86 436.699,84 434.699,84 434.699,86"/><rect x="432.699" y="82" width="2" height="2"/><rect x="428.699" y="82" width="2" height="2"/><rect x="424.699" y="82" width="2" height="2"/><rect x="420.699" y="82" width="2" height="2"/><rect x="418.699" y="80" width="2" height="2"/><rect x="426.699" y="80" width="2" height="2"/><rect x="434.699" y="80" width="2" height="2"/><rect x="430.699" y="78" width="2" height="2"/><rect x="422.699" y="78" width="2" height="2"/></g><g fill="#2975BB"><rect x="331.484" y="94" width="2" height="2"/><rect x="16" y="98" width="2" height="2"/><rect x="12" y="98" width="2" height="2"/><rect x="8" y="98" width="2" height="2"/><rect x="4" y="98" width="2" height="2"/><rect y="98" width="2" height="2"/><rect x="2" y="96" width="2" height="2"/><rect x="10" y="96" width="2" height="2"/><rect x="14" y="94" width="2" height="2"/><rect x="6" y="94" width="2" height="2"/><rect x="35.843" y="98" width="2" height="2"/><rect x="31.843" y="98" width="2" height="2"/><rect x="27.843" y="98" width="2" height="2"/><rect x="23.843" y="98" width="2" height="2"/><rect x="21.843" y="96" width="2" height="2"/><rect x="29.843" y="96" width="2" height="2"/><rect x="33.843" y="94" width="2" height="2"/><rect x="25.843" y="94" width="2" height="2"/><rect x="41.686" y="96" width="2" height="2"/><rect x="115.214" y="98" width="2" height="2"/><rect x="111.214" y="98" width="2" height="2"/><rect x="107.214" y="98" width="2" height="2"/><rect x="103.214" y="98" width="2" height="2"/><rect x="101.214" y="96" width="2" height="2"/><rect x="109.214" y="96" width="2" height="2"/><rect x="113.214" y="94" width="2" height="2"/><rect x="105.214" y="94" width="2" height="2"/><rect x="135.057" y="98" width="2" height="2"/><rect x="131.057" y="98" width="2" height="2"/><rect x="127.057" y="98" width="2" height="2"/><rect x="123.057" y="98" width="2" height="2"/><rect x="121.057" y="96" width="2" height="2"/><rect x="129.057" y="96" width="2" height="2"/><rect x="133.057" y="94" width="2" height="2"/><rect x="125.057" y="94" width="2" height="2"/><rect x="154.899" y="98" width="2" height="2"/><rect x="150.899" y="98" width="2" height="2"/><rect x="146.899" y="98" width="2" height="2"/><rect x="142.899" y="98" width="2" height="2"/><rect x="140.899" y="96" width="2" height="2"/><rect x="148.899" y="96" width="2" height="2"/><rect x="152.899" y="94" width="2" height="2"/><rect x="144.899" y="94" width="2" height="2"/><rect x="174.742" y="98" width="2" height="2"/><rect x="170.742" y="98" width="2" height="2"/><rect x="166.742" y="98" width="2" height="2"/><rect x="162.742" y="98" width="2" height="2"/><rect x="160.742" y="96" width="2" height="2"/><rect x="168.742" y="96" width="2" height="2"/><rect x="172.742" y="94" width="2" height="2"/><rect x="164.742" y="94" width="2" height="2"/><rect x="194.585" y="98" width="2" height="2"/><rect x="190.585" y="98" width="2" height="2"/><rect x="186.585" y="98" width="2" height="2"/><rect x="182.585" y="98" width="2" height="2"/><rect x="180.585" y="96" width="2" height="2"/><rect x="188.585" y="96" width="2" height="2"/><rect x="192.585" y="94" width="2" height="2"/><rect x="184.585" y="94" width="2" height="2"/><rect x="214.428" y="98" width="2" height="2"/><rect x="210.428" y="98" width="2" height="2"/><rect x="206.428" y="98" width="2" height="2"/><rect x="202.428" y="98" width="2" height="2"/><rect x="200.428" y="96" width="2" height="2"/><rect x="208.428" y="96" width="2" height="2"/><rect x="212.428" y="94" width="2" height="2"/><rect x="204.428" y="94" width="2" height="2"/><rect x="234.271" y="98" width="2" height="2"/><rect x="230.271" y="98" width="2" height="2"/><rect x="226.271" y="98" width="2" height="2"/><rect x="222.271" y="98" width="2" height="2"/><rect x="220.271" y="96" width="2" height="2"/><rect x="228.271" y="96" width="2" height="2"/><rect x="232.271" y="94" width="2" height="2"/><rect x="224.271" y="94" width="2" height="2"/><rect x="254.113" y="98" width="2" height="2"/><rect x="250.113" y="98" width="2" height="2"/><rect x="246.113" y="98" width="2" height="2"/><rect x="242.113" y="98" width="2" height="2"/><rect x="240.113" y="96" width="2" height="2"/><rect x="248.113" y="96" width="2" height="2"/><rect x="252.113" y="94" width="2" height="2"/><rect x="244.113" y="94" width="2" height="2"/><rect x="273.957" y="98" width="2" height="2"/><rect x="269.957" y="98" width="2" height="2"/><rect x="265.957" y="98" width="2" height="2"/><rect x="261.957" y="98" width="2" height="2"/><rect x="259.957" y="96" width="2" height="2"/><rect x="267.957" y="96" width="2" height="2"/><rect x="271.957" y="94" width="2" height="2"/><rect x="263.957" y="94" width="2" height="2"/><rect x="289.798" y="98" width="2" height="2"/><rect x="285.798" y="98" width="2" height="2"/><rect x="281.798" y="98" width="2" height="2"/><rect x="279.798" y="96" width="2" height="2"/><rect x="287.798" y="96" width="2" height="2"/><rect x="291.798" y="94" width="2" height="2"/><rect x="283.798" y="94" width="2" height="2"/><rect x="432.699" y="98" width="2" height="2"/><rect x="428.699" y="98" width="2" height="2"/><rect x="424.699" y="98" width="2" height="2"/><rect x="420.699" y="98" width="2" height="2"/><rect x="418.699" y="96" width="2" height="2"/><rect x="426.699" y="96" width="2" height="2"/><rect x="434.699" y="96" width="2" height="2"/><rect x="430.699" y="94" width="2" height="2"/><rect x="422.699" y="94" width="2" height="2"/><polygon points="432.699,102 432.699,100 430.699,100 430.699,102 428.699,102 428.699,100 426.699,100 426.699,102 424.699,102 424.699,100 422.699,100 422.699,102 420.699,102 420.699,100 418.699,100 418.699,102 417.492,102 416.855,102 416.855,100 418.699,100 418.699,98 416.855,98 416.855,96 414.855,96 414.855,98 416.699,98 416.699,100 415.798,100 414.855,100 414.855,98 413.798,98 412.855,98 411.798,98 411.798,96 412.855,96 412.855,94 411.798,94 410.855,94 409.798,94 409.798,92 407.798,92 407.798,90 407.798,88 405.798,88 405.798,86 403.798,86 403.798,84 403.798,82 401.798,82 401.798,80 399.798,80 399.798,78 399.798,76 397.798,76 397.798,74 395.798,74 395.798,72 395.798,70 393.798,70 393.798,68 391.798,68 391.798,66 391.798,64 389.798,64 389.798,62 387.798,62 387.798,60 387.798,58 385.798,58 385.798,56 383.798,56 383.798,54 383.798,52 381.798,52 381.798,50 379.798,50 379.798,48 379.798,46 377.798,46 377.798,44 375.798,44 375.798,42 375.798,40 373.798,40 373.798,38 371.798,38 371.798,40 369.798,40 369.798,42 369.798,44 367.798,44 367.798,46 365.798,46 365.798,48 365.798,50 363.798,50 363.798,52 361.798,52 361.798,54 361.798,56 359.798,56 359.798,58 357.798,58 357.798,60 357.798,62 357.169,62 355.798,62 355.798,64 353.798,64 353.798,66 353.798,68 351.798,68 351.798,70 349.798,70 349.798,72 349.798,74 347.798,74 347.798,76 345.798,76 345.798,78 345.798,80 343.798,80 343.798,82 341.798,82 341.798,84 341.798,86 339.798,86 339.798,88 337.798,88 337.798,90 337.798,92 335.798,92 335.798,94 333.798,94 333.798,96 333.798,98 333.484,98 331.798,98 331.798,100 331.484,100 331.484,98 329.798,98 329.484,98 329.484,96 327.798,96 327.798,94 325.798,94 325.798,92 323.798,92 323.798,90 323.798,88 321.798,88 321.798,86 319.798,86 319.798,84 319.798,82 317.798,82 317.798,80 315.798,80 315.798,78 315.798,76 313.798,76 313.798,74 311.798,74 311.798,76 309.798,76 309.798,78 309.798,80 307.798,80 307.798,82 305.798,82 305.798,84 305.798,86 303.798,86 303.798,88 301.798,88 301.798,90 301.798,92 299.798,92 299.798,94 297.798,94 297.798,96 295.798,96 295.798,98 293.798,98 293.798,100 291.798,100 291.798,102 289.798,102 289.798,100 287.798,100 287.798,102 285.798,102 285.798,100 283.798,100 283.798,102 281.798,102 281.798,100 279.798,100 279.798,102 277.957,102 277.957,100 279.798,100 279.798,98 277.957,98 277.957,96 275.957,96 275.957,98 277.798,98 277.798,100 275.957,100 275.957,102 273.957,102 273.957,100 271.957,100 271.957,102 269.957,102 269.957,100 267.957,100 267.957,102 265.957,102 265.957,100 263.957,100 263.957,102 261.957,102 261.957,100 259.957,100 259.957,102 258.113,102 258.113,100 259.957,100 259.957,98 258.113,98 258.113,96 256.113,96 256.113,98 257.957,98 257.957,100 256.113,100 256.113,102 254.113,102 254.113,100 252.113,100 252.113,102 250.113,102 250.113,100 248.113,100 248.113,102 246.113,102 246.113,100 244.113,100 244.113,102 242.113,102 242.113,100 240.113,100 240.113,102 238.271,102 238.271,100 240.113,100 240.113,98 238.271,98 238.271,96 236.271,96 236.271,98 238.113,98 238.113,100 236.271,100 236.271,102 234.271,102 234.271,100 232.271,100 232.271,102 230.271,102 230.271,100 228.271,100 228.271,102 226.271,102 226.271,100 224.271,100 224.271,102 222.271,102 222.271,100 220.271,100 220.271,102 218.428,102 218.428,100 220.271,100 220.271,98 218.428,98 218.428,96 216.428,96 216.428,98 218.271,98 218.271,100 216.428,100 216.428,102 214.428,102 214.428,100 212.428,100 212.428,102 210.428,102 210.428,100 208.428,100 208.428,102 206.428,102 206.428,100 204.428,100 204.428,102 202.428,102 202.428,100 200.428,100 200.428,102 198.585,102 198.585,100 200.428,100 200.428,98 198.585,98 198.585,96 196.585,96 196.585,98 198.428,98 198.428,100 196.585,100 196.585,102 194.585,102 194.585,100 192.585,100 192.585,102 190.585,102 190.585,100 188.585,100 188.585,102 186.585,102 186.585,100 184.585,100 184.585,102 182.585,102 182.585,100 180.585,100 180.585,102 178.742,102 178.742,100 180.585,100 180.585,98 178.742,98 178.742,96 176.742,96 176.742,98 178.585,98 178.585,100 176.742,100 176.742,102 174.742,102 174.742,100 172.742,100 172.742,102 170.742,102 170.742,100 168.742,100 168.742,102 166.742,102 166.742,100 164.742,100 164.742,102 162.742,102 162.742,100 160.742,100 160.742,102 158.899,102 158.899,100 160.742,100 160.742,98 158.899,98 158.899,96 156.899,96 156.899,98 158.742,98 158.742,100 156.899,100 156.899,102 154.899,102 154.899,100 152.899,100 152.899,102 150.899,102 150.899,100 148.899,100 148.899,102 146.899,102 146.899,100 144.899,100 144.899,102 142.899,102 142.899,100 140.899,100 140.899,102 139.057,102 139.057,100 140.899,100 140.899,98 139.057,98 139.057,96 137.057,96 137.057,98 138.899,98 138.899,100 137.057,100 137.057,102 135.057,102 135.057,100 133.057,100 133.057,102 131.057,102 131.057,100 129.057,100 129.057,102 127.057,102 127.057,100 125.057,100 125.057,102 123.057,102 123.057,100 121.057,100 121.057,102 119.214,102 119.214,100 121.057,100 121.057,98 119.214,98 119.214,96 117.214,96 117.214,98 119.057,98 119.057,100 117.214,100 117.214,102 115.214,102 115.214,100 113.214,100 113.214,102 111.214,102 111.214,100 109.214,100 109.214,102 107.214,102 107.214,100 105.214,100 105.214,102 103.214,102 103.214,100 101.214,100 101.214,102 100.696,102 99.371,102 99.371,100 101.214,100 101.214,98 99.371,98 99.371,96 97.371,96 97.371,98 99.214,98 99.214,100 97.686,100 97.371,100 97.371,98 95.686,98 95.371,98 93.686,98 93.686,96 95.371,96 95.371,94 93.686,94 93.371,94 91.686,94 91.686,92 89.686,92 89.686,90 89.686,88 87.686,88 87.686,86 85.686,86 85.686,84 85.686,82 83.686,82 83.686,80 81.686,80 81.686,78 81.686,76 79.686,76 79.686,74 77.686,74 77.686,72 77.686,70 75.686,70 75.686,68 73.686,68 73.686,66 73.686,64 71.686,64 71.686,62 69.686,62 69.686,64 67.686,64 67.686,66 67.686,68 65.686,68 65.686,70 63.686,70 63.686,72 63.686,74 61.686,74 61.686,76 59.686,76 59.686,78 59.686,80 57.686,80 57.686,82 55.686,82 55.686,84 55.686,86 53.686,86 53.686,88 51.686,88 51.686,90 51.686,92 49.686,92 49.686,94 47.686,94 45.686,94 45.686,96 47.686,96 47.686,98 45.686,98 43.686,98 43.686,100 41.686,100 41.686,102 39.843,102 39.843,100 41.686,100 41.686,98 39.843,98 39.843,96 37.843,96 37.843,98 39.686,98 39.686,100 37.843,100 37.843,102 35.843,102 35.843,100 33.843,100 33.843,102 31.843,102 31.843,100 29.843,100 29.843,102 27.843,102 27.843,100 25.843,100 25.843,102 23.843,102 23.843,100 21.843,100 21.843,102 20,102 20,100 21.843,100 21.843,98 20,98 20,96 18,96 18,98 19.843,98 19.843,100 18,100 18,102 16,102 16,100 14,100 14,102 12,102 12,100 10,100 10,102 8,102 8,100 6,100 6,102 4,102 4,100 2,100 2,102 0,102 0,104 0,106 0,108 0,110 2,110 4,110 6,110 8,110 10,110 12,110 14,110 16,110 18,110 19.843,110 20,110 21.843,110 23.843,110 25.843,110 27.843,110 29.843,110 31.843,110 33.843,110 35.843,110 37.843,110 39.686,110 39.843,110 41.686,110 43.686,110 45.686,110 47.686,110 49.686,110 51.686,110 53.686,110 55.686,110 57.686,110 59.528,110 59.686,110 61.528,110 61.686,110 63.528,110 63.686,110 65.528,110 65.686,110 67.528,110 67.686,110 69.528,110 69.686,110 71.528,110 71.686,110 73.528,110 73.686,110 75.528,110 75.686,110 77.528,110 77.686,110 79.371,110 79.528,110 79.686,110 81.371,110 81.686,110 83.371,110 83.686,110 85.371,110 85.686,110 87.371,110 87.686,110 89.371,110 89.686,110 91.371,110 91.686,110 93.371,110 93.686,110 95.371,110 95.686,110 97.371,110 97.686,110 99.214,110 99.371,110 99.686,110 101.214,110 101.686,110 103.214,110 105.214,110 107.214,110 109.214,110 111.214,110 113.214,110 115.214,110 117.214,110 119.057,110 119.214,110 121.057,110 123.057,110 125.057,110 127.057,110 129.057,110 131.057,110 133.057,110 135.057,110 137.057,110 138.899,110 139.057,110 140.899,110 142.899,110 144.899,110 146.899,110 148.899,110 150.899,110 152.899,110 154.899,110 156.899,110 158.742,110 158.899,110 160.742,110 162.742,110 164.742,110 166.742,110 168.742,110 170.742,110 172.742,110 174.742,110 176.742,110 178.585,110 178.742,110 180.585,110 182.585,110 184.585,110 186.585,110 188.585,110 190.585,110 192.585,110 194.585,110 196.585,110 198.428,110 198.585,110 200.428,110 202.428,110 204.428,110 206.428,110 208.428,110 210.428,110 212.428,110 214.428,110 216.428,110 218.271,110 218.428,110 220.271,110 222.271,110 224.271,110 226.271,110 228.271,110 230.271,110 232.271,110 234.271,110 236.271,110 238.113,110 238.271,110 240.113,110 242.113,110 244.113,110 246.113,110 248.113,110 250.113,110 252.113,110 254.113,110 256.113,110 257.957,110 258.113,110 259.957,110 261.957,110 263.957,110 265.957,110 267.957,110 269.957,110 271.957,110 273.957,110 275.957,110 277.798,110 277.957,110 279.798,110 281.798,110 283.798,110 285.798,110 287.798,110 289.798,110 291.798,110 293.798,110 295.798,110 297.642,110 297.798,110 299.642,110 299.798,110 301.642,110 301.798,110 303.642,110 303.798,110 305.642,110 305.798,110 307.642,110 307.798,110 309.642,110 309.798,110 311.642,110 311.798,110 313.642,110 313.798,110 315.642,110 315.798,110 317.484,110 317.642,110 317.798,110 319.484,110 319.798,110 321.484,110 321.798,110 323.484,110 323.798,110 325.484,110 325.798,110 327.484,110 327.798,110 329.484,110 329.798,110 331.484,110 331.798,110 333.484,110 333.798,110 335.484,110 335.798,110 337.328,110 337.484,110 337.798,110 339.328,110 339.798,110 341.328,110 341.798,110 343.328,110 343.798,110 345.328,110 345.798,110 347.328,110 347.798,110 349.328,110 349.798,110 351.328,110 351.798,110 353.328,110 353.798,110 355.328,110 355.798,110 357.169,110 357.328,110 357.798,110 359.169,110 359.798,110 361.169,110 361.798,110 363.169,110 363.798,110 365.169,110 365.798,110 367.169,110 367.798,110 369.169,110 369.798,110 371.169,110 371.798,110 373.169,110 373.798,110 375.169,110 375.798,110 377.013,110 377.169,110 377.798,110 379.013,110 379.798,110 381.013,110 381.798,110 383.013,110 383.798,110 385.013,110 385.798,110 387.013,110 387.798,110 389.013,110 389.798,110 391.013,110 391.798,110 393.013,110 393.798,110 395.013,110 395.798,110 396.855,110 397.013,110 397.798,110 398.855,110 399.798,110 400.855,110 401.798,110 402.855,110 403.798,110 404.855,110 405.798,110 406.855,110 407.798,110 408.855,110 409.798,110 410.855,110 411.798,110 412.855,110 413.798,110 414.855,110 415.798,110 416.699,110 416.855,110 417.798,110 418.699,110 419.798,110 420.699,110 422.699,110 424.699,110 426.699,110 428.699,110 430.699,110 432.699,110 434.699,110 436.699,110 436.699,108 436.699,106 436.699,104 436.699,102 436.699,100 434.699,100 434.699,102"/></g></svg>