<svg xmlns="http://www.w3.org/2000/svg" width="80" height="80"><rect fill="#EB6322" width="80" height="80"/><rect x="12" fill="#F49319" width="8" height="4"/><rect x="20" y="16" fill="#F49319" width="8" height="4"/><rect y="8" fill="#F49319" width="8" height="4"/><rect x="4" y="28" fill="#F49319" width="8" height="4"/><rect x="32" y="4" fill="#F49319" width="8" height="4"/><rect x="40" y="8" fill="#F49319" width="8" height="4"/><rect x="72" y="4" fill="#F49319" width="8" height="4"/><rect x="52" fill="#F49319" width="8" height="4"/><rect x="60" y="16" fill="#F49319" width="8" height="4"/><rect x="64" y="24" fill="#F49319" width="8" height="4"/><rect x="52" y="32" fill="#F49319" width="8" height="4"/><rect x="32" fill="#EC3F23" width="8" height="4"/><rect x="20" y="12" fill="#EC3F23" width="8" height="4"/><rect x="24" y="24" fill="#F49319" width="8" height="4"/><rect x="24" y="20" fill="#EC3F23" width="8" height="4"/><rect x="44" y="28" fill="#F49319" width="8" height="4"/><rect x="12" y="32" fill="#F49319" width="8" height="4"/><rect x="44" y="24" fill="#EC3F23" width="8" height="4"/><rect x="52" y="28" fill="#EC3F23" width="8" height="4"/><rect y="4" fill="#EC3F23" width="8" height="4"/><rect x="4" y="24" fill="#EC3F23" width="8" height="4"/><rect x="12" y="28" fill="#EC3F23" width="8" height="4"/><rect x="12" y="36" fill="#EC3F23" width="8" height="4"/><rect x="52" y="36" fill="#EC3F23" width="8" height="4"/><rect x="8" y="16" fill="#EC3F23" width="12" height="4"/><rect x="8" y="20" fill="#F49319" width="12" height="4"/><rect x="48" y="20" fill="#F49319" width="12" height="4"/><rect x="48" y="16" fill="#EC3F23" width="12" height="4"/><rect x="40" y="4" fill="#EC3F23" width="8" height="4"/><rect x="60" y="12" fill="#EC3F23" width="8" height="4"/><rect x="64" y="20" fill="#EC3F23" width="8" height="4"/><rect x="72" fill="#EC3F23" width="8" height="4"/><rect x="8" fill="#EC3F23" width="4" height="4"/><rect x="4" y="12" fill="#EC3F23" width="4" height="4"/><rect y="16" fill="#EC3F23" width="4" height="4"/><rect y="56" fill="#EC3F23" width="4" height="4"/><rect x="20" fill="#EC3F23" width="4" height="4"/><rect x="24" y="4" fill="#EC3F23" width="4" height="4"/><rect x="8" y="4" fill="#F49319" width="4" height="4"/><rect x="4" y="16" fill="#F49319" width="4" height="4"/><rect y="20" fill="#F49319" width="4" height="4"/><rect x="32" y="16" fill="#F49319" width="4" height="4"/><rect x="40" y="20" fill="#F49319" width="4" height="4"/><rect x="44" y="16" fill="#F49319" width="4" height="4"/><rect x="72" y="16" fill="#F49319" width="4" height="4"/><rect x="16" y="12" fill="#F49319" width="4" height="4"/><rect x="28" y="12" fill="#F49319" width="4" height="4"/><rect x="8" y="8" fill="#F17B20" width="4" height="4"/><rect y="12" fill="#F17B20" width="4" height="4"/><rect x="4" y="20" fill="#F17B20" width="4" height="4"/><rect y="24" fill="#F17B20" width="4" height="4"/><rect x="20" y="20" fill="#F17B20" width="4" height="4"/><rect x="48" y="8" fill="#F17B20" width="4" height="4"/><rect x="40" y="12" fill="#F17B20" width="4" height="4"/><rect x="44" y="20" fill="#F17B20" width="4" height="4"/><rect x="36" y="24" fill="#F49319" width="4" height="4"/><rect x="36" y="28" fill="#F17B20" width="4" height="4"/><rect x="76" y="24" fill="#F49319" width="4" height="4"/><rect x="76" y="28" fill="#F17B20" width="4" height="4"/><rect x="72" y="32" fill="#F17B20" width="4" height="4"/><rect x="60" y="32" fill="#F17B20" width="4" height="4"/><rect x="32" y="32" fill="#F17B20" width="4" height="4"/><rect x="20" y="32" fill="#F17B20" width="4" height="4"/><rect x="40" y="24" fill="#F17B20" width="4" height="4"/><rect x="60" y="20" fill="#F17B20" width="4" height="4"/><rect x="20" y="4" fill="#F49319" width="4" height="4"/><rect x="24" y="8" fill="#F49319" width="4" height="4"/><rect x="48" y="4" fill="#F49319" width="4" height="4"/><rect x="56" y="12" fill="#F49319" width="4" height="4"/><rect x="68" y="12" fill="#F49319" width="4" height="4"/><rect x="60" y="4" fill="#F49319" width="4" height="4"/><rect x="64" y="8" fill="#F49319" width="4" height="4"/><rect x="48" fill="#EC3F23" width="4" height="4"/><rect x="44" y="12" fill="#EC3F23" width="4" height="4"/><rect x="40" y="16" fill="#EC3F23" width="4" height="4"/><rect x="36" y="20" fill="#EC3F23" width="4" height="4"/><rect x="64" y="4" fill="#EC3F23" width="4" height="4"/><rect x="68" y="8" fill="#EC3F23" width="4" height="4"/><rect x="76" y="20" fill="#EC3F23" width="4" height="4"/><rect x="28" y="8" fill="#EC3F23" width="4" height="4"/><rect x="20" y="28" fill="#F49319" width="4" height="4"/><rect x="24" y="32" fill="#F49319" width="4" height="4"/><rect x="40" y="36" fill="#F49319" width="4" height="4"/><rect y="36" fill="#F49319" width="4" height="4"/><rect x="20" y="24" fill="#EC3F23" width="4" height="4"/><rect x="32" y="28" fill="#F49319" width="4" height="4"/><rect x="32" y="24" fill="#EC3F23" width="4" height="4"/><rect x="60" y="28" fill="#F49319" width="4" height="4"/><rect x="64" y="32" fill="#F49319" width="4" height="4"/><rect x="60" y="24" fill="#EC3F23" width="4" height="4"/><rect x="72" y="28" fill="#F49319" width="4" height="4"/><rect x="72" y="24" fill="#EC3F23" width="4" height="4"/><rect x="72" y="28" fill="#F49319" width="4" height="4"/><rect x="72" y="24" fill="#EC3F23" width="4" height="4"/><rect x="60" fill="#EC3F23" width="4" height="4"/><rect x="12" y="4" fill="#F17B20" width="8" height="4"/><rect x="32" y="8" fill="#F17B20" width="8" height="4"/><rect x="12" y="24" fill="#F17B20" width="8" height="4"/><rect x="52" y="24" fill="#F17B20" width="8" height="4"/><rect x="64" y="28" fill="#F17B20" width="8" height="4"/><rect x="24" y="28" fill="#F17B20" width="8" height="4"/><rect x="72" y="8" fill="#F17B20" width="8" height="4"/><rect x="52" y="4" fill="#F17B20" width="8" height="4"/><rect x="12" y="40" fill="#F49319" width="8" height="4"/><rect x="20" y="56" fill="#F49319" width="8" height="4"/><rect y="48" fill="#F49319" width="8" height="4"/><rect x="4" y="68" fill="#F49319" width="8" height="4"/><rect x="32" y="44" fill="#F49319" width="8" height="4"/><rect x="40" y="48" fill="#F49319" width="8" height="4"/><rect x="72" y="44" fill="#F49319" width="8" height="4"/><rect x="52" y="40" fill="#F49319" width="8" height="4"/><rect x="60" y="56" fill="#F49319" width="8" height="4"/><rect x="64" y="64" fill="#F49319" width="8" height="4"/><rect x="52" y="72" fill="#F49319" width="8" height="4"/><rect x="32" y="40" fill="#EC3F23" width="8" height="4"/><rect x="20" y="52" fill="#EC3F23" width="8" height="4"/><rect x="24" y="64" fill="#F49319" width="8" height="4"/><rect x="24" y="60" fill="#EC3F23" width="8" height="4"/><rect x="44" y="68" fill="#F49319" width="8" height="4"/><rect x="12" y="72" fill="#F49319" width="8" height="4"/><rect x="44" y="64" fill="#EC3F23" width="8" height="4"/><rect x="52" y="68" fill="#EC3F23" width="8" height="4"/><rect y="44" fill="#EC3F23" width="8" height="4"/><rect x="4" y="64" fill="#EC3F23" width="8" height="4"/><rect x="12" y="68" fill="#EC3F23" width="8" height="4"/><rect x="12" y="76" fill="#EC3F23" width="8" height="4"/><rect x="52" y="76" fill="#EC3F23" width="8" height="4"/><rect x="8" y="56" fill="#EC3F23" width="12" height="4"/><rect x="8" y="60" fill="#F49319" width="12" height="4"/><rect x="48" y="60" fill="#F49319" width="12" height="4"/><rect x="48" y="56" fill="#EC3F23" width="12" height="4"/><rect x="40" y="44" fill="#EC3F23" width="8" height="4"/><rect x="60" y="52" fill="#EC3F23" width="8" height="4"/><rect x="64" y="60" fill="#EC3F23" width="8" height="4"/><rect x="72" y="40" fill="#EC3F23" width="8" height="4"/><rect x="8" y="40" fill="#EC3F23" width="4" height="4"/><rect x="4" y="52" fill="#EC3F23" width="4" height="4"/><rect x="20" y="40" fill="#EC3F23" width="4" height="4"/><rect x="24" y="44" fill="#EC3F23" width="4" height="4"/><rect x="8" y="44" fill="#F49319" width="4" height="4"/><rect x="4" y="56" fill="#F49319" width="4" height="4"/><rect y="60" fill="#F49319" width="4" height="4"/><rect x="32" y="56" fill="#F49319" width="4" height="4"/><rect x="40" y="60" fill="#F49319" width="4" height="4"/><rect x="44" y="56" fill="#F49319" width="4" height="4"/><rect x="72" y="56" fill="#F49319" width="4" height="4"/><rect x="16" y="52" fill="#F49319" width="4" height="4"/><rect x="28" y="52" fill="#F49319" width="4" height="4"/><rect x="8" y="48" fill="#F17B20" width="4" height="4"/><rect y="52" fill="#F17B20" width="4" height="4"/><rect x="4" y="60" fill="#F17B20" width="4" height="4"/><rect y="64" fill="#F17B20" width="4" height="4"/><rect x="20" y="60" fill="#F17B20" width="4" height="4"/><rect x="48" y="48" fill="#F17B20" width="4" height="4"/><rect x="40" y="52" fill="#F17B20" width="4" height="4"/><rect x="44" y="60" fill="#F17B20" width="4" height="4"/><rect x="36" y="64" fill="#F49319" width="4" height="4"/><rect x="36" y="68" fill="#F17B20" width="4" height="4"/><rect x="76" y="64" fill="#F49319" width="4" height="4"/><rect x="76" y="68" fill="#F17B20" width="4" height="4"/><rect x="72" y="72" fill="#F17B20" width="4" height="4"/><rect x="60" y="72" fill="#F17B20" width="4" height="4"/><rect x="32" y="72" fill="#F17B20" width="4" height="4"/><rect x="20" y="72" fill="#F17B20" width="4" height="4"/><rect x="40" y="64" fill="#F17B20" width="4" height="4"/><rect x="60" y="60" fill="#F17B20" width="4" height="4"/><rect x="20" y="44" fill="#F49319" width="4" height="4"/><rect x="24" y="48" fill="#F49319" width="4" height="4"/><rect x="48" y="44" fill="#F49319" width="4" height="4"/><rect x="56" y="52" fill="#F49319" width="4" height="4"/><rect x="68" y="52" fill="#F49319" width="4" height="4"/><rect x="60" y="44" fill="#F49319" width="4" height="4"/><rect x="64" y="48" fill="#F49319" width="4" height="4"/><rect x="48" y="40" fill="#EC3F23" width="4" height="4"/><rect x="44" y="52" fill="#EC3F23" width="4" height="4"/><rect x="40" y="56" fill="#EC3F23" width="4" height="4"/><rect x="36" y="60" fill="#EC3F23" width="4" height="4"/><rect x="64" y="44" fill="#EC3F23" width="4" height="4"/><rect x="68" y="48" fill="#EC3F23" width="4" height="4"/><rect x="76" y="60" fill="#EC3F23" width="4" height="4"/><rect x="28" y="48" fill="#EC3F23" width="4" height="4"/><rect x="20" y="68" fill="#F49319" width="4" height="4"/><rect x="24" y="72" fill="#F49319" width="4" height="4"/><rect x="40" y="76" fill="#F49319" width="4" height="4"/><rect y="76" fill="#F49319" width="4" height="4"/><rect x="20" y="64" fill="#EC3F23" width="4" height="4"/><rect x="32" y="68" fill="#F49319" width="4" height="4"/><rect x="32" y="64" fill="#EC3F23" width="4" height="4"/><rect x="60" y="68" fill="#F49319" width="4" height="4"/><rect x="64" y="72" fill="#F49319" width="4" height="4"/><rect x="60" y="64" fill="#EC3F23" width="4" height="4"/><rect x="72" y="68" fill="#F49319" width="4" height="4"/><rect x="72" y="64" fill="#EC3F23" width="4" height="4"/><rect x="72" y="68" fill="#F49319" width="4" height="4"/><rect x="72" y="64" fill="#EC3F23" width="4" height="4"/><rect x="60" y="40" fill="#EC3F23" width="4" height="4"/><rect x="12" y="44" fill="#F17B20" width="8" height="4"/><rect x="32" y="48" fill="#F17B20" width="8" height="4"/><rect x="12" y="64" fill="#F17B20" width="8" height="4"/><rect x="52" y="64" fill="#F17B20" width="8" height="4"/><rect x="64" y="68" fill="#F17B20" width="8" height="4"/><rect x="24" y="68" fill="#F17B20" width="8" height="4"/><rect x="72" y="48" fill="#F17B20" width="8" height="4"/><rect x="52" y="44" fill="#F17B20" width="8" height="4"/></svg>