<svg xmlns="http://www.w3.org/2000/svg" width="188" height="74"><polygon points="116,32 114,32 112,32 110,32 108,32 106,32 104,32 102,32 100,32 98,32 96,32 96,34 94,34 94,36 96,36 96,38 98,38 100,38 102,38 104,38 106,38 108,38 110,38 112,38 114,38 116,38 116,36 118,36 118,34 116,34" fill="none"/><polygon points="76,54 74,54 72,54 70,54 68,54 66,54 64,54 62,54 60,54 58,54 56,54 56,56 54,56 54,58 56,58 56,60 58,60 60,60 62,60 64,60 66,60 68,60 70,60 72,60 74,60 76,60 76,58 78,58 78,56 76,56" fill="none"/><rect x="180" y="14" fill="#6E6F72" width="2" height="2"/><rect x="174" y="14" fill="#6E6F72" width="2" height="2"/><rect x="180" y="6" fill="#6E6F72" width="2" height="2"/><polygon fill="#6E6F72" points="170,6 170,8 170,10 170,12 170,14 172,14 172,12 172,10 174,10 174,8 172,8 172,6 172,4 174,4 176,4 178,4 180,4 182,4 182,6 184,6 184,4 186,4 186,2 184,2 182,2 180,2 178,2 176,2 174,2 172,2 170,2 170,4"/><rect x="176" y="12" fill="#6E6F72" width="2" height="2"/><rect x="178" y="8" fill="#6E6F72" width="2" height="2"/><rect x="158" y="12" fill="#6E6F72" width="2" height="2"/><rect x="162" y="14" fill="#6E6F72" width="2" height="2"/><polygon fill="#6E6F72" points="152,6 152,8 152,10 152,12 152,14 154,14 154,12 154,10 156,10 156,8 154,8 154,6 154,4 156,4 158,4 160,4 162,4 164,4 164,6 166,6 166,4 168,4 168,2 166,2 164,2 162,2 160,2 158,2 156,2 154,2 152,2 152,4"/><rect x="156" y="14" fill="#6E6F72" width="2" height="2"/><rect x="160" y="8" fill="#6E6F72" width="2" height="2"/><rect x="162" y="6" fill="#6E6F72" width="2" height="2"/><rect x="138" y="14" fill="#6E6F72" width="2" height="2"/><polygon fill="#6E6F72" points="134,6 134,8 134,10 134,12 134,14 136,14 136,12 136,10 138,10 138,8 136,8 136,6 136,4 138,4 140,4 142,4 144,4 146,4 146,6 148,6 148,4 150,4 150,2 148,2 146,2 144,2 142,2 140,2 138,2 136,2 134,2 134,4"/><rect x="142" y="8" fill="#6E6F72" width="2" height="2"/><rect x="144" y="14" fill="#6E6F72" width="2" height="2"/><rect x="144" y="6" fill="#6E6F72" width="2" height="2"/><rect x="140" y="12" fill="#6E6F72" width="2" height="2"/><polygon fill="#D6D8AD" points="116,40 116,42 114,42 112,42 110,42 108,42 106,42 104,42 102,42 100,42 98,42 96,42 96,40 96,38 94,38 92,38 90,38 90,40 92,40 92,42 94,42 94,44 92,44 90,44 90,46 90,48 92,48 94,48 94,46 96,46 96,44 98,44 100,44 102,44 104,44 106,44 108,44 110,44 112,44 114,44 116,44 116,46 118,46 118,48 120,48 122,48 122,46 120,46 120,44 120,42 122,42 122,40 122,38 120,38 118,38 118,40"/><polygon fill="#D6D8AD" points="92,22 90,22 90,24 92,24 92,26 94,26 94,28 92,28 90,28 90,30 90,32 92,32 94,32 94,30 96,30 96,28 98,28 100,28 102,28 104,28 106,28 108,28 110,28 112,28 114,28 116,28 116,30 118,30 118,32 120,32 122,32 122,30 120,30 120,28 120,26 122,26 122,24 122,22 120,22 118,22 118,24 116,24 116,26 114,26 112,26 110,26 108,26 106,26 104,26 102,26 100,26 98,26 96,26 96,24 96,22 94,22"/><polygon fill="#D6D8AD" points="76,62 76,64 74,64 72,64 70,64 68,64 66,64 64,64 62,64 60,64 58,64 56,64 56,62 56,60 54,60 52,60 50,60 50,62 52,62 52,64 54,64 54,66 52,66 50,66 50,68 50,70 52,70 54,70 54,68 56,68 56,66 58,66 60,66 62,66 64,66 66,66 68,66 70,66 72,66 74,66 76,66 76,68 78,68 78,70 80,70 82,70 82,68 80,68 80,66 80,64 82,64 82,62 82,60 80,60 78,60 78,62"/><polygon fill="#D6D8AD" points="52,44 50,44 50,46 52,46 52,48 54,48 54,50 52,50 50,50 50,52 50,54 52,54 54,54 54,52 56,52 56,50 58,50 60,50 62,50 64,50 66,50 68,50 70,50 72,50 74,50 76,50 76,52 78,52 78,54 80,54 82,54 82,52 80,52 80,50 80,48 82,48 82,46 82,44 80,44 78,44 78,46 76,46 76,48 74,48 72,48 70,48 68,48 66,48 64,48 62,48 60,48 58,48 56,48 56,46 56,44 54,44"/><rect x="24" y="26" fill="#6E6F72" width="2" height="2"/><polygon fill="#6E6F72" points="28,22 26,22 24,22 22,22 20,22 18,22 16,22 14,22 12,22 10,22 8,22 6,22 4,22 2,22 2,24 4,24 6,24 6,26 8,26 10,26 10,24 12,24 14,24 16,24 18,24 20,24 22,24 24,24 26,24 26,26 28,26 28,24 30,24 30,22"/><rect x="10" y="26" fill="#6E6F72" width="2" height="2"/><rect x="48" y="70" fill="#010101" width="2" height="2"/><polygon fill="#010101" points="50,72 50,74 52,74 54,74 54,72 52,72"/><rect x="54" y="70" fill="#010101" width="2" height="2"/><polygon fill="#010101" points="74,68 72,68 70,68 68,68 66,68 64,68 62,68 60,68 58,68 56,68 56,70 58,70 60,70 62,70 64,70 66,70 68,70 70,70 72,70 74,70 76,70 76,68"/><rect x="76" y="70" fill="#010101" width="2" height="2"/><polygon fill="#010101" points="78,72 78,74 80,74 82,74 82,72 80,72"/><rect x="82" y="70" fill="#010101" width="2" height="2"/><polygon fill="#010101" points="84,70 86,70 86,68 86,66 84,66 84,68"/><rect x="82" y="64" fill="#010101" width="2" height="2"/><polygon fill="#010101" points="84,64 86,64 86,62 86,60 84,60 84,62"/><rect x="82" y="58" fill="#010101" width="2" height="2"/><rect x="76" y="58" fill="#010101" width="2" height="2"/><polygon fill="#010101" points="58,62 60,62 62,62 64,62 66,62 68,62 70,62 72,62 74,62 76,62 76,60 74,60 72,60 70,60 68,60 66,60 64,60 62,60 60,60 58,60 56,60 56,62"/><rect x="54" y="58" fill="#010101" width="2" height="2"/><polygon fill="#EBEFCD" points="52,60 54,60 54,58 52,58 50,58 50,60"/><polygon fill="#EBEFCD" points="50,62 50,60 48,60 48,62 48,64 50,64"/><rect x="50" y="62" fill="#ADB18F" width="2" height="2"/><polygon fill="#EBEFCD" points="72,62 70,62 68,62 66,62 64,62 62,62 60,62 58,62 56,62 56,64 58,64 60,64 62,64 64,64 66,64 68,64 70,64 72,64 74,64 76,64 76,62 74,62"/><rect x="76" y="60" fill="#EBEFCD" width="2" height="2"/><polygon fill="#EBEFCD" points="78,58 78,60 80,60 82,60 82,58 80,58"/><polygon fill="#ADB18F" points="82,62 82,64 84,64 84,62 84,60 82,60"/><rect x="80" y="64" fill="#ADB18F" width="2" height="2"/><rect x="80" y="66" fill="#EBEFCD" width="2" height="2"/><polygon fill="#ADB18F" points="82,68 82,70 84,70 84,68 84,66 82,66"/><polygon fill="#ADB18F" points="80,70 78,70 78,72 80,72 82,72 82,70"/><rect x="76" y="68" fill="#ADB18F" width="2" height="2"/><polygon fill="#ADB18F" points="74,66 72,66 70,66 68,66 66,66 64,66 62,66 60,66 58,66 56,66 56,68 58,68 60,68 62,68 64,68 66,68 68,68 70,68 72,68 74,68 76,68 76,66"/><rect x="54" y="68" fill="#ADB18F" width="2" height="2"/><polygon fill="#ADB18F" points="52,70 50,70 50,72 52,72 54,72 54,70"/><rect x="48" y="68" fill="#ADB18F" width="2" height="2"/><rect x="48" y="66" fill="#EBEFCD" width="2" height="2"/><rect x="52" y="64" fill="#ADB18F" width="2" height="2"/><rect x="50" y="64" fill="#EBEFCD" width="2" height="2"/><rect x="48" y="58" fill="#010101" width="2" height="2"/><polygon fill="#010101" points="48,60 46,60 46,62 46,64 48,64 48,62"/><rect x="48" y="64" fill="#010101" width="2" height="2"/><polygon fill="#010101" points="48,66 46,66 46,68 46,70 48,70 48,68"/><rect x="48" y="54" fill="#010101" width="2" height="2"/><polygon fill="#010101" points="54,58 54,56 52,56 50,56 50,58 52,58"/><rect x="54" y="54" fill="#010101" width="2" height="2"/><polygon fill="#010101" points="58,54 60,54 62,54 64,54 66,54 68,54 70,54 72,54 74,54 76,54 76,52 74,52 72,52 70,52 68,52 66,52 64,52 62,52 60,52 58,52 56,52 56,54"/><rect x="76" y="54" fill="#010101" width="2" height="2"/><polygon fill="#010101" points="78,56 78,58 80,58 82,58 82,56 80,56"/><rect x="82" y="54" fill="#010101" width="2" height="2"/><polygon fill="#010101" points="84,54 86,54 86,52 86,50 84,50 84,52"/><rect x="82" y="48" fill="#010101" width="2" height="2"/><rect x="82" y="42" fill="#010101" width="2" height="2"/><polygon fill="#010101" points="82,42 82,40 80,40 78,40 78,42 80,42"/><rect x="76" y="42" fill="#010101" width="2" height="2"/><polygon fill="#010101" points="58,46 60,46 62,46 64,46 66,46 68,46 70,46 72,46 74,46 76,46 76,44 74,44 72,44 70,44 68,44 66,44 64,44 62,44 60,44 58,44 56,44 56,46"/><rect x="54" y="42" fill="#010101" width="2" height="2"/><polygon fill="#010101" points="54,42 54,40 52,40 50,40 50,42 52,42"/><polygon fill="#EBEFCD" points="52,44 54,44 54,42 52,42 50,42 50,44"/><polygon fill="#EBEFCD" points="50,46 50,44 48,44 48,46 48,48 50,48"/><rect x="50" y="46" fill="#ADB18F" width="2" height="2"/><polygon fill="#EBEFCD" points="72,46 70,46 68,46 66,46 64,46 62,46 60,46 58,46 56,46 56,48 58,48 60,48 62,48 64,48 66,48 68,48 70,48 72,48 74,48 76,48 76,46 74,46"/><rect x="76" y="44" fill="#EBEFCD" width="2" height="2"/><polygon fill="#EBEFCD" points="80,44 82,44 82,42 80,42 78,42 78,44"/><polygon fill="#ADB18F" points="84,44 82,44 82,46 82,48 84,48 84,46"/><rect x="80" y="48" fill="#ADB18F" width="2" height="2"/><rect x="80" y="50" fill="#EBEFCD" width="2" height="2"/><polygon fill="#ADB18F" points="82,52 82,54 84,54 84,52 84,50 82,50"/><polygon fill="#ADB18F" points="80,54 78,54 78,56 80,56 82,56 82,54"/><rect x="76" y="52" fill="#ADB18F" width="2" height="2"/><polygon fill="#ADB18F" points="60,52 62,52 64,52 66,52 68,52 70,52 72,52 74,52 76,52 76,50 74,50 72,50 70,50 68,50 66,50 64,50 62,50 60,50 58,50 56,50 56,52 58,52"/><rect x="54" y="52" fill="#ADB18F" width="2" height="2"/><polygon fill="#ADB18F" points="54,56 54,54 52,54 50,54 50,56 52,56"/><rect x="48" y="52" fill="#ADB18F" width="2" height="2"/><rect x="48" y="50" fill="#EBEFCD" width="2" height="2"/><rect x="52" y="48" fill="#ADB18F" width="2" height="2"/><rect x="50" y="48" fill="#EBEFCD" width="2" height="2"/><rect x="48" y="42" fill="#010101" width="2" height="2"/><polygon fill="#010101" points="48,44 46,44 46,46 46,48 48,48 48,46"/><rect x="48" y="48" fill="#010101" width="2" height="2"/><polygon fill="#010101" points="48,50 46,50 46,52 46,54 48,54 48,52"/><rect x="88" y="48" fill="#010101" width="2" height="2"/><polygon fill="#010101" points="90,50 90,52 92,52 94,52 94,50 92,50"/><rect x="94" y="48" fill="#010101" width="2" height="2"/><polygon fill="#010101" points="114,46 112,46 110,46 108,46 106,46 104,46 102,46 100,46 98,46 96,46 96,48 98,48 100,48 102,48 104,48 106,48 108,48 110,48 112,48 114,48 116,48 116,46"/><rect x="116" y="48" fill="#010101" width="2" height="2"/><polygon fill="#010101" points="118,50 118,52 120,52 122,52 122,50 120,50"/><rect x="122" y="48" fill="#010101" width="2" height="2"/><polygon fill="#010101" points="124,48 126,48 126,46 126,44 124,44 124,46"/><rect x="122" y="42" fill="#010101" width="2" height="2"/><polygon fill="#010101" points="124,42 126,42 126,40 126,38 124,38 124,40"/><rect x="122" y="36" fill="#010101" width="2" height="2"/><rect x="116" y="36" fill="#010101" width="2" height="2"/><polygon fill="#010101" points="98,40 100,40 102,40 104,40 106,40 108,40 110,40 112,40 114,40 116,40 116,38 114,38 112,38 110,38 108,38 106,38 104,38 102,38 100,38 98,38 96,38 96,40"/><rect x="94" y="36" fill="#010101" width="2" height="2"/><polygon fill="#EBEFCD" points="92,38 94,38 94,36 92,36 90,36 90,38"/><polygon fill="#EBEFCD" points="90,40 90,38 88,38 88,40 88,42 90,42"/><rect x="90" y="40" fill="#ADB18F" width="2" height="2"/><polygon fill="#EBEFCD" points="112,40 110,40 108,40 106,40 104,40 102,40 100,40 98,40 96,40 96,42 98,42 100,42 102,42 104,42 106,42 108,42 110,42 112,42 114,42 116,42 116,40 114,40"/><rect x="116" y="38" fill="#EBEFCD" width="2" height="2"/><polygon fill="#EBEFCD" points="118,36 118,38 120,38 122,38 122,36 120,36"/><polygon fill="#ADB18F" points="122,40 122,42 124,42 124,40 124,38 122,38"/><rect x="120" y="42" fill="#ADB18F" width="2" height="2"/><rect x="120" y="44" fill="#EBEFCD" width="2" height="2"/><polygon fill="#ADB18F" points="122,46 122,48 124,48 124,46 124,44 122,44"/><polygon fill="#ADB18F" points="120,48 118,48 118,50 120,50 122,50 122,48"/><rect x="116" y="46" fill="#ADB18F" width="2" height="2"/><polygon fill="#ADB18F" points="114,44 112,44 110,44 108,44 106,44 104,44 102,44 100,44 98,44 96,44 96,46 98,46 100,46 102,46 104,46 106,46 108,46 110,46 112,46 114,46 116,46 116,44"/><rect x="94" y="46" fill="#ADB18F" width="2" height="2"/><polygon fill="#ADB18F" points="92,48 90,48 90,50 92,50 94,50 94,48"/><rect x="88" y="46" fill="#ADB18F" width="2" height="2"/><rect x="88" y="44" fill="#EBEFCD" width="2" height="2"/><rect x="92" y="42" fill="#ADB18F" width="2" height="2"/><rect x="90" y="42" fill="#EBEFCD" width="2" height="2"/><rect x="88" y="36" fill="#010101" width="2" height="2"/><polygon fill="#010101" points="88,38 86,38 86,40 86,42 88,42 88,40"/><rect x="88" y="42" fill="#010101" width="2" height="2"/><polygon fill="#010101" points="88,44 86,44 84,44 84,46 84,48 86,48 88,48 88,46"/><rect x="88" y="32" fill="#010101" width="2" height="2"/><polygon fill="#010101" points="94,36 94,34 92,34 90,34 90,36 92,36"/><rect x="94" y="32" fill="#010101" width="2" height="2"/><polygon fill="#010101" points="98,32 100,32 102,32 104,32 106,32 108,32 110,32 112,32 114,32 116,32 116,30 114,30 112,30 110,30 108,30 106,30 104,30 102,30 100,30 98,30 96,30 96,32"/><rect x="116" y="32" fill="#010101" width="2" height="2"/><polygon fill="#010101" points="118,34 118,36 120,36 122,36 122,34 120,34"/><rect x="122" y="32" fill="#010101" width="2" height="2"/><polygon fill="#010101" points="124,32 126,32 126,30 126,28 124,28 124,30"/><rect x="122" y="26" fill="#010101" width="2" height="2"/><polygon fill="#010101" points="124,24 124,26 126,26 126,24 126,22 124,22"/><rect x="122" y="20" fill="#010101" width="2" height="2"/><polygon fill="#010101" points="122,20 122,18 120,18 118,18 118,20 120,20"/><rect x="116" y="20" fill="#010101" width="2" height="2"/><polygon fill="#010101" points="98,24 100,24 102,24 104,24 106,24 108,24 110,24 112,24 114,24 116,24 116,22 114,22 112,22 110,22 108,22 106,22 104,22 102,22 100,22 98,22 96,22 96,24"/><rect x="94" y="20" fill="#010101" width="2" height="2"/><polygon fill="#010101" points="94,20 94,18 92,18 90,18 90,20 92,20"/><polygon fill="#EBEFCD" points="92,22 94,22 94,20 92,20 90,20 90,22"/><polygon fill="#EBEFCD" points="90,24 90,22 88,22 88,24 88,26 90,26"/><rect x="90" y="24" fill="#ADB18F" width="2" height="2"/><polygon fill="#EBEFCD" points="112,24 110,24 108,24 106,24 104,24 102,24 100,24 98,24 96,24 96,26 98,26 100,26 102,26 104,26 106,26 108,26 110,26 112,26 114,26 116,26 116,24 114,24"/><rect x="116" y="22" fill="#EBEFCD" width="2" height="2"/><polygon fill="#EBEFCD" points="120,22 122,22 122,20 120,20 118,20 118,22"/><polygon fill="#ADB18F" points="124,22 122,22 122,24 122,26 124,26 124,24"/><rect x="120" y="26" fill="#ADB18F" width="2" height="2"/><rect x="120" y="28" fill="#EBEFCD" width="2" height="2"/><polygon fill="#ADB18F" points="122,30 122,32 124,32 124,30 124,28 122,28"/><polygon fill="#ADB18F" points="120,32 118,32 118,34 120,34 122,34 122,32"/><rect x="116" y="30" fill="#ADB18F" width="2" height="2"/><polygon fill="#ADB18F" points="100,30 102,30 104,30 106,30 108,30 110,30 112,30 114,30 116,30 116,28 114,28 112,28 110,28 108,28 106,28 104,28 102,28 100,28 98,28 96,28 96,30 98,30"/><rect x="94" y="30" fill="#ADB18F" width="2" height="2"/><polygon fill="#ADB18F" points="94,34 94,32 92,32 90,32 90,34 92,34"/><rect x="88" y="30" fill="#ADB18F" width="2" height="2"/><rect x="88" y="28" fill="#EBEFCD" width="2" height="2"/><rect x="92" y="26" fill="#ADB18F" width="2" height="2"/><rect x="90" y="26" fill="#EBEFCD" width="2" height="2"/><rect x="88" y="20" fill="#010101" width="2" height="2"/><polygon fill="#010101" points="88,22 86,22 86,24 86,26 88,26 88,24"/><rect x="88" y="26" fill="#010101" width="2" height="2"/><polygon fill="#010101" points="88,28 86,28 86,30 86,32 88,32 88,30"/><polygon fill="#010101" points="28,20 26,20 24,20 22,20 20,20 18,20 16,20 14,20 12,20 10,20 8,20 6,20 4,20 2,20 0,20 0,22 0,24 2,24 2,22 4,22 6,22 8,22 10,22 12,22 14,22 16,22 18,22 20,22 22,22 24,22 26,22 28,22 30,22 30,24 32,24 32,22 32,20 30,20"/><polygon fill="#010101" points="28,26 28,28 30,28 30,26 30,24 28,24"/><polygon fill="#010101" points="26,30 26,32 28,32 28,30 28,28 26,28"/><rect x="24" y="32" fill="#010101" width="2" height="2"/><rect x="18" y="34" fill="#010101" width="2" height="2"/><polygon fill="#010101" points="18,30 16,30 16,32 16,34 18,34 18,32"/><polygon fill="#010101" points="24,28 22,28 22,30 20,30 20,32 20,34 22,34 22,32 24,32 24,30"/><rect x="20" y="26" fill="#010101" width="2" height="2"/><polygon fill="#010101" points="18,26 20,26 20,24 18,24 16,24 16,26"/><polygon fill="#010101" points="16,26 14,26 14,28 12,28 12,30 12,32 14,32 14,30 16,30 16,28"/><polygon fill="#010101" points="10,34 10,36 12,36 12,34 12,32 10,32"/><rect x="8" y="36" fill="#010101" width="2" height="2"/><polygon fill="#010101" points="8,32 6,32 6,34 6,36 8,36 8,34"/><polygon fill="#010101" points="6,28 4,28 4,30 4,32 6,32 6,30"/><polygon fill="#010101" points="4,24 2,24 2,26 2,28 4,28 4,26"/><rect x="20" y="24" fill="#505153" width="2" height="2"/><polygon fill="#424143" points="22,28 24,28 24,26 26,26 26,24 24,24 22,24 22,26"/><polygon fill="#231F20" points="18,28 20,28 20,26 18,26 16,26 16,28 16,30 18,30"/><polygon fill="#424143" points="20,30 22,30 22,28 20,28 18,28 18,30 18,32 18,34 20,34 20,32"/><rect x="26" y="26" fill="#505153" width="2" height="2"/><polygon fill="#505153" points="26,28 24,28 24,30 24,32 26,32 26,30"/><polygon fill="#505153" points="12,28 10,28 10,26 8,26 6,26 6,24 4,24 4,26 4,28 6,28 6,30 6,32 8,32 8,34 8,36 10,36 10,34 10,32 12,32 12,30"/><rect x="12" y="26" fill="#424143" width="2" height="2"/><polygon fill="#505153" points="14,26 16,26 16,24 14,24 12,24 12,26"/><rect x="10" y="24" fill="#424143" width="2" height="2"/><polygon fill="#D89628" points="148,16 146,16 144,16 144,14 142,14 142,16 140,16 138,16 136,16 134,16 134,18 136,18 138,18 140,18 142,18 144,18 146,18 148,18 150,18 150,16"/><polygon fill="#7F4D21" points="148,14 148,16 150,16 150,14 150,12 148,12"/><polygon fill="#424143" points="148,6 148,8 146,8 146,10 148,10 148,12 150,12 150,10 150,8 150,6 150,4 148,4"/><rect x="144" y="4" fill="#A17D5A" width="2" height="2"/><rect x="142" y="4" fill="#424143" width="2" height="2"/><polygon fill="#505153" points="140,6 142,6 142,4 140,4 138,4 138,6"/><polygon fill="#A17D5A" points="138,4 136,4 136,6 136,8 138,8 138,6"/><rect x="136" y="10" fill="#505153" width="2" height="2"/><rect x="136" y="12" fill="#424143" width="2" height="2"/><polygon fill="#A17D5A" points="136,14 134,14 134,16 136,16 138,16 138,14"/><rect x="138" y="12" fill="#A17D5A" width="2" height="2"/><rect x="138" y="10" fill="#424143" width="2" height="2"/><rect x="138" y="8" fill="#A17D5A" width="2" height="2"/><polygon fill="#424143" points="142,8 142,6 140,6 138,6 138,8 140,8"/><rect x="140" y="8" fill="#D89628" width="2" height="2"/><rect x="140" y="10" fill="#A17D5A" width="2" height="2"/><rect x="140" y="14" fill="#505153" width="2" height="2"/><polygon fill="#424143" points="142,10 142,12 144,12 146,12 146,10 144,10"/><rect x="142" y="6" fill="#A17D5A" width="2" height="2"/><rect x="144" y="8" fill="#505153" width="2" height="2"/><polygon fill="#A17D5A" points="146,12 144,12 142,12 142,14 144,14 146,14"/><rect x="146" y="14" fill="#A17D5A" width="2" height="2"/><rect x="146" y="12" fill="#424143" width="2" height="2"/><rect x="146" y="10" fill="#A17D5A" width="2" height="2"/><rect x="146" y="6" fill="#505153" width="2" height="2"/><polygon fill="#010101" points="138,2 140,2 142,2 144,2 146,2 148,2 150,2 150,0 148,0 146,0 144,0 142,0 140,0 138,0 136,0 134,0 134,2 136,2"/><polygon fill="#010101" points="146,18 144,18 142,18 140,18 138,18 136,18 134,18 134,20 136,20 138,20 140,20 142,20 144,20 146,20 148,20 150,20 150,18 148,18"/><polygon fill="#010101" points="134,14 134,12 134,10 134,8 134,6 134,4 134,2 132,2 132,4 132,6 132,8 132,10 132,12 132,14 132,16 132,18 134,18 134,16"/><polygon fill="#D89628" points="166,16 164,16 162,16 162,14 160,14 160,16 158,16 156,16 154,16 152,16 152,18 154,18 156,18 158,18 160,18 162,18 164,18 166,18 168,18 168,16"/><polygon fill="#7F4D21" points="166,14 166,16 168,16 168,14 168,12 166,12"/><polygon fill="#424143" points="166,6 166,8 164,8 164,10 166,10 166,12 168,12 168,10 168,8 168,6 168,4 166,4"/><rect x="162" y="4" fill="#A17D5A" width="2" height="2"/><rect x="160" y="4" fill="#424143" width="2" height="2"/><polygon fill="#505153" points="158,6 160,6 160,4 158,4 156,4 156,6"/><polygon fill="#A17D5A" points="156,4 154,4 154,6 154,8 156,8 156,6"/><rect x="154" y="10" fill="#505153" width="2" height="2"/><rect x="154" y="12" fill="#424143" width="2" height="2"/><polygon fill="#A17D5A" points="154,14 152,14 152,16 154,16 156,16 156,14"/><rect x="156" y="12" fill="#A17D5A" width="2" height="2"/><rect x="156" y="10" fill="#424143" width="2" height="2"/><rect x="156" y="8" fill="#A17D5A" width="2" height="2"/><polygon fill="#424143" points="160,8 160,6 158,6 156,6 156,8 158,8"/><rect x="158" y="8" fill="#D89628" width="2" height="2"/><rect x="158" y="10" fill="#A17D5A" width="2" height="2"/><rect x="158" y="14" fill="#505153" width="2" height="2"/><polygon fill="#424143" points="160,10 160,12 162,12 164,12 164,10 162,10"/><rect x="160" y="6" fill="#A17D5A" width="2" height="2"/><rect x="162" y="8" fill="#505153" width="2" height="2"/><polygon fill="#A17D5A" points="164,12 162,12 160,12 160,14 162,14 164,14"/><rect x="164" y="14" fill="#A17D5A" width="2" height="2"/><rect x="164" y="12" fill="#424143" width="2" height="2"/><rect x="164" y="10" fill="#A17D5A" width="2" height="2"/><rect x="164" y="6" fill="#505153" width="2" height="2"/><polygon fill="#010101" points="156,2 158,2 160,2 162,2 164,2 166,2 168,2 168,0 166,0 164,0 162,0 160,0 158,0 156,0 154,0 152,0 152,2 154,2"/><polygon fill="#010101" points="164,18 162,18 160,18 158,18 156,18 154,18 152,18 152,20 154,20 156,20 158,20 160,20 162,20 164,20 166,20 168,20 168,18 166,18"/><polygon fill="#010101" points="152,14 152,12 152,10 152,8 152,6 152,4 152,2 150,2 150,4 150,6 150,8 150,10 150,12 150,14 150,16 150,18 152,18 152,16"/><polygon fill="#D89628" points="184,16 182,16 180,16 180,14 178,14 178,16 176,16 174,16 172,16 170,16 170,18 172,18 174,18 176,18 178,18 180,18 182,18 184,18 186,18 186,16"/><polygon fill="#7F4D21" points="184,14 184,16 186,16 186,14 186,12 184,12"/><polygon fill="#424143" points="184,6 184,8 182,8 182,10 184,10 184,12 186,12 186,10 186,8 186,6 186,4 184,4"/><rect x="180" y="4" fill="#A17D5A" width="2" height="2"/><rect x="178" y="4" fill="#424143" width="2" height="2"/><polygon fill="#505153" points="176,6 178,6 178,4 176,4 174,4 174,6"/><polygon fill="#A17D5A" points="174,4 172,4 172,6 172,8 174,8 174,6"/><rect x="172" y="10" fill="#505153" width="2" height="2"/><rect x="172" y="12" fill="#424143" width="2" height="2"/><polygon fill="#A17D5A" points="172,14 170,14 170,16 172,16 174,16 174,14"/><rect x="174" y="12" fill="#A17D5A" width="2" height="2"/><rect x="174" y="10" fill="#424143" width="2" height="2"/><rect x="174" y="8" fill="#A17D5A" width="2" height="2"/><polygon fill="#424143" points="178,8 178,6 176,6 174,6 174,8 176,8"/><rect x="176" y="8" fill="#D89628" width="2" height="2"/><rect x="176" y="10" fill="#A17D5A" width="2" height="2"/><rect x="176" y="14" fill="#505153" width="2" height="2"/><polygon fill="#424143" points="178,10 178,12 180,12 182,12 182,10 180,10"/><rect x="178" y="6" fill="#A17D5A" width="2" height="2"/><rect x="180" y="8" fill="#505153" width="2" height="2"/><polygon fill="#A17D5A" points="182,12 180,12 178,12 178,14 180,14 182,14"/><rect x="182" y="14" fill="#A17D5A" width="2" height="2"/><rect x="182" y="12" fill="#424143" width="2" height="2"/><rect x="182" y="10" fill="#A17D5A" width="2" height="2"/><rect x="182" y="6" fill="#505153" width="2" height="2"/><polygon fill="#010101" points="174,2 176,2 178,2 180,2 182,2 184,2 186,2 186,0 184,0 182,0 180,0 178,0 176,0 174,0 172,0 170,0 170,2 172,2"/><polygon fill="#010101" points="186,2 186,4 186,6 186,8 186,10 186,12 186,14 186,16 186,18 188,18 188,16 188,14 188,12 188,10 188,8 188,6 188,4 188,2"/><polygon fill="#010101" points="182,18 180,18 178,18 176,18 174,18 172,18 170,18 170,20 172,20 174,20 176,20 178,20 180,20 182,20 184,20 186,20 186,18 184,18"/><polygon fill="#010101" points="170,14 170,12 170,10 170,8 170,6 170,4 170,2 168,2 168,4 168,6 168,8 168,10 168,12 168,14 168,16 168,18 170,18 170,16"/></svg>