<svg xmlns="http://www.w3.org/2000/svg" width="144" height="52"><g fill="#F15622"><polygon points="40,42 40,40 40,38 38,38 38,36 38,34 36,34 36,32 34,32 34,30 32,30 32,32 30,32 30,34 28,34 28,36 28,38 26,38 26,36 26,34 26,32 24,32 24,30 24,28 24,26 24,24 24,22 22,22 22,20 22,18 22,16 22,14 20,14 20,12 20,10 20,8 18,8 18,6 18,4 16,4 16,2 14,2 14,0 12,0 12,2 10,2 10,4 8,4 8,6 8,8 6,8 6,10 6,12 6,14 4,14 4,16 4,18 4,20 4,22 2,22 2,24 2,26 2,28 2,30 2,32 0,32 0,34 0,36 0,38 0,40 0,42 0,44 0,46 0,48 0,50 0,52 2,52 4,52 6,52 8,52 10,52 12,52 14,52 16,52 18,52 20,52 22,52 24,52 26,52 28,52 30,52 32,52 34,52 36,52 38,52 40,52 42,52 42,50 42,48 42,46 42,44 40,44"/><polygon points="70,44 70,42 70,40 70,38 68,38 68,36 68,34 68,32 66,32 66,30 66,28 64,28 64,26 62,26 62,24 60,24 60,26 58,26 58,28 56,28 56,30 56,32 54,32 54,34 54,36 54,38 52,38 52,40 52,42 52,44 52,46 50,46 50,48 50,50 50,52 52,52 54,52 56,52 58,52 60,52 62,52 64,52 66,52 68,52 70,52 72,52 72,50 72,48 72,46 70,46"/><polygon points="142,46 142,44 142,42 142,40 142,38 140,38 140,36 140,34 140,32 138,32 138,30 138,28 136,28 136,26 134,26 134,24 132,24 132,26 130,26 130,28 128,28 128,30 128,32 126,32 126,34 126,36 126,38 124,38 124,40 124,42 124,44 124,46 122,46 122,48 122,50 122,52 124,52 126,52 128,52 130,52 132,52 134,52 136,52 138,52 140,52 142,52 144,52 144,50 144,48 144,46"/></g></svg>