<svg xmlns="http://www.w3.org/2000/svg" width="20" height="40"><polygon fill="#505153" points="18,14 18,12 16,12 14,12 14,14 12,14 12,16 10,16 8,16 6,16 4,16 4,14 2,14 2,12 0,12 0,14 0,16 0,18 0,20 0,22 0,24 0,26 0,28 0,30 0,32 0,34 0,36 0,38 2,38 4,38 6,38 8,38 10,38 12,38 14,38 16,38 18,38 20,38 20,36 20,34 20,32 20,30 20,28 20,26 20,24 20,22 20,20 20,18 20,16 20,14"/><polygon fill="#010101" points="18,0 16,0 14,0 12,0 10,0 8,0 6,0 4,0 2,0 0,0 0,2 2,2 4,2 6,2 8,2 10,2 12,2 14,2 16,2 18,2 20,2 20,0"/><polygon fill="#6E6F72" points="16,2 14,2 12,2 10,2 8,2 6,2 4,2 2,2 0,2 0,4 2,4 4,4 6,4 8,4 10,4 12,4 14,4 16,4 18,4 20,4 20,2 18,2"/><polygon fill="#424143" points="16,4 14,4 12,4 10,4 8,4 6,4 4,4 2,4 0,4 0,6 2,6 2,8 4,8 4,10 6,10 8,10 10,10 12,10 12,8 14,8 14,6 16,6 18,6 18,8 20,8 20,6 20,4 18,4"/><rect y="6" fill="#6E6F72" width="2" height="2"/><polygon fill="#6E6F72" points="18,8 18,6 16,6 14,6 14,8 16,8"/><rect y="8" fill="#7F4D21" width="2" height="2"/><rect y="10" fill="#010101" width="2" height="2"/><polygon fill="#6E6F72" points="18,14 16,14 16,16 16,18 18,18 18,20 20,20 20,18 20,16 18,16"/><polygon fill="#6E6F72" points="2,16 2,14 0,14 0,16 0,18 2,18"/><rect y="18" fill="#A17D5A" width="2" height="2"/><rect x="4" y="18" fill="#A17D5A" width="2" height="2"/><rect x="12" y="18" fill="#818285" width="2" height="2"/><rect x="16" y="18" fill="#A17D5A" width="2" height="2"/><rect x="18" y="20" fill="#A17D5A" width="2" height="2"/><rect x="14" y="20" fill="#818285" width="2" height="2"/><polygon fill="#A17D5A" points="10,22 12,22 12,20 10,20 8,20 8,22"/><rect x="6" y="20" fill="#818285" width="2" height="2"/><rect x="2" y="20" fill="#818285" width="2" height="2"/><rect y="22" fill="#818285" width="2" height="2"/><rect x="2" y="22" fill="#6E6F72" width="2" height="2"/><rect x="12" y="22" fill="#818285" width="2" height="2"/><polygon fill="#6E6F72" points="16,22 14,22 14,24 12,24 12,26 14,26 14,28 16,28 16,26 18,26 18,24 16,24"/><rect x="16" y="22" fill="#818285" width="2" height="2"/><polygon fill="#818285" points="8,24 8,26 10,26 12,26 12,24 10,24"/><rect x="4" y="24" fill="#818285" width="2" height="2"/><rect x="2" y="24" fill="#A17D5A" width="2" height="2"/><rect y="24" fill="#6E6F72" width="2" height="2"/><rect y="26" fill="#A17D5A" width="2" height="2"/><rect x="6" y="26" fill="#818285" width="2" height="2"/><rect x="12" y="26" fill="#A17D5A" width="2" height="2"/><rect x="16" y="26" fill="#A17D5A" width="2" height="2"/><rect x="18" y="28" fill="#818285" width="2" height="2"/><rect x="14" y="28" fill="#A17D5A" width="2" height="2"/><polygon fill="#818285" points="10,28 8,28 8,30 10,30 12,30 12,28"/><rect x="6" y="28" fill="#A17D5A" width="2" height="2"/><rect x="2" y="28" fill="#818285" width="2" height="2"/><rect x="18" y="30" fill="#6E6F72" width="2" height="2"/><rect x="16" y="30" fill="#818285" width="2" height="2"/><rect y="30" fill="#818285" width="2" height="2"/><rect x="16" y="32" fill="#6E6F72" width="2" height="2"/><rect x="14" y="32" fill="#818285" width="2" height="2"/><polygon fill="#6E6F72" points="4,34 6,34 8,34 10,34 10,32 12,32 12,30 10,30 8,30 8,32 6,32 6,30 6,28 6,26 4,26 4,28 4,30 2,30 2,32 4,32"/><rect y="32" fill="#6E6F72" width="2" height="2"/><rect x="18" y="34" fill="#6E6F72" width="2" height="2"/><rect x="14" y="34" fill="#A17D5A" width="2" height="2"/><rect x="10" y="34" fill="#818285" width="2" height="2"/><rect x="6" y="34" fill="#A17D5A" width="2" height="2"/><rect x="2" y="34" fill="#6E6F72" width="2" height="2"/><rect x="16" y="36" fill="#A17D5A" width="2" height="2"/><rect x="12" y="36" fill="#A17D5A" width="2" height="2"/><rect x="8" y="36" fill="#A17D5A" width="2" height="2"/><rect x="4" y="36" fill="#A17D5A" width="2" height="2"/><rect y="36" fill="#A17D5A" width="2" height="2"/><polygon fill="#D89628" points="16,38 14,38 12,38 10,38 8,38 6,38 4,38 2,38 0,38 0,40 2,40 4,40 6,40 8,40 10,40 12,40 14,40 16,40 18,40 20,40 20,38 18,38"/><rect x="2" y="12" fill="#010101" width="2" height="2"/><polygon fill="#010101" points="8,14 6,14 4,14 4,16 6,16 8,16 10,16 12,16 12,14 10,14"/><rect x="12" y="12" fill="#010101" width="2" height="2"/><polygon fill="#010101" points="14,10 14,12 16,12 18,12 18,10 16,10"/><rect x="18" y="12" fill="#010101" width="2" height="2"/><rect x="2" y="10" fill="#7F4D21" width="2" height="2"/><polygon fill="#6E6F72" points="6,12 8,12 10,12 12,12 12,10 10,10 8,10 6,10 4,10 4,12"/><rect x="12" y="10" fill="#7F4D21" width="2" height="2"/><polygon fill="#7F4D21" points="6,14 8,14 10,14 12,14 12,12 10,12 8,12 6,12 4,12 4,14"/><rect x="2" y="8" fill="#6E6F72" width="2" height="2"/><rect x="12" y="8" fill="#6E6F72" width="2" height="2"/><polygon fill="#7F4D21" points="16,10 18,10 18,8 16,8 14,8 14,10"/><rect x="18" y="10" fill="#7F4D21" width="2" height="2"/><rect x="18" y="8" fill="#6E6F72" width="2" height="2"/></svg>