<svg xmlns="http://www.w3.org/2000/svg" width="200" height="132"><g fill="#010101"><polygon points="94,108 94,106 94,104 92,104 92,102 92,100 92,98 92,96 94,96 94,94 94,92 94,90 94,88 94,86 94,84 92,84 92,82 90,82 90,80 88,80 86,80 84,80 84,78 82,78 80,78 78,78 76,78 74,78 74,80 72,80 72,82 70,82 70,84 68,84 68,82 66,82 66,80 66,78 64,78 64,76 62,76 62,78 60,78 60,80 58,80 58,82 56,82 56,84 54,84 54,86 54,88 52,88 52,90 52,92 54,92 56,92 56,90 58,90 58,92 60,92 60,94 62,94 62,92 64,92 64,90 66,90 66,92 68,92 68,94 68,96 66,96 66,98 64,98 64,100 62,100 62,102 62,104 64,104 64,106 64,108 66,108 66,110 66,112 66,114 66,116 66,118 68,118 68,120 68,122 70,122 70,124 70,126 68,126 68,128 70,128 70,130 70,132 72,132 72,130 72,128 74,128 74,126 76,126 76,124 78,124 80,124 82,124 84,124 86,124 86,126 84,126 84,128 86,128 86,130 86,132 88,132 88,130 88,128 90,128 90,126 92,126 92,124 92,122 90,122 90,120 90,118 90,116 90,114 90,112 90,110 92,110 92,112 92,114 94,114 94,112 94,110 96,110 96,108"/><rect x="96" y="110" width="2" height="2"/></g><g fill="#010101"><rect x="44" y="112" width="2" height="2"/><polygon points="46,108 44,108 44,106 42,106 42,104 42,102 42,100 42,98 44,98 44,96 44,94 44,92 44,90 44,88 44,86 42,86 42,84 40,84 40,82 38,82 36,82 34,82 34,80 32,80 30,80 28,80 26,80 24,80 24,82 22,82 22,84 20,84 20,86 20,88 18,88 18,86 18,84 16,84 16,82 16,80 16,78 14,78 14,80 12,80 10,80 10,82 8,82 6,82 6,84 4,84 4,86 2,86 2,88 0,88 0,90 0,92 2,92 4,92 4,90 6,90 6,92 8,92 8,94 10,94 12,94 12,92 14,92 16,92 16,94 18,94 18,96 18,98 16,98 16,100 14,100 14,102 12,102 12,104 10,104 8,104 8,106 10,106 12,106 12,108 14,108 14,106 16,106 16,104 18,104 18,106 18,108 16,108 16,110 16,112 16,114 16,116 16,118 16,120 18,120 18,122 20,122 20,124 20,126 18,126 18,128 20,128 20,130 20,132 22,132 22,130 22,128 24,128 24,126 26,126 28,126 30,126 32,126 34,126 34,128 36,128 36,130 36,132 38,132 38,130 38,128 40,128 40,126 42,126 42,124 42,122 40,122 40,120 40,118 40,116 40,114 40,112 40,110 42,110 42,112 44,112 44,110 46,110 48,110 48,108"/><rect x="10" y="108" width="2" height="2"/></g><polygon fill="#010101" points="190,12 190,10 188,10 188,8 186,8 184,8 182,8 180,8 180,6 180,4 178,4 178,2 176,2 176,4 174,4 174,6 172,6 172,4 172,2 170,2 170,4 168,4 166,4 166,6 164,6 162,6 162,8 160,8 160,10 158,10 158,12 156,12 156,14 156,16 158,16 160,16 160,14 162,14 162,16 164,16 164,18 166,18 168,18 168,16 170,16 172,16 172,18 174,18 174,20 172,20 172,22 170,22 170,24 168,24 166,24 166,26 168,26 170,26 170,28 168,28 168,30 168,32 166,32 166,34 166,36 168,36 170,36 170,38 168,38 168,40 168,42 168,44 168,46 166,46 166,48 168,48 168,50 168,52 170,52 170,50 170,48 172,48 172,50 174,50 174,52 174,54 176,54 176,52 176,50 178,50 178,48 180,48 182,48 182,46 184,46 184,44 184,42 184,40 186,40 186,38 186,36 186,34 188,34 188,32 188,30 188,28 188,26 190,26 190,24 190,22 190,20 192,20 192,18 192,16 192,14 192,12"/><g fill="#010101"><rect x="134" y="46" width="2" height="2"/><polygon points="134,20 134,18 132,18 130,18 128,18 128,20 126,20 126,22 124,22 124,24 122,24 122,22 122,20 122,18 120,18 120,20 118,20 116,20 116,22 114,22 112,22 112,24 110,24 110,26 108,26 108,28 106,28 106,30 106,32 108,32 110,32 110,30 112,30 112,32 114,32 114,34 116,34 118,34 118,36 120,36 120,38 120,40 120,42 118,42 118,44 118,46 120,46 120,48 120,50 118,50 118,52 118,54 116,54 116,56 116,58 114,58 112,58 112,60 114,60 116,60 116,62 118,62 118,60 120,60 120,58 122,58 122,60 124,60 124,62 124,64 126,64 126,62 126,60 128,60 128,58 126,58 126,56 128,56 128,54 128,52 130,52 130,50 132,50 132,48 132,46 134,46 134,44 132,44 132,42 132,40 132,38 132,36 134,36 134,34 134,32 134,30 134,28 136,28 136,26 136,24 136,22 136,20"/></g><g fill="#010101"><rect x="64" y="37.833" width="2" height="2"/><polygon points="86,35.833 86,33.833 86,31.833 86,29.833 88,29.833 88,27.833 88,25.833 88,23.833 88,21.833 86,21.833 86,19.833 84,19.833 84,17.833 82,17.833 80,17.833 78,17.833 76,17.833 74,17.833 74,19.833 72,19.833 72,21.833 70,21.833 70,19.833 70,17.833 70,15.833 68,15.833 68,17.833 66,17.833 64,17.833 64,19.833 62,19.833 60,19.833 60,21.833 58,21.833 58,23.833 56,23.833 56,25.833 56,27.833 54,27.833 54,29.833 54,31.833 56,31.833 58,31.833 58,29.833 60,29.833 60,27.833 62,27.833 62,29.833 62,31.833 64,31.833 66,31.833 66,33.833 64,33.833 62,33.833 62,35.833 64,35.833 66,35.833 66,37.833 68,37.833 68,39.833 68,41.833 66,41.833 66,43.833 66,45.833 66,47.833 64,47.833 64,49.833 64,51.833 66,51.833 66,53.833 66,55.833 66,57.833 64,57.833 64,59.833 66,59.833 66,61.833 66,63.833 68,63.833 68,61.833 68,59.833 70,59.833 70,57.833 72,57.833 74,57.833 76,57.833 78,57.833 78,59.833 80,59.833 82,59.833 82,61.833 84,61.833 84,59.833 86,59.833 88,59.833 88,57.833 86,57.833 84,57.833 84,55.833 82,55.833 82,53.833 80,53.833 80,51.833 80,49.833 82,49.833 82,47.833 82,45.833 82,43.833 84,43.833 86,43.833 86,41.833 86,39.833 88,39.833 88,37.833 86,37.833"/><rect x="88" y="35.833" width="2" height="2"/></g><g fill="#010101"><polygon points="46,34 46,32 44,32 44,34 44,36 42,36 42,38 40,38 38,38 38,36 38,34 38,32 38,30 40,30 40,28 40,26 40,24 38,24 38,22 36,22 36,20 34,20 32,20 32,18 30,18 28,18 28,16 26,16 24,16 22,16 20,16 20,18 18,18 18,20 16,20 16,18 14,18 14,20 12,20 12,22 10,22 10,24 10,26 8,26 8,28 8,30 6,30 6,32 6,34 4,34 2,34 2,36 4,36 6,36 6,38 8,38 8,36 10,36 10,34 12,34 12,36 12,38 10,38 10,40 10,42 10,44 8,44 8,46 8,48 6,48 6,46 4,46 4,48 2,48 0,48 0,50 2,50 4,50 4,52 6,52 6,54 8,54 10,54 10,52 12,52 14,52 14,54 16,54 18,54 18,56 20,56 22,56 22,58 24,58 26,58 26,60 28,60 28,62 28,64 30,64 30,62 30,60 32,60 32,58 34,58 34,56 34,54 32,54 32,52 32,50 32,48 34,48 34,46 34,44 34,42 36,42 38,42 38,44 40,44 42,44 42,42 44,42 46,42 46,40 46,38 48,38 48,36 46,36"/><rect x="48" y="34" width="2" height="2"/><rect x="4" y="38" width="2" height="2"/></g><polygon fill="#C9262F" points="18,90 18,88 16,88 16,86 14,86 14,88 14,90 16,90 16,92 18,92"/><polygon fill="#C9262F" points="10,90 10,88 10,86 8,86 6,86 6,88 6,90 8,90"/><rect x="10" y="84" fill="#C9262F" width="2" height="2"/><rect x="42" y="108" fill="#2075BC" width="2" height="2"/><polygon fill="#939598" points="38,124 38,126 40,126 40,124 40,122 38,122"/><rect x="36" y="126" fill="#939598" width="2" height="2"/><polygon fill="#C7AB2E" points="30,90 30,92 32,92 34,92 34,90 32,90"/><polygon fill="#C7AB2E" points="36,94 38,94 38,92 36,92 34,92 34,94"/><polygon fill="#FFDE11" points="38,94 36,94 34,94 34,92 32,92 30,92 30,94 30,96 28,96 28,98 28,100 28,102 28,104 28,106 28,108 26,108 26,110 26,112 26,114 28,114 30,114 30,116 32,116 34,116 34,114 34,112 34,110 36,110 36,108 36,106 36,104 36,102 36,100 36,98 38,98 38,96"/><rect x="24" y="82" fill="#BDBEC0" width="2" height="2"/><rect x="22" y="84" fill="#BDBEC0" width="2" height="2"/><polygon fill="#939598" points="24,92 24,90 24,88 24,86 22,86 22,88 22,90 22,92 22,94 22,96 24,96 24,94"/><polygon fill="#939598" points="22,106 22,104 20,104 20,106 20,108 22,108"/><polygon fill="#939598" points="20,118 20,116 20,114 20,112 20,110 20,108 18,108 18,110 18,112 18,114 18,116 18,118 18,120 20,120"/><polygon fill="#424143" points="30,82 28,82 28,84 26,84 26,86 26,88 26,90 26,92 26,94 26,96 28,96 28,94 28,92 28,90 28,88 30,88 32,88 34,88 34,90 36,90 38,90 40,90 40,92 40,94 40,96 40,98 42,98 42,96 42,94 42,92 42,90 42,88 42,86 40,86 40,84 38,84 36,84 34,84 34,82 32,82"/><polygon fill="#424143" points="40,106 40,104 40,102 40,100 40,98 38,98 38,100 38,102 38,104 38,106 38,108 38,110 40,110 40,108"/><polygon fill="#424143" points="36,112 36,114 36,116 36,118 34,118 32,118 30,118 30,116 28,116 26,116 26,114 24,114 24,112 24,110 24,108 22,108 22,110 22,112 22,114 22,116 22,118 22,120 24,120 24,122 26,122 28,122 30,122 30,124 32,124 34,124 36,124 36,122 38,122 38,120 38,118 38,116 38,114 38,112 38,110 36,110"/><polygon fill="#424143" points="26,106 26,104 26,102 26,100 26,98 26,96 24,96 24,98 24,100 24,102 24,104 24,106 24,108 26,108"/><polygon fill="#939598" points="24,122 22,122 22,124 22,126 24,126 24,124"/><rect x="20" y="120" fill="#939598" width="2" height="2"/><rect x="20" y="126" fill="#939598" width="2" height="2"/><rect x="16" y="100" fill="#2075BC" width="2" height="2"/><rect x="18" y="100" fill="#939598" width="2" height="2"/><rect x="20" y="98" fill="#939598" width="2" height="2"/><rect x="20" y="102" fill="#6E6F72" width="2" height="2"/><rect x="14" y="102" fill="#939598" width="2" height="2"/><rect x="12" y="104" fill="#2075BC" width="2" height="2"/><rect x="10" y="82" fill="#EF664F" width="2" height="2"/><polygon fill="#EF664F" points="8,86 10,86 10,84 8,84 6,84 6,86"/><rect x="4" y="86" fill="#EF664F" width="2" height="2"/><rect x="2" y="88" fill="#EF664F" width="2" height="2"/><rect x="14" y="84" fill="#EF664F" width="2" height="2"/><rect x="18" y="92" fill="#951B1F" width="2" height="2"/><rect x="10" y="90" fill="#951B1F" width="2" height="2"/><polygon fill="#951B1F" points="12,88 12,90 14,90 14,88 14,86 12,86"/><rect x="66" y="104" width="2" height="2" fill="none"/><polygon fill="#C9262F" points="60,88 60,86 62,86 62,84 62,82 60,82 60,84 58,84 58,86 58,88 58,90 60,90"/><polygon fill="#C9262F" points="66,86 64,86 64,88 66,88 68,88 68,86 68,84 66,84"/><polygon fill="#939598" points="88,124 88,126 90,126 90,124 90,122 88,122"/><rect x="86" y="126" fill="#939598" width="2" height="2"/><rect x="92" y="108" fill="#2075BC" width="2" height="2"/><polygon fill="#C7AB2E" points="80,88 80,90 82,90 84,90 84,88 82,88"/><polygon fill="#C7AB2E" points="86,92 88,92 88,90 86,90 84,90 84,92"/><polygon fill="#FFDE11" points="78,98 78,100 78,102 78,104 78,106 76,106 76,108 76,110 76,112 78,112 80,112 80,114 82,114 84,114 84,112 84,110 84,108 86,108 86,106 86,104 86,102 86,100 86,98 86,96 88,96 88,94 88,92 86,92 84,92 84,90 82,90 80,90 80,92 80,94 78,94 78,96"/><rect x="74" y="80" fill="#BDBEC0" width="2" height="2"/><rect x="72" y="82" fill="#BDBEC0" width="2" height="2"/><polygon fill="#939598" points="74,90 74,88 74,86 74,84 72,84 72,86 72,88 72,90 72,92 72,94 74,94 74,92"/><polygon fill="#939598" points="72,102 70,102 70,104 70,106 72,106 72,104"/><polygon fill="#939598" points="70,116 70,114 70,112 70,110 70,108 70,106 68,106 68,108 68,110 68,112 68,114 68,116 68,118 70,118"/><polygon fill="#424143" points="80,80 78,80 78,82 76,82 76,84 76,86 76,88 76,90 76,92 76,94 78,94 78,92 78,90 78,88 78,86 80,86 82,86 84,86 84,88 86,88 88,88 90,88 90,90 90,92 90,94 90,96 92,96 92,94 92,92 92,90 92,88 92,86 92,84 90,84 90,82 88,82 86,82 84,82 84,80 82,80"/><polygon fill="#424143" points="88,98 88,100 88,102 88,104 88,106 88,108 90,108 90,106 90,104 90,102 90,100 90,98 90,96 88,96"/><polygon fill="#424143" points="86,110 86,112 86,114 86,116 84,116 82,116 80,116 80,114 78,114 76,114 76,112 74,112 74,110 74,108 74,106 72,106 72,108 72,110 72,112 72,114 72,116 72,118 74,118 74,120 76,120 78,120 80,120 80,122 82,122 84,122 86,122 86,120 88,120 88,118 88,116 88,114 88,112 88,110 88,108 86,108"/><polygon fill="#424143" points="76,104 76,102 76,100 76,98 76,96 76,94 74,94 74,96 74,98 74,100 74,102 74,104 74,106 76,106"/><polygon fill="#939598" points="74,122 72,122 72,124 72,126 74,126 74,124"/><rect x="70" y="120" fill="#939598" width="2" height="2"/><rect x="70" y="126" fill="#939598" width="2" height="2"/><rect x="66" y="98" fill="#2075BC" width="2" height="2"/><rect x="68" y="98" fill="#939598" width="2" height="2"/><rect x="70" y="96" fill="#939598" width="2" height="2"/><rect x="70" y="100" fill="#6E6F72" width="2" height="2"/><rect x="64" y="102" fill="#2075BC" width="2" height="2"/><polygon fill="#EF664F" points="62,82 64,82 64,80 62,80 60,80 60,82"/><rect x="58" y="82" fill="#EF664F" width="2" height="2"/><polygon fill="#EF664F" points="56,88 58,88 58,86 58,84 56,84 56,86"/><rect x="54" y="88" fill="#EF664F" width="2" height="2"/><polygon fill="#951B1F" points="62,88 60,88 60,90 60,92 62,92 62,90"/><polygon fill="#951B1F" points="64,84 64,86 66,86 66,84 66,82 64,82"/><rect x="62" y="86" fill="#951B1F" width="2" height="2"/><polygon fill="#951B1F" points="70,90 70,88 68,88 68,90 68,92 70,92"/><polygon fill="#C9262F" points="16,22 14,22 14,24 14,26 16,26 16,24"/><rect x="12" y="26" fill="#C9262F" width="2" height="2"/><polygon fill="#EF664F" points="12,26 14,26 14,24 14,22 12,22 12,24"/><rect x="10" y="26" fill="#EF664F" width="2" height="2"/><polygon fill="#424143" points="24,18 24,20 22,20 22,22 22,24 22,26 24,26 24,24 24,22 26,22 28,22 28,24 30,24 32,24 32,26 34,26 36,26 36,28 36,30 38,30 38,28 38,26 38,24 36,24 36,22 34,22 32,22 32,20 30,20 28,20 28,18 26,18"/><polygon fill="#424143" points="20,28 20,30 20,32 22,32 22,30 22,28 22,26 20,26"/><polygon fill="#424143" points="20,34 20,32 18,32 18,34 18,36 18,38 20,38 20,36"/><polygon fill="#424143" points="18,40 18,38 16,38 16,40 16,42 16,44 18,44 18,42"/><polygon fill="#424143" points="28,50 28,52 26,52 26,50 24,50 22,50 22,48 20,48 18,48 18,46 16,46 16,44 14,44 14,46 14,48 14,50 16,50 16,52 18,52 20,52 20,54 22,54 24,54 24,56 26,56 28,56 28,54 30,54 30,52 30,50 30,48 28,48"/><polygon fill="#424143" points="32,44 32,42 30,42 30,44 30,46 30,48 32,48 32,46"/><polygon fill="#424143" points="34,38 34,36 32,36 32,38 32,40 32,42 34,42 34,40"/><polygon fill="#424143" points="34,32 34,34 34,36 36,36 36,34 36,32 36,30 34,30"/><rect x="20" y="18" fill="#BDBEC0" width="2" height="2"/><rect x="18" y="20" fill="#BDBEC0" width="2" height="2"/><polygon fill="#939598" points="20,24 20,22 18,22 18,24 18,26 20,26"/><polygon fill="#939598" points="18,30 18,28 18,26 16,26 16,28 16,30 16,32 18,32"/><polygon fill="#939598" points="16,36 16,34 16,32 14,32 14,34 14,36 14,38 16,38"/><polygon fill="#939598" points="12,42 12,44 14,44 14,42 14,40 14,38 12,38 12,40"/><polygon fill="#939598" points="10,48 10,50 12,50 12,48 12,46 12,44 10,44 10,46"/><rect x="32" y="28" fill="#C7AB2E" width="2" height="2"/><polygon fill="#C7AB2E" points="28,26 28,28 30,28 32,28 32,26 30,26"/><rect x="26" y="24" fill="#C7AB2E" width="2" height="2"/><polygon fill="#FFDE11" points="32,32 32,30 32,28 30,28 28,28 28,26 26,26 24,26 24,28 24,30 24,32 22,32 22,34 22,36 22,38 20,38 20,40 20,42 20,44 18,44 18,46 20,46 22,46 22,48 24,48 26,48 28,48 28,46 28,44 28,42 30,42 30,40 30,38 30,36 32,36 32,34"/><rect x="36" y="38" fill="#939598" width="2" height="2"/><rect x="38" y="40" fill="#2075BC" width="2" height="2"/><rect x="40" y="40" fill="#939598" width="2" height="2"/><rect x="42" y="38" fill="#939598" width="2" height="2"/><rect x="44" y="36" fill="#2075BC" width="2" height="2"/><rect x="10" y="30" fill="#2075BC" width="2" height="2"/><rect x="12" y="30" fill="#939598" width="2" height="2"/><rect x="8" y="32" fill="#939598" width="2" height="2"/><rect x="6" y="34" fill="#2075BC" width="2" height="2"/><polygon fill="#939598" points="30,56 30,58 32,58 32,56 32,54 30,54"/><rect x="28" y="58" fill="#939598" width="2" height="2"/><polygon fill="#939598" points="8,50 6,50 6,52 8,52 10,52 10,50"/><rect x="4" y="48" fill="#939598" width="2" height="2"/><rect x="66" y="29.833" width="2" height="2" fill="none"/><polygon fill="#C9262F" points="68,27.833 70,27.833 72,27.833 72,25.833 70,25.833 70,23.833 68,23.833 68,25.833"/><rect x="64" y="21.833" fill="#C9262F" width="2" height="2"/><polygon fill="#C9262F" points="64,25.833 64,23.833 62,23.833 60,23.833 60,25.833 62,25.833 62,27.833 64,27.833"/><polygon fill="#939598" points="78,55.833 78,57.833 80,57.833 82,57.833 82,55.833 80,55.833"/><rect x="82" y="57.833" fill="#939598" width="2" height="2"/><rect x="68" y="31.833" fill="#939598" width="2" height="2"/><rect x="66" y="33.833" fill="#2075BC" width="2" height="2"/><polygon fill="#424143" points="80,19.833 80,21.833 80,23.833 80,25.833 80,27.833 82,27.833 82,25.833 82,23.833 84,23.833 86,23.833 86,21.833 84,21.833 84,19.833 82,19.833"/><polygon fill="#424143" points="78,31.833 78,33.833 80,33.833 80,31.833 80,29.833 80,27.833 78,27.833 78,29.833"/><rect x="76" y="39.833" fill="#424143" width="2" height="2"/><polygon fill="#424143" points="76,43.833 76,41.833 74,41.833 74,43.833 74,45.833 74,47.833 76,47.833 76,45.833"/><polygon fill="#424143" points="74,47.833 72,47.833 72,49.833 72,51.833 72,53.833 74,53.833 74,55.833 76,55.833 78,55.833 78,53.833 78,51.833 76,51.833 76,49.833 74,49.833"/><polygon fill="#BDBEC0" points="74,23.833 76,23.833 78,23.833 78,21.833 78,19.833 76,19.833 74,19.833 74,21.833"/><polygon fill="#939598" points="72,31.833 72,33.833 74,33.833 74,31.833 76,31.833 76,29.833 76,27.833 78,27.833 78,25.833 78,23.833 76,23.833 74,23.833 74,25.833 74,27.833 72,27.833 72,29.833"/><polygon fill="#939598" points="70,51.833 70,49.833 70,47.833 72,47.833 72,45.833 72,43.833 72,41.833 74,41.833 74,39.833 74,37.833 72,37.833 72,35.833 72,33.833 70,33.833 70,35.833 70,37.833 70,39.833 70,41.833 68,41.833 68,43.833 68,45.833 68,47.833 66,47.833 66,49.833 66,51.833 68,51.833"/><polygon fill="#C7AB2E" points="86,25.833 84,25.833 84,27.833 82,27.833 82,29.833 84,29.833 86,29.833 86,27.833"/><polygon fill="#FFDE11" points="82,33.833 80,33.833 80,35.833 82,35.833 84,35.833 84,33.833 84,31.833 84,29.833 82,29.833 82,31.833"/><polygon fill="#FFDE11" points="80,41.833 78,41.833 78,43.833 78,45.833 78,47.833 76,47.833 76,49.833 78,49.833 80,49.833 80,47.833 80,45.833 80,43.833 82,43.833 82,41.833"/><rect x="74" y="33.833" fill="#939598" width="2" height="2"/><rect x="72" y="35.833" fill="#6E6F72" width="2" height="2"/><rect x="74" y="37.833" fill="#6E6F72" width="2" height="2"/><rect x="76" y="35.833" fill="#939598" width="2" height="2"/><rect x="78" y="37.833" fill="#2075BC" width="2" height="2"/><rect x="80" y="37.833" fill="#939598" width="2" height="2"/><rect x="82" y="39.833" fill="#939598" width="2" height="2"/><rect x="84" y="37.833" fill="#2075BC" width="2" height="2"/><polygon fill="#939598" points="70,53.833 68,53.833 68,55.833 68,57.833 70,57.833 70,55.833"/><rect x="66" y="57.833" fill="#939598" width="2" height="2"/><rect x="64" y="19.833" fill="#EF664F" width="2" height="2"/><polygon fill="#EF664F" points="62,23.833 64,23.833 64,21.833 62,21.833 60,21.833 60,23.833"/><polygon fill="#EF664F" points="58,27.833 60,27.833 60,25.833 60,23.833 58,23.833 58,25.833"/><rect x="56" y="27.833" fill="#EF664F" width="2" height="2"/><rect x="68" y="21.833" fill="#EF664F" width="2" height="2"/><polygon fill="#951B1F" points="66,27.833 68,27.833 68,25.833 68,23.833 66,23.833 66,25.833"/><rect x="64" y="27.833" fill="#951B1F" width="2" height="2"/><rect x="116" y="30" fill="#951B1F" width="2" height="2"/><rect x="122" y="30" fill="#951B1F" width="2" height="2"/><polygon fill="#951B1F" points="118,30 120,30 120,28 120,26 118,26 118,28"/><polygon fill="#951B1F" points="124,36 124,34 122,34 122,32 120,32 118,32 118,34 120,34 120,36 122,36"/><polygon fill="#951B1F" points="124,28 126,28 126,26 126,24 124,24 124,26"/><rect x="130" y="44" fill="#2075BC" width="2" height="2"/><polygon fill="#939598" points="128,48 128,46 126,46 124,46 124,48 126,48 126,50 124,50 124,52 124,54 122,54 122,56 124,56 126,56 126,54 126,52 128,52 128,50"/><rect x="122" y="48" fill="#939598" width="2" height="2"/><polygon fill="#939598" points="128,40 128,42 126,42 126,44 128,44 130,44 130,42 130,40 130,38 128,38"/><polygon fill="#939598" points="134,24 132,24 130,24 128,24 128,26 128,28 126,28 126,30 126,32 128,32 128,34 130,34 130,36 132,36 132,34 132,32 132,30 132,28 134,28 134,26"/><polygon fill="#BDBEC0" points="128,24 130,24 132,24 134,24 134,22 134,20 132,20 130,20 128,20 128,22"/><rect x="116" y="58" fill="#939598" width="2" height="2"/><polygon fill="#939598" points="120,54 118,54 118,56 118,58 120,58 120,56"/><polygon fill="#939598" points="120,54 122,54 122,52 122,50 120,50 120,52"/><rect x="124" y="58" fill="#939598" width="2" height="2"/><rect x="126" y="34" fill="#939598" width="2" height="2"/><rect x="128" y="36" fill="#6E6F72" width="2" height="2"/><polygon fill="#6E6F72" points="126,40 126,42 128,42 128,40 128,38 126,38"/><rect x="124" y="42" fill="#6E6F72" width="2" height="2"/><rect x="124" y="36" fill="#939598" width="2" height="2"/><rect x="122" y="38" fill="#2075BC" width="2" height="2"/><rect x="122" y="40" fill="#939598" width="2" height="2"/><rect x="120" y="42" fill="#939598" width="2" height="2"/><rect x="122" y="44" fill="#2075BC" width="2" height="2"/><rect x="116" y="22" fill="#EF664F" width="2" height="2"/><polygon fill="#EF664F" points="114,26 116,26 116,24 114,24 112,24 112,26"/><rect x="110" y="26" fill="#EF664F" width="2" height="2"/><rect x="108" y="28" fill="#EF664F" width="2" height="2"/><rect x="120" y="24" fill="#EF664F" width="2" height="2"/><polygon fill="#C9262F" points="120,30 122,30 124,30 124,28 122,28 122,26 120,26 120,28"/><polygon fill="#C9262F" points="116,30 116,28 116,26 114,26 112,26 112,28 112,30 114,30"/><rect x="116" y="24" fill="#C9262F" width="2" height="2"/><rect x="172" y="46" width="2" height="2" fill="none"/><polygon fill="#951B1F" points="170,10 168,10 168,12 168,14 170,14 170,12"/><rect x="174" y="16" fill="#951B1F" width="2" height="2"/><rect x="166" y="14" fill="#951B1F" width="2" height="2"/><polygon fill="#951B1F" points="174,10 174,12 174,14 176,14 176,12 176,10 178,10 178,8 178,6 178,4 176,4 176,6 174,6 174,8"/><rect x="174" y="48" fill="#939598" width="2" height="2"/><rect x="170" y="44" fill="#939598" width="2" height="2"/><rect x="168" y="46" fill="#939598" width="2" height="2"/><polygon fill="#424143" points="184,10 184,12 184,14 184,16 184,18 186,18 186,16 186,14 188,14 190,14 190,12 188,12 188,10 186,10"/><polygon fill="#424143" points="184,20 184,18 182,18 182,20 182,22 182,24 184,24 184,22"/><polygon fill="#424143" points="182,28 182,26 182,24 180,24 180,26 180,28 180,30 180,32 182,32 182,30"/><polygon fill="#424143" points="180,34 180,32 178,32 178,34 178,36 178,38 180,38 180,36"/><polygon fill="#424143" points="182,42 180,42 180,40 178,40 178,38 176,38 176,40 176,42 176,44 178,44 178,46 180,46 182,46 182,44"/><polygon fill="#BDBEC0" points="178,14 180,14 182,14 182,12 182,10 180,10 178,10 178,12"/><polygon fill="#939598" points="180,24 180,22 180,20 180,18 182,18 182,16 182,14 180,14 178,14 178,16 178,18 176,18 176,20 176,22 176,24 178,24"/><polygon fill="#939598" points="176,34 176,32 178,32 178,30 178,28 178,26 176,26 176,28 174,28 174,30 174,32 172,32 172,34 174,34"/><polygon fill="#939598" points="174,36 172,36 172,38 174,38 176,38 176,36"/><polygon fill="#939598" points="170,42 172,42 174,42 174,40 172,40 172,38 170,38 170,40"/><polygon fill="#C7AB2E" points="190,16 188,16 188,18 186,18 186,20 188,20 190,20 190,18"/><polygon fill="#FFDE11" points="188,22 188,20 186,20 186,22 186,24 184,24 184,26 184,28 184,30 184,32 182,32 182,34 182,36 182,38 180,38 180,40 182,40 184,40 184,38 184,36 184,34 186,34 186,32 186,30 186,28 186,26 188,26 188,24"/><rect x="174" y="24" fill="#939598" width="2" height="2"/><rect x="172" y="22" fill="#6E6F72" width="2" height="2"/><rect x="170" y="24" fill="#6E6F72" width="2" height="2"/><rect x="172" y="26" fill="#939598" width="2" height="2"/><rect x="170" y="28" fill="#2075BC" width="2" height="2"/><rect x="170" y="30" fill="#939598" width="2" height="2"/><rect x="168" y="32" fill="#939598" width="2" height="2"/><rect x="170" y="34" fill="#2075BC" width="2" height="2"/><rect x="166" y="6" fill="#EF664F" width="2" height="2"/><polygon fill="#EF664F" points="164,10 166,10 166,8 164,8 162,8 162,10"/><rect x="160" y="10" fill="#EF664F" width="2" height="2"/><rect x="158" y="12" fill="#EF664F" width="2" height="2"/><rect x="170" y="8" fill="#EF664F" width="2" height="2"/><polygon fill="#C9262F" points="172,10 170,10 170,12 170,14 172,14 172,12"/><rect x="172" y="14" fill="#C9262F" width="2" height="2"/><polygon fill="#C9262F" points="166,14 166,12 166,10 164,10 162,10 162,12 162,14 164,14"/><rect x="166" y="8" fill="#C9262F" width="2" height="2"/></svg>